G04*
G04 #@! TF.GenerationSoftware,Altium Limited,Altium Designer,26.8.1 (31)*
G04*
G04 Layer_Physical_Order=2*
G04 Layer_Color=16711680*
G04 Board_Origin=7000000|3100000*
%FSLAX44Y44*%
%MOMM*%
G71*
G04*
G04 #@! TF.SameCoordinates,1285140B-0727-43AA-A1E4-543660A9A239*
G04*
G04*
G04 #@! TF.FilePolarity,Positive*
G04*
G01*
G75*
%ADD16C,2.6250*%
%ADD17R,2.6250X2.6250*%
%ADD18C,2.5400*%
%ADD19C,2.0000*%
%ADD20R,2.0000X2.0000*%
%ADD21C,1.9800*%
%ADD22C,1.6510*%
%ADD23C,1.6000*%
%ADD24R,1.6000X1.6000*%
%ADD25C,1.2000*%
%ADD26C,1.0000*%
%ADD27R,1.7500X1.7500*%
%ADD28C,1.7500*%
%ADD29C,3.2000*%
%ADD31R,2.1000X2.1000*%
%ADD32C,2.1000*%
G36*
X1651000Y12700D02*
X12700D01*
Y1257300D01*
X1651000D01*
Y12700D01*
D02*
G37*
%LPC*%
G36*
X1617266Y1240280D02*
X1613614D01*
X1610032Y1239567D01*
X1606658Y1238170D01*
X1603621Y1236141D01*
X1601039Y1233559D01*
X1599010Y1230522D01*
X1597612Y1227148D01*
X1596900Y1223566D01*
Y1219914D01*
X1597612Y1216332D01*
X1599010Y1212958D01*
X1601039Y1209921D01*
X1603621Y1207339D01*
X1606658Y1205310D01*
X1610032Y1203913D01*
X1613614Y1203200D01*
X1617266D01*
X1620848Y1203913D01*
X1624222Y1205310D01*
X1627259Y1207339D01*
X1629841Y1209921D01*
X1631870Y1212958D01*
X1633268Y1216332D01*
X1633980Y1219914D01*
Y1223566D01*
X1633268Y1227148D01*
X1631870Y1230522D01*
X1629841Y1233559D01*
X1627259Y1236141D01*
X1624222Y1238170D01*
X1620848Y1239567D01*
X1617266Y1240280D01*
D02*
G37*
G36*
X52626D02*
X48974D01*
X45392Y1239567D01*
X42018Y1238170D01*
X38981Y1236141D01*
X36399Y1233559D01*
X34370Y1230522D01*
X32973Y1227148D01*
X32260Y1223566D01*
Y1219914D01*
X32973Y1216332D01*
X34370Y1212958D01*
X36399Y1209921D01*
X38981Y1207339D01*
X42018Y1205310D01*
X45392Y1203913D01*
X48974Y1203200D01*
X52626D01*
X56208Y1203913D01*
X59582Y1205310D01*
X62619Y1207339D01*
X65201Y1209921D01*
X67230Y1212958D01*
X68628Y1216332D01*
X69340Y1219914D01*
Y1223566D01*
X68628Y1227148D01*
X67230Y1230522D01*
X65201Y1233559D01*
X62619Y1236141D01*
X59582Y1238170D01*
X56208Y1239567D01*
X52626Y1240280D01*
D02*
G37*
G36*
X1454635Y1103884D02*
X1451633D01*
X1448689Y1103298D01*
X1445915Y1102150D01*
X1443419Y1100482D01*
X1441296Y1098359D01*
X1439628Y1095863D01*
X1438480Y1093089D01*
X1437894Y1090145D01*
Y1087143D01*
X1438480Y1084199D01*
X1439628Y1081425D01*
X1441296Y1078929D01*
X1443419Y1076806D01*
X1445915Y1075138D01*
X1448689Y1073990D01*
X1451633Y1073404D01*
X1454635D01*
X1457579Y1073990D01*
X1460353Y1075138D01*
X1462849Y1076806D01*
X1464972Y1078929D01*
X1466640Y1081425D01*
X1467788Y1084199D01*
X1468374Y1087143D01*
Y1090145D01*
X1467788Y1093089D01*
X1466640Y1095863D01*
X1464972Y1098359D01*
X1462849Y1100482D01*
X1460353Y1102150D01*
X1457579Y1103298D01*
X1454635Y1103884D01*
D02*
G37*
G36*
X1133748D02*
X1130746D01*
X1127802Y1103298D01*
X1125029Y1102150D01*
X1122533Y1100482D01*
X1120410Y1098359D01*
X1118742Y1095863D01*
X1117593Y1093089D01*
X1117007Y1090145D01*
Y1087143D01*
X1117593Y1084199D01*
X1118742Y1081425D01*
X1120410Y1078929D01*
X1122533Y1076806D01*
X1125029Y1075138D01*
X1127802Y1073990D01*
X1130746Y1073404D01*
X1133748D01*
X1136693Y1073990D01*
X1139466Y1075138D01*
X1141962Y1076806D01*
X1144085Y1078929D01*
X1145753Y1081425D01*
X1146902Y1084199D01*
X1147487Y1087143D01*
Y1090145D01*
X1146902Y1093089D01*
X1145753Y1095863D01*
X1144085Y1098359D01*
X1141962Y1100482D01*
X1139466Y1102150D01*
X1136693Y1103298D01*
X1133748Y1103884D01*
D02*
G37*
G36*
X649455D02*
X646453D01*
X643509Y1103298D01*
X640735Y1102150D01*
X638239Y1100482D01*
X636116Y1098359D01*
X634449Y1095863D01*
X633300Y1093089D01*
X632714Y1090145D01*
Y1087143D01*
X633300Y1084199D01*
X634449Y1081425D01*
X636116Y1078929D01*
X638239Y1076806D01*
X640735Y1075138D01*
X643509Y1073990D01*
X646453Y1073404D01*
X649455D01*
X652399Y1073990D01*
X655173Y1075138D01*
X657669Y1076806D01*
X659792Y1078929D01*
X661460Y1081425D01*
X662608Y1084199D01*
X663194Y1087143D01*
Y1090145D01*
X662608Y1093089D01*
X661460Y1095863D01*
X659792Y1098359D01*
X657669Y1100482D01*
X655173Y1102150D01*
X652399Y1103298D01*
X649455Y1103884D01*
D02*
G37*
G36*
X874174Y1075340D02*
X871926D01*
X869754Y1074758D01*
X867806Y1073634D01*
X866216Y1072044D01*
X865092Y1070096D01*
X864510Y1067924D01*
Y1065676D01*
X865092Y1063504D01*
X866216Y1061556D01*
X867806Y1059966D01*
X869754Y1058842D01*
X871926Y1058260D01*
X874174D01*
X876346Y1058842D01*
X878294Y1059966D01*
X879884Y1061556D01*
X881008Y1063504D01*
X881590Y1065676D01*
Y1067924D01*
X881008Y1070096D01*
X879884Y1072044D01*
X878294Y1073634D01*
X876346Y1074758D01*
X874174Y1075340D01*
D02*
G37*
G36*
X1477161Y1044575D02*
X1474319D01*
X1471573Y1043839D01*
X1469112Y1042418D01*
X1467102Y1040408D01*
X1465681Y1037947D01*
X1464945Y1035201D01*
Y1032359D01*
X1465681Y1029613D01*
X1467102Y1027152D01*
X1469112Y1025142D01*
X1471573Y1023721D01*
X1474319Y1022985D01*
X1477161D01*
X1479907Y1023721D01*
X1482368Y1025142D01*
X1484378Y1027152D01*
X1485799Y1029613D01*
X1486535Y1032359D01*
Y1035201D01*
X1485799Y1037947D01*
X1484378Y1040408D01*
X1482368Y1042418D01*
X1479907Y1043839D01*
X1477161Y1044575D01*
D02*
G37*
G36*
X1426361D02*
X1423519D01*
X1420773Y1043839D01*
X1418312Y1042418D01*
X1416302Y1040408D01*
X1414881Y1037947D01*
X1414145Y1035201D01*
Y1032359D01*
X1414881Y1029613D01*
X1416302Y1027152D01*
X1418312Y1025142D01*
X1420773Y1023721D01*
X1423519Y1022985D01*
X1426361D01*
X1429107Y1023721D01*
X1431568Y1025142D01*
X1433578Y1027152D01*
X1434999Y1029613D01*
X1435735Y1032359D01*
Y1035201D01*
X1434999Y1037947D01*
X1433578Y1040408D01*
X1431568Y1042418D01*
X1429107Y1043839D01*
X1426361Y1044575D01*
D02*
G37*
G36*
X1156275D02*
X1153432D01*
X1150687Y1043839D01*
X1148225Y1042418D01*
X1146215Y1040408D01*
X1144794Y1037947D01*
X1144058Y1035201D01*
Y1032359D01*
X1144794Y1029613D01*
X1146215Y1027152D01*
X1148225Y1025142D01*
X1150687Y1023721D01*
X1153432Y1022985D01*
X1156275D01*
X1159020Y1023721D01*
X1161482Y1025142D01*
X1163492Y1027152D01*
X1164913Y1029613D01*
X1165648Y1032359D01*
Y1035201D01*
X1164913Y1037947D01*
X1163492Y1040408D01*
X1161482Y1042418D01*
X1159020Y1043839D01*
X1156275Y1044575D01*
D02*
G37*
G36*
X1105475D02*
X1102632D01*
X1099887Y1043839D01*
X1097425Y1042418D01*
X1095415Y1040408D01*
X1093994Y1037947D01*
X1093258Y1035201D01*
Y1032359D01*
X1093994Y1029613D01*
X1095415Y1027152D01*
X1097425Y1025142D01*
X1099887Y1023721D01*
X1102632Y1022985D01*
X1105475D01*
X1108220Y1023721D01*
X1110682Y1025142D01*
X1112692Y1027152D01*
X1114113Y1029613D01*
X1114848Y1032359D01*
Y1035201D01*
X1114113Y1037947D01*
X1112692Y1040408D01*
X1110682Y1042418D01*
X1108220Y1043839D01*
X1105475Y1044575D01*
D02*
G37*
G36*
X671981D02*
X669139D01*
X666393Y1043839D01*
X663932Y1042418D01*
X661922Y1040408D01*
X660501Y1037947D01*
X659765Y1035201D01*
Y1032359D01*
X660501Y1029613D01*
X661922Y1027152D01*
X663932Y1025142D01*
X666393Y1023721D01*
X669139Y1022985D01*
X671981D01*
X674727Y1023721D01*
X677188Y1025142D01*
X679198Y1027152D01*
X680619Y1029613D01*
X681355Y1032359D01*
Y1035201D01*
X680619Y1037947D01*
X679198Y1040408D01*
X677188Y1042418D01*
X674727Y1043839D01*
X671981Y1044575D01*
D02*
G37*
G36*
X621181D02*
X618339D01*
X615593Y1043839D01*
X613132Y1042418D01*
X611122Y1040408D01*
X609701Y1037947D01*
X608965Y1035201D01*
Y1032359D01*
X609701Y1029613D01*
X611122Y1027152D01*
X613132Y1025142D01*
X615593Y1023721D01*
X618339Y1022985D01*
X621181D01*
X623927Y1023721D01*
X626388Y1025142D01*
X628398Y1027152D01*
X629819Y1029613D01*
X630555Y1032359D01*
Y1035201D01*
X629819Y1037947D01*
X628398Y1040408D01*
X626388Y1042418D01*
X623927Y1043839D01*
X621181Y1044575D01*
D02*
G37*
G36*
X1476893Y821610D02*
X1474907D01*
X1472990Y821096D01*
X1471270Y820104D01*
X1469866Y818700D01*
X1468874Y816980D01*
X1468360Y815063D01*
Y813077D01*
X1468874Y811160D01*
X1469866Y809440D01*
X1471270Y808036D01*
X1472990Y807044D01*
X1474907Y806530D01*
X1476893D01*
X1478810Y807044D01*
X1480530Y808036D01*
X1481933Y809440D01*
X1482926Y811160D01*
X1483440Y813077D01*
Y815063D01*
X1482926Y816980D01*
X1481933Y818700D01*
X1480530Y820104D01*
X1478810Y821096D01*
X1476893Y821610D01*
D02*
G37*
G36*
X621246Y819010D02*
X618274D01*
X615402Y818241D01*
X612828Y816754D01*
X610726Y814652D01*
X609239Y812078D01*
X608470Y809206D01*
Y806234D01*
X609239Y803362D01*
X610726Y800788D01*
X612828Y798686D01*
X615402Y797199D01*
X618274Y796430D01*
X621246D01*
X624118Y797199D01*
X626692Y798686D01*
X628794Y800788D01*
X630281Y803362D01*
X631050Y806234D01*
Y809206D01*
X630281Y812078D01*
X628794Y814652D01*
X626692Y816754D01*
X624118Y818241D01*
X621246Y819010D01*
D02*
G37*
G36*
X570446D02*
X567474D01*
X564602Y818241D01*
X562028Y816754D01*
X559926Y814652D01*
X558439Y812078D01*
X557670Y809206D01*
Y806234D01*
X558439Y803362D01*
X559926Y800788D01*
X562028Y798686D01*
X564602Y797199D01*
X567474Y796430D01*
X570446D01*
X573318Y797199D01*
X575892Y798686D01*
X577994Y800788D01*
X579481Y803362D01*
X580250Y806234D01*
Y809206D01*
X579481Y812078D01*
X577994Y814652D01*
X575892Y816754D01*
X573318Y818241D01*
X570446Y819010D01*
D02*
G37*
G36*
X519646D02*
X516674D01*
X513802Y818241D01*
X511228Y816754D01*
X509126Y814652D01*
X507639Y812078D01*
X506870Y809206D01*
Y806234D01*
X507639Y803362D01*
X509126Y800788D01*
X511228Y798686D01*
X513802Y797199D01*
X516674Y796430D01*
X519646D01*
X522518Y797199D01*
X525092Y798686D01*
X527194Y800788D01*
X528681Y803362D01*
X529450Y806234D01*
Y809206D01*
X528681Y812078D01*
X527194Y814652D01*
X525092Y816754D01*
X522518Y818241D01*
X519646Y819010D01*
D02*
G37*
G36*
X468846D02*
X465874D01*
X463002Y818241D01*
X460428Y816754D01*
X458326Y814652D01*
X456839Y812078D01*
X456070Y809206D01*
Y806234D01*
X456839Y803362D01*
X458326Y800788D01*
X460428Y798686D01*
X463002Y797199D01*
X465874Y796430D01*
X468846D01*
X471718Y797199D01*
X474292Y798686D01*
X476394Y800788D01*
X477881Y803362D01*
X478650Y806234D01*
Y809206D01*
X477881Y812078D01*
X476394Y814652D01*
X474292Y816754D01*
X471718Y818241D01*
X468846Y819010D01*
D02*
G37*
G36*
X418046D02*
X415074D01*
X412202Y818241D01*
X409628Y816754D01*
X407526Y814652D01*
X406039Y812078D01*
X405270Y809206D01*
Y806234D01*
X406039Y803362D01*
X407526Y800788D01*
X409628Y798686D01*
X412202Y797199D01*
X415074Y796430D01*
X418046D01*
X420918Y797199D01*
X423492Y798686D01*
X425594Y800788D01*
X427081Y803362D01*
X427850Y806234D01*
Y809206D01*
X427081Y812078D01*
X425594Y814652D01*
X423492Y816754D01*
X420918Y818241D01*
X418046Y819010D01*
D02*
G37*
G36*
X367246D02*
X364274D01*
X361402Y818241D01*
X358828Y816754D01*
X356726Y814652D01*
X355239Y812078D01*
X354470Y809206D01*
Y806234D01*
X355239Y803362D01*
X356726Y800788D01*
X358828Y798686D01*
X361402Y797199D01*
X364274Y796430D01*
X367246D01*
X370118Y797199D01*
X372692Y798686D01*
X374794Y800788D01*
X376281Y803362D01*
X377050Y806234D01*
Y809206D01*
X376281Y812078D01*
X374794Y814652D01*
X372692Y816754D01*
X370118Y818241D01*
X367246Y819010D01*
D02*
G37*
G36*
X316446D02*
X313474D01*
X310602Y818241D01*
X308028Y816754D01*
X305926Y814652D01*
X304439Y812078D01*
X303670Y809206D01*
Y806234D01*
X304439Y803362D01*
X305926Y800788D01*
X308028Y798686D01*
X310602Y797199D01*
X313474Y796430D01*
X316446D01*
X319318Y797199D01*
X321892Y798686D01*
X323994Y800788D01*
X325481Y803362D01*
X326250Y806234D01*
Y809206D01*
X325481Y812078D01*
X323994Y814652D01*
X321892Y816754D01*
X319318Y818241D01*
X316446Y819010D01*
D02*
G37*
G36*
X265646D02*
X262674D01*
X259802Y818241D01*
X257228Y816754D01*
X255126Y814652D01*
X253639Y812078D01*
X252870Y809206D01*
Y806234D01*
X253639Y803362D01*
X255126Y800788D01*
X257228Y798686D01*
X259802Y797199D01*
X262674Y796430D01*
X265646D01*
X268518Y797199D01*
X271092Y798686D01*
X273194Y800788D01*
X274681Y803362D01*
X275450Y806234D01*
Y809206D01*
X274681Y812078D01*
X273194Y814652D01*
X271092Y816754D01*
X268518Y818241D01*
X265646Y819010D01*
D02*
G37*
G36*
X214846D02*
X211874D01*
X209002Y818241D01*
X206428Y816754D01*
X204326Y814652D01*
X202839Y812078D01*
X202070Y809206D01*
Y806234D01*
X202839Y803362D01*
X204326Y800788D01*
X206428Y798686D01*
X209002Y797199D01*
X211874Y796430D01*
X214846D01*
X217718Y797199D01*
X220292Y798686D01*
X222394Y800788D01*
X223881Y803362D01*
X224650Y806234D01*
Y809206D01*
X223881Y812078D01*
X222394Y814652D01*
X220292Y816754D01*
X217718Y818241D01*
X214846Y819010D01*
D02*
G37*
G36*
X164046D02*
X161074D01*
X158202Y818241D01*
X155628Y816754D01*
X153526Y814652D01*
X152039Y812078D01*
X151270Y809206D01*
Y806234D01*
X152039Y803362D01*
X153526Y800788D01*
X155628Y798686D01*
X158202Y797199D01*
X161074Y796430D01*
X164046D01*
X166918Y797199D01*
X169492Y798686D01*
X171594Y800788D01*
X173081Y803362D01*
X173850Y806234D01*
Y809206D01*
X173081Y812078D01*
X171594Y814652D01*
X169492Y816754D01*
X166918Y818241D01*
X164046Y819010D01*
D02*
G37*
G36*
X1275296Y794880D02*
X1272324D01*
X1269452Y794111D01*
X1266878Y792624D01*
X1264776Y790522D01*
X1263289Y787948D01*
X1262520Y785076D01*
Y782104D01*
X1263289Y779232D01*
X1264776Y776658D01*
X1266878Y774556D01*
X1269452Y773069D01*
X1272324Y772300D01*
X1275296D01*
X1278168Y773069D01*
X1280742Y774556D01*
X1282844Y776658D01*
X1284331Y779232D01*
X1285100Y782104D01*
Y785076D01*
X1284331Y787948D01*
X1282844Y790522D01*
X1280742Y792624D01*
X1278168Y794111D01*
X1275296Y794880D01*
D02*
G37*
G36*
X1224496D02*
X1221524D01*
X1218652Y794111D01*
X1216078Y792624D01*
X1213976Y790522D01*
X1212489Y787948D01*
X1211720Y785076D01*
Y782104D01*
X1212489Y779232D01*
X1213976Y776658D01*
X1216078Y774556D01*
X1218652Y773069D01*
X1221524Y772300D01*
X1224496D01*
X1227368Y773069D01*
X1229942Y774556D01*
X1232044Y776658D01*
X1233531Y779232D01*
X1234300Y782104D01*
Y785076D01*
X1233531Y787948D01*
X1232044Y790522D01*
X1229942Y792624D01*
X1227368Y794111D01*
X1224496Y794880D01*
D02*
G37*
G36*
X1173696D02*
X1170724D01*
X1167852Y794111D01*
X1165278Y792624D01*
X1163176Y790522D01*
X1161689Y787948D01*
X1160920Y785076D01*
Y782104D01*
X1161689Y779232D01*
X1163176Y776658D01*
X1165278Y774556D01*
X1167852Y773069D01*
X1170724Y772300D01*
X1173696D01*
X1176568Y773069D01*
X1179142Y774556D01*
X1181244Y776658D01*
X1182731Y779232D01*
X1183500Y782104D01*
Y785076D01*
X1182731Y787948D01*
X1181244Y790522D01*
X1179142Y792624D01*
X1176568Y794111D01*
X1173696Y794880D01*
D02*
G37*
G36*
X1122896D02*
X1119924D01*
X1117052Y794111D01*
X1114478Y792624D01*
X1112376Y790522D01*
X1110889Y787948D01*
X1110120Y785076D01*
Y782104D01*
X1110889Y779232D01*
X1112376Y776658D01*
X1114478Y774556D01*
X1117052Y773069D01*
X1119924Y772300D01*
X1122896D01*
X1125768Y773069D01*
X1128342Y774556D01*
X1130444Y776658D01*
X1131931Y779232D01*
X1132700Y782104D01*
Y785076D01*
X1131931Y787948D01*
X1130444Y790522D01*
X1128342Y792624D01*
X1125768Y794111D01*
X1122896Y794880D01*
D02*
G37*
G36*
X1072096D02*
X1069124D01*
X1066252Y794111D01*
X1063678Y792624D01*
X1061576Y790522D01*
X1060089Y787948D01*
X1059320Y785076D01*
Y782104D01*
X1060089Y779232D01*
X1061576Y776658D01*
X1063678Y774556D01*
X1066252Y773069D01*
X1069124Y772300D01*
X1072096D01*
X1074968Y773069D01*
X1077542Y774556D01*
X1079644Y776658D01*
X1081131Y779232D01*
X1081900Y782104D01*
Y785076D01*
X1081131Y787948D01*
X1079644Y790522D01*
X1077542Y792624D01*
X1074968Y794111D01*
X1072096Y794880D01*
D02*
G37*
G36*
X1021296D02*
X1018324D01*
X1015452Y794111D01*
X1012878Y792624D01*
X1010776Y790522D01*
X1009289Y787948D01*
X1008520Y785076D01*
Y782104D01*
X1009289Y779232D01*
X1010776Y776658D01*
X1012878Y774556D01*
X1015452Y773069D01*
X1018324Y772300D01*
X1021296D01*
X1024168Y773069D01*
X1026742Y774556D01*
X1028844Y776658D01*
X1030331Y779232D01*
X1031100Y782104D01*
Y785076D01*
X1030331Y787948D01*
X1028844Y790522D01*
X1026742Y792624D01*
X1024168Y794111D01*
X1021296Y794880D01*
D02*
G37*
G36*
X970496D02*
X967524D01*
X964652Y794111D01*
X962078Y792624D01*
X959976Y790522D01*
X958489Y787948D01*
X957720Y785076D01*
Y782104D01*
X958489Y779232D01*
X959976Y776658D01*
X962078Y774556D01*
X964652Y773069D01*
X967524Y772300D01*
X970496D01*
X973368Y773069D01*
X975942Y774556D01*
X978044Y776658D01*
X979531Y779232D01*
X980300Y782104D01*
Y785076D01*
X979531Y787948D01*
X978044Y790522D01*
X975942Y792624D01*
X973368Y794111D01*
X970496Y794880D01*
D02*
G37*
G36*
X919696D02*
X916724D01*
X913852Y794111D01*
X911278Y792624D01*
X909176Y790522D01*
X907689Y787948D01*
X906920Y785076D01*
Y782104D01*
X907689Y779232D01*
X909176Y776658D01*
X911278Y774556D01*
X913852Y773069D01*
X916724Y772300D01*
X919696D01*
X922568Y773069D01*
X925142Y774556D01*
X927244Y776658D01*
X928731Y779232D01*
X929500Y782104D01*
Y785076D01*
X928731Y787948D01*
X927244Y790522D01*
X925142Y792624D01*
X922568Y794111D01*
X919696Y794880D01*
D02*
G37*
G36*
X868896D02*
X865924D01*
X863052Y794111D01*
X860478Y792624D01*
X858376Y790522D01*
X856889Y787948D01*
X856120Y785076D01*
Y782104D01*
X856889Y779232D01*
X858376Y776658D01*
X860478Y774556D01*
X863052Y773069D01*
X865924Y772300D01*
X868896D01*
X871768Y773069D01*
X874342Y774556D01*
X876444Y776658D01*
X877931Y779232D01*
X878700Y782104D01*
Y785076D01*
X877931Y787948D01*
X876444Y790522D01*
X874342Y792624D01*
X871768Y794111D01*
X868896Y794880D01*
D02*
G37*
G36*
X1476893Y716200D02*
X1474907D01*
X1472990Y715686D01*
X1471270Y714694D01*
X1469866Y713290D01*
X1468874Y711570D01*
X1468360Y709653D01*
Y707667D01*
X1468874Y705750D01*
X1469866Y704030D01*
X1471270Y702626D01*
X1472990Y701634D01*
X1474907Y701120D01*
X1476893D01*
X1478810Y701634D01*
X1480530Y702626D01*
X1481933Y704030D01*
X1482926Y705750D01*
X1483440Y707667D01*
Y709653D01*
X1482926Y711570D01*
X1481933Y713290D01*
X1480530Y714694D01*
X1478810Y715686D01*
X1476893Y716200D01*
D02*
G37*
G36*
Y610790D02*
X1474907D01*
X1472990Y610276D01*
X1471270Y609283D01*
X1469866Y607880D01*
X1468874Y606160D01*
X1468360Y604243D01*
Y602257D01*
X1468874Y600340D01*
X1469866Y598620D01*
X1471270Y597216D01*
X1472990Y596224D01*
X1474907Y595710D01*
X1476893D01*
X1478810Y596224D01*
X1480530Y597216D01*
X1481933Y598620D01*
X1482926Y600340D01*
X1483440Y602257D01*
Y604243D01*
X1482926Y606160D01*
X1481933Y607880D01*
X1480530Y609283D01*
X1478810Y610276D01*
X1476893Y610790D01*
D02*
G37*
G36*
Y505380D02*
X1474907D01*
X1472990Y504866D01*
X1471270Y503873D01*
X1469866Y502470D01*
X1468874Y500750D01*
X1468360Y498833D01*
Y496847D01*
X1468874Y494930D01*
X1469866Y493210D01*
X1471270Y491806D01*
X1472990Y490814D01*
X1474907Y490300D01*
X1476893D01*
X1478810Y490814D01*
X1480530Y491806D01*
X1481933Y493210D01*
X1482926Y494930D01*
X1483440Y496847D01*
Y498833D01*
X1482926Y500750D01*
X1481933Y502470D01*
X1480530Y503873D01*
X1478810Y504866D01*
X1476893Y505380D01*
D02*
G37*
G36*
X1275296Y439280D02*
X1272324D01*
X1269452Y438511D01*
X1266878Y437024D01*
X1264776Y434922D01*
X1263289Y432348D01*
X1262520Y429476D01*
Y426504D01*
X1263289Y423632D01*
X1264776Y421058D01*
X1266878Y418956D01*
X1269452Y417469D01*
X1272324Y416700D01*
X1275296D01*
X1278168Y417469D01*
X1280742Y418956D01*
X1282844Y421058D01*
X1284331Y423632D01*
X1285100Y426504D01*
Y429476D01*
X1284331Y432348D01*
X1282844Y434922D01*
X1280742Y437024D01*
X1278168Y438511D01*
X1275296Y439280D01*
D02*
G37*
G36*
X1224496D02*
X1221524D01*
X1218652Y438511D01*
X1216078Y437024D01*
X1213976Y434922D01*
X1212489Y432348D01*
X1211720Y429476D01*
Y426504D01*
X1212489Y423632D01*
X1213976Y421058D01*
X1216078Y418956D01*
X1218652Y417469D01*
X1221524Y416700D01*
X1224496D01*
X1227368Y417469D01*
X1229942Y418956D01*
X1232044Y421058D01*
X1233531Y423632D01*
X1234300Y426504D01*
Y429476D01*
X1233531Y432348D01*
X1232044Y434922D01*
X1229942Y437024D01*
X1227368Y438511D01*
X1224496Y439280D01*
D02*
G37*
G36*
X1173696D02*
X1170724D01*
X1167852Y438511D01*
X1165278Y437024D01*
X1163176Y434922D01*
X1161689Y432348D01*
X1160920Y429476D01*
Y426504D01*
X1161689Y423632D01*
X1163176Y421058D01*
X1165278Y418956D01*
X1167852Y417469D01*
X1170724Y416700D01*
X1173696D01*
X1176568Y417469D01*
X1179142Y418956D01*
X1181244Y421058D01*
X1182731Y423632D01*
X1183500Y426504D01*
Y429476D01*
X1182731Y432348D01*
X1181244Y434922D01*
X1179142Y437024D01*
X1176568Y438511D01*
X1173696Y439280D01*
D02*
G37*
G36*
X1122896D02*
X1119924D01*
X1117052Y438511D01*
X1114478Y437024D01*
X1112376Y434922D01*
X1110889Y432348D01*
X1110120Y429476D01*
Y426504D01*
X1110889Y423632D01*
X1112376Y421058D01*
X1114478Y418956D01*
X1117052Y417469D01*
X1119924Y416700D01*
X1122896D01*
X1125768Y417469D01*
X1128342Y418956D01*
X1130444Y421058D01*
X1131931Y423632D01*
X1132700Y426504D01*
Y429476D01*
X1131931Y432348D01*
X1130444Y434922D01*
X1128342Y437024D01*
X1125768Y438511D01*
X1122896Y439280D01*
D02*
G37*
G36*
X1072096D02*
X1069124D01*
X1066252Y438511D01*
X1063678Y437024D01*
X1061576Y434922D01*
X1060089Y432348D01*
X1059320Y429476D01*
Y426504D01*
X1060089Y423632D01*
X1061576Y421058D01*
X1063678Y418956D01*
X1066252Y417469D01*
X1069124Y416700D01*
X1072096D01*
X1074968Y417469D01*
X1077542Y418956D01*
X1079644Y421058D01*
X1081131Y423632D01*
X1081900Y426504D01*
Y429476D01*
X1081131Y432348D01*
X1079644Y434922D01*
X1077542Y437024D01*
X1074968Y438511D01*
X1072096Y439280D01*
D02*
G37*
G36*
X1021296D02*
X1018324D01*
X1015452Y438511D01*
X1012878Y437024D01*
X1010776Y434922D01*
X1009289Y432348D01*
X1008520Y429476D01*
Y426504D01*
X1009289Y423632D01*
X1010776Y421058D01*
X1012878Y418956D01*
X1015452Y417469D01*
X1018324Y416700D01*
X1021296D01*
X1024168Y417469D01*
X1026742Y418956D01*
X1028844Y421058D01*
X1030331Y423632D01*
X1031100Y426504D01*
Y429476D01*
X1030331Y432348D01*
X1028844Y434922D01*
X1026742Y437024D01*
X1024168Y438511D01*
X1021296Y439280D01*
D02*
G37*
G36*
X970496D02*
X967524D01*
X964652Y438511D01*
X962078Y437024D01*
X959976Y434922D01*
X958489Y432348D01*
X957720Y429476D01*
Y426504D01*
X958489Y423632D01*
X959976Y421058D01*
X962078Y418956D01*
X964652Y417469D01*
X967524Y416700D01*
X970496D01*
X973368Y417469D01*
X975942Y418956D01*
X978044Y421058D01*
X979531Y423632D01*
X980300Y426504D01*
Y429476D01*
X979531Y432348D01*
X978044Y434922D01*
X975942Y437024D01*
X973368Y438511D01*
X970496Y439280D01*
D02*
G37*
G36*
X919696D02*
X916724D01*
X913852Y438511D01*
X911278Y437024D01*
X909176Y434922D01*
X907689Y432348D01*
X906920Y429476D01*
Y426504D01*
X907689Y423632D01*
X909176Y421058D01*
X911278Y418956D01*
X913852Y417469D01*
X916724Y416700D01*
X919696D01*
X922568Y417469D01*
X925142Y418956D01*
X927244Y421058D01*
X928731Y423632D01*
X929500Y426504D01*
Y429476D01*
X928731Y432348D01*
X927244Y434922D01*
X925142Y437024D01*
X922568Y438511D01*
X919696Y439280D01*
D02*
G37*
G36*
X878700D02*
X856120D01*
Y416700D01*
X878700D01*
Y439280D01*
D02*
G37*
G36*
X621246Y412610D02*
X618274D01*
X615402Y411841D01*
X612828Y410354D01*
X610726Y408252D01*
X609239Y405678D01*
X608470Y402806D01*
Y399834D01*
X609239Y396962D01*
X610726Y394388D01*
X612828Y392286D01*
X615402Y390799D01*
X618274Y390030D01*
X621246D01*
X624118Y390799D01*
X626692Y392286D01*
X628794Y394388D01*
X630281Y396962D01*
X631050Y399834D01*
Y402806D01*
X630281Y405678D01*
X628794Y408252D01*
X626692Y410354D01*
X624118Y411841D01*
X621246Y412610D01*
D02*
G37*
G36*
X570446D02*
X567474D01*
X564602Y411841D01*
X562028Y410354D01*
X559926Y408252D01*
X558439Y405678D01*
X557670Y402806D01*
Y399834D01*
X558439Y396962D01*
X559926Y394388D01*
X562028Y392286D01*
X564602Y390799D01*
X567474Y390030D01*
X570446D01*
X573318Y390799D01*
X575892Y392286D01*
X577994Y394388D01*
X579481Y396962D01*
X580250Y399834D01*
Y402806D01*
X579481Y405678D01*
X577994Y408252D01*
X575892Y410354D01*
X573318Y411841D01*
X570446Y412610D01*
D02*
G37*
G36*
X519646D02*
X516674D01*
X513802Y411841D01*
X511228Y410354D01*
X509126Y408252D01*
X507639Y405678D01*
X506870Y402806D01*
Y399834D01*
X507639Y396962D01*
X509126Y394388D01*
X511228Y392286D01*
X513802Y390799D01*
X516674Y390030D01*
X519646D01*
X522518Y390799D01*
X525092Y392286D01*
X527194Y394388D01*
X528681Y396962D01*
X529450Y399834D01*
Y402806D01*
X528681Y405678D01*
X527194Y408252D01*
X525092Y410354D01*
X522518Y411841D01*
X519646Y412610D01*
D02*
G37*
G36*
X468846D02*
X465874D01*
X463002Y411841D01*
X460428Y410354D01*
X458326Y408252D01*
X456839Y405678D01*
X456070Y402806D01*
Y399834D01*
X456839Y396962D01*
X458326Y394388D01*
X460428Y392286D01*
X463002Y390799D01*
X465874Y390030D01*
X468846D01*
X471718Y390799D01*
X474292Y392286D01*
X476394Y394388D01*
X477881Y396962D01*
X478650Y399834D01*
Y402806D01*
X477881Y405678D01*
X476394Y408252D01*
X474292Y410354D01*
X471718Y411841D01*
X468846Y412610D01*
D02*
G37*
G36*
X418046D02*
X415074D01*
X412202Y411841D01*
X409628Y410354D01*
X407526Y408252D01*
X406039Y405678D01*
X405270Y402806D01*
Y399834D01*
X406039Y396962D01*
X407526Y394388D01*
X409628Y392286D01*
X412202Y390799D01*
X415074Y390030D01*
X418046D01*
X420918Y390799D01*
X423492Y392286D01*
X425594Y394388D01*
X427081Y396962D01*
X427850Y399834D01*
Y402806D01*
X427081Y405678D01*
X425594Y408252D01*
X423492Y410354D01*
X420918Y411841D01*
X418046Y412610D01*
D02*
G37*
G36*
X367246D02*
X364274D01*
X361402Y411841D01*
X358828Y410354D01*
X356726Y408252D01*
X355239Y405678D01*
X354470Y402806D01*
Y399834D01*
X355239Y396962D01*
X356726Y394388D01*
X358828Y392286D01*
X361402Y390799D01*
X364274Y390030D01*
X367246D01*
X370118Y390799D01*
X372692Y392286D01*
X374794Y394388D01*
X376281Y396962D01*
X377050Y399834D01*
Y402806D01*
X376281Y405678D01*
X374794Y408252D01*
X372692Y410354D01*
X370118Y411841D01*
X367246Y412610D01*
D02*
G37*
G36*
X316446D02*
X313474D01*
X310602Y411841D01*
X308028Y410354D01*
X305926Y408252D01*
X304439Y405678D01*
X303670Y402806D01*
Y399834D01*
X304439Y396962D01*
X305926Y394388D01*
X308028Y392286D01*
X310602Y390799D01*
X313474Y390030D01*
X316446D01*
X319318Y390799D01*
X321892Y392286D01*
X323994Y394388D01*
X325481Y396962D01*
X326250Y399834D01*
Y402806D01*
X325481Y405678D01*
X323994Y408252D01*
X321892Y410354D01*
X319318Y411841D01*
X316446Y412610D01*
D02*
G37*
G36*
X265646D02*
X262674D01*
X259802Y411841D01*
X257228Y410354D01*
X255126Y408252D01*
X253639Y405678D01*
X252870Y402806D01*
Y399834D01*
X253639Y396962D01*
X255126Y394388D01*
X257228Y392286D01*
X259802Y390799D01*
X262674Y390030D01*
X265646D01*
X268518Y390799D01*
X271092Y392286D01*
X273194Y394388D01*
X274681Y396962D01*
X275450Y399834D01*
Y402806D01*
X274681Y405678D01*
X273194Y408252D01*
X271092Y410354D01*
X268518Y411841D01*
X265646Y412610D01*
D02*
G37*
G36*
X214846D02*
X211874D01*
X209002Y411841D01*
X206428Y410354D01*
X204326Y408252D01*
X202839Y405678D01*
X202070Y402806D01*
Y399834D01*
X202839Y396962D01*
X204326Y394388D01*
X206428Y392286D01*
X209002Y390799D01*
X211874Y390030D01*
X214846D01*
X217718Y390799D01*
X220292Y392286D01*
X222394Y394388D01*
X223881Y396962D01*
X224650Y399834D01*
Y402806D01*
X223881Y405678D01*
X222394Y408252D01*
X220292Y410354D01*
X217718Y411841D01*
X214846Y412610D01*
D02*
G37*
G36*
X173850D02*
X151270D01*
Y390030D01*
X173850D01*
Y412610D01*
D02*
G37*
G36*
X1476893Y399970D02*
X1474907D01*
X1472990Y399456D01*
X1471270Y398464D01*
X1469866Y397060D01*
X1468874Y395340D01*
X1468360Y393423D01*
Y391437D01*
X1468874Y389520D01*
X1469866Y387800D01*
X1471270Y386396D01*
X1472990Y385404D01*
X1474907Y384890D01*
X1476893D01*
X1478810Y385404D01*
X1480530Y386396D01*
X1481933Y387800D01*
X1482926Y389520D01*
X1483440Y391437D01*
Y393423D01*
X1482926Y395340D01*
X1481933Y397060D01*
X1480530Y398464D01*
X1478810Y399456D01*
X1476893Y399970D01*
D02*
G37*
G36*
X1041400Y259130D02*
X284480D01*
X283489Y258933D01*
X282649Y258371D01*
X201369Y177091D01*
X200807Y176251D01*
X200610Y175260D01*
Y99060D01*
X200807Y98069D01*
X201369Y97229D01*
X202209Y96667D01*
X203200Y96470D01*
X254000D01*
X254991Y96667D01*
X255831Y97229D01*
X256393Y98069D01*
X256590Y99060D01*
Y151327D01*
X310953Y205690D01*
X794970D01*
Y160020D01*
X795167Y159029D01*
X795729Y158189D01*
X818589Y135329D01*
X819429Y134767D01*
X820420Y134570D01*
X850900D01*
X851891Y134767D01*
X852731Y135329D01*
X853293Y136169D01*
X853490Y137160D01*
Y162560D01*
X853293Y163551D01*
X852731Y164391D01*
X851891Y164953D01*
X850900Y165150D01*
X831653D01*
X825550Y171253D01*
Y205690D01*
X890754D01*
X891088Y203150D01*
X890012Y202862D01*
X887608Y201474D01*
X885646Y199512D01*
X884258Y197108D01*
X883540Y194428D01*
Y191652D01*
X884258Y188972D01*
X885646Y186568D01*
X887608Y184606D01*
X890012Y183218D01*
X892692Y182500D01*
X895468D01*
X898148Y183218D01*
X900552Y184606D01*
X902514Y186568D01*
X903902Y188972D01*
X904620Y191652D01*
Y194428D01*
X903902Y197108D01*
X902514Y199512D01*
X900552Y201474D01*
X898148Y202862D01*
X897072Y203150D01*
X897406Y205690D01*
X966954D01*
X967289Y203150D01*
X966212Y202862D01*
X963808Y201474D01*
X961846Y199512D01*
X960458Y197108D01*
X959740Y194428D01*
Y191652D01*
X960458Y188972D01*
X961846Y186568D01*
X963808Y184606D01*
X966212Y183218D01*
X968892Y182500D01*
X971668D01*
X974348Y183218D01*
X976752Y184606D01*
X978714Y186568D01*
X980102Y188972D01*
X980820Y191652D01*
Y194428D01*
X980102Y197108D01*
X978714Y199512D01*
X976752Y201474D01*
X974348Y202862D01*
X973271Y203150D01*
X973606Y205690D01*
X1041400D01*
X1042391Y205887D01*
X1043231Y206449D01*
X1043793Y207289D01*
X1043990Y208280D01*
Y256540D01*
X1043793Y257531D01*
X1043231Y258371D01*
X1042391Y258933D01*
X1041400Y259130D01*
D02*
G37*
G36*
X971668Y178180D02*
X968892D01*
X966212Y177462D01*
X963808Y176074D01*
X961846Y174112D01*
X960458Y171708D01*
X959740Y169028D01*
Y166252D01*
X960458Y163572D01*
X961846Y161168D01*
X963808Y159206D01*
X966212Y157818D01*
X968892Y157100D01*
X971668D01*
X974348Y157818D01*
X976752Y159206D01*
X978714Y161168D01*
X980102Y163572D01*
X980820Y166252D01*
Y169028D01*
X980102Y171708D01*
X978714Y174112D01*
X976752Y176074D01*
X974348Y177462D01*
X971668Y178180D01*
D02*
G37*
G36*
X895468D02*
X892692D01*
X890012Y177462D01*
X887608Y176074D01*
X885646Y174112D01*
X884258Y171708D01*
X883540Y169028D01*
Y166252D01*
X884258Y163572D01*
X885646Y161168D01*
X887608Y159206D01*
X890012Y157818D01*
X892692Y157100D01*
X895468D01*
X898148Y157818D01*
X900552Y159206D01*
X902514Y161168D01*
X903902Y163572D01*
X904620Y166252D01*
Y169028D01*
X903902Y171708D01*
X902514Y174112D01*
X900552Y176074D01*
X898148Y177462D01*
X895468Y178180D01*
D02*
G37*
G36*
X1357861Y180340D02*
X1354859D01*
X1351915Y179754D01*
X1349141Y178605D01*
X1346645Y176938D01*
X1344522Y174815D01*
X1342854Y172319D01*
X1341706Y169545D01*
X1341120Y166601D01*
Y163599D01*
X1341706Y160655D01*
X1342854Y157881D01*
X1344522Y155385D01*
X1346645Y153262D01*
X1349141Y151594D01*
X1351915Y150446D01*
X1354859Y149860D01*
X1357861D01*
X1360805Y150446D01*
X1363579Y151594D01*
X1366075Y153262D01*
X1368198Y155385D01*
X1369866Y157881D01*
X1371014Y160655D01*
X1371600Y163599D01*
Y166601D01*
X1371014Y169545D01*
X1369866Y172319D01*
X1368198Y174815D01*
X1366075Y176938D01*
X1363579Y178605D01*
X1360805Y179754D01*
X1357861Y180340D01*
D02*
G37*
G36*
X1103861D02*
X1100859D01*
X1097915Y179754D01*
X1095141Y178605D01*
X1092645Y176938D01*
X1090522Y174815D01*
X1088855Y172319D01*
X1087706Y169545D01*
X1087120Y166601D01*
Y163599D01*
X1087706Y160655D01*
X1088855Y157881D01*
X1090522Y155385D01*
X1092645Y153262D01*
X1095141Y151594D01*
X1097915Y150446D01*
X1100859Y149860D01*
X1103861D01*
X1106805Y150446D01*
X1109579Y151594D01*
X1112075Y153262D01*
X1114198Y155385D01*
X1115865Y157881D01*
X1117014Y160655D01*
X1117600Y163599D01*
Y166601D01*
X1117014Y169545D01*
X1115865Y172319D01*
X1114198Y174815D01*
X1112075Y176938D01*
X1109579Y178605D01*
X1106805Y179754D01*
X1103861Y180340D01*
D02*
G37*
G36*
X776473Y171875D02*
X773387D01*
X770361Y171273D01*
X767510Y170092D01*
X764944Y168378D01*
X762762Y166196D01*
X761048Y163630D01*
X759867Y160779D01*
X759265Y157753D01*
Y154667D01*
X759867Y151641D01*
X761048Y148790D01*
X762762Y146224D01*
X764944Y144042D01*
X767510Y142328D01*
X770361Y141147D01*
X773387Y140545D01*
X776473D01*
X779499Y141147D01*
X782350Y142328D01*
X784916Y144042D01*
X787098Y146224D01*
X788812Y148790D01*
X789993Y151641D01*
X790595Y154667D01*
Y157753D01*
X789993Y160779D01*
X788812Y163630D01*
X787098Y166196D01*
X784916Y168378D01*
X782350Y170092D01*
X779499Y171273D01*
X776473Y171875D01*
D02*
G37*
G36*
X1231011Y142080D02*
X1227709D01*
X1224520Y141225D01*
X1221660Y139574D01*
X1219325Y137240D01*
X1219040Y136745D01*
X1216500Y137426D01*
Y142080D01*
X1191420D01*
Y117000D01*
X1216500D01*
Y121654D01*
X1219040Y122335D01*
X1219325Y121840D01*
X1221660Y119506D01*
X1224520Y117855D01*
X1227709Y117000D01*
X1231011D01*
X1234200Y117855D01*
X1237060Y119506D01*
X1239395Y121840D01*
X1241045Y124700D01*
X1241900Y127889D01*
Y131191D01*
X1241045Y134380D01*
X1239395Y137240D01*
X1237060Y139574D01*
X1234200Y141225D01*
X1231011Y142080D01*
D02*
G37*
G36*
X567491Y141980D02*
X564215D01*
X561051Y141132D01*
X558215Y139494D01*
X555899Y137178D01*
X554261Y134342D01*
X553413Y131178D01*
Y127902D01*
X554261Y124738D01*
X555899Y121902D01*
X558215Y119586D01*
X561051Y117948D01*
X564215Y117100D01*
X567491D01*
X570655Y117948D01*
X573491Y119586D01*
X575807Y121902D01*
X577445Y124738D01*
X578293Y127902D01*
Y131178D01*
X577445Y134342D01*
X575807Y137178D01*
X573491Y139494D01*
X570655Y141132D01*
X567491Y141980D01*
D02*
G37*
G36*
X483336D02*
X480061D01*
X476897Y141132D01*
X474060Y139494D01*
X471744Y137178D01*
X470106Y134342D01*
X469258Y131178D01*
Y127902D01*
X470106Y124738D01*
X471744Y121902D01*
X474060Y119586D01*
X476897Y117948D01*
X480061Y117100D01*
X483336D01*
X486500Y117948D01*
X489337Y119586D01*
X491653Y121902D01*
X493291Y124738D01*
X494138Y127902D01*
Y131178D01*
X493291Y134342D01*
X491653Y137178D01*
X489337Y139494D01*
X486500Y141132D01*
X483336Y141980D01*
D02*
G37*
G36*
X399182D02*
X395906D01*
X392742Y141132D01*
X389906Y139494D01*
X387589Y137178D01*
X385952Y134342D01*
X385104Y131178D01*
Y127902D01*
X385952Y124738D01*
X387589Y121902D01*
X389906Y119586D01*
X392742Y117948D01*
X395906Y117100D01*
X399182D01*
X402346Y117948D01*
X405182Y119586D01*
X407499Y121902D01*
X409136Y124738D01*
X409984Y127902D01*
Y131178D01*
X409136Y134342D01*
X407499Y137178D01*
X405182Y139494D01*
X402346Y141132D01*
X399182Y141980D01*
D02*
G37*
G36*
X315027D02*
X311752D01*
X308588Y141132D01*
X305751Y139494D01*
X303435Y137178D01*
X301797Y134342D01*
X300949Y131178D01*
Y127902D01*
X301797Y124738D01*
X303435Y121902D01*
X305751Y119586D01*
X308588Y117948D01*
X311752Y117100D01*
X315027D01*
X318191Y117948D01*
X321028Y119586D01*
X323344Y121902D01*
X324982Y124738D01*
X325830Y127902D01*
Y131178D01*
X324982Y134342D01*
X323344Y137178D01*
X321028Y139494D01*
X318191Y141132D01*
X315027Y141980D01*
D02*
G37*
G36*
X1517520Y142580D02*
X1491440D01*
Y116500D01*
X1517520D01*
Y142580D01*
D02*
G37*
G36*
X166017D02*
X162583D01*
X159267Y141691D01*
X156293Y139975D01*
X153865Y137547D01*
X152149Y134573D01*
X151260Y131257D01*
Y127823D01*
X152149Y124507D01*
X153865Y121533D01*
X156293Y119105D01*
X159267Y117389D01*
X162583Y116500D01*
X166017D01*
X169333Y117389D01*
X172307Y119105D01*
X174735Y121533D01*
X176451Y124507D01*
X177340Y127823D01*
Y131257D01*
X176451Y134573D01*
X174735Y137547D01*
X172307Y139975D01*
X169333Y141691D01*
X166017Y142580D01*
D02*
G37*
G36*
X1617266Y69340D02*
X1613614D01*
X1610032Y68628D01*
X1606658Y67230D01*
X1603621Y65201D01*
X1601039Y62619D01*
X1599010Y59582D01*
X1597612Y56208D01*
X1596900Y52626D01*
Y48974D01*
X1597612Y45392D01*
X1599010Y42018D01*
X1601039Y38981D01*
X1603621Y36399D01*
X1606658Y34370D01*
X1610032Y32973D01*
X1613614Y32260D01*
X1617266D01*
X1620848Y32973D01*
X1624222Y34370D01*
X1627259Y36399D01*
X1629841Y38981D01*
X1631870Y42018D01*
X1633268Y45392D01*
X1633980Y48974D01*
Y52626D01*
X1633268Y56208D01*
X1631870Y59582D01*
X1629841Y62619D01*
X1627259Y65201D01*
X1624222Y67230D01*
X1620848Y68628D01*
X1617266Y69340D01*
D02*
G37*
G36*
X52626D02*
X48974D01*
X45392Y68628D01*
X42018Y67230D01*
X38981Y65201D01*
X36399Y62619D01*
X34370Y59582D01*
X32973Y56208D01*
X32260Y52626D01*
Y48974D01*
X32973Y45392D01*
X34370Y42018D01*
X36399Y38981D01*
X38981Y36399D01*
X42018Y34370D01*
X45392Y32973D01*
X48974Y32260D01*
X52626D01*
X56208Y32973D01*
X59582Y34370D01*
X62619Y36399D01*
X65201Y38981D01*
X67230Y42018D01*
X68628Y45392D01*
X69340Y48974D01*
Y52626D01*
X68628Y56208D01*
X67230Y59582D01*
X65201Y62619D01*
X62619Y65201D01*
X59582Y67230D01*
X56208Y68628D01*
X52626Y69340D01*
D02*
G37*
%LPD*%
G36*
X1041400Y208280D02*
X822960D01*
Y170180D01*
X830580Y162560D01*
X850900D01*
Y137160D01*
X820420D01*
X797560Y160020D01*
Y208280D01*
X309880D01*
X254000Y152400D01*
Y99060D01*
X203200D01*
Y175260D01*
X284480Y256540D01*
X1041400D01*
Y208280D01*
D02*
G37*
D16*
X774930Y156210D02*
D03*
D17*
X735330D02*
D03*
D18*
X1102360Y165100D02*
D03*
X1356360D02*
D03*
X1453134Y1088644D02*
D03*
X1132247D02*
D03*
X647954D02*
D03*
D19*
X1254760Y129540D02*
D03*
X1229360D02*
D03*
D20*
X1203960D02*
D03*
D21*
X650007D02*
D03*
X565853D02*
D03*
X481698D02*
D03*
X397544D02*
D03*
X313389D02*
D03*
X229235D02*
D03*
D22*
X1475740Y1033780D02*
D03*
X1424940D02*
D03*
X1154853D02*
D03*
X1104053D02*
D03*
X670560D02*
D03*
X619760D02*
D03*
D23*
X970280Y142240D02*
D03*
Y167640D02*
D03*
Y193040D02*
D03*
Y218440D02*
D03*
X894080Y142240D02*
D03*
Y167640D02*
D03*
Y193040D02*
D03*
X1016000D02*
D03*
Y218440D02*
D03*
X838200Y124460D02*
D03*
Y149860D02*
D03*
D24*
X894080Y218440D02*
D03*
D25*
X908050Y1066800D02*
D03*
X873050D02*
D03*
D26*
X838200Y218440D02*
D03*
Y198440D02*
D03*
X1475900Y392430D02*
D03*
X1495900D02*
D03*
X1475900Y497840D02*
D03*
X1495900D02*
D03*
X1475900Y603250D02*
D03*
X1495900D02*
D03*
X1475900Y708660D02*
D03*
X1495900D02*
D03*
X1475900Y814070D02*
D03*
X1495900D02*
D03*
D27*
X162560Y401320D02*
D03*
X867410Y427990D02*
D03*
D28*
X213360Y401320D02*
D03*
X264160D02*
D03*
X314960D02*
D03*
X365760D02*
D03*
X416560D02*
D03*
X467360D02*
D03*
X518160D02*
D03*
X568960D02*
D03*
X619760D02*
D03*
X162560Y807720D02*
D03*
X213360D02*
D03*
X264160D02*
D03*
X314960D02*
D03*
X365760D02*
D03*
X416560D02*
D03*
X467360D02*
D03*
X518160D02*
D03*
X568960D02*
D03*
X619760D02*
D03*
X918210Y427990D02*
D03*
X969010D02*
D03*
X1019810D02*
D03*
X1070610D02*
D03*
X1121410D02*
D03*
X1172210D02*
D03*
X1223010D02*
D03*
X1273810D02*
D03*
X867410Y783590D02*
D03*
X918210D02*
D03*
X969010D02*
D03*
X1019810D02*
D03*
X1070610D02*
D03*
X1121410D02*
D03*
X1172210D02*
D03*
X1223010D02*
D03*
X1273810D02*
D03*
D29*
X1615440Y50800D02*
D03*
X50800D02*
D03*
Y1221740D02*
D03*
X1615440D02*
D03*
D31*
X1504480Y129540D02*
D03*
X114300D02*
D03*
D32*
X1554480D02*
D03*
X164300D02*
D03*
M02*
