G04*
G04 #@! TF.GenerationSoftware,Altium Limited,Altium Designer,26.8.1 (31)*
G04*
G04 Layer_Color=65535*
G04 Board_Origin=7000000|3100000*
%FSLAX44Y44*%
%MOMM*%
G71*
G04*
G04 #@! TF.SameCoordinates,1285140B-0727-43AA-A1E4-543660A9A239*
G04*
G04*
G04 #@! TF.FilePolarity,Positive*
G04*
G01*
G75*
%ADD10C,0.2000*%
%ADD11C,0.1524*%
%ADD12C,0.1270*%
%ADD13C,0.2540*%
G36*
X933001Y1093412D02*
X935486Y1088960D01*
X937505Y1084278D01*
X939039Y1079415D01*
X940070Y1074422D01*
X940588Y1069349D01*
Y1064251D01*
X940070Y1059178D01*
X939039Y1054185D01*
X937505Y1049322D01*
X935486Y1044640D01*
X933001Y1040188D01*
X931539Y1038099D01*
X931539Y1095501D01*
X933001Y1093412D01*
D02*
G37*
G36*
X931539Y1038099D02*
X931539D01*
X931539Y1038099D01*
Y1038099D01*
D02*
G37*
G36*
X504296Y1180147D02*
X507788D01*
Y925195D01*
X88688D01*
Y1180147D01*
X92181D01*
Y1183640D01*
X504296D01*
Y1180147D01*
D02*
G37*
G36*
X1512928Y827175D02*
X1514409Y823530D01*
X1515401Y819722D01*
X1515887Y815817D01*
X1515858Y811882D01*
X1515315Y807985D01*
X1514267Y804192D01*
X1512732Y800569D01*
X1511735Y798873D01*
X1511955Y828886D01*
X1512928Y827175D01*
D02*
G37*
G36*
X1511735Y798873D02*
X1511735Y798873D01*
X1511735Y798873D01*
Y798873D01*
D02*
G37*
G36*
X1512928Y721765D02*
X1514409Y718120D01*
X1515401Y714312D01*
X1515887Y710407D01*
X1515858Y706472D01*
X1515315Y702575D01*
X1514267Y698782D01*
X1512732Y695159D01*
X1511735Y693463D01*
X1511955Y723476D01*
X1512928Y721765D01*
D02*
G37*
G36*
X1511735Y693463D02*
X1511735Y693463D01*
X1511735Y693463D01*
Y693463D01*
D02*
G37*
G36*
X1512928Y616355D02*
X1514409Y612710D01*
X1515401Y608902D01*
X1515887Y604997D01*
X1515858Y601062D01*
X1515315Y597165D01*
X1514267Y593372D01*
X1512732Y589749D01*
X1511735Y588053D01*
X1511955Y618066D01*
X1512928Y616355D01*
D02*
G37*
G36*
X1511735Y588053D02*
X1511735Y588053D01*
X1511735Y588053D01*
Y588053D01*
D02*
G37*
G36*
X1512928Y510945D02*
X1514409Y507300D01*
X1515401Y503492D01*
X1515887Y499587D01*
X1515858Y495652D01*
X1515315Y491755D01*
X1514267Y487962D01*
X1512732Y484339D01*
X1511735Y482643D01*
X1511955Y512656D01*
X1512928Y510945D01*
D02*
G37*
G36*
X1511735Y482643D02*
X1511735Y482643D01*
X1511735Y482643D01*
Y482643D01*
D02*
G37*
G36*
X1512928Y405535D02*
X1514409Y401890D01*
X1515401Y398082D01*
X1515887Y394177D01*
X1515858Y390242D01*
X1515315Y386345D01*
X1514267Y382552D01*
X1512732Y378929D01*
X1511735Y377233D01*
X1511955Y407246D01*
X1512928Y405535D01*
D02*
G37*
G36*
X1511735Y377233D02*
X1511735Y377233D01*
X1511735Y377233D01*
Y377233D01*
D02*
G37*
G36*
X853016Y182385D02*
X851305Y181412D01*
X847660Y179931D01*
X843852Y178939D01*
X839947Y178453D01*
X836012Y178482D01*
X832115Y179025D01*
X828322Y180073D01*
X824699Y181608D01*
X823003Y182605D01*
X823003D01*
X853016Y182385D01*
D02*
G37*
G36*
X438150Y82550D02*
X431800Y90170D01*
X444500D01*
X438150Y82550D01*
D02*
G37*
%LPC*%
G36*
X500803Y1176655D02*
X370417D01*
Y1120775D01*
X500803D01*
Y1165013D01*
Y1165207D01*
Y1176655D01*
D02*
G37*
G36*
X363432D02*
X233045D01*
Y1120775D01*
X363432D01*
Y1176655D01*
D02*
G37*
G36*
X226060D02*
X95673D01*
Y1120775D01*
X226060D01*
Y1176655D01*
D02*
G37*
G36*
X500803Y1113790D02*
X370417D01*
Y1097880D01*
Y1097686D01*
Y1055582D01*
X500803D01*
Y1113790D01*
D02*
G37*
G36*
X363432D02*
X233045D01*
Y1055582D01*
X363432D01*
Y1113790D01*
D02*
G37*
G36*
X226060D02*
X95673D01*
Y1055582D01*
X226060D01*
Y1113790D01*
D02*
G37*
G36*
X500803Y1048597D02*
X370417D01*
Y995045D01*
X500803D01*
Y1048597D01*
D02*
G37*
G36*
X363432D02*
X233045D01*
Y995045D01*
X363432D01*
Y1048597D01*
D02*
G37*
G36*
X226060D02*
X95673D01*
Y995045D01*
X226060D01*
Y1000478D01*
Y1000672D01*
Y1048597D01*
D02*
G37*
G36*
X500803Y988060D02*
X370417D01*
Y932180D01*
X500803D01*
Y988060D01*
D02*
G37*
G36*
X363432D02*
X233045D01*
Y980687D01*
Y980493D01*
Y932180D01*
X363432D01*
Y988060D01*
D02*
G37*
G36*
X226060D02*
X95673D01*
Y932180D01*
X226060D01*
Y988060D01*
D02*
G37*
%LPD*%
G36*
X425909Y1159387D02*
X425715D01*
Y1158804D01*
X425521D01*
Y1158222D01*
X425326D01*
Y1157834D01*
X425132D01*
Y1157252D01*
X424939D01*
Y1156670D01*
X424744D01*
Y1156088D01*
X424550D01*
Y1155700D01*
X424356D01*
Y1155118D01*
X424162D01*
Y1154536D01*
X423968D01*
Y1153954D01*
X423774D01*
Y1153566D01*
X423580D01*
Y1152984D01*
X423386D01*
Y1152402D01*
X423192D01*
Y1151819D01*
X422998D01*
Y1151431D01*
X422804D01*
Y1150849D01*
X422610D01*
Y1150267D01*
X422416D01*
Y1149685D01*
X422222D01*
Y1149297D01*
X422028D01*
Y1148715D01*
X421834D01*
Y1148521D01*
Y1148327D01*
Y1148133D01*
X421640D01*
Y1147551D01*
X421446D01*
Y1147163D01*
X421252D01*
Y1146581D01*
X421058D01*
Y1145999D01*
X420864D01*
Y1145416D01*
X420670D01*
Y1145029D01*
X420476D01*
Y1144446D01*
X420282D01*
Y1143864D01*
X420088D01*
Y1143282D01*
X419894D01*
Y1142894D01*
X419700D01*
Y1142312D01*
X419506D01*
Y1141730D01*
X419312D01*
Y1141148D01*
X419118D01*
Y1140760D01*
X418924D01*
Y1140178D01*
X418730D01*
Y1139596D01*
X418536D01*
Y1139402D01*
X412715D01*
Y1139596D01*
X412521D01*
Y1140178D01*
X412327D01*
Y1140760D01*
X412133D01*
Y1141148D01*
X411939D01*
Y1141730D01*
X411745D01*
Y1142312D01*
X411551D01*
Y1142894D01*
X411357D01*
Y1143282D01*
X411162D01*
Y1143864D01*
X410969D01*
Y1144446D01*
X410774D01*
Y1145029D01*
X410580D01*
Y1145416D01*
X410386D01*
Y1145999D01*
X410192D01*
Y1146581D01*
X409998D01*
Y1147163D01*
X409804D01*
Y1147551D01*
X409610D01*
Y1148133D01*
X409416D01*
Y1148715D01*
X409222D01*
Y1149297D01*
X409028D01*
Y1149685D01*
X408834D01*
Y1150267D01*
X408640D01*
Y1150849D01*
X408446D01*
Y1151431D01*
X408252D01*
Y1151819D01*
X408058D01*
Y1152402D01*
X407864D01*
Y1152984D01*
X407670D01*
Y1153566D01*
X407476D01*
Y1153954D01*
X407282D01*
Y1154536D01*
X407088D01*
Y1155118D01*
X406894D01*
Y1155700D01*
X406700D01*
Y1156088D01*
X406506D01*
Y1156670D01*
X406312D01*
Y1157252D01*
X406118D01*
Y1157834D01*
X405924D01*
Y1158222D01*
X405730D01*
Y1158804D01*
X405536D01*
Y1159387D01*
X405342D01*
Y1159775D01*
X410774D01*
Y1159581D01*
X410969D01*
Y1158998D01*
X411162D01*
Y1158416D01*
X411357D01*
Y1157834D01*
X411551D01*
Y1157252D01*
X411745D01*
Y1156670D01*
X411939D01*
Y1156088D01*
X412133D01*
Y1155506D01*
X412327D01*
Y1154924D01*
X412521D01*
Y1154342D01*
X412715D01*
Y1153760D01*
X412909D01*
Y1153372D01*
X413103D01*
Y1152790D01*
X413297D01*
Y1152207D01*
X413491D01*
Y1151625D01*
X413685D01*
Y1151043D01*
X413879D01*
Y1150461D01*
X414073D01*
Y1149879D01*
X414267D01*
Y1149297D01*
X414461D01*
Y1148715D01*
X414655D01*
Y1148133D01*
X414849D01*
Y1147551D01*
X415043D01*
Y1147163D01*
X415237D01*
Y1146581D01*
X415431D01*
Y1145999D01*
X415625D01*
Y1145611D01*
X415819D01*
Y1146193D01*
X416013D01*
Y1146581D01*
X416207D01*
Y1147163D01*
X416401D01*
Y1147745D01*
X416595D01*
Y1148327D01*
X416789D01*
Y1148909D01*
X416983D01*
Y1149491D01*
X417177D01*
Y1150073D01*
X417371D01*
Y1150655D01*
X417565D01*
Y1151237D01*
X417760D01*
Y1151819D01*
X417953D01*
Y1152402D01*
X418148D01*
Y1152790D01*
X418341D01*
Y1153372D01*
X418536D01*
Y1153954D01*
X418730D01*
Y1154536D01*
X418924D01*
Y1155118D01*
X419118D01*
Y1155700D01*
X419312D01*
Y1156282D01*
X419506D01*
Y1156864D01*
X419700D01*
Y1157446D01*
X419894D01*
Y1158028D01*
X420088D01*
Y1158610D01*
X420282D01*
Y1159193D01*
X420476D01*
Y1159581D01*
X420670D01*
Y1159775D01*
X425909D01*
Y1159387D01*
D02*
G37*
G36*
X457147Y1154536D02*
Y1154342D01*
Y1142894D01*
X461222D01*
Y1139402D01*
X447834D01*
Y1142894D01*
X452102D01*
Y1153760D01*
X447834D01*
Y1157058D01*
X449580D01*
Y1157252D01*
X450550D01*
Y1157446D01*
X451132D01*
Y1157640D01*
X451520D01*
Y1157834D01*
X451714D01*
Y1158028D01*
X451908D01*
Y1158222D01*
X452102D01*
Y1158416D01*
X452296D01*
Y1158804D01*
X452490D01*
Y1159581D01*
X452685D01*
Y1159775D01*
X457147D01*
Y1154536D01*
D02*
G37*
G36*
X434058Y1143282D02*
X443565D01*
Y1139402D01*
X428819D01*
Y1151237D01*
Y1151431D01*
Y1159775D01*
X434058D01*
Y1143282D01*
D02*
G37*
G36*
X318417Y1159969D02*
X319387D01*
Y1159775D01*
X320163D01*
Y1159581D01*
X320746D01*
Y1159387D01*
X321134D01*
Y1159193D01*
X321522D01*
Y1158998D01*
X321910D01*
Y1158804D01*
X322104D01*
Y1158610D01*
X322492D01*
Y1158416D01*
X322686D01*
Y1158222D01*
X322880D01*
Y1158028D01*
X323074D01*
Y1157834D01*
X323268D01*
Y1157446D01*
X323462D01*
Y1157252D01*
X323656D01*
Y1156864D01*
X323850D01*
Y1156476D01*
X324044D01*
Y1155894D01*
X324238D01*
Y1154924D01*
X324432D01*
Y1152984D01*
X324238D01*
Y1152013D01*
X324044D01*
Y1151431D01*
X323850D01*
Y1151043D01*
X323656D01*
Y1150461D01*
X323462D01*
Y1150267D01*
X323268D01*
Y1149879D01*
X323074D01*
Y1149491D01*
X322880D01*
Y1149297D01*
X322686D01*
Y1149103D01*
X322492D01*
Y1148715D01*
X322298D01*
Y1148521D01*
X322104D01*
Y1148327D01*
X321910D01*
Y1148133D01*
X321716D01*
Y1147939D01*
X321522D01*
Y1147745D01*
X321328D01*
Y1147551D01*
X321134D01*
Y1147357D01*
X320940D01*
Y1147163D01*
X320746D01*
Y1146969D01*
X320551D01*
Y1146775D01*
X320358D01*
Y1146581D01*
X320163D01*
Y1146387D01*
X319970D01*
Y1146193D01*
X319775D01*
Y1145999D01*
X319581D01*
Y1145805D01*
X319387D01*
Y1145611D01*
X318999D01*
Y1145416D01*
X318805D01*
Y1145222D01*
X318611D01*
Y1145029D01*
X318417D01*
Y1144834D01*
X318223D01*
Y1144640D01*
X317835D01*
Y1144446D01*
X317641D01*
Y1144252D01*
X317447D01*
Y1144058D01*
X317059D01*
Y1143864D01*
X316865D01*
Y1143670D01*
X316671D01*
Y1143476D01*
X316283D01*
Y1143282D01*
X325402D01*
Y1139402D01*
X309492D01*
Y1142894D01*
X309686D01*
Y1143088D01*
X310074D01*
Y1143282D01*
X310268D01*
Y1143476D01*
X310462D01*
Y1143670D01*
X310850D01*
Y1143864D01*
X311044D01*
Y1144058D01*
X311238D01*
Y1144252D01*
X311626D01*
Y1144446D01*
X311820D01*
Y1144640D01*
X312014D01*
Y1144834D01*
X312402D01*
Y1145029D01*
X312596D01*
Y1145222D01*
X312790D01*
Y1145416D01*
X312985D01*
Y1145611D01*
X313372D01*
Y1145805D01*
X313566D01*
Y1145999D01*
X313761D01*
Y1146193D01*
X313955D01*
Y1146387D01*
X314149D01*
Y1146581D01*
X314537D01*
Y1146775D01*
X314731D01*
Y1146969D01*
X314925D01*
Y1147163D01*
X315119D01*
Y1147357D01*
X315313D01*
Y1147551D01*
X315507D01*
Y1147745D01*
X315701D01*
Y1147939D01*
X315895D01*
Y1148133D01*
X316089D01*
Y1148327D01*
X316283D01*
Y1148521D01*
X316477D01*
Y1148715D01*
X316671D01*
Y1148909D01*
X316865D01*
Y1149103D01*
X317059D01*
Y1149297D01*
X317253D01*
Y1149491D01*
X317447D01*
Y1149685D01*
X317641D01*
Y1149879D01*
X317835D01*
Y1150267D01*
X318029D01*
Y1150461D01*
X318223D01*
Y1150849D01*
X318417D01*
Y1151237D01*
X318611D01*
Y1151625D01*
X318805D01*
Y1152207D01*
X318999D01*
Y1154148D01*
X318805D01*
Y1154730D01*
X318611D01*
Y1154924D01*
X318417D01*
Y1155118D01*
X318223D01*
Y1155312D01*
X318029D01*
Y1155506D01*
X317835D01*
Y1155700D01*
X317447D01*
Y1155894D01*
X316671D01*
Y1156088D01*
X314343D01*
Y1155894D01*
X313566D01*
Y1155700D01*
X312985D01*
Y1155506D01*
X312402D01*
Y1155312D01*
X312014D01*
Y1155118D01*
X311626D01*
Y1154924D01*
X311238D01*
Y1154730D01*
X310850D01*
Y1154536D01*
X310462D01*
Y1154342D01*
X309880D01*
Y1158804D01*
X310074D01*
Y1158998D01*
X310462D01*
Y1159193D01*
X311044D01*
Y1159387D01*
X311820D01*
Y1159581D01*
X312596D01*
Y1159775D01*
X313372D01*
Y1159969D01*
X314731D01*
Y1160163D01*
X318417D01*
Y1159969D01*
D02*
G37*
G36*
X299597Y1159581D02*
X300761D01*
Y1159387D01*
X301343D01*
Y1159193D01*
X301925D01*
Y1158998D01*
X302313D01*
Y1158804D01*
X302701D01*
Y1158610D01*
X303089D01*
Y1158416D01*
X303477D01*
Y1158222D01*
X303671D01*
Y1158028D01*
X303865D01*
Y1157834D01*
X304059D01*
Y1157640D01*
X304253D01*
Y1157446D01*
X304447D01*
Y1157252D01*
X304641D01*
Y1157058D01*
X304835D01*
Y1156670D01*
X305029D01*
Y1156282D01*
X305223D01*
Y1155894D01*
X305417D01*
Y1155312D01*
X305611D01*
Y1154342D01*
X305805D01*
Y1152402D01*
X305611D01*
Y1151431D01*
X305417D01*
Y1150655D01*
X305223D01*
Y1150267D01*
X305029D01*
Y1149879D01*
X304835D01*
Y1149491D01*
X304641D01*
Y1149103D01*
X304447D01*
Y1148909D01*
X304253D01*
Y1148715D01*
X304059D01*
Y1148521D01*
X303865D01*
Y1148327D01*
X303671D01*
Y1148133D01*
X303477D01*
Y1147939D01*
X303283D01*
Y1147745D01*
X303089D01*
Y1147551D01*
X302701D01*
Y1147357D01*
X302507D01*
Y1147163D01*
X302119D01*
Y1146969D01*
X301731D01*
Y1146775D01*
X301343D01*
Y1146581D01*
X300761D01*
Y1146387D01*
X300179D01*
Y1146193D01*
X299209D01*
Y1145999D01*
X294164D01*
Y1139402D01*
X288925D01*
Y1146581D01*
Y1146775D01*
Y1159775D01*
X299597D01*
Y1159581D01*
D02*
G37*
G36*
X285821Y1155894D02*
X279418D01*
Y1139402D01*
X274373D01*
Y1155894D01*
X267970D01*
Y1159775D01*
X285821D01*
Y1155894D01*
D02*
G37*
%LPC*%
G36*
X297850D02*
X294164D01*
Y1149879D01*
X297462D01*
Y1150073D01*
X298432D01*
Y1150267D01*
X299014D01*
Y1150461D01*
X299209D01*
Y1150655D01*
X299403D01*
Y1150849D01*
X299597D01*
Y1151043D01*
X299791D01*
Y1151237D01*
X299985D01*
Y1151625D01*
X300179D01*
Y1152207D01*
X300373D01*
Y1153760D01*
X300179D01*
Y1154342D01*
X299985D01*
Y1154730D01*
X299791D01*
Y1154924D01*
X299597D01*
Y1155118D01*
X299403D01*
Y1155312D01*
X299014D01*
Y1155506D01*
X298626D01*
Y1155700D01*
X297850D01*
Y1155894D01*
D02*
G37*
%LPD*%
G36*
X182404Y1143282D02*
Y1143088D01*
Y1142894D01*
X186672D01*
Y1139402D01*
X173090D01*
Y1142894D01*
X177359D01*
Y1153760D01*
X173090D01*
Y1157058D01*
X174837D01*
Y1157252D01*
X176001D01*
Y1157446D01*
X176389D01*
Y1157640D01*
X176777D01*
Y1157834D01*
X177165D01*
Y1158028D01*
X177359D01*
Y1158222D01*
X177553D01*
Y1158610D01*
X177747D01*
Y1158998D01*
X177941D01*
Y1159775D01*
X182404D01*
Y1143282D01*
D02*
G37*
G36*
X162225Y1159581D02*
X163389D01*
Y1159387D01*
X163971D01*
Y1159193D01*
X164553D01*
Y1158998D01*
X164941D01*
Y1158804D01*
X165329D01*
Y1158610D01*
X165717D01*
Y1158416D01*
X166105D01*
Y1158222D01*
X166299D01*
Y1158028D01*
X166493D01*
Y1157834D01*
X166688D01*
Y1157640D01*
X166882D01*
Y1157446D01*
X167076D01*
Y1157252D01*
X167270D01*
Y1157058D01*
X167464D01*
Y1156670D01*
X167658D01*
Y1156282D01*
X167852D01*
Y1155894D01*
X168046D01*
Y1155312D01*
X168240D01*
Y1154342D01*
X168434D01*
Y1152402D01*
X168240D01*
Y1151431D01*
X168046D01*
Y1150655D01*
X167852D01*
Y1150267D01*
X167658D01*
Y1149879D01*
X167464D01*
Y1149491D01*
X167270D01*
Y1149103D01*
X167076D01*
Y1148909D01*
X166882D01*
Y1148715D01*
X166688D01*
Y1148521D01*
X166493D01*
Y1148327D01*
X166299D01*
Y1148133D01*
X166105D01*
Y1147939D01*
X165911D01*
Y1147745D01*
X165717D01*
Y1147551D01*
X165329D01*
Y1147357D01*
X165135D01*
Y1147163D01*
X164747D01*
Y1146969D01*
X164359D01*
Y1146775D01*
X163971D01*
Y1146581D01*
X163389D01*
Y1146387D01*
X162807D01*
Y1146193D01*
X161837D01*
Y1145999D01*
X156792D01*
Y1139402D01*
X151553D01*
Y1148909D01*
Y1149103D01*
Y1159775D01*
X162225D01*
Y1159581D01*
D02*
G37*
G36*
X148449Y1155894D02*
X142046D01*
Y1139402D01*
X137001D01*
Y1155894D01*
X130598D01*
Y1159775D01*
X148449D01*
Y1155894D01*
D02*
G37*
%LPC*%
G36*
X160479D02*
X156792D01*
Y1149879D01*
X160091D01*
Y1150073D01*
X161061D01*
Y1150267D01*
X161643D01*
Y1150461D01*
X161837D01*
Y1150655D01*
X162031D01*
Y1150849D01*
X162225D01*
Y1151043D01*
X162419D01*
Y1151237D01*
X162613D01*
Y1151625D01*
X162807D01*
Y1152207D01*
X163001D01*
Y1153760D01*
X162807D01*
Y1154342D01*
X162613D01*
Y1154730D01*
X162419D01*
Y1154924D01*
X162225D01*
Y1155118D01*
X162031D01*
Y1155312D01*
X161643D01*
Y1155506D01*
X161255D01*
Y1155700D01*
X160479D01*
Y1155894D01*
D02*
G37*
%LPD*%
G36*
X425909Y1096522D02*
X425715D01*
Y1095939D01*
X425521D01*
Y1095357D01*
X425326D01*
Y1094969D01*
X425132D01*
Y1094387D01*
X424939D01*
Y1093805D01*
X424744D01*
Y1093223D01*
X424550D01*
Y1092835D01*
X424356D01*
Y1092253D01*
X424162D01*
Y1091671D01*
X423968D01*
Y1091089D01*
X423774D01*
Y1090701D01*
X423580D01*
Y1090119D01*
X423386D01*
Y1089537D01*
X423192D01*
Y1088954D01*
X422998D01*
Y1088566D01*
X422804D01*
Y1087984D01*
X422610D01*
Y1087402D01*
X422416D01*
Y1086820D01*
X422222D01*
Y1086432D01*
X422028D01*
Y1085850D01*
X421834D01*
Y1085268D01*
X421640D01*
Y1084686D01*
X421446D01*
Y1084298D01*
X421252D01*
Y1083716D01*
X421058D01*
Y1083134D01*
X420864D01*
Y1082551D01*
X420670D01*
Y1082163D01*
X420476D01*
Y1081581D01*
X420282D01*
Y1080999D01*
X420088D01*
Y1080417D01*
X419894D01*
Y1080029D01*
X419700D01*
Y1079447D01*
X419506D01*
Y1078865D01*
X419312D01*
Y1078671D01*
Y1078283D01*
X419118D01*
Y1077895D01*
X418924D01*
Y1077313D01*
X418730D01*
Y1076731D01*
X418536D01*
Y1076537D01*
X412715D01*
Y1076731D01*
X412521D01*
Y1077313D01*
X412327D01*
Y1077895D01*
X412133D01*
Y1078283D01*
X411939D01*
Y1078865D01*
X411745D01*
Y1079447D01*
X411551D01*
Y1080029D01*
X411357D01*
Y1080417D01*
X411162D01*
Y1080999D01*
X410969D01*
Y1081581D01*
X410774D01*
Y1082163D01*
X410580D01*
Y1082551D01*
X410386D01*
Y1083134D01*
X410192D01*
Y1083716D01*
X409998D01*
Y1084298D01*
X409804D01*
Y1084686D01*
X409610D01*
Y1085268D01*
X409416D01*
Y1085850D01*
X409222D01*
Y1086432D01*
X409028D01*
Y1086820D01*
X408834D01*
Y1087402D01*
X408640D01*
Y1087984D01*
X408446D01*
Y1088566D01*
X408252D01*
Y1088954D01*
X408058D01*
Y1089537D01*
X407864D01*
Y1090119D01*
X407670D01*
Y1090701D01*
X407476D01*
Y1091089D01*
X407282D01*
Y1091671D01*
X407088D01*
Y1092253D01*
X406894D01*
Y1092835D01*
X406700D01*
Y1093223D01*
X406506D01*
Y1093805D01*
X406312D01*
Y1094387D01*
X406118D01*
Y1094969D01*
X405924D01*
Y1095357D01*
X405730D01*
Y1095939D01*
X405536D01*
Y1096522D01*
X405342D01*
Y1096910D01*
X410774D01*
Y1096715D01*
X410969D01*
Y1096133D01*
X411162D01*
Y1095551D01*
X411357D01*
Y1094969D01*
X411551D01*
Y1094387D01*
X411745D01*
Y1093805D01*
X411939D01*
Y1093223D01*
X412133D01*
Y1092641D01*
X412327D01*
Y1092059D01*
X412521D01*
Y1091477D01*
X412715D01*
Y1090895D01*
X412909D01*
Y1090507D01*
X413103D01*
Y1089925D01*
X413297D01*
Y1089342D01*
X413491D01*
Y1088760D01*
X413685D01*
Y1088178D01*
X413879D01*
Y1087596D01*
X414073D01*
Y1087014D01*
X414267D01*
Y1086432D01*
X414461D01*
Y1085850D01*
X414655D01*
Y1085268D01*
X414849D01*
Y1084686D01*
X415043D01*
Y1084298D01*
X415237D01*
Y1083716D01*
X415431D01*
Y1083134D01*
X415625D01*
Y1082746D01*
X415819D01*
Y1083328D01*
X416013D01*
Y1083716D01*
X416207D01*
Y1084298D01*
X416401D01*
Y1084880D01*
X416595D01*
Y1085462D01*
X416789D01*
Y1086044D01*
X416983D01*
Y1086626D01*
X417177D01*
Y1087208D01*
X417371D01*
Y1087790D01*
X417565D01*
Y1088372D01*
X417760D01*
Y1088954D01*
X417953D01*
Y1089537D01*
X418148D01*
Y1089925D01*
X418341D01*
Y1090507D01*
X418536D01*
Y1091089D01*
X418730D01*
Y1091671D01*
X418924D01*
Y1092253D01*
X419118D01*
Y1092835D01*
X419312D01*
Y1093417D01*
X419506D01*
Y1093999D01*
X419700D01*
Y1094581D01*
X419894D01*
Y1095163D01*
X420088D01*
Y1095745D01*
X420282D01*
Y1096328D01*
X420476D01*
Y1096715D01*
X420670D01*
Y1096910D01*
X425909D01*
Y1096522D01*
D02*
G37*
G36*
X455595Y1097104D02*
X456759D01*
Y1096910D01*
X457535D01*
Y1096715D01*
X457923D01*
Y1096522D01*
X458505D01*
Y1096328D01*
X458893D01*
Y1096133D01*
X459087D01*
Y1095939D01*
X459475D01*
Y1095745D01*
X459669D01*
Y1095551D01*
X459864D01*
Y1095357D01*
X460057D01*
Y1095163D01*
X460252D01*
Y1094969D01*
X460446D01*
Y1094775D01*
X460640D01*
Y1094581D01*
X460834D01*
Y1094193D01*
X461028D01*
Y1093805D01*
X461222D01*
Y1093223D01*
X461416D01*
Y1092447D01*
X461610D01*
Y1089731D01*
X461416D01*
Y1088954D01*
X461222D01*
Y1088372D01*
X461028D01*
Y1087984D01*
X460834D01*
Y1087596D01*
X460640D01*
Y1087208D01*
X460446D01*
Y1086820D01*
X460252D01*
Y1086626D01*
X460057D01*
Y1086432D01*
X459864D01*
Y1086044D01*
X459669D01*
Y1085850D01*
X459475D01*
Y1085656D01*
X459281D01*
Y1085462D01*
X459087D01*
Y1085268D01*
Y1085074D01*
X458893D01*
Y1084880D01*
X458699D01*
Y1084686D01*
X458505D01*
Y1084492D01*
X458311D01*
Y1084298D01*
X458117D01*
Y1084104D01*
X457923D01*
Y1083910D01*
X457729D01*
Y1083716D01*
X457535D01*
Y1083522D01*
X457147D01*
Y1083328D01*
X456953D01*
Y1083134D01*
X456759D01*
Y1082940D01*
X456565D01*
Y1082746D01*
X456371D01*
Y1082551D01*
X456177D01*
Y1082357D01*
X455789D01*
Y1082163D01*
X455595D01*
Y1081969D01*
X455401D01*
Y1081775D01*
X455207D01*
Y1081581D01*
X454819D01*
Y1081387D01*
X454625D01*
Y1081193D01*
X454431D01*
Y1080999D01*
X454043D01*
Y1080805D01*
X453849D01*
Y1080611D01*
X453655D01*
Y1080417D01*
X462580D01*
Y1076537D01*
X446670D01*
Y1080029D01*
X447058D01*
Y1080223D01*
X447252D01*
Y1080417D01*
X447446D01*
Y1080611D01*
X447834D01*
Y1080805D01*
X448028D01*
Y1080999D01*
X448222D01*
Y1081193D01*
X448610D01*
Y1081387D01*
X448804D01*
Y1081581D01*
X448998D01*
Y1081775D01*
X449386D01*
Y1081969D01*
X449580D01*
Y1082163D01*
X449774D01*
Y1082357D01*
X449968D01*
Y1082551D01*
X450356D01*
Y1082746D01*
X450550D01*
Y1082940D01*
X450744D01*
Y1083134D01*
X450938D01*
Y1083328D01*
X451132D01*
Y1083522D01*
X451520D01*
Y1083716D01*
X451714D01*
Y1083910D01*
X451908D01*
Y1084104D01*
X452102D01*
Y1084298D01*
X452296D01*
Y1084492D01*
X452490D01*
Y1084686D01*
X452685D01*
Y1084880D01*
X453073D01*
Y1085074D01*
X453266D01*
Y1085268D01*
X453461D01*
Y1085462D01*
X453655D01*
Y1085656D01*
X453849D01*
Y1085850D01*
X454043D01*
Y1086044D01*
X454237D01*
Y1086238D01*
X454431D01*
Y1086626D01*
X454625D01*
Y1086820D01*
X454819D01*
Y1087014D01*
X455013D01*
Y1087208D01*
X455207D01*
Y1087596D01*
X455401D01*
Y1087790D01*
X455595D01*
Y1088178D01*
X455789D01*
Y1088566D01*
X455983D01*
Y1088954D01*
X456177D01*
Y1089925D01*
X456371D01*
Y1090701D01*
X456177D01*
Y1091477D01*
X455983D01*
Y1091865D01*
X455789D01*
Y1092253D01*
X455595D01*
Y1092447D01*
X455401D01*
Y1092641D01*
X455013D01*
Y1092835D01*
X454625D01*
Y1093029D01*
X453849D01*
Y1093223D01*
X451714D01*
Y1093029D01*
X450744D01*
Y1092835D01*
X450162D01*
Y1092641D01*
X449580D01*
Y1092447D01*
X449192D01*
Y1092253D01*
X448804D01*
Y1092059D01*
X448416D01*
Y1091865D01*
X448028D01*
Y1091671D01*
X447834D01*
Y1091477D01*
X447252D01*
Y1096133D01*
X447640D01*
Y1096328D01*
X448222D01*
Y1096522D01*
X448998D01*
Y1096715D01*
X449774D01*
Y1096910D01*
X450744D01*
Y1097104D01*
X452102D01*
Y1097298D01*
X455595D01*
Y1097104D01*
D02*
G37*
G36*
X434058Y1091477D02*
Y1091283D01*
Y1080417D01*
X443565D01*
Y1076537D01*
X428819D01*
Y1096910D01*
X434058D01*
Y1091477D01*
D02*
G37*
G36*
X322880Y1084880D02*
X325596D01*
Y1081193D01*
X322880D01*
Y1076537D01*
X317835D01*
Y1081193D01*
X308134D01*
Y1085268D01*
X308328D01*
Y1085462D01*
X308522D01*
Y1085656D01*
X308716D01*
Y1086044D01*
X308910D01*
Y1086238D01*
X309104D01*
Y1086432D01*
X309298D01*
Y1086626D01*
X309492D01*
Y1087014D01*
X309686D01*
Y1087208D01*
X309880D01*
Y1087402D01*
X310074D01*
Y1087596D01*
X310268D01*
Y1087984D01*
X310462D01*
Y1088178D01*
X310656D01*
Y1088372D01*
X310850D01*
Y1088566D01*
X311044D01*
Y1088954D01*
X311238D01*
Y1089148D01*
X311432D01*
Y1089342D01*
X311626D01*
Y1089537D01*
X311820D01*
Y1089925D01*
X312014D01*
Y1090119D01*
X312208D01*
Y1090313D01*
X312402D01*
Y1090507D01*
X312596D01*
Y1090895D01*
X312790D01*
Y1091089D01*
X312985D01*
Y1091283D01*
X313179D01*
Y1091477D01*
X313372D01*
Y1091865D01*
X313566D01*
Y1092059D01*
X313761D01*
Y1092253D01*
X313955D01*
Y1092447D01*
X314149D01*
Y1092835D01*
X314343D01*
Y1093029D01*
X314537D01*
Y1093223D01*
X314731D01*
Y1093417D01*
X314925D01*
Y1093805D01*
X315119D01*
Y1093999D01*
X315313D01*
Y1094193D01*
X315507D01*
Y1094387D01*
X315701D01*
Y1094775D01*
X315895D01*
Y1094969D01*
X316089D01*
Y1095163D01*
X316283D01*
Y1095357D01*
X316477D01*
Y1095745D01*
X316671D01*
Y1095939D01*
X316865D01*
Y1096133D01*
X317059D01*
Y1096328D01*
X317253D01*
Y1096715D01*
X317447D01*
Y1096910D01*
X322880D01*
Y1084880D01*
D02*
G37*
G36*
X299597Y1096715D02*
X300761D01*
Y1096522D01*
X301343D01*
Y1096328D01*
X301925D01*
Y1096133D01*
X302313D01*
Y1095939D01*
X302701D01*
Y1095745D01*
X303089D01*
Y1095551D01*
X303477D01*
Y1095357D01*
X303671D01*
Y1095163D01*
X303865D01*
Y1094969D01*
X304059D01*
Y1094775D01*
X304253D01*
Y1094581D01*
X304447D01*
Y1094387D01*
X304641D01*
Y1094193D01*
X304835D01*
Y1093805D01*
X305029D01*
Y1093417D01*
X305223D01*
Y1093029D01*
X305417D01*
Y1092447D01*
X305611D01*
Y1091477D01*
X305805D01*
Y1089537D01*
X305611D01*
Y1088566D01*
X305417D01*
Y1087790D01*
X305223D01*
Y1087402D01*
X305029D01*
Y1087014D01*
X304835D01*
Y1086626D01*
X304641D01*
Y1086238D01*
X304447D01*
Y1086044D01*
X304253D01*
Y1085850D01*
X304059D01*
Y1085656D01*
X303865D01*
Y1085462D01*
X303671D01*
Y1085268D01*
X303477D01*
Y1085074D01*
X303283D01*
Y1084880D01*
X303089D01*
Y1084686D01*
X302701D01*
Y1084492D01*
X302507D01*
Y1084298D01*
X302119D01*
Y1084104D01*
X301731D01*
Y1083910D01*
X301343D01*
Y1083716D01*
X300761D01*
Y1083522D01*
X300179D01*
Y1083328D01*
X299209D01*
Y1083134D01*
X294164D01*
Y1076537D01*
X288925D01*
Y1090313D01*
Y1090507D01*
Y1096910D01*
X299597D01*
Y1096715D01*
D02*
G37*
G36*
X285821Y1093029D02*
X279418D01*
Y1076537D01*
X274373D01*
Y1093029D01*
X267970D01*
Y1096910D01*
X285821D01*
Y1093029D01*
D02*
G37*
%LPC*%
G36*
X317835Y1092059D02*
X317641D01*
Y1091865D01*
X317447D01*
Y1091671D01*
X317253D01*
Y1091477D01*
X317059D01*
Y1091283D01*
X316865D01*
Y1090895D01*
X316671D01*
Y1090701D01*
X316477D01*
Y1090507D01*
X316283D01*
Y1090313D01*
X316089D01*
Y1089925D01*
X315895D01*
Y1089731D01*
X315701D01*
Y1089537D01*
X315507D01*
Y1089342D01*
X315313D01*
Y1088954D01*
X315119D01*
Y1088760D01*
X314925D01*
Y1088566D01*
X314731D01*
Y1088372D01*
X314537D01*
Y1087984D01*
X314343D01*
Y1087790D01*
X314149D01*
Y1087596D01*
X313955D01*
Y1087402D01*
X313761D01*
Y1087014D01*
X313566D01*
Y1086820D01*
X313372D01*
Y1086626D01*
X313179D01*
Y1086238D01*
X312985D01*
Y1086044D01*
X312790D01*
Y1085850D01*
X312596D01*
Y1085656D01*
X312402D01*
Y1085268D01*
X312208D01*
Y1085074D01*
X312014D01*
Y1084880D01*
X317835D01*
Y1092059D01*
D02*
G37*
G36*
X297850Y1093029D02*
X294164D01*
Y1087014D01*
X297462D01*
Y1087208D01*
X298432D01*
Y1087402D01*
X299014D01*
Y1087596D01*
X299209D01*
Y1087790D01*
X299403D01*
Y1087984D01*
X299597D01*
Y1088178D01*
X299791D01*
Y1088372D01*
X299985D01*
Y1088760D01*
X300179D01*
Y1089342D01*
X300373D01*
Y1090895D01*
X300179D01*
Y1091477D01*
X299985D01*
Y1091865D01*
X299791D01*
Y1092059D01*
X299597D01*
Y1092253D01*
X299403D01*
Y1092447D01*
X299014D01*
Y1092641D01*
X298626D01*
Y1092835D01*
X297850D01*
Y1093029D01*
D02*
G37*
%LPD*%
G36*
X180851Y1097104D02*
X182016D01*
Y1096910D01*
X182986D01*
Y1096715D01*
X183568D01*
Y1096522D01*
X183956D01*
Y1096328D01*
X184344D01*
Y1096133D01*
X184732D01*
Y1095939D01*
X185120D01*
Y1095745D01*
X185314D01*
Y1095551D01*
X185508D01*
Y1095357D01*
X185702D01*
Y1095163D01*
X185896D01*
Y1094969D01*
X186090D01*
Y1094775D01*
X186284D01*
Y1094387D01*
X186478D01*
Y1093999D01*
X186672D01*
Y1093417D01*
X186866D01*
Y1093029D01*
Y1092835D01*
Y1091089D01*
X186672D01*
Y1090507D01*
X186478D01*
Y1089925D01*
X186284D01*
Y1089731D01*
X186090D01*
Y1089342D01*
X185896D01*
Y1089148D01*
X185702D01*
Y1088954D01*
X185508D01*
Y1088760D01*
X185314D01*
Y1088566D01*
X185120D01*
Y1088372D01*
X184926D01*
Y1088178D01*
X184538D01*
Y1087984D01*
X184150D01*
Y1087790D01*
X183762D01*
Y1087596D01*
X183180D01*
Y1087208D01*
X183956D01*
Y1087014D01*
X184538D01*
Y1086820D01*
X185120D01*
Y1086626D01*
X185314D01*
Y1086432D01*
X185702D01*
Y1086238D01*
X185896D01*
Y1086044D01*
X186090D01*
Y1085850D01*
X186284D01*
Y1085656D01*
X186478D01*
Y1085462D01*
X186672D01*
Y1085268D01*
X186866D01*
Y1084880D01*
X187060D01*
Y1084492D01*
X187255D01*
Y1083716D01*
X187449D01*
Y1081581D01*
X187255D01*
Y1080805D01*
X187060D01*
Y1080223D01*
X186866D01*
Y1079835D01*
X186672D01*
Y1079447D01*
X186478D01*
Y1079253D01*
X186284D01*
Y1078865D01*
X186090D01*
Y1078671D01*
X185896D01*
Y1078477D01*
X185702D01*
Y1078283D01*
X185508D01*
Y1078089D01*
X185120D01*
Y1077895D01*
X184926D01*
Y1077701D01*
X184732D01*
Y1077507D01*
X184344D01*
Y1077313D01*
X183956D01*
Y1077119D01*
X183568D01*
Y1076925D01*
X183180D01*
Y1076731D01*
X182598D01*
Y1076537D01*
X181822D01*
Y1076343D01*
X180658D01*
Y1076149D01*
X176389D01*
Y1076343D01*
X174837D01*
Y1076537D01*
X174061D01*
Y1076731D01*
X173284D01*
Y1076925D01*
X172508D01*
Y1077119D01*
X171926D01*
Y1077313D01*
X171538D01*
Y1077507D01*
X171344D01*
Y1081969D01*
X172120D01*
Y1081775D01*
X172508D01*
Y1081581D01*
X172896D01*
Y1081387D01*
X173284D01*
Y1081193D01*
X173673D01*
Y1080999D01*
X174255D01*
Y1080805D01*
X174837D01*
Y1080611D01*
X175613D01*
Y1080417D01*
X176583D01*
Y1080223D01*
X179299D01*
Y1080417D01*
X180270D01*
Y1080611D01*
X180658D01*
Y1080805D01*
X181046D01*
Y1080999D01*
X181240D01*
Y1081193D01*
X181434D01*
Y1081387D01*
X181628D01*
Y1081581D01*
X181822D01*
Y1081969D01*
X182016D01*
Y1082746D01*
X182210D01*
Y1083522D01*
X182016D01*
Y1084298D01*
X181822D01*
Y1084492D01*
X181628D01*
Y1084686D01*
X181434D01*
Y1084880D01*
X181240D01*
Y1085074D01*
X180658D01*
Y1085268D01*
X179881D01*
Y1085462D01*
X176195D01*
Y1088954D01*
X179493D01*
Y1089148D01*
X180464D01*
Y1089342D01*
X180851D01*
Y1089537D01*
X181046D01*
Y1089731D01*
X181434D01*
Y1090119D01*
X181628D01*
Y1090507D01*
X181822D01*
Y1091865D01*
X181628D01*
Y1092253D01*
X181434D01*
Y1092447D01*
X181240D01*
Y1092641D01*
X180851D01*
Y1092835D01*
X180464D01*
Y1093029D01*
X179687D01*
Y1093223D01*
X176777D01*
Y1093029D01*
X175807D01*
Y1092835D01*
X175031D01*
Y1092641D01*
X174449D01*
Y1092447D01*
X174061D01*
Y1092253D01*
X173479D01*
Y1092059D01*
X173090D01*
Y1091865D01*
X172702D01*
Y1091671D01*
X172120D01*
Y1096133D01*
X172508D01*
Y1096328D01*
X173284D01*
Y1096522D01*
X173867D01*
Y1096715D01*
X174643D01*
Y1096910D01*
X175613D01*
Y1097104D01*
X176971D01*
Y1097298D01*
X180851D01*
Y1097104D01*
D02*
G37*
G36*
X162225Y1096715D02*
X163389D01*
Y1096522D01*
X163971D01*
Y1096328D01*
X164553D01*
Y1096133D01*
X164941D01*
Y1095939D01*
X165329D01*
Y1095745D01*
X165717D01*
Y1095551D01*
X166105D01*
Y1095357D01*
X166299D01*
Y1095163D01*
X166493D01*
Y1094969D01*
X166688D01*
Y1094775D01*
X166882D01*
Y1094581D01*
X167076D01*
Y1094387D01*
X167270D01*
Y1094193D01*
X167464D01*
Y1093805D01*
X167658D01*
Y1093417D01*
X167852D01*
Y1093029D01*
X168046D01*
Y1092447D01*
X168240D01*
Y1091477D01*
X168434D01*
Y1089537D01*
X168240D01*
Y1088566D01*
X168046D01*
Y1087790D01*
X167852D01*
Y1087402D01*
X167658D01*
Y1087014D01*
X167464D01*
Y1086626D01*
X167270D01*
Y1086238D01*
X167076D01*
Y1086044D01*
X166882D01*
Y1085850D01*
X166688D01*
Y1085656D01*
X166493D01*
Y1085462D01*
X166299D01*
Y1085268D01*
X166105D01*
Y1085074D01*
X165911D01*
Y1084880D01*
X165717D01*
Y1084686D01*
X165329D01*
Y1084492D01*
X165135D01*
Y1084298D01*
X164747D01*
Y1084104D01*
X164359D01*
Y1083910D01*
X163971D01*
Y1083716D01*
X163389D01*
Y1083522D01*
X162807D01*
Y1083328D01*
X161837D01*
Y1083134D01*
X156792D01*
Y1082746D01*
Y1082551D01*
Y1076537D01*
X151553D01*
Y1096910D01*
X162225D01*
Y1096715D01*
D02*
G37*
G36*
X148449Y1093029D02*
X142046D01*
Y1076537D01*
X137001D01*
Y1084298D01*
Y1084492D01*
Y1093029D01*
X130598D01*
Y1096910D01*
X148449D01*
Y1093029D01*
D02*
G37*
%LPC*%
G36*
X160479D02*
X156792D01*
Y1087014D01*
X160091D01*
Y1087208D01*
X161061D01*
Y1087402D01*
X161643D01*
Y1087596D01*
X161837D01*
Y1087790D01*
X162031D01*
Y1087984D01*
X162225D01*
Y1088178D01*
X162419D01*
Y1088372D01*
X162613D01*
Y1088760D01*
X162807D01*
Y1089342D01*
X163001D01*
Y1090895D01*
X162807D01*
Y1091477D01*
X162613D01*
Y1091865D01*
X162419D01*
Y1092059D01*
X162225D01*
Y1092253D01*
X162031D01*
Y1092447D01*
X161643D01*
Y1092641D01*
X161255D01*
Y1092835D01*
X160479D01*
Y1093029D01*
D02*
G37*
%LPD*%
G36*
X438714Y1034239D02*
X440073D01*
Y1034045D01*
X440849D01*
Y1033850D01*
X441625D01*
Y1033656D01*
X442207D01*
Y1033463D01*
X442595D01*
Y1033269D01*
X442983D01*
Y1033074D01*
X443565D01*
Y1032880D01*
X443953D01*
Y1027836D01*
X443371D01*
Y1028030D01*
X442983D01*
Y1028224D01*
X442789D01*
Y1028418D01*
X442595D01*
Y1028612D01*
X442401D01*
Y1028806D01*
X442013D01*
Y1029000D01*
X441819D01*
Y1029194D01*
X441431D01*
Y1029388D01*
X441237D01*
Y1029582D01*
X440849D01*
Y1029776D01*
X440461D01*
Y1029970D01*
X440073D01*
Y1030164D01*
X439491D01*
Y1030358D01*
X438714D01*
Y1030552D01*
X436386D01*
Y1030358D01*
X435610D01*
Y1030164D01*
X435222D01*
Y1029970D01*
X434834D01*
Y1029776D01*
X434446D01*
Y1029582D01*
X434252D01*
Y1029388D01*
X433864D01*
Y1029194D01*
X433670D01*
Y1029000D01*
X433476D01*
Y1028806D01*
X433282D01*
Y1028418D01*
X433088D01*
Y1028224D01*
X432894D01*
Y1027836D01*
X432700D01*
Y1027448D01*
X432506D01*
Y1027060D01*
X432312D01*
Y1026478D01*
X432118D01*
Y1025701D01*
X431923D01*
Y1022015D01*
X432118D01*
Y1021239D01*
X432312D01*
Y1020657D01*
X432506D01*
Y1020269D01*
X432700D01*
Y1019881D01*
X432894D01*
Y1019492D01*
X433088D01*
Y1019298D01*
X433282D01*
Y1018910D01*
X433476D01*
Y1018716D01*
X433670D01*
Y1018522D01*
X433864D01*
Y1018328D01*
X434252D01*
Y1018134D01*
X434446D01*
Y1017940D01*
X434834D01*
Y1017746D01*
X435222D01*
Y1017552D01*
X435804D01*
Y1017358D01*
X436580D01*
Y1017164D01*
X438714D01*
Y1017358D01*
X439491D01*
Y1017552D01*
X440073D01*
Y1017746D01*
X440461D01*
Y1017940D01*
X440849D01*
Y1018134D01*
X441237D01*
Y1018328D01*
X441625D01*
Y1018522D01*
X441819D01*
Y1018716D01*
X442207D01*
Y1018910D01*
X442401D01*
Y1019104D01*
X442595D01*
Y1019298D01*
X442983D01*
Y1019492D01*
X443177D01*
Y1019687D01*
X443371D01*
Y1019881D01*
X443953D01*
Y1015030D01*
X443759D01*
Y1014836D01*
X443371D01*
Y1014642D01*
X442789D01*
Y1014448D01*
X442401D01*
Y1014254D01*
X442013D01*
Y1014060D01*
X441431D01*
Y1013866D01*
X440655D01*
Y1013672D01*
X439879D01*
Y1013478D01*
X438909D01*
Y1013284D01*
X435222D01*
Y1013478D01*
X434058D01*
Y1013672D01*
X433282D01*
Y1013866D01*
X432700D01*
Y1014060D01*
X432118D01*
Y1014254D01*
X431730D01*
Y1014448D01*
X431341D01*
Y1014642D01*
X430953D01*
Y1014836D01*
X430565D01*
Y1015030D01*
X430371D01*
Y1015224D01*
X429983D01*
Y1015418D01*
X429789D01*
Y1015612D01*
X429595D01*
Y1015806D01*
X429401D01*
Y1016000D01*
X429207D01*
Y1016194D01*
X429013D01*
Y1016388D01*
X428819D01*
Y1016582D01*
X428625D01*
Y1016776D01*
X428431D01*
Y1017164D01*
X428237D01*
Y1017358D01*
X428043D01*
Y1017746D01*
X427849D01*
Y1018134D01*
X427655D01*
Y1018522D01*
X427461D01*
Y1018910D01*
X427267D01*
Y1019298D01*
X427073D01*
Y1019881D01*
X426879D01*
Y1020657D01*
X426685D01*
Y1021821D01*
X426491D01*
Y1025895D01*
X426685D01*
Y1026865D01*
X426879D01*
Y1027642D01*
X427073D01*
Y1028224D01*
X427267D01*
Y1028806D01*
X427461D01*
Y1029194D01*
X427655D01*
Y1029582D01*
X427849D01*
Y1029776D01*
X428043D01*
Y1030164D01*
X428237D01*
Y1030552D01*
X428431D01*
Y1030746D01*
X428625D01*
Y1030940D01*
X428819D01*
Y1031134D01*
X429013D01*
Y1031522D01*
X429207D01*
Y1031716D01*
X429401D01*
Y1031910D01*
X429789D01*
Y1032104D01*
X429983D01*
Y1032298D01*
X430177D01*
Y1032492D01*
X430371D01*
Y1032686D01*
X430759D01*
Y1032880D01*
X430953D01*
Y1033074D01*
X431341D01*
Y1033269D01*
X431730D01*
Y1033463D01*
X432312D01*
Y1033656D01*
X432700D01*
Y1033850D01*
X433282D01*
Y1034045D01*
X434058D01*
Y1034239D01*
X435222D01*
Y1034433D01*
X438714D01*
Y1034239D01*
D02*
G37*
G36*
X424744Y1033850D02*
X424550D01*
Y1033269D01*
X424356D01*
Y1032880D01*
X424162D01*
Y1032298D01*
X423968D01*
Y1031716D01*
X423774D01*
Y1031134D01*
X423580D01*
Y1030746D01*
X423386D01*
Y1030164D01*
X423192D01*
Y1029582D01*
X422998D01*
Y1029000D01*
X422804D01*
Y1028612D01*
X422610D01*
Y1028030D01*
X422416D01*
Y1027448D01*
X422222D01*
Y1026865D01*
X422028D01*
Y1026478D01*
X421834D01*
Y1025895D01*
X421640D01*
Y1025313D01*
X421446D01*
Y1024731D01*
X421252D01*
Y1024343D01*
X421058D01*
Y1023761D01*
X420864D01*
Y1023179D01*
X420670D01*
Y1022597D01*
X420476D01*
Y1022209D01*
X420282D01*
Y1021627D01*
X420088D01*
Y1021045D01*
X419894D01*
Y1020463D01*
X419700D01*
Y1020075D01*
X419506D01*
Y1019492D01*
X419312D01*
Y1018910D01*
X419118D01*
Y1018328D01*
X418924D01*
Y1017940D01*
X418730D01*
Y1017358D01*
X418536D01*
Y1016776D01*
X418341D01*
Y1016194D01*
X418148D01*
Y1015806D01*
X417953D01*
Y1015224D01*
X417760D01*
Y1014642D01*
X417565D01*
Y1014060D01*
X417371D01*
Y1013672D01*
X411357D01*
Y1014060D01*
X411162D01*
Y1014642D01*
X410969D01*
Y1015224D01*
X410774D01*
Y1015806D01*
X410580D01*
Y1016194D01*
X410386D01*
Y1016776D01*
X410192D01*
Y1017358D01*
X409998D01*
Y1017940D01*
X409804D01*
Y1018328D01*
X409610D01*
Y1018910D01*
X409416D01*
Y1019104D01*
Y1019298D01*
Y1019492D01*
X409222D01*
Y1020075D01*
X409028D01*
Y1020463D01*
X408834D01*
Y1021045D01*
X408640D01*
Y1021627D01*
X408446D01*
Y1022209D01*
X408252D01*
Y1022597D01*
X408058D01*
Y1023179D01*
X407864D01*
Y1023761D01*
X407670D01*
Y1024343D01*
X407476D01*
Y1024731D01*
X407282D01*
Y1025313D01*
X407088D01*
Y1025895D01*
X406894D01*
Y1026478D01*
X406700D01*
Y1026865D01*
X406506D01*
Y1027448D01*
X406312D01*
Y1028030D01*
X406118D01*
Y1028612D01*
X405924D01*
Y1029000D01*
X405730D01*
Y1029582D01*
X405536D01*
Y1030164D01*
X405342D01*
Y1030746D01*
X405148D01*
Y1031134D01*
X404954D01*
Y1031716D01*
X404760D01*
Y1032298D01*
X404566D01*
Y1032880D01*
X404371D01*
Y1033269D01*
X404178D01*
Y1033850D01*
X403983D01*
Y1034045D01*
X409610D01*
Y1033463D01*
X409804D01*
Y1032880D01*
X409998D01*
Y1032298D01*
X410192D01*
Y1031716D01*
X410386D01*
Y1031134D01*
X410580D01*
Y1030746D01*
X410774D01*
Y1030164D01*
X410969D01*
Y1029582D01*
X411162D01*
Y1029000D01*
X411357D01*
Y1028418D01*
X411551D01*
Y1027836D01*
X411745D01*
Y1027254D01*
X411939D01*
Y1026672D01*
X412133D01*
Y1026089D01*
X412327D01*
Y1025507D01*
X412521D01*
Y1024925D01*
X412715D01*
Y1024537D01*
X412909D01*
Y1023955D01*
X413103D01*
Y1023373D01*
X413297D01*
Y1022791D01*
X413491D01*
Y1022209D01*
X413685D01*
Y1021627D01*
X413879D01*
Y1021045D01*
X414073D01*
Y1020463D01*
X414267D01*
Y1019881D01*
X414461D01*
Y1020075D01*
X414655D01*
Y1020657D01*
X414849D01*
Y1021239D01*
X415043D01*
Y1021821D01*
X415237D01*
Y1022403D01*
X415431D01*
Y1022985D01*
X415625D01*
Y1023567D01*
X415819D01*
Y1023955D01*
X416013D01*
Y1024537D01*
X416207D01*
Y1025119D01*
X416401D01*
Y1025701D01*
X416595D01*
Y1026283D01*
X416789D01*
Y1026865D01*
X416983D01*
Y1027448D01*
X417177D01*
Y1028030D01*
X417371D01*
Y1028612D01*
X417565D01*
Y1029194D01*
X417760D01*
Y1029776D01*
X417953D01*
Y1030358D01*
X418148D01*
Y1030746D01*
X418341D01*
Y1031328D01*
X418536D01*
Y1031910D01*
X418730D01*
Y1032492D01*
X418924D01*
Y1033074D01*
X419118D01*
Y1033656D01*
X419312D01*
Y1034045D01*
X424744D01*
Y1033850D01*
D02*
G37*
G36*
X458311Y1017164D02*
X462386D01*
Y1013672D01*
X448998D01*
Y1017164D01*
X453266D01*
Y1028030D01*
X448998D01*
Y1031328D01*
X450744D01*
Y1031522D01*
X451714D01*
Y1031716D01*
X452296D01*
Y1031910D01*
X452685D01*
Y1032104D01*
X452878D01*
Y1032298D01*
X453073D01*
Y1032492D01*
X453266D01*
Y1032686D01*
X453461D01*
Y1033074D01*
X453655D01*
Y1033850D01*
X453849D01*
Y1034045D01*
X458311D01*
Y1017164D01*
D02*
G37*
G36*
X321716Y1034239D02*
X323268D01*
Y1034045D01*
X323656D01*
Y1030164D01*
X322880D01*
Y1030358D01*
X322104D01*
Y1030552D01*
X321328D01*
Y1030746D01*
X318417D01*
Y1030552D01*
X317641D01*
Y1030358D01*
X317059D01*
Y1030164D01*
X316671D01*
Y1029970D01*
X316283D01*
Y1029776D01*
X316089D01*
Y1029582D01*
X315701D01*
Y1029388D01*
X315507D01*
Y1029194D01*
X315313D01*
Y1029000D01*
X315119D01*
Y1028612D01*
X314925D01*
Y1028418D01*
X314731D01*
Y1028030D01*
X314537D01*
Y1027642D01*
X314343D01*
Y1027060D01*
X314149D01*
Y1026283D01*
X313955D01*
Y1025895D01*
X314343D01*
Y1026089D01*
X314537D01*
Y1026283D01*
X314925D01*
Y1026478D01*
X315507D01*
Y1026672D01*
X315895D01*
Y1026865D01*
X316477D01*
Y1027060D01*
X317447D01*
Y1027254D01*
X320163D01*
Y1027060D01*
X320940D01*
Y1026865D01*
X321522D01*
Y1026672D01*
X321910D01*
Y1026478D01*
X322298D01*
Y1026283D01*
X322686D01*
Y1026089D01*
X322880D01*
Y1025895D01*
X323268D01*
Y1025701D01*
X323462D01*
Y1025507D01*
X323656D01*
Y1025313D01*
X323850D01*
Y1025119D01*
X324044D01*
Y1024731D01*
X324238D01*
Y1024537D01*
X324432D01*
Y1024149D01*
X324626D01*
Y1023761D01*
X324820D01*
Y1023373D01*
X325014D01*
Y1022597D01*
X325208D01*
Y1018910D01*
X325014D01*
Y1018134D01*
X324820D01*
Y1017552D01*
X324626D01*
Y1017164D01*
X324432D01*
Y1016776D01*
X324238D01*
Y1016582D01*
X324044D01*
Y1016194D01*
X323850D01*
Y1016000D01*
X323656D01*
Y1015806D01*
X323462D01*
Y1015612D01*
X323268D01*
Y1015418D01*
X323074D01*
Y1015224D01*
X322880D01*
Y1015030D01*
X322686D01*
Y1014836D01*
X322298D01*
Y1014642D01*
X322104D01*
Y1014448D01*
X321716D01*
Y1014254D01*
X321328D01*
Y1014060D01*
X320940D01*
Y1013866D01*
X320358D01*
Y1013672D01*
X319775D01*
Y1013478D01*
X318805D01*
Y1013284D01*
X315701D01*
Y1013478D01*
X314537D01*
Y1013672D01*
X313955D01*
Y1013866D01*
X313372D01*
Y1014060D01*
X312985D01*
Y1014254D01*
X312596D01*
Y1014448D01*
X312208D01*
Y1014642D01*
X312014D01*
Y1014836D01*
X311626D01*
Y1015030D01*
X311432D01*
Y1015224D01*
X311238D01*
Y1015418D01*
X311044D01*
Y1015612D01*
X310850D01*
Y1015806D01*
X310656D01*
Y1016000D01*
X310462D01*
Y1016388D01*
X310268D01*
Y1016582D01*
X310074D01*
Y1016970D01*
X309880D01*
Y1017358D01*
X309686D01*
Y1017746D01*
X309492D01*
Y1018328D01*
X309298D01*
Y1018910D01*
X309104D01*
Y1019687D01*
X308910D01*
Y1020851D01*
X308716D01*
Y1024731D01*
X308910D01*
Y1026283D01*
X309104D01*
Y1027060D01*
X309298D01*
Y1027836D01*
X309492D01*
Y1028418D01*
X309686D01*
Y1028806D01*
X309880D01*
Y1029194D01*
X310074D01*
Y1029582D01*
X310268D01*
Y1029970D01*
X310462D01*
Y1030164D01*
X310656D01*
Y1030552D01*
X310850D01*
Y1030746D01*
X311044D01*
Y1030940D01*
X311238D01*
Y1031134D01*
X311432D01*
Y1031328D01*
X311626D01*
Y1031716D01*
X312014D01*
Y1031910D01*
X312208D01*
Y1032104D01*
X312402D01*
Y1032298D01*
X312596D01*
Y1032492D01*
X312985D01*
Y1032686D01*
X313179D01*
Y1032880D01*
X313566D01*
Y1033074D01*
X313955D01*
Y1033269D01*
X314343D01*
Y1033463D01*
X314731D01*
Y1033656D01*
X315313D01*
Y1033850D01*
X315895D01*
Y1034045D01*
X316671D01*
Y1034239D01*
X318029D01*
Y1034433D01*
X321716D01*
Y1034239D01*
D02*
G37*
G36*
X299597Y1033850D02*
X300761D01*
Y1033656D01*
X301343D01*
Y1033463D01*
X301925D01*
Y1033269D01*
X302313D01*
Y1033074D01*
X302701D01*
Y1032880D01*
X303089D01*
Y1032686D01*
X303477D01*
Y1032492D01*
X303671D01*
Y1032298D01*
X303865D01*
Y1032104D01*
X304059D01*
Y1031910D01*
X304253D01*
Y1031716D01*
X304447D01*
Y1031522D01*
X304641D01*
Y1031328D01*
X304835D01*
Y1030940D01*
X305029D01*
Y1030552D01*
X305223D01*
Y1030164D01*
X305417D01*
Y1029582D01*
X305611D01*
Y1028612D01*
X305805D01*
Y1026672D01*
X305611D01*
Y1025701D01*
X305417D01*
Y1024925D01*
X305223D01*
Y1024537D01*
X305029D01*
Y1024149D01*
X304835D01*
Y1023761D01*
X304641D01*
Y1023373D01*
X304447D01*
Y1023179D01*
X304253D01*
Y1022985D01*
X304059D01*
Y1022791D01*
X303865D01*
Y1022597D01*
X303671D01*
Y1022403D01*
X303477D01*
Y1022209D01*
X303283D01*
Y1022015D01*
X303089D01*
Y1021821D01*
X302701D01*
Y1021627D01*
X302507D01*
Y1021433D01*
X302119D01*
Y1021239D01*
X301731D01*
Y1021045D01*
X301343D01*
Y1020851D01*
X300761D01*
Y1020657D01*
X300179D01*
Y1020463D01*
X299209D01*
Y1020269D01*
X294164D01*
Y1013672D01*
X288925D01*
Y1034045D01*
X299597D01*
Y1033850D01*
D02*
G37*
G36*
X285821Y1030164D02*
X279418D01*
Y1013672D01*
X274373D01*
Y1030164D01*
X267970D01*
Y1034045D01*
X285821D01*
Y1030164D01*
D02*
G37*
%LPC*%
G36*
X317641Y1023761D02*
X315313D01*
Y1023567D01*
X314537D01*
Y1023373D01*
X313955D01*
Y1020269D01*
X314149D01*
Y1019298D01*
X314343D01*
Y1018716D01*
X314537D01*
Y1018328D01*
X314731D01*
Y1017940D01*
X314925D01*
Y1017746D01*
X315119D01*
Y1017552D01*
X315313D01*
Y1017358D01*
X315507D01*
Y1017164D01*
X315895D01*
Y1016970D01*
X316283D01*
Y1016776D01*
X317835D01*
Y1016970D01*
X318417D01*
Y1017164D01*
X318805D01*
Y1017358D01*
X318999D01*
Y1017552D01*
X319193D01*
Y1017746D01*
X319387D01*
Y1018134D01*
X319581D01*
Y1018522D01*
X319775D01*
Y1018910D01*
X319970D01*
Y1021821D01*
X319775D01*
Y1022209D01*
X319581D01*
Y1022597D01*
X319387D01*
Y1022791D01*
X319193D01*
Y1022985D01*
X318999D01*
Y1023179D01*
X318611D01*
Y1023373D01*
X318223D01*
Y1023567D01*
X317641D01*
Y1023761D01*
D02*
G37*
G36*
X297850Y1030164D02*
X294164D01*
Y1028612D01*
Y1028418D01*
Y1024149D01*
X297462D01*
Y1024343D01*
X298432D01*
Y1024537D01*
X299014D01*
Y1024731D01*
X299209D01*
Y1024925D01*
X299403D01*
Y1025119D01*
X299597D01*
Y1025313D01*
X299791D01*
Y1025507D01*
X299985D01*
Y1025895D01*
X300179D01*
Y1026478D01*
X300373D01*
Y1028030D01*
X300179D01*
Y1028612D01*
X299985D01*
Y1029000D01*
X299791D01*
Y1029194D01*
X299597D01*
Y1029388D01*
X299403D01*
Y1029582D01*
X299014D01*
Y1029776D01*
X298626D01*
Y1029970D01*
X297850D01*
Y1030164D01*
D02*
G37*
%LPD*%
G36*
X180851Y1034239D02*
X182016D01*
Y1034045D01*
X182986D01*
Y1033850D01*
X183568D01*
Y1033656D01*
X183956D01*
Y1033463D01*
X184344D01*
Y1033269D01*
X184732D01*
Y1033074D01*
X185120D01*
Y1032880D01*
X185314D01*
Y1032686D01*
X185508D01*
Y1032492D01*
X185702D01*
Y1032298D01*
X185896D01*
Y1032104D01*
X186090D01*
Y1031910D01*
X186284D01*
Y1031522D01*
X186478D01*
Y1031134D01*
X186672D01*
Y1030552D01*
X186866D01*
Y1028224D01*
X186672D01*
Y1027642D01*
X186478D01*
Y1027060D01*
X186284D01*
Y1026865D01*
X186090D01*
Y1026478D01*
X185896D01*
Y1026283D01*
X185702D01*
Y1026089D01*
X185508D01*
Y1025895D01*
X185314D01*
Y1025701D01*
X185120D01*
Y1025507D01*
X184926D01*
Y1025313D01*
X184538D01*
Y1025119D01*
X184150D01*
Y1024925D01*
X183762D01*
Y1024731D01*
X183180D01*
Y1024343D01*
X183956D01*
Y1024149D01*
X184538D01*
Y1023955D01*
X185120D01*
Y1023761D01*
X185314D01*
Y1023567D01*
X185702D01*
Y1023373D01*
X185896D01*
Y1023179D01*
X186090D01*
Y1022985D01*
X186284D01*
Y1022791D01*
X186478D01*
Y1022597D01*
X186672D01*
Y1022403D01*
X186866D01*
Y1022015D01*
X187060D01*
Y1021627D01*
X187255D01*
Y1021433D01*
Y1021239D01*
Y1020851D01*
X187449D01*
Y1018716D01*
X187255D01*
Y1017940D01*
X187060D01*
Y1017358D01*
X186866D01*
Y1016970D01*
X186672D01*
Y1016582D01*
X186478D01*
Y1016388D01*
X186284D01*
Y1016000D01*
X186090D01*
Y1015806D01*
X185896D01*
Y1015612D01*
X185702D01*
Y1015418D01*
X185508D01*
Y1015224D01*
X185120D01*
Y1015030D01*
X184926D01*
Y1014836D01*
X184732D01*
Y1014642D01*
X184344D01*
Y1014448D01*
X183956D01*
Y1014254D01*
X183568D01*
Y1014060D01*
X183180D01*
Y1013866D01*
X182598D01*
Y1013672D01*
X181822D01*
Y1013478D01*
X180658D01*
Y1013284D01*
X176389D01*
Y1013478D01*
X174837D01*
Y1013672D01*
X174061D01*
Y1013866D01*
X173284D01*
Y1014060D01*
X172508D01*
Y1014254D01*
X171926D01*
Y1014448D01*
X171538D01*
Y1014642D01*
X171344D01*
Y1019104D01*
X172120D01*
Y1018910D01*
X172508D01*
Y1018716D01*
X172896D01*
Y1018522D01*
X173284D01*
Y1018328D01*
X173673D01*
Y1018134D01*
X174255D01*
Y1017940D01*
X174837D01*
Y1017746D01*
X175613D01*
Y1017552D01*
X176583D01*
Y1017358D01*
X179299D01*
Y1017552D01*
X180270D01*
Y1017746D01*
X180658D01*
Y1017940D01*
X181046D01*
Y1018134D01*
X181240D01*
Y1018328D01*
X181434D01*
Y1018522D01*
X181628D01*
Y1018716D01*
X181822D01*
Y1019104D01*
X182016D01*
Y1019881D01*
X182210D01*
Y1020657D01*
X182016D01*
Y1021433D01*
X181822D01*
Y1021627D01*
X181628D01*
Y1021821D01*
X181434D01*
Y1022015D01*
X181240D01*
Y1022209D01*
X180658D01*
Y1022403D01*
X179881D01*
Y1022597D01*
X176195D01*
Y1026089D01*
X179493D01*
Y1026283D01*
X180464D01*
Y1026478D01*
X180851D01*
Y1026672D01*
X181046D01*
Y1026865D01*
X181434D01*
Y1027254D01*
X181628D01*
Y1027642D01*
X181822D01*
Y1029000D01*
X181628D01*
Y1029388D01*
X181434D01*
Y1029582D01*
X181240D01*
Y1029776D01*
X180851D01*
Y1029970D01*
X180464D01*
Y1030164D01*
X179687D01*
Y1030358D01*
X176777D01*
Y1030164D01*
X175807D01*
Y1029970D01*
X175031D01*
Y1029776D01*
X174449D01*
Y1029582D01*
X174061D01*
Y1029388D01*
X173479D01*
Y1029194D01*
X173090D01*
Y1029000D01*
X172702D01*
Y1028806D01*
X172120D01*
Y1033269D01*
X172508D01*
Y1033463D01*
X173284D01*
Y1033656D01*
X173867D01*
Y1033850D01*
X174643D01*
Y1034045D01*
X175613D01*
Y1034239D01*
X176971D01*
Y1034433D01*
X180851D01*
Y1034239D01*
D02*
G37*
G36*
X162225Y1033850D02*
X163389D01*
Y1033656D01*
X163971D01*
Y1033463D01*
X164553D01*
Y1033269D01*
X164941D01*
Y1033074D01*
X165329D01*
Y1032880D01*
X165717D01*
Y1032686D01*
X166105D01*
Y1032492D01*
X166299D01*
Y1032298D01*
X166493D01*
Y1032104D01*
X166688D01*
Y1031910D01*
X166882D01*
Y1031716D01*
X167076D01*
Y1031522D01*
X167270D01*
Y1031328D01*
X167464D01*
Y1030940D01*
X167658D01*
Y1030552D01*
X167852D01*
Y1030164D01*
X168046D01*
Y1029582D01*
X168240D01*
Y1028612D01*
X168434D01*
Y1026672D01*
X168240D01*
Y1025701D01*
X168046D01*
Y1024925D01*
X167852D01*
Y1024537D01*
X167658D01*
Y1024149D01*
X167464D01*
Y1023761D01*
X167270D01*
Y1023373D01*
X167076D01*
Y1023179D01*
X166882D01*
Y1022985D01*
X166688D01*
Y1022791D01*
X166493D01*
Y1022597D01*
X166299D01*
Y1022403D01*
X166105D01*
Y1022209D01*
X165911D01*
Y1022015D01*
X165717D01*
Y1021821D01*
X165329D01*
Y1021627D01*
X165135D01*
Y1021433D01*
X164747D01*
Y1021239D01*
X164359D01*
Y1021045D01*
X163971D01*
Y1020851D01*
X163389D01*
Y1020657D01*
X162807D01*
Y1020463D01*
X161837D01*
Y1020269D01*
X156792D01*
Y1013672D01*
X151553D01*
Y1034045D01*
X162225D01*
Y1033850D01*
D02*
G37*
G36*
X148449Y1030164D02*
X142046D01*
Y1013672D01*
X137001D01*
Y1030164D01*
X130598D01*
Y1034045D01*
X148449D01*
Y1030164D01*
D02*
G37*
%LPC*%
G36*
X160479D02*
X156792D01*
Y1029776D01*
Y1029582D01*
Y1024149D01*
X160091D01*
Y1024343D01*
X161061D01*
Y1024537D01*
X161643D01*
Y1024731D01*
X161837D01*
Y1024925D01*
X162031D01*
Y1025119D01*
X162225D01*
Y1025313D01*
X162419D01*
Y1025507D01*
X162613D01*
Y1025895D01*
X162807D01*
Y1026478D01*
X163001D01*
Y1028030D01*
X162807D01*
Y1028612D01*
X162613D01*
Y1029000D01*
X162419D01*
Y1029194D01*
X162225D01*
Y1029388D01*
X162031D01*
Y1029582D01*
X161643D01*
Y1029776D01*
X161255D01*
Y1029970D01*
X160479D01*
Y1030164D01*
D02*
G37*
%LPD*%
G36*
X438714Y971374D02*
X440073D01*
Y971180D01*
X440849D01*
Y970985D01*
X441625D01*
Y970791D01*
X442207D01*
Y970598D01*
X442595D01*
Y970404D01*
X442983D01*
Y970209D01*
X443565D01*
Y970015D01*
X443953D01*
Y964971D01*
X443371D01*
Y965165D01*
X442983D01*
Y965359D01*
X442789D01*
Y965553D01*
X442595D01*
Y965747D01*
X442401D01*
Y965941D01*
X442013D01*
Y966135D01*
X441819D01*
Y966329D01*
X441431D01*
Y966523D01*
X441237D01*
Y966717D01*
X440849D01*
Y966911D01*
X440461D01*
Y967105D01*
X440073D01*
Y967299D01*
X439491D01*
Y967493D01*
X438714D01*
Y967687D01*
X436386D01*
Y967493D01*
X435610D01*
Y967299D01*
X435222D01*
Y967105D01*
X434834D01*
Y966911D01*
X434446D01*
Y966717D01*
X434252D01*
Y966523D01*
X433864D01*
Y966329D01*
X433670D01*
Y966135D01*
X433476D01*
Y965941D01*
X433282D01*
Y965553D01*
X433088D01*
Y965359D01*
X432894D01*
Y964971D01*
X432700D01*
Y964583D01*
X432506D01*
Y964195D01*
X432312D01*
Y963613D01*
X432118D01*
Y962836D01*
X431923D01*
Y959150D01*
X432118D01*
Y958374D01*
X432312D01*
Y957792D01*
X432506D01*
Y957404D01*
X432700D01*
Y957016D01*
X432894D01*
Y956628D01*
X433088D01*
Y956433D01*
X433282D01*
Y956045D01*
X433476D01*
Y955851D01*
X433670D01*
Y955657D01*
X433864D01*
Y955463D01*
X434252D01*
Y955269D01*
X434446D01*
Y955075D01*
X434834D01*
Y954881D01*
X435222D01*
Y954687D01*
X435804D01*
Y954493D01*
X436580D01*
Y954299D01*
X438714D01*
Y954493D01*
X439491D01*
Y954687D01*
X440073D01*
Y954881D01*
X440461D01*
Y955075D01*
X440849D01*
Y955269D01*
X441237D01*
Y955463D01*
X441625D01*
Y955657D01*
X441819D01*
Y955851D01*
X442207D01*
Y956045D01*
X442401D01*
Y956239D01*
X442595D01*
Y956433D01*
X442983D01*
Y956628D01*
X443177D01*
Y956822D01*
X443371D01*
Y957016D01*
X443953D01*
Y952165D01*
X443759D01*
Y951971D01*
X443371D01*
Y951777D01*
X442789D01*
Y951583D01*
X442401D01*
Y951389D01*
X442013D01*
Y951195D01*
X441431D01*
Y951001D01*
X440655D01*
Y950807D01*
X439879D01*
Y950613D01*
X438909D01*
Y950419D01*
X435222D01*
Y950613D01*
X434058D01*
Y950807D01*
X433282D01*
Y951001D01*
X432700D01*
Y951195D01*
X432118D01*
Y951389D01*
X431730D01*
Y951583D01*
X431341D01*
Y951777D01*
X430953D01*
Y951971D01*
X430565D01*
Y952165D01*
X430371D01*
Y952359D01*
X429983D01*
Y952553D01*
X429789D01*
Y952747D01*
X429595D01*
Y952941D01*
X429401D01*
Y953135D01*
X429207D01*
Y953329D01*
X429013D01*
Y953523D01*
X428819D01*
Y953717D01*
X428625D01*
Y953911D01*
X428431D01*
Y954299D01*
X428237D01*
Y954493D01*
X428043D01*
Y954881D01*
X427849D01*
Y955269D01*
X427655D01*
Y955657D01*
X427461D01*
Y956045D01*
X427267D01*
Y956433D01*
X427073D01*
Y957016D01*
X426879D01*
Y957792D01*
X426685D01*
Y958956D01*
X426491D01*
Y963030D01*
X426685D01*
Y964000D01*
X426879D01*
Y964777D01*
X427073D01*
Y965359D01*
X427267D01*
Y965941D01*
X427461D01*
Y966329D01*
X427655D01*
Y966717D01*
X427849D01*
Y966911D01*
X428043D01*
Y967299D01*
X428237D01*
Y967687D01*
X428431D01*
Y967881D01*
X428625D01*
Y968075D01*
X428819D01*
Y968269D01*
X429013D01*
Y968657D01*
X429207D01*
Y968851D01*
X429401D01*
Y969045D01*
X429789D01*
Y969239D01*
X429983D01*
Y969433D01*
X430177D01*
Y969627D01*
X430371D01*
Y969821D01*
X430759D01*
Y970015D01*
X430953D01*
Y970209D01*
X431341D01*
Y970404D01*
X431730D01*
Y970598D01*
X432312D01*
Y970791D01*
X432700D01*
Y970985D01*
X433282D01*
Y971180D01*
X434058D01*
Y971374D01*
X435222D01*
Y971568D01*
X438714D01*
Y971374D01*
D02*
G37*
G36*
X424744Y970985D02*
X424550D01*
Y970404D01*
X424356D01*
Y970015D01*
X424162D01*
Y969433D01*
X423968D01*
Y968851D01*
X423774D01*
Y968269D01*
X423580D01*
Y967881D01*
X423386D01*
Y967299D01*
X423192D01*
Y966717D01*
X422998D01*
Y966135D01*
X422804D01*
Y965747D01*
X422610D01*
Y965165D01*
X422416D01*
Y964583D01*
X422222D01*
Y964000D01*
X422028D01*
Y963613D01*
X421834D01*
Y963030D01*
X421640D01*
Y962448D01*
X421446D01*
Y961866D01*
X421252D01*
Y961478D01*
X421058D01*
Y960896D01*
X420864D01*
Y960314D01*
X420670D01*
Y959732D01*
X420476D01*
Y959344D01*
X420282D01*
Y958762D01*
X420088D01*
Y958180D01*
X419894D01*
Y957598D01*
X419700D01*
Y957210D01*
X419506D01*
Y956628D01*
X419312D01*
Y956045D01*
X419118D01*
Y955463D01*
X418924D01*
Y955075D01*
X418730D01*
Y954493D01*
X418536D01*
Y953911D01*
X418341D01*
Y953329D01*
X418148D01*
Y952941D01*
X417953D01*
Y952359D01*
X417760D01*
Y951777D01*
X417565D01*
Y951195D01*
X417371D01*
Y950807D01*
X411357D01*
Y951195D01*
X411162D01*
Y951777D01*
X410969D01*
Y952359D01*
X410774D01*
Y952941D01*
X410580D01*
Y953329D01*
X410386D01*
Y953911D01*
X410192D01*
Y954493D01*
X409998D01*
Y955075D01*
X409804D01*
Y955463D01*
X409610D01*
Y956045D01*
X409416D01*
Y956628D01*
X409222D01*
Y957210D01*
X409028D01*
Y957598D01*
X408834D01*
Y958180D01*
X408640D01*
Y958762D01*
X408446D01*
Y959344D01*
X408252D01*
Y959732D01*
X408058D01*
Y960314D01*
X407864D01*
Y960896D01*
X407670D01*
Y961478D01*
X407476D01*
Y961866D01*
X407282D01*
Y962448D01*
X407088D01*
Y963030D01*
X406894D01*
Y963613D01*
X406700D01*
Y964000D01*
X406506D01*
Y964583D01*
X406312D01*
Y965165D01*
X406118D01*
Y965747D01*
X405924D01*
Y966135D01*
X405730D01*
Y966717D01*
X405536D01*
Y967299D01*
X405342D01*
Y967881D01*
X405148D01*
Y968269D01*
X404954D01*
Y968851D01*
X404760D01*
Y969433D01*
X404566D01*
Y970015D01*
X404371D01*
Y970404D01*
X404178D01*
Y970985D01*
X403983D01*
Y971180D01*
X409610D01*
Y970598D01*
X409804D01*
Y970015D01*
X409998D01*
Y969433D01*
X410192D01*
Y968851D01*
X410386D01*
Y968269D01*
X410580D01*
Y967881D01*
X410774D01*
Y967299D01*
X410969D01*
Y966717D01*
X411162D01*
Y966135D01*
X411357D01*
Y965553D01*
X411551D01*
Y964971D01*
X411745D01*
Y964389D01*
X411939D01*
Y963807D01*
X412133D01*
Y963224D01*
X412327D01*
Y962642D01*
X412521D01*
Y962060D01*
X412715D01*
Y961672D01*
X412909D01*
Y961090D01*
X413103D01*
Y960508D01*
X413297D01*
Y959926D01*
X413491D01*
Y959344D01*
X413685D01*
Y958762D01*
X413879D01*
Y958180D01*
X414073D01*
Y957598D01*
X414267D01*
Y957016D01*
X414461D01*
Y957210D01*
X414655D01*
Y957792D01*
X414849D01*
Y958374D01*
X415043D01*
Y958956D01*
X415237D01*
Y959538D01*
X415431D01*
Y960120D01*
X415625D01*
Y960702D01*
X415819D01*
Y961090D01*
X416013D01*
Y961672D01*
X416207D01*
Y962254D01*
X416401D01*
Y962836D01*
X416595D01*
Y963419D01*
X416789D01*
Y964000D01*
X416983D01*
Y964583D01*
X417177D01*
Y965165D01*
X417371D01*
Y965747D01*
X417565D01*
Y966329D01*
X417760D01*
Y966911D01*
X417953D01*
Y967493D01*
X418148D01*
Y967881D01*
X418341D01*
Y968463D01*
X418536D01*
Y969045D01*
X418730D01*
Y969627D01*
X418924D01*
Y970209D01*
X419118D01*
Y970791D01*
X419312D01*
Y971180D01*
X424744D01*
Y970985D01*
D02*
G37*
G36*
X456759Y971374D02*
X457923D01*
Y971180D01*
X458699D01*
Y970985D01*
X459087D01*
Y970791D01*
X459669D01*
Y970598D01*
X460057D01*
Y970404D01*
X460252D01*
Y970209D01*
X460640D01*
Y970015D01*
X460834D01*
Y969821D01*
X461028D01*
Y969627D01*
X461222D01*
Y969433D01*
X461416D01*
Y969239D01*
X461610D01*
Y969045D01*
X461804D01*
Y968851D01*
X461998D01*
Y968463D01*
X462192D01*
Y968075D01*
X462386D01*
Y967493D01*
X462580D01*
Y966717D01*
X462774D01*
Y964000D01*
X462580D01*
Y963224D01*
X462386D01*
Y962642D01*
X462192D01*
Y962254D01*
X461998D01*
Y961866D01*
X461804D01*
Y961478D01*
X461610D01*
Y961090D01*
X461416D01*
Y960896D01*
X461222D01*
Y960702D01*
X461028D01*
Y960314D01*
X460834D01*
Y960120D01*
X460640D01*
Y959926D01*
X460446D01*
Y959732D01*
X460252D01*
Y959344D01*
X460057D01*
Y959150D01*
X459864D01*
Y958956D01*
X459669D01*
Y958762D01*
X459475D01*
Y958568D01*
X459281D01*
Y958374D01*
X459087D01*
Y958180D01*
X458893D01*
Y957986D01*
X458699D01*
Y957792D01*
X458311D01*
Y957598D01*
X458117D01*
Y957404D01*
X457923D01*
Y957210D01*
X457729D01*
Y957016D01*
X457535D01*
Y956822D01*
X457341D01*
Y956628D01*
X456953D01*
Y956433D01*
X456759D01*
Y956239D01*
X456565D01*
Y956045D01*
X456371D01*
Y955851D01*
X455983D01*
Y955657D01*
X455789D01*
Y955463D01*
X455595D01*
Y955269D01*
X455207D01*
Y955075D01*
X455013D01*
Y954881D01*
X454819D01*
Y954687D01*
X463744D01*
Y950807D01*
X447834D01*
Y954299D01*
X448222D01*
Y954493D01*
X448416D01*
Y954687D01*
X448610D01*
Y954881D01*
X448998D01*
Y955075D01*
X449192D01*
Y955269D01*
X449386D01*
Y955463D01*
X449774D01*
Y955657D01*
X449968D01*
Y955851D01*
X450162D01*
Y956045D01*
X450550D01*
Y956239D01*
X450744D01*
Y956433D01*
X450938D01*
Y956628D01*
X451132D01*
Y956822D01*
X451520D01*
Y957016D01*
X451714D01*
Y957210D01*
X451908D01*
Y957404D01*
X452102D01*
Y957598D01*
X452296D01*
Y957792D01*
X452685D01*
Y957986D01*
X452878D01*
Y958180D01*
X453073D01*
Y958374D01*
X453266D01*
Y958568D01*
X453461D01*
Y958762D01*
X453655D01*
Y958956D01*
X453849D01*
Y959150D01*
X454237D01*
Y959344D01*
X454431D01*
Y959538D01*
X454625D01*
Y959732D01*
X454819D01*
Y959926D01*
X455013D01*
Y960120D01*
X455207D01*
Y960314D01*
X455401D01*
Y960508D01*
X455595D01*
Y960896D01*
X455789D01*
Y961090D01*
X455983D01*
Y961284D01*
X456177D01*
Y961478D01*
X456371D01*
Y961866D01*
X456565D01*
Y962060D01*
X456759D01*
Y962448D01*
X456953D01*
Y962836D01*
X457147D01*
Y963224D01*
X457341D01*
Y964195D01*
X457535D01*
Y964971D01*
X457341D01*
Y965747D01*
X457147D01*
Y966135D01*
X456953D01*
Y966523D01*
X456759D01*
Y966717D01*
X456565D01*
Y966911D01*
X456177D01*
Y967105D01*
X455789D01*
Y967299D01*
X455013D01*
Y967493D01*
X452878D01*
Y967299D01*
X451908D01*
Y967105D01*
X451326D01*
Y966911D01*
X450744D01*
Y966717D01*
X450356D01*
Y966523D01*
X449968D01*
Y966329D01*
X449580D01*
Y966135D01*
X449192D01*
Y965941D01*
X448998D01*
Y965747D01*
X448416D01*
Y970404D01*
X448804D01*
Y970598D01*
X449386D01*
Y970791D01*
X450162D01*
Y970985D01*
X450938D01*
Y971180D01*
X451908D01*
Y971374D01*
X453266D01*
Y971568D01*
X456759D01*
Y971374D01*
D02*
G37*
G36*
X321716D02*
X323268D01*
Y971180D01*
X323656D01*
Y967299D01*
X322880D01*
Y967493D01*
X322104D01*
Y967687D01*
X321328D01*
Y967881D01*
X318417D01*
Y967687D01*
X317641D01*
Y967493D01*
X317059D01*
Y967299D01*
X316671D01*
Y967105D01*
X316283D01*
Y966911D01*
X316089D01*
Y966717D01*
X315701D01*
Y966523D01*
X315507D01*
Y966329D01*
X315313D01*
Y966135D01*
X315119D01*
Y965747D01*
X314925D01*
Y965553D01*
X314731D01*
Y965165D01*
X314537D01*
Y964777D01*
X314343D01*
Y964195D01*
X314149D01*
Y963419D01*
X313955D01*
Y963030D01*
X314343D01*
Y963224D01*
X314537D01*
Y963419D01*
X314925D01*
Y963613D01*
X315507D01*
Y963807D01*
X315895D01*
Y964000D01*
X316477D01*
Y964195D01*
X317447D01*
Y964389D01*
X320163D01*
Y964195D01*
X320940D01*
Y964000D01*
X321522D01*
Y963807D01*
X321910D01*
Y963613D01*
X322298D01*
Y963419D01*
X322686D01*
Y963224D01*
X322880D01*
Y963030D01*
X323268D01*
Y962836D01*
X323462D01*
Y962642D01*
X323656D01*
Y962448D01*
X323850D01*
Y962254D01*
X324044D01*
Y961866D01*
X324238D01*
Y961672D01*
X324432D01*
Y961284D01*
X324626D01*
Y960896D01*
X324820D01*
Y960508D01*
X325014D01*
Y959732D01*
X325208D01*
Y956045D01*
X325014D01*
Y955269D01*
X324820D01*
Y954687D01*
X324626D01*
Y954299D01*
X324432D01*
Y953911D01*
X324238D01*
Y953717D01*
X324044D01*
Y953329D01*
X323850D01*
Y953135D01*
X323656D01*
Y952941D01*
X323462D01*
Y952747D01*
X323268D01*
Y952553D01*
X323074D01*
Y952359D01*
X322880D01*
Y952165D01*
X322686D01*
Y951971D01*
X322298D01*
Y951777D01*
X322104D01*
Y951583D01*
X321716D01*
Y951389D01*
X321328D01*
Y951195D01*
X320940D01*
Y951001D01*
X320358D01*
Y950807D01*
X319775D01*
Y950613D01*
X318805D01*
Y950419D01*
X315701D01*
Y950613D01*
X314537D01*
Y950807D01*
X313955D01*
Y951001D01*
X313372D01*
Y951195D01*
X312985D01*
Y951389D01*
X312596D01*
Y951583D01*
X312208D01*
Y951777D01*
X312014D01*
Y951971D01*
X311626D01*
Y952165D01*
X311432D01*
Y952359D01*
X311238D01*
Y952553D01*
X311044D01*
Y952747D01*
X310850D01*
Y952941D01*
X310656D01*
Y953135D01*
X310462D01*
Y953523D01*
X310268D01*
Y953717D01*
X310074D01*
Y954105D01*
X309880D01*
Y954493D01*
X309686D01*
Y954881D01*
X309492D01*
Y955463D01*
X309298D01*
Y956045D01*
X309104D01*
Y956822D01*
X308910D01*
Y957986D01*
X308716D01*
Y961866D01*
X308910D01*
Y963419D01*
X309104D01*
Y964195D01*
X309298D01*
Y964971D01*
X309492D01*
Y965553D01*
X309686D01*
Y965941D01*
X309880D01*
Y966329D01*
X310074D01*
Y966717D01*
X310268D01*
Y967105D01*
X310462D01*
Y967299D01*
X310656D01*
Y967687D01*
X310850D01*
Y967881D01*
X311044D01*
Y968075D01*
X311238D01*
Y968269D01*
X311432D01*
Y968463D01*
X311626D01*
Y968851D01*
X312014D01*
Y969045D01*
X312208D01*
Y969239D01*
X312402D01*
Y969433D01*
X312596D01*
Y969627D01*
X312985D01*
Y969821D01*
X313179D01*
Y970015D01*
X313566D01*
Y970209D01*
X313955D01*
Y970404D01*
X314343D01*
Y970598D01*
X314731D01*
Y970791D01*
X315313D01*
Y970985D01*
X315895D01*
Y971180D01*
X316671D01*
Y971374D01*
X318029D01*
Y971568D01*
X321716D01*
Y971374D01*
D02*
G37*
G36*
X299597Y970985D02*
X300761D01*
Y970791D01*
X301343D01*
Y970598D01*
X301925D01*
Y970404D01*
X302313D01*
Y970209D01*
X302701D01*
Y970015D01*
X303089D01*
Y969821D01*
X303477D01*
Y969627D01*
X303671D01*
Y969433D01*
X303865D01*
Y969239D01*
X304059D01*
Y969045D01*
X304253D01*
Y968851D01*
X304447D01*
Y968657D01*
X304641D01*
Y968463D01*
X304835D01*
Y968075D01*
X305029D01*
Y967687D01*
X305223D01*
Y967299D01*
X305417D01*
Y966717D01*
X305611D01*
Y965747D01*
X305805D01*
Y963807D01*
X305611D01*
Y962836D01*
X305417D01*
Y962060D01*
X305223D01*
Y961672D01*
X305029D01*
Y961284D01*
X304835D01*
Y960896D01*
X304641D01*
Y960508D01*
X304447D01*
Y960314D01*
X304253D01*
Y960120D01*
X304059D01*
Y959926D01*
X303865D01*
Y959732D01*
X303671D01*
Y959538D01*
X303477D01*
Y959344D01*
X303283D01*
Y959150D01*
X303089D01*
Y958956D01*
X302701D01*
Y958762D01*
X302507D01*
Y958568D01*
X302119D01*
Y958374D01*
X301731D01*
Y958180D01*
X301343D01*
Y957986D01*
X300761D01*
Y957792D01*
X300179D01*
Y957598D01*
X299209D01*
Y957404D01*
X294164D01*
Y950807D01*
X288925D01*
Y971180D01*
X299597D01*
Y970985D01*
D02*
G37*
G36*
X285821Y967299D02*
X279418D01*
Y965359D01*
Y965165D01*
Y950807D01*
X274373D01*
Y967299D01*
X267970D01*
Y971180D01*
X285821D01*
Y967299D01*
D02*
G37*
%LPC*%
G36*
X317641Y960896D02*
X315313D01*
Y960702D01*
X314537D01*
Y960508D01*
X313955D01*
Y957404D01*
X314149D01*
Y956433D01*
X314343D01*
Y955851D01*
X314537D01*
Y955463D01*
X314731D01*
Y955075D01*
X314925D01*
Y954881D01*
X315119D01*
Y954687D01*
X315313D01*
Y954493D01*
X315507D01*
Y954299D01*
X315895D01*
Y954105D01*
X316283D01*
Y953911D01*
X317835D01*
Y954105D01*
X318417D01*
Y954299D01*
X318805D01*
Y954493D01*
X318999D01*
Y954687D01*
X319193D01*
Y954881D01*
X319387D01*
Y955269D01*
X319581D01*
Y955657D01*
X319775D01*
Y956045D01*
X319970D01*
Y958956D01*
X319775D01*
Y959344D01*
X319581D01*
Y959732D01*
X319387D01*
Y959926D01*
X319193D01*
Y960120D01*
X318999D01*
Y960314D01*
X318611D01*
Y960508D01*
X318223D01*
Y960702D01*
X317641D01*
Y960896D01*
D02*
G37*
G36*
X297850Y967299D02*
X294164D01*
Y961284D01*
X297462D01*
Y961478D01*
X298432D01*
Y961672D01*
X299014D01*
Y961866D01*
X299209D01*
Y962060D01*
X299403D01*
Y962254D01*
X299597D01*
Y962448D01*
X299791D01*
Y962642D01*
X299985D01*
Y963030D01*
X300179D01*
Y963613D01*
X300373D01*
Y965165D01*
X300179D01*
Y965747D01*
X299985D01*
Y966135D01*
X299791D01*
Y966329D01*
X299597D01*
Y966523D01*
X299403D01*
Y966717D01*
X299014D01*
Y966911D01*
X298626D01*
Y967105D01*
X297850D01*
Y967299D01*
D02*
G37*
%LPD*%
G36*
X186866D02*
X177359D01*
Y964000D01*
X181434D01*
Y963807D01*
X182404D01*
Y963613D01*
X183180D01*
Y963419D01*
X183762D01*
Y963224D01*
X184150D01*
Y963030D01*
X184538D01*
Y962836D01*
X184926D01*
Y962642D01*
X185314D01*
Y962448D01*
X185508D01*
Y962254D01*
X185702D01*
Y962060D01*
X185896D01*
Y961866D01*
X186090D01*
Y961672D01*
X186284D01*
Y961478D01*
X186478D01*
Y961284D01*
X186672D01*
Y960896D01*
X186866D01*
Y960508D01*
X187060D01*
Y960120D01*
X187255D01*
Y959344D01*
X187449D01*
Y956045D01*
X187255D01*
Y955269D01*
X187060D01*
Y954881D01*
X186866D01*
Y954493D01*
X186672D01*
Y954105D01*
X186478D01*
Y953717D01*
X186284D01*
Y953523D01*
X186090D01*
Y953329D01*
X185896D01*
Y952941D01*
X185702D01*
Y952747D01*
X185508D01*
Y952553D01*
X185120D01*
Y952359D01*
X184926D01*
Y952165D01*
X184732D01*
Y951971D01*
X184344D01*
Y951777D01*
X184150D01*
Y951583D01*
X183762D01*
Y951389D01*
X183374D01*
Y951195D01*
X182792D01*
Y951001D01*
X182210D01*
Y950807D01*
X181434D01*
Y950613D01*
X180270D01*
Y950419D01*
X176389D01*
Y950613D01*
X175031D01*
Y950807D01*
X174061D01*
Y951001D01*
X173284D01*
Y951195D01*
X172702D01*
Y951389D01*
X172120D01*
Y951583D01*
X171732D01*
Y956045D01*
X172508D01*
Y955851D01*
X172896D01*
Y955657D01*
X173284D01*
Y955463D01*
X173673D01*
Y955269D01*
X174255D01*
Y955075D01*
X174837D01*
Y954881D01*
X175419D01*
Y954687D01*
X176583D01*
Y954493D01*
X179105D01*
Y954687D01*
X180075D01*
Y954881D01*
X180658D01*
Y955075D01*
X181046D01*
Y955269D01*
X181240D01*
Y955463D01*
X181434D01*
Y955657D01*
X181628D01*
Y955851D01*
X181822D01*
Y956045D01*
X182016D01*
Y956628D01*
X182210D01*
Y958374D01*
X182016D01*
Y958762D01*
X181822D01*
Y958956D01*
X181628D01*
Y959150D01*
X181434D01*
Y959344D01*
X181240D01*
Y959538D01*
X181046D01*
Y959732D01*
X180658D01*
Y959926D01*
X180075D01*
Y960120D01*
X178911D01*
Y960314D01*
X175807D01*
Y960120D01*
X174449D01*
Y959926D01*
X173479D01*
Y959732D01*
X172508D01*
Y971180D01*
X186866D01*
Y967299D01*
D02*
G37*
G36*
X162225Y970985D02*
X163389D01*
Y970791D01*
X163971D01*
Y970598D01*
X164553D01*
Y970404D01*
X164941D01*
Y970209D01*
X165329D01*
Y970015D01*
X165717D01*
Y969821D01*
X166105D01*
Y969627D01*
X166299D01*
Y969433D01*
X166493D01*
Y969239D01*
X166688D01*
Y969045D01*
X166882D01*
Y968851D01*
X167076D01*
Y968657D01*
X167270D01*
Y968463D01*
X167464D01*
Y968075D01*
X167658D01*
Y967687D01*
X167852D01*
Y967299D01*
X168046D01*
Y966717D01*
X168240D01*
Y965747D01*
X168434D01*
Y963807D01*
X168240D01*
Y962836D01*
X168046D01*
Y962060D01*
X167852D01*
Y961672D01*
X167658D01*
Y961284D01*
X167464D01*
Y960896D01*
X167270D01*
Y960508D01*
X167076D01*
Y960314D01*
X166882D01*
Y960120D01*
X166688D01*
Y959926D01*
X166493D01*
Y959732D01*
X166299D01*
Y959538D01*
X166105D01*
Y959344D01*
X165911D01*
Y959150D01*
X165717D01*
Y958956D01*
X165329D01*
Y958762D01*
X165135D01*
Y958568D01*
X164747D01*
Y958374D01*
X164359D01*
Y958180D01*
X163971D01*
Y957986D01*
X163389D01*
Y957792D01*
X162807D01*
Y957598D01*
X161837D01*
Y957404D01*
X156792D01*
Y950807D01*
X151553D01*
Y971180D01*
X162225D01*
Y970985D01*
D02*
G37*
G36*
X148449Y967299D02*
X142046D01*
Y950807D01*
X137001D01*
Y967299D01*
X130598D01*
Y971180D01*
X148449D01*
Y967299D01*
D02*
G37*
%LPC*%
G36*
X160479D02*
X156792D01*
Y961284D01*
X160091D01*
Y961478D01*
X161061D01*
Y961672D01*
X161643D01*
Y961866D01*
X161837D01*
Y962060D01*
X162031D01*
Y962254D01*
X162225D01*
Y962448D01*
X162419D01*
Y962642D01*
X162613D01*
Y963030D01*
X162807D01*
Y963613D01*
X163001D01*
Y965165D01*
X162807D01*
Y965747D01*
X162613D01*
Y966135D01*
X162419D01*
Y966329D01*
X162225D01*
Y966523D01*
X162031D01*
Y966717D01*
X161643D01*
Y966911D01*
X161255D01*
Y967105D01*
X160479D01*
Y967299D01*
D02*
G37*
%LPD*%
D10*
X925830Y231140D02*
G03*
X938530Y231140I6350J0D01*
G01*
X999490Y193040D02*
G03*
X1032510Y193040I16510J0D01*
G01*
Y218440D02*
G03*
X999490Y218440I-16510J0D01*
G01*
X821690Y124460D02*
G03*
X854710Y124460I16510J0D01*
G01*
Y149860D02*
G03*
X821690Y149860I-16510J0D01*
G01*
X940550Y1066800D02*
G03*
X940550Y1066800I-50000J0D01*
G01*
X868200Y208440D02*
G03*
X868200Y208440I-30000J0D01*
G01*
X823003Y182605D02*
G03*
X853016Y182385I15197J25835D01*
G01*
X1515900Y392430D02*
G03*
X1515900Y392430I-30000J0D01*
G01*
X1511735Y377233D02*
G03*
X1511955Y407246I-25835J15197D01*
G01*
X1515900Y497840D02*
G03*
X1515900Y497840I-30000J0D01*
G01*
X1511735Y482643D02*
G03*
X1511955Y512656I-25835J15197D01*
G01*
X1515900Y603250D02*
G03*
X1515900Y603250I-30000J0D01*
G01*
X1511735Y588053D02*
G03*
X1511955Y618066I-25835J15197D01*
G01*
X1515900Y708660D02*
G03*
X1515900Y708660I-30000J0D01*
G01*
X1511735Y693463D02*
G03*
X1511955Y723476I-25835J15197D01*
G01*
X1515900Y814070D02*
G03*
X1515900Y814070I-30000J0D01*
G01*
X1511735Y798873D02*
G03*
X1511955Y828886I-25835J15197D01*
G01*
X1175610Y159790D02*
X1186360Y111490D01*
X1176110Y159790D02*
X1282610D01*
X1272360Y111490D02*
X1283110Y159790D01*
X1186360Y111490D02*
X1272360D01*
X910430Y129540D02*
Y231140D01*
Y129540D02*
X953930D01*
Y231140D01*
X938530D02*
X953930D01*
X910430D02*
X925830D01*
X999492Y192786D02*
Y218186D01*
X1032508Y193040D02*
Y218440D01*
X821692Y124206D02*
Y149606D01*
X854708Y124460D02*
Y149860D01*
D11*
X931539Y1038099D02*
G03*
X931539Y1095501I-40989J28701D01*
G01*
X1046480Y88900D02*
X1412240D01*
Y243840D01*
X1046480D02*
X1412240D01*
X1046480Y88900D02*
Y243840D01*
X629688Y111760D02*
Y147320D01*
Y111760D02*
X670328D01*
Y147320D01*
X629688D02*
X670328D01*
X586173Y111760D02*
Y147320D01*
X545533D02*
X586173D01*
X545533Y111760D02*
Y147320D01*
Y111760D02*
X586173D01*
X461379D02*
Y147320D01*
Y111760D02*
X502019D01*
Y147320D01*
X461379D02*
X502019D01*
X377224Y111760D02*
Y147320D01*
Y111760D02*
X417864D01*
Y147320D01*
X377224D02*
X417864D01*
X293069Y111760D02*
Y147320D01*
Y111760D02*
X333709D01*
Y147320D01*
X293069D02*
X333709D01*
X208915Y111760D02*
Y147320D01*
Y111760D02*
X249555D01*
Y147320D01*
X208915D02*
X249555D01*
X1325880Y975360D02*
Y1160780D01*
Y975360D02*
X1579880D01*
Y1160780D01*
X1325880D02*
X1579880D01*
X1398905Y1046480D02*
X1501775D01*
X1397635Y1008380D02*
X1503045D01*
Y1059180D01*
X1397635D02*
X1503045D01*
X1397635Y1008380D02*
Y1059180D01*
X1004993Y975360D02*
Y1160780D01*
Y975360D02*
X1258993D01*
Y1160780D01*
X1004993D02*
X1258993D01*
X1078018Y1046480D02*
X1180888D01*
X1076748Y1008380D02*
X1182158D01*
Y1059180D01*
X1076748D02*
X1182158D01*
X1076748Y1008380D02*
Y1059180D01*
X520700Y975360D02*
Y1160780D01*
Y975360D02*
X774700D01*
Y1160780D01*
X520700D02*
X774700D01*
X593725Y1046480D02*
X696595D01*
X592455Y1008380D02*
X697865D01*
Y1059180D01*
X592455D02*
X697865D01*
X592455Y1008380D02*
Y1059180D01*
X891540Y243840D02*
X985520D01*
Y116840D02*
Y243840D01*
X878840Y116840D02*
X985520D01*
X878840D02*
Y243840D01*
X891540D01*
X931539Y1038099D02*
Y1095501D01*
X823003Y182605D02*
X853016Y182385D01*
X1511735Y377233D02*
X1511955Y407246D01*
X1511735Y482643D02*
X1511955Y512656D01*
X1511735Y588053D02*
X1511955Y618066D01*
X1511735Y693463D02*
X1511955Y723476D01*
X1511735Y798873D02*
X1511955Y828886D01*
X101600Y612140D02*
Y899160D01*
X675640D01*
Y307340D02*
Y899160D01*
X101600Y307340D02*
X675640D01*
X101600D02*
Y612140D01*
X88900Y530860D02*
Y911860D01*
X688340D01*
X688340Y292100D01*
X88900D02*
X688340D01*
X88900D02*
Y530860D01*
X808990Y369570D02*
Y872490D01*
X1332230D01*
X1334770Y336550D01*
X808990D02*
X1334770D01*
X808990D02*
Y369570D01*
X796290Y336550D02*
Y885190D01*
X1347470D01*
Y321310D02*
Y885190D01*
X796290Y318770D02*
X1347470Y321310D01*
X796290Y318770D02*
Y336550D01*
X198120Y190500D02*
X704850D01*
Y89662D02*
Y190500D01*
X198120Y89662D02*
X704850D01*
X198120D02*
Y190500D01*
D12*
X1479480Y89540D02*
Y167540D01*
X1579480Y89540D02*
Y167540D01*
X1479480D02*
X1579480D01*
X1479480Y89540D02*
X1579480D01*
X89300D02*
Y167540D01*
X189300Y89540D02*
Y167540D01*
X89300D02*
X189300D01*
X89300Y89540D02*
X189300D01*
X715830Y176210D02*
X727830D01*
X782430D02*
X794430D01*
Y111210D02*
Y176210D01*
X715830Y111210D02*
X794430D01*
X715830D02*
Y176210D01*
X727830Y196210D02*
X782430D01*
Y176210D02*
Y196210D01*
X727830Y176210D02*
Y196210D01*
X635008Y126390D02*
Y132690D01*
X665007Y126390D02*
Y132690D01*
X635008D02*
X636908D01*
X663108D02*
X665007D01*
X663108Y126390D02*
X665007D01*
X635008D02*
X636908D01*
X580853D02*
Y132690D01*
X550853Y126390D02*
Y132690D01*
X578953Y126390D02*
X580853D01*
X550853D02*
X552753D01*
X550853Y132690D02*
X552753D01*
X578953D02*
X580853D01*
X466698Y126390D02*
Y132690D01*
X496698Y126390D02*
Y132690D01*
X466698D02*
X468599D01*
X494799D02*
X496698D01*
X494799Y126390D02*
X496698D01*
X466698D02*
X468599D01*
X382544D02*
Y132690D01*
X412544Y126390D02*
Y132690D01*
X382544D02*
X384444D01*
X410644D02*
X412544D01*
X410644Y126390D02*
X412544D01*
X382544D02*
X384444D01*
X298389D02*
Y132690D01*
X328390Y126390D02*
Y132690D01*
X298389D02*
X300289D01*
X326489D02*
X328390D01*
X326489Y126390D02*
X328390D01*
X298389D02*
X300289D01*
X214235D02*
Y132690D01*
X244235Y126390D02*
Y132690D01*
X214235D02*
X216135D01*
X242335D02*
X244235D01*
X242335Y126390D02*
X244235D01*
X214235D02*
X216135D01*
D13*
X388637Y76198D02*
X395408D01*
X392023D01*
Y66042D01*
X405565Y76198D02*
X398794D01*
Y66042D01*
X405565D01*
X398794Y71120D02*
X402179D01*
X415722Y74506D02*
X414029Y76198D01*
X410644D01*
X408951Y74506D01*
Y72813D01*
X410644Y71120D01*
X414029D01*
X415722Y69427D01*
Y67734D01*
X414029Y66042D01*
X410644D01*
X408951Y67734D01*
X419107Y76198D02*
X425878D01*
X422493D01*
Y66042D01*
X439421D02*
Y76198D01*
X444499D01*
X446192Y74506D01*
Y71120D01*
X444499Y69427D01*
X439421D01*
X454656Y76198D02*
X451270D01*
X449578Y74506D01*
Y67734D01*
X451270Y66042D01*
X454656D01*
X456349Y67734D01*
Y74506D01*
X454656Y76198D01*
X459734D02*
X463120D01*
X461427D01*
Y66042D01*
X459734D01*
X463120D01*
X468198D02*
Y76198D01*
X474969Y66042D01*
Y76198D01*
X478355D02*
X485126D01*
X481740D01*
Y66042D01*
X495283Y74506D02*
X493590Y76198D01*
X490205D01*
X488512Y74506D01*
Y72813D01*
X490205Y71120D01*
X493590D01*
X495283Y69427D01*
Y67734D01*
X493590Y66042D01*
X490205D01*
X488512Y67734D01*
X768775Y97366D02*
X767083Y99058D01*
X763697D01*
X762004Y97366D01*
Y95673D01*
X763697Y93980D01*
X767083D01*
X768775Y92287D01*
Y90594D01*
X767083Y88902D01*
X763697D01*
X762004Y90594D01*
X772161Y99058D02*
X775546D01*
X773854D01*
Y88902D01*
X772161D01*
X775546D01*
X787396Y97366D02*
X785703Y99058D01*
X782318D01*
X780625Y97366D01*
Y90594D01*
X782318Y88902D01*
X785703D01*
X787396Y90594D01*
Y93980D01*
X784010D01*
X729829Y97366D02*
X728136Y99058D01*
X724751D01*
X723058Y97366D01*
Y90594D01*
X724751Y88902D01*
X728136D01*
X729829Y90594D01*
Y93980D01*
X726443D01*
X733214Y88902D02*
Y99058D01*
X739986Y88902D01*
Y99058D01*
X743371D02*
Y88902D01*
X748449D01*
X750142Y90594D01*
Y97366D01*
X748449Y99058D01*
X743371D01*
X1550249Y74506D02*
X1548556Y76198D01*
X1545170D01*
X1543478Y74506D01*
Y67734D01*
X1545170Y66042D01*
X1548556D01*
X1550249Y67734D01*
Y71120D01*
X1546863D01*
X1553634Y66042D02*
Y76198D01*
X1560406Y66042D01*
Y76198D01*
X1563791D02*
Y66042D01*
X1568869D01*
X1570562Y67734D01*
Y74506D01*
X1568869Y76198D01*
X1563791D01*
X1487599D02*
Y69427D01*
X1490985Y66042D01*
X1494371Y69427D01*
Y76198D01*
X1502834D02*
X1499449D01*
X1497756Y74506D01*
Y67734D01*
X1499449Y66042D01*
X1502834D01*
X1504527Y67734D01*
Y74506D01*
X1502834Y76198D01*
X1507913D02*
Y67734D01*
X1509606Y66042D01*
X1512991D01*
X1514684Y67734D01*
Y76198D01*
X1518069D02*
X1524841D01*
X1521455D01*
Y66042D01*
X152404Y76198D02*
Y69427D01*
X155790Y66042D01*
X159175Y69427D01*
Y76198D01*
X162561D02*
X165946D01*
X164254D01*
Y66042D01*
X162561D01*
X165946D01*
X171025D02*
Y76198D01*
X177796Y66042D01*
Y76198D01*
X107529Y74506D02*
X105836Y76198D01*
X102451D01*
X100758Y74506D01*
Y67734D01*
X102451Y66042D01*
X105836D01*
X107529Y67734D01*
Y71120D01*
X104143D01*
X110914Y66042D02*
Y76198D01*
X117686Y66042D01*
Y76198D01*
X121071D02*
Y66042D01*
X126150D01*
X127842Y67734D01*
Y74506D01*
X126150Y76198D01*
X121071D01*
X852167Y1138170D02*
X849628Y1140709D01*
X844549D01*
X842010Y1138170D01*
Y1128013D01*
X844549Y1125474D01*
X849628D01*
X852167Y1128013D01*
X857245Y1125474D02*
X862323D01*
X859784D01*
Y1140709D01*
X857245Y1138170D01*
X835661Y91438D02*
X833122Y93977D01*
X828043D01*
X825504Y91438D01*
Y81282D01*
X828043Y78742D01*
X833122D01*
X835661Y81282D01*
X850896Y78742D02*
X840739D01*
X850896Y88899D01*
Y91438D01*
X848357Y93977D01*
X843278D01*
X840739Y91438D01*
X1467609Y865374D02*
X1465069Y867913D01*
X1459991D01*
X1457452Y865374D01*
Y855217D01*
X1459991Y852678D01*
X1465069D01*
X1467609Y855217D01*
X1482844Y852678D02*
X1472687D01*
X1482844Y862835D01*
Y865374D01*
X1480305Y867913D01*
X1475226D01*
X1472687Y865374D01*
X1487922Y852678D02*
Y862835D01*
X1493000Y867913D01*
X1498079Y862835D01*
Y852678D01*
Y860295D01*
X1487922D01*
X1467609Y759964D02*
X1465069Y762503D01*
X1459991D01*
X1457452Y759964D01*
Y749807D01*
X1459991Y747268D01*
X1465069D01*
X1467609Y749807D01*
X1482844Y747268D02*
X1472687D01*
X1482844Y757425D01*
Y759964D01*
X1480305Y762503D01*
X1475226D01*
X1472687Y759964D01*
X1487922Y762503D02*
Y747268D01*
X1495540D01*
X1498079Y749807D01*
Y752346D01*
X1495540Y754885D01*
X1487922D01*
X1495540D01*
X1498079Y757425D01*
Y759964D01*
X1495540Y762503D01*
X1487922D01*
X1467609Y654554D02*
X1465069Y657093D01*
X1459991D01*
X1457452Y654554D01*
Y644397D01*
X1459991Y641858D01*
X1465069D01*
X1467609Y644397D01*
X1482844Y641858D02*
X1472687D01*
X1482844Y652015D01*
Y654554D01*
X1480305Y657093D01*
X1475226D01*
X1472687Y654554D01*
X1498079D02*
X1495540Y657093D01*
X1490461D01*
X1487922Y654554D01*
Y644397D01*
X1490461Y641858D01*
X1495540D01*
X1498079Y644397D01*
X1467609Y549144D02*
X1465069Y551683D01*
X1459991D01*
X1457452Y549144D01*
Y538987D01*
X1459991Y536448D01*
X1465069D01*
X1467609Y538987D01*
X1482844Y536448D02*
X1472687D01*
X1482844Y546605D01*
Y549144D01*
X1480305Y551683D01*
X1475226D01*
X1472687Y549144D01*
X1487922Y551683D02*
Y536448D01*
X1495540D01*
X1498079Y538987D01*
Y549144D01*
X1495540Y551683D01*
X1487922D01*
X1467609Y443734D02*
X1465069Y446273D01*
X1459991D01*
X1457452Y443734D01*
Y433577D01*
X1459991Y431038D01*
X1465069D01*
X1467609Y433577D01*
X1482844Y431038D02*
X1472687D01*
X1482844Y441195D01*
Y443734D01*
X1480305Y446273D01*
X1475226D01*
X1472687Y443734D01*
X1498079Y446273D02*
X1487922D01*
Y431038D01*
X1498079D01*
X1487922Y438656D02*
X1493000D01*
X1013461Y266698D02*
X1010922Y269237D01*
X1005843D01*
X1003304Y266698D01*
Y256542D01*
X1005843Y254002D01*
X1010922D01*
X1013461Y256542D01*
X1018539Y266698D02*
X1021078Y269237D01*
X1026157D01*
X1028696Y266698D01*
Y264159D01*
X1026157Y261620D01*
X1023617D01*
X1026157D01*
X1028696Y259081D01*
Y256542D01*
X1026157Y254002D01*
X1021078D01*
X1018539Y256542D01*
X835661Y266698D02*
X833122Y269237D01*
X828043D01*
X825504Y266698D01*
Y256542D01*
X828043Y254002D01*
X833122D01*
X835661Y256542D01*
X848357Y254002D02*
Y269237D01*
X840739Y261620D01*
X850896D01*
X522478Y1184397D02*
Y1169162D01*
X530095D01*
X532635Y1171701D01*
Y1181858D01*
X530095Y1184397D01*
X522478D01*
X537713Y1169162D02*
X542791D01*
X540252D01*
Y1184397D01*
X537713Y1181858D01*
X1006856Y1184397D02*
Y1169162D01*
X1014473D01*
X1017013Y1171701D01*
Y1181858D01*
X1014473Y1184397D01*
X1006856D01*
X1032248Y1169162D02*
X1022091D01*
X1032248Y1179319D01*
Y1181858D01*
X1029709Y1184397D01*
X1024630D01*
X1022091Y1181858D01*
X1327658Y1184397D02*
Y1169162D01*
X1335276D01*
X1337815Y1171701D01*
Y1181858D01*
X1335276Y1184397D01*
X1327658D01*
X1342893Y1181858D02*
X1345432Y1184397D01*
X1350511D01*
X1353050Y1181858D01*
Y1179319D01*
X1350511Y1176779D01*
X1347971D01*
X1350511D01*
X1353050Y1174240D01*
Y1171701D01*
X1350511Y1169162D01*
X1345432D01*
X1342893Y1171701D01*
X878846Y269237D02*
Y254002D01*
X886463D01*
X889003Y256542D01*
Y266698D01*
X886463Y269237D01*
X878846D01*
X894081Y254002D02*
Y269237D01*
X901698D01*
X904238Y266698D01*
Y261620D01*
X901698Y259081D01*
X894081D01*
X899159D02*
X904238Y254002D01*
X909316D02*
X914394D01*
X911855D01*
Y269237D01*
X909316Y266698D01*
X99063Y195578D02*
X93985D01*
X96524D01*
Y182882D01*
X93985Y180343D01*
X91446D01*
X88907Y182882D01*
X104142Y180343D02*
X109220D01*
X106681D01*
Y195578D01*
X104142Y193038D01*
X1490981Y195578D02*
X1485903D01*
X1488442D01*
Y182882D01*
X1485903Y180343D01*
X1483363D01*
X1480824Y182882D01*
X1506216Y180343D02*
X1496059D01*
X1506216Y190499D01*
Y193038D01*
X1503677Y195578D01*
X1498598D01*
X1496059Y193038D01*
X753341Y220977D02*
X748262D01*
X750802D01*
Y208282D01*
X748262Y205742D01*
X745723D01*
X743184Y208282D01*
X758419Y218438D02*
X760958Y220977D01*
X766037D01*
X768576Y218438D01*
Y215899D01*
X766037Y213360D01*
X763497D01*
X766037D01*
X768576Y210821D01*
Y208282D01*
X766037Y205742D01*
X760958D01*
X758419Y208282D01*
X668023Y944877D02*
Y929642D01*
X678180D01*
X683258D02*
X688337D01*
X685798D01*
Y944877D01*
X683258Y942338D01*
X1320804Y919477D02*
Y904242D01*
X1330961D01*
X1346196D02*
X1336039D01*
X1346196Y914399D01*
Y916938D01*
X1343657Y919477D01*
X1338578D01*
X1336039Y916938D01*
X1056640Y256542D02*
Y266698D01*
X1054101Y269237D01*
X1049023D01*
X1046483Y266698D01*
Y256542D01*
X1049023Y254002D01*
X1054101D01*
X1051562Y259081D02*
X1056640Y254002D01*
X1054101D02*
X1056640Y256542D01*
X1061718Y254002D02*
X1066797D01*
X1064258D01*
Y269237D01*
X1061718Y266698D01*
X210820Y170937D02*
X220977D01*
X215898D01*
Y155702D01*
X226055D02*
Y170937D01*
X233673D01*
X236212Y168398D01*
Y163319D01*
X233673Y160780D01*
X226055D01*
X241290Y155702D02*
X246369D01*
X243829D01*
Y170937D01*
X241290Y168398D01*
X294894Y170937D02*
X305051D01*
X299972D01*
Y155702D01*
X310129D02*
Y170937D01*
X317747D01*
X320286Y168398D01*
Y163319D01*
X317747Y160780D01*
X310129D01*
X335521Y155702D02*
X325364D01*
X335521Y165859D01*
Y168398D01*
X332982Y170937D01*
X327903D01*
X325364Y168398D01*
X378968Y170937D02*
X389125D01*
X384046D01*
Y155702D01*
X394203D02*
Y170937D01*
X401821D01*
X404360Y168398D01*
Y163319D01*
X401821Y160780D01*
X394203D01*
X409438Y168398D02*
X411977Y170937D01*
X417056D01*
X419595Y168398D01*
Y165859D01*
X417056Y163319D01*
X414516D01*
X417056D01*
X419595Y160780D01*
Y158241D01*
X417056Y155702D01*
X411977D01*
X409438Y158241D01*
X463042Y170937D02*
X473199D01*
X468120D01*
Y155702D01*
X478277D02*
Y170937D01*
X485895D01*
X488434Y168398D01*
Y163319D01*
X485895Y160780D01*
X478277D01*
X501130Y155702D02*
Y170937D01*
X493512Y163319D01*
X503669D01*
X547370Y170937D02*
X557527D01*
X552448D01*
Y155702D01*
X562605D02*
Y170937D01*
X570223D01*
X572762Y168398D01*
Y163319D01*
X570223Y160780D01*
X562605D01*
X587997Y170937D02*
X577840D01*
Y163319D01*
X582919Y165859D01*
X585458D01*
X587997Y163319D01*
Y158241D01*
X585458Y155702D01*
X580379D01*
X577840Y158241D01*
X631444Y170937D02*
X641601D01*
X636522D01*
Y155702D01*
X646679D02*
Y170937D01*
X654297D01*
X656836Y168398D01*
Y163319D01*
X654297Y160780D01*
X646679D01*
X672071Y170937D02*
X666992Y168398D01*
X661914Y163319D01*
Y158241D01*
X664453Y155702D01*
X669532D01*
X672071Y158241D01*
Y160780D01*
X669532Y163319D01*
X661914D01*
M02*
