G04*
G04 #@! TF.GenerationSoftware,Altium Limited,Altium Designer,26.8.1 (31)*
G04*
G04 Layer_Physical_Order=1*
G04 Layer_Color=255*
G04 Board_Origin=7000000|3100000*
%FSLAX44Y44*%
%MOMM*%
G71*
G04*
G04 #@! TF.SameCoordinates,1285140B-0727-43AA-A1E4-543660A9A239*
G04*
G04*
G04 #@! TF.FilePolarity,Positive*
G04*
G01*
G75*
%ADD16C,2.6250*%
%ADD17R,2.6250X2.6250*%
%ADD18C,2.5400*%
%ADD19C,2.0000*%
%ADD20R,2.0000X2.0000*%
%ADD21C,1.9800*%
%ADD22C,1.6510*%
%ADD23C,1.6000*%
%ADD24R,1.6000X1.6000*%
%ADD25C,1.2000*%
%ADD26C,1.0000*%
%ADD27R,1.7500X1.7500*%
%ADD28C,1.7500*%
%ADD29C,3.2000*%
%ADD30C,0.5080*%
%ADD31R,2.1000X2.1000*%
%ADD32C,2.1000*%
G36*
X1049020Y1186180D02*
X1103122Y1132078D01*
Y1064768D01*
X1108710Y1059180D01*
X1123950D01*
Y1008380D01*
X1084580D01*
X1054100Y1038860D01*
Y1084580D01*
Y1113790D01*
X1032510Y1135380D01*
X602234D01*
X596900Y1130046D01*
Y1064514D01*
X602234Y1059180D01*
X645160D01*
Y1008380D01*
Y782320D01*
X594360D01*
Y1008380D01*
X581660D01*
X546100Y1043940D01*
Y1150620D01*
X581660Y1186180D01*
X1049020Y1186180D01*
D02*
G37*
G36*
X889000Y919480D02*
X833120Y863600D01*
Y728980D01*
X894080Y668020D01*
Y401320D01*
X840740D01*
Y650240D01*
X782320Y708660D01*
Y886460D01*
X838200Y942340D01*
Y1041400D01*
X779780D01*
X726440Y1008380D01*
X652780D01*
Y1059180D01*
X718820D01*
X767080Y1092200D01*
X889000D01*
Y919480D01*
D02*
G37*
G36*
X1447800Y1034878D02*
X1447714Y1033780D01*
Y1008380D01*
X1187450D01*
Y971550D01*
X1299210Y859790D01*
Y628650D01*
X1374140Y553720D01*
Y283210D01*
X1240790Y149860D01*
Y114300D01*
X1219200D01*
Y149860D01*
Y190500D01*
X1323340Y294640D01*
Y530860D01*
X1248410Y605790D01*
Y836930D01*
X1136650Y948690D01*
Y1008380D01*
Y1059180D01*
X1447800D01*
Y1034878D01*
D02*
G37*
G36*
X187960Y104140D02*
X137160D01*
Y426720D01*
X187960D01*
Y104140D01*
D02*
G37*
G36*
X1503680Y925576D02*
X1485900Y900684D01*
Y302260D01*
X1529080Y259080D01*
Y101600D01*
X1478280D01*
Y236220D01*
X1437640Y276860D01*
Y922020D01*
X1457960Y946404D01*
X1457960Y1059180D01*
X1503680D01*
Y925576D01*
D02*
G37*
D16*
X774930Y156210D02*
D03*
D17*
X735330D02*
D03*
D18*
X1102360Y165100D02*
D03*
X1356360D02*
D03*
X1453134Y1088644D02*
D03*
X1132247D02*
D03*
X647954D02*
D03*
D19*
X1254760Y129540D02*
D03*
X1229360D02*
D03*
D20*
X1203960D02*
D03*
D21*
X650007D02*
D03*
X565853D02*
D03*
X481698D02*
D03*
X397544D02*
D03*
X313389D02*
D03*
X229235D02*
D03*
D22*
X1475740Y1033780D02*
D03*
X1424940D02*
D03*
X1154853D02*
D03*
X1104053D02*
D03*
X670560D02*
D03*
X619760D02*
D03*
D23*
X970280Y142240D02*
D03*
Y167640D02*
D03*
Y193040D02*
D03*
Y218440D02*
D03*
X894080Y142240D02*
D03*
Y167640D02*
D03*
Y193040D02*
D03*
X1016000D02*
D03*
Y218440D02*
D03*
X838200Y124460D02*
D03*
Y149860D02*
D03*
D24*
X894080Y218440D02*
D03*
D25*
X908050Y1066800D02*
D03*
X873050D02*
D03*
D26*
X838200Y218440D02*
D03*
Y198440D02*
D03*
X1475900Y392430D02*
D03*
X1495900D02*
D03*
X1475900Y497840D02*
D03*
X1495900D02*
D03*
X1475900Y603250D02*
D03*
X1495900D02*
D03*
X1475900Y708660D02*
D03*
X1495900D02*
D03*
X1475900Y814070D02*
D03*
X1495900D02*
D03*
D27*
X162560Y401320D02*
D03*
X867410Y427990D02*
D03*
D28*
X213360Y401320D02*
D03*
X264160D02*
D03*
X314960D02*
D03*
X365760D02*
D03*
X416560D02*
D03*
X467360D02*
D03*
X518160D02*
D03*
X568960D02*
D03*
X619760D02*
D03*
X162560Y807720D02*
D03*
X213360D02*
D03*
X264160D02*
D03*
X314960D02*
D03*
X365760D02*
D03*
X416560D02*
D03*
X467360D02*
D03*
X518160D02*
D03*
X568960D02*
D03*
X619760D02*
D03*
X918210Y427990D02*
D03*
X969010D02*
D03*
X1019810D02*
D03*
X1070610D02*
D03*
X1121410D02*
D03*
X1172210D02*
D03*
X1223010D02*
D03*
X1273810D02*
D03*
X867410Y783590D02*
D03*
X918210D02*
D03*
X969010D02*
D03*
X1019810D02*
D03*
X1070610D02*
D03*
X1121410D02*
D03*
X1172210D02*
D03*
X1223010D02*
D03*
X1273810D02*
D03*
D29*
X1615440Y50800D02*
D03*
X50800D02*
D03*
Y1221740D02*
D03*
X1615440D02*
D03*
D30*
X1008380Y129540D02*
X1203960D01*
X970280Y167640D02*
X1008380Y129540D01*
X970280Y167640D02*
Y193040D01*
X876300D02*
X894080D01*
X824460Y172720D02*
X855980D01*
X876300Y193040D01*
X774930Y156210D02*
X807950D01*
X824460Y172720D01*
X565853Y102167D02*
Y129540D01*
X596900Y71120D02*
X1479550D01*
X565853Y102167D02*
X596900Y71120D01*
X1479550D02*
X1504480Y96050D01*
Y129540D01*
X480040Y224770D02*
X566420Y311150D01*
X1144270D02*
X1229360Y226060D01*
X566420Y311150D02*
X1144270D01*
X1229360Y129540D02*
Y226060D01*
X480040Y131199D02*
Y224770D01*
Y131199D02*
X481698Y129540D01*
X397544D02*
Y250224D01*
X575310Y427990D02*
X867410D01*
X397544Y250224D02*
X575310Y427990D01*
X313389Y129540D02*
Y272750D01*
X619760Y579120D02*
Y807720D01*
X313389Y272750D02*
X619760Y579120D01*
X164300Y129540D02*
X229235D01*
D31*
X1504480D02*
D03*
X114300D02*
D03*
D32*
X1554480D02*
D03*
X164300D02*
D03*
M02*
