G04*
G04 #@! TF.GenerationSoftware,Altium Limited,Altium Designer,26.8.1 (31)*
G04*
G04 Layer_Color=32896*
G04 Board_Origin=7000000|3100000*
%FSLAX44Y44*%
%MOMM*%
G71*
G04*
G04 #@! TF.SameCoordinates,1285140B-0727-43AA-A1E4-543660A9A239*
G04*
G04*
G04 #@! TF.FilePolarity,Positive*
G04*
G01*
G75*
%ADD30C,0.5080*%
%ADD33C,1.0160*%
G36*
X872446Y885110D02*
X873367D01*
Y884978D01*
X873893D01*
Y884847D01*
X874419D01*
Y884715D01*
X874945D01*
Y884584D01*
X875339D01*
Y884452D01*
X875602D01*
Y884321D01*
X875734D01*
Y883663D01*
Y883532D01*
Y881296D01*
X875339D01*
Y881427D01*
X875076D01*
Y881559D01*
X874813D01*
Y881690D01*
X874550D01*
Y881822D01*
X874287D01*
Y881953D01*
X874024D01*
Y882085D01*
X873630D01*
Y882216D01*
X873235D01*
Y882348D01*
X872709D01*
Y882479D01*
X871131D01*
Y882348D01*
X870605D01*
Y882216D01*
X870342D01*
Y882085D01*
X870210D01*
Y881953D01*
X870079D01*
Y881822D01*
X869947D01*
Y881690D01*
X869816D01*
Y881559D01*
X869684D01*
Y881164D01*
X869553D01*
Y879849D01*
X869684D01*
Y879455D01*
X869816D01*
Y879192D01*
X869947D01*
Y878929D01*
X870079D01*
Y878665D01*
X870210D01*
Y878534D01*
X870342D01*
Y878271D01*
X870473D01*
Y878139D01*
X870605D01*
Y878008D01*
X870736D01*
Y877876D01*
X870868D01*
Y877745D01*
X870999D01*
Y877613D01*
X871131D01*
Y877482D01*
X871262D01*
Y877350D01*
X871394D01*
Y877219D01*
X871525D01*
Y877087D01*
X871657D01*
Y876956D01*
X871788D01*
Y876824D01*
X871920D01*
Y876693D01*
X872051D01*
Y876561D01*
X872183D01*
Y876430D01*
X872314D01*
Y876298D01*
X872446D01*
Y876167D01*
X872577D01*
Y876035D01*
X872840D01*
Y875904D01*
X872972D01*
Y875772D01*
X873103D01*
Y875641D01*
X873235D01*
Y875509D01*
X873367D01*
Y875378D01*
X873630D01*
Y875246D01*
X873761D01*
Y875115D01*
X873893D01*
Y874983D01*
X874024D01*
Y874852D01*
X874287D01*
Y874720D01*
X874419D01*
Y874588D01*
X874550D01*
Y874457D01*
X874813D01*
Y874325D01*
X874945D01*
Y874194D01*
X875076D01*
Y874062D01*
X875339D01*
Y873931D01*
X875471D01*
Y873799D01*
X875602D01*
Y873668D01*
X875865D01*
Y873536D01*
X875997D01*
Y871169D01*
X865212D01*
Y873799D01*
X871394D01*
Y873931D01*
X871131D01*
Y874062D01*
X870999D01*
Y874194D01*
X870868D01*
Y874325D01*
X870605D01*
Y874457D01*
X870473D01*
Y874588D01*
X870342D01*
Y874720D01*
X870079D01*
Y874852D01*
X869947D01*
Y874983D01*
X869816D01*
Y875115D01*
X869684D01*
Y875246D01*
X869553D01*
Y875378D01*
X869289D01*
Y875509D01*
X869158D01*
Y875641D01*
X869026D01*
Y875772D01*
X868895D01*
Y875904D01*
X868763D01*
Y876035D01*
X868632D01*
Y876167D01*
X868500D01*
Y876298D01*
X868369D01*
Y876430D01*
X868237D01*
Y876561D01*
X868106D01*
Y876693D01*
X867974D01*
Y876824D01*
X867843D01*
Y876956D01*
X867711D01*
Y877087D01*
X867580D01*
Y877219D01*
X867448D01*
Y877350D01*
X867317D01*
Y877482D01*
X867185D01*
Y877745D01*
X867054D01*
Y877876D01*
X866922D01*
Y878008D01*
X866791D01*
Y878271D01*
X866659D01*
Y878534D01*
X866528D01*
Y878665D01*
X866396D01*
Y879060D01*
X866265D01*
Y879323D01*
X866133D01*
Y879718D01*
X866002D01*
Y880375D01*
X865870D01*
Y881690D01*
X866002D01*
Y882348D01*
X866133D01*
Y882742D01*
X866265D01*
Y883006D01*
X866396D01*
Y883269D01*
X866528D01*
Y883400D01*
X866659D01*
Y883663D01*
X866791D01*
Y883795D01*
X866922D01*
Y883926D01*
X867054D01*
Y884058D01*
X867185D01*
Y884189D01*
X867448D01*
Y884321D01*
X867580D01*
Y884452D01*
X867843D01*
Y884584D01*
X868106D01*
Y884715D01*
X868369D01*
Y884847D01*
X868763D01*
Y884978D01*
X869289D01*
Y885110D01*
X869947D01*
Y885241D01*
X872446D01*
Y885110D01*
D02*
G37*
G36*
X891779Y871169D02*
X885335D01*
Y871301D01*
X884283D01*
Y871432D01*
X883625D01*
Y871564D01*
X883230D01*
Y871695D01*
X882836D01*
Y871827D01*
X882573D01*
Y871958D01*
X882310D01*
Y872090D01*
X882047D01*
Y872221D01*
X881784D01*
Y872353D01*
X881652D01*
Y872484D01*
X881389D01*
Y872616D01*
X881258D01*
Y872747D01*
X881126D01*
Y872879D01*
X880863D01*
Y873010D01*
X880732D01*
Y873142D01*
X880600D01*
Y873273D01*
X880469D01*
Y873536D01*
X880337D01*
Y873668D01*
X880206D01*
Y873799D01*
X880074D01*
Y873931D01*
X879942D01*
Y874194D01*
X879811D01*
Y874325D01*
X879679D01*
Y874588D01*
X879548D01*
Y874852D01*
X879416D01*
Y875115D01*
X879285D01*
Y875378D01*
X879153D01*
Y875772D01*
X879022D01*
Y876167D01*
X878890D01*
Y876824D01*
X878759D01*
Y879455D01*
X878890D01*
Y880112D01*
X879022D01*
Y880507D01*
X879153D01*
Y880901D01*
X879285D01*
Y881164D01*
X879416D01*
Y881427D01*
X879548D01*
Y881690D01*
X879679D01*
Y881822D01*
X879811D01*
Y882085D01*
X879942D01*
Y882216D01*
X880074D01*
Y882479D01*
X880206D01*
Y882611D01*
X880337D01*
Y882742D01*
X880469D01*
Y882874D01*
X880600D01*
Y883006D01*
X880732D01*
Y883137D01*
X880863D01*
Y883269D01*
X880995D01*
Y883400D01*
X881126D01*
Y883532D01*
X881389D01*
Y883663D01*
X881521D01*
Y883795D01*
X881784D01*
Y883926D01*
X881915D01*
Y884058D01*
X882178D01*
Y884189D01*
X882441D01*
Y884321D01*
X882836D01*
Y884452D01*
X883230D01*
Y884584D01*
X883625D01*
Y884715D01*
X884283D01*
Y884847D01*
X885203D01*
Y884978D01*
X891779D01*
Y871169D01*
D02*
G37*
G36*
X893094Y839605D02*
X1042235D01*
Y837237D01*
X1044602D01*
Y716504D01*
X1088003D01*
Y716768D01*
X1088135D01*
Y717557D01*
X1088266D01*
Y718214D01*
X1088398D01*
Y718740D01*
X1088529D01*
Y719266D01*
X1088661D01*
Y719661D01*
X1088792D01*
Y720055D01*
X1088924D01*
Y720450D01*
X1089055D01*
Y720713D01*
X1089187D01*
Y721107D01*
X1089318D01*
Y721371D01*
X1089450D01*
Y721634D01*
X1089581D01*
Y721897D01*
X1089713D01*
Y722160D01*
X1089844D01*
Y722423D01*
X1089976D01*
Y722686D01*
X1090107D01*
Y722817D01*
X1090239D01*
Y723080D01*
X1090370D01*
Y723343D01*
X1090502D01*
Y723475D01*
X1090633D01*
Y723738D01*
X1090765D01*
Y723869D01*
X1090897D01*
Y724001D01*
X1091028D01*
Y724264D01*
X1091160D01*
Y724396D01*
X1091291D01*
Y724659D01*
X1091423D01*
Y724790D01*
X1091554D01*
Y724921D01*
X1091686D01*
Y725053D01*
X1091817D01*
Y725185D01*
X1091949D01*
Y725316D01*
X1092080D01*
Y725448D01*
X1092212D01*
Y725579D01*
X1092343D01*
Y725711D01*
X1092475D01*
Y725842D01*
X1092606D01*
Y725974D01*
X1092738D01*
Y726105D01*
X1092869D01*
Y726237D01*
X1093001D01*
Y726368D01*
X1093132D01*
Y726500D01*
X1093395D01*
Y726631D01*
X1093527D01*
Y726763D01*
X1093658D01*
Y726894D01*
X1093790D01*
Y727026D01*
X1094053D01*
Y727157D01*
X1094316D01*
Y727289D01*
X1094447D01*
Y727420D01*
X1094710D01*
Y727552D01*
X1094842D01*
Y727683D01*
X1095105D01*
Y727815D01*
X1095368D01*
Y727946D01*
X1095631D01*
Y728078D01*
X1095894D01*
Y728210D01*
X1096157D01*
Y728341D01*
X1096420D01*
Y728473D01*
X1096946D01*
Y728604D01*
X1097341D01*
Y728736D01*
X1097735D01*
Y728867D01*
X1098393D01*
Y728999D01*
X1099051D01*
Y729130D01*
X1101681D01*
Y728999D01*
X1102338D01*
Y728867D01*
X1102865D01*
Y728736D01*
X1103259D01*
Y728604D01*
X1103785D01*
Y728473D01*
X1104180D01*
Y728341D01*
X1104443D01*
Y728210D01*
X1104706D01*
Y728078D01*
X1104969D01*
Y727946D01*
X1105232D01*
Y727815D01*
X1105495D01*
Y727683D01*
X1105758D01*
Y727552D01*
X1105890D01*
Y727420D01*
X1106152D01*
Y727289D01*
X1106415D01*
Y727157D01*
X1106547D01*
Y727026D01*
X1106810D01*
Y726894D01*
X1106942D01*
Y726763D01*
X1107073D01*
Y726631D01*
X1107205D01*
Y726500D01*
X1107336D01*
Y726368D01*
X1107599D01*
Y726237D01*
X1107731D01*
Y726105D01*
X1107862D01*
Y725974D01*
X1107994D01*
Y725842D01*
X1108125D01*
Y725711D01*
X1108257D01*
Y725579D01*
X1108388D01*
Y725448D01*
X1108520D01*
Y725316D01*
X1108651D01*
Y725185D01*
X1108783D01*
Y725053D01*
X1108914D01*
Y724921D01*
X1109046D01*
Y724790D01*
X1109177D01*
Y724659D01*
X1109309D01*
Y724527D01*
X1109441D01*
Y724264D01*
X1109572D01*
Y724132D01*
X1109704D01*
Y723869D01*
X1109835D01*
Y723738D01*
X1109967D01*
Y723475D01*
X1110098D01*
Y723343D01*
X1110230D01*
Y723212D01*
X1110361D01*
Y722949D01*
X1110493D01*
Y723212D01*
X1110624D01*
Y723343D01*
X1110756D01*
Y723606D01*
X1110887D01*
Y723738D01*
X1111019D01*
Y724001D01*
X1111150D01*
Y724132D01*
X1111282D01*
Y724264D01*
X1111413D01*
Y724527D01*
X1111545D01*
Y724659D01*
X1111676D01*
Y724790D01*
X1111808D01*
Y724921D01*
X1111939D01*
Y725053D01*
X1112071D01*
Y725185D01*
X1112202D01*
Y725316D01*
X1112334D01*
Y725448D01*
X1112465D01*
Y725711D01*
X1112597D01*
Y725842D01*
X1112728D01*
Y725974D01*
X1112860D01*
Y726105D01*
X1113123D01*
Y726237D01*
X1113254D01*
Y726368D01*
X1113386D01*
Y726500D01*
X1113518D01*
Y726631D01*
X1113781D01*
Y726763D01*
X1113912D01*
Y726894D01*
X1114044D01*
Y727026D01*
X1114307D01*
Y727157D01*
X1114438D01*
Y727289D01*
X1114701D01*
Y727420D01*
X1114964D01*
Y727552D01*
X1115096D01*
Y727683D01*
X1115359D01*
Y727815D01*
X1115622D01*
Y727946D01*
X1115885D01*
Y728078D01*
X1116148D01*
Y728210D01*
X1116411D01*
Y728341D01*
X1116674D01*
Y728473D01*
X1117068D01*
Y728604D01*
X1117463D01*
Y728736D01*
X1117858D01*
Y728867D01*
X1118515D01*
Y728999D01*
X1119173D01*
Y729130D01*
X1121803D01*
Y728999D01*
X1122461D01*
Y728867D01*
X1123118D01*
Y728736D01*
X1123513D01*
Y728604D01*
X1123907D01*
Y728473D01*
X1124302D01*
Y728341D01*
X1124565D01*
Y728210D01*
X1124959D01*
Y728078D01*
X1125222D01*
Y727946D01*
X1125486D01*
Y727815D01*
X1125749D01*
Y727683D01*
X1125880D01*
Y727552D01*
X1126143D01*
Y727420D01*
X1126406D01*
Y727289D01*
X1126538D01*
Y727157D01*
X1126801D01*
Y727026D01*
X1126932D01*
Y726894D01*
X1127195D01*
Y726763D01*
X1127327D01*
Y726631D01*
X1127458D01*
Y726500D01*
X1127590D01*
Y726368D01*
X1127721D01*
Y726237D01*
X1127984D01*
Y726105D01*
X1128116D01*
Y725974D01*
X1128248D01*
Y725842D01*
X1128379D01*
Y725711D01*
X1128511D01*
Y725579D01*
X1128642D01*
Y725448D01*
X1128773D01*
Y725316D01*
X1128905D01*
Y725185D01*
X1129037D01*
Y725053D01*
X1129168D01*
Y724921D01*
X1129300D01*
Y724659D01*
X1129431D01*
Y724527D01*
X1129563D01*
Y724396D01*
X1129694D01*
Y724132D01*
X1129826D01*
Y724001D01*
X1129957D01*
Y723869D01*
X1130089D01*
Y723606D01*
X1130220D01*
Y723475D01*
X1130352D01*
Y723212D01*
X1130483D01*
Y723080D01*
X1130746D01*
Y723212D01*
X1130878D01*
Y723475D01*
X1131009D01*
Y723606D01*
X1131141D01*
Y723869D01*
X1131272D01*
Y724001D01*
X1131404D01*
Y724132D01*
X1131535D01*
Y724396D01*
X1131667D01*
Y724527D01*
X1131798D01*
Y724659D01*
X1131930D01*
Y724790D01*
X1132061D01*
Y724921D01*
X1132193D01*
Y725185D01*
X1132325D01*
Y725316D01*
X1132456D01*
Y725448D01*
X1132588D01*
Y725579D01*
X1132719D01*
Y725711D01*
X1132851D01*
Y725842D01*
X1132982D01*
Y725974D01*
X1133114D01*
Y726105D01*
X1133245D01*
Y726237D01*
X1133377D01*
Y726368D01*
X1133640D01*
Y726500D01*
X1133771D01*
Y726631D01*
X1133903D01*
Y726763D01*
X1134034D01*
Y726894D01*
X1134166D01*
Y727026D01*
X1134429D01*
Y727157D01*
X1134692D01*
Y727289D01*
X1134823D01*
Y727420D01*
X1135086D01*
Y727552D01*
X1135349D01*
Y727683D01*
X1135481D01*
Y727815D01*
X1135744D01*
Y727946D01*
X1136007D01*
Y728078D01*
X1136270D01*
Y728210D01*
X1136665D01*
Y728341D01*
X1136928D01*
Y728473D01*
X1137322D01*
Y728604D01*
X1137717D01*
Y728736D01*
X1138111D01*
Y728867D01*
X1138769D01*
Y728999D01*
X1139426D01*
Y729130D01*
X1142057D01*
Y728999D01*
X1142714D01*
Y728867D01*
X1143372D01*
Y728736D01*
X1143766D01*
Y728604D01*
X1144161D01*
Y728473D01*
X1144556D01*
Y728341D01*
X1144819D01*
Y728210D01*
X1145082D01*
Y728078D01*
X1145345D01*
Y727946D01*
X1145608D01*
Y727815D01*
X1145871D01*
Y727683D01*
X1146134D01*
Y727552D01*
X1146265D01*
Y727420D01*
X1146528D01*
Y727289D01*
X1146791D01*
Y727157D01*
X1146923D01*
Y727026D01*
X1147186D01*
Y726894D01*
X1147318D01*
Y726763D01*
X1147449D01*
Y726631D01*
X1147712D01*
Y726500D01*
X1147844D01*
Y726368D01*
X1147975D01*
Y726237D01*
X1148107D01*
Y726105D01*
X1148238D01*
Y725974D01*
X1148501D01*
Y725842D01*
X1148633D01*
Y725711D01*
X1148764D01*
Y725579D01*
X1148896D01*
Y725448D01*
X1149027D01*
Y725316D01*
X1149159D01*
Y725053D01*
X1149290D01*
Y724921D01*
X1149422D01*
Y724790D01*
X1149553D01*
Y724659D01*
X1149685D01*
Y724527D01*
X1149816D01*
Y724264D01*
X1149948D01*
Y724132D01*
X1150079D01*
Y724001D01*
X1150211D01*
Y723738D01*
X1150342D01*
Y723606D01*
X1150474D01*
Y723343D01*
X1150605D01*
Y723212D01*
X1150737D01*
Y722949D01*
X1150869D01*
Y723212D01*
X1151000D01*
Y723343D01*
X1151132D01*
Y723475D01*
X1151263D01*
Y723738D01*
X1151395D01*
Y723869D01*
X1151526D01*
Y724132D01*
X1151658D01*
Y724264D01*
X1151789D01*
Y724527D01*
X1151921D01*
Y724659D01*
X1152052D01*
Y724790D01*
X1152184D01*
Y724921D01*
X1152315D01*
Y725053D01*
X1152447D01*
Y725185D01*
X1152578D01*
Y725316D01*
X1152710D01*
Y725448D01*
X1152841D01*
Y725579D01*
X1152973D01*
Y725711D01*
X1153104D01*
Y725842D01*
X1153236D01*
Y725974D01*
X1153367D01*
Y726105D01*
X1153499D01*
Y726237D01*
X1153630D01*
Y726368D01*
X1153762D01*
Y726500D01*
X1154025D01*
Y726631D01*
X1154156D01*
Y726763D01*
X1154288D01*
Y726894D01*
X1154419D01*
Y727026D01*
X1154682D01*
Y727157D01*
X1154814D01*
Y727289D01*
X1155077D01*
Y727420D01*
X1155340D01*
Y727552D01*
X1155472D01*
Y727683D01*
X1155735D01*
Y727815D01*
X1155998D01*
Y727946D01*
X1156261D01*
Y728078D01*
X1156524D01*
Y728210D01*
X1156787D01*
Y728341D01*
X1157050D01*
Y728473D01*
X1157444D01*
Y728604D01*
X1157970D01*
Y728736D01*
X1158365D01*
Y728867D01*
X1159023D01*
Y728999D01*
X1159549D01*
Y729130D01*
X1162179D01*
Y728999D01*
X1162837D01*
Y728867D01*
X1163494D01*
Y728736D01*
X1163889D01*
Y728604D01*
X1164283D01*
Y728473D01*
X1164678D01*
Y728341D01*
X1165072D01*
Y728210D01*
X1165335D01*
Y728078D01*
X1165598D01*
Y727946D01*
X1165861D01*
Y727815D01*
X1166124D01*
Y727683D01*
X1166387D01*
Y727552D01*
X1166519D01*
Y727420D01*
X1166782D01*
Y727289D01*
X1166914D01*
Y727157D01*
X1167177D01*
Y727026D01*
X1167440D01*
Y726894D01*
X1167571D01*
Y726763D01*
X1167703D01*
Y726631D01*
X1167834D01*
Y726500D01*
X1167966D01*
Y726368D01*
X1168229D01*
Y726237D01*
X1168360D01*
Y726105D01*
X1168492D01*
Y725974D01*
X1168623D01*
Y725842D01*
X1168755D01*
Y725711D01*
X1168886D01*
Y725579D01*
X1169018D01*
Y725448D01*
X1169149D01*
Y725316D01*
X1169281D01*
Y725185D01*
X1169412D01*
Y725053D01*
X1169544D01*
Y724921D01*
X1169676D01*
Y724790D01*
X1169807D01*
Y724659D01*
X1169939D01*
Y724396D01*
X1170070D01*
Y724264D01*
X1170201D01*
Y724001D01*
X1170333D01*
Y723869D01*
X1170465D01*
Y723738D01*
X1170596D01*
Y723475D01*
X1170728D01*
Y723343D01*
X1170859D01*
Y723080D01*
X1170991D01*
Y722817D01*
X1171122D01*
Y722686D01*
X1171254D01*
Y722423D01*
X1171385D01*
Y722160D01*
X1171517D01*
Y721897D01*
X1171648D01*
Y721634D01*
X1171780D01*
Y721371D01*
X1171911D01*
Y721107D01*
X1172043D01*
Y720713D01*
X1172174D01*
Y720450D01*
X1172306D01*
Y720055D01*
X1172437D01*
Y719661D01*
X1172569D01*
Y719135D01*
X1172700D01*
Y718740D01*
X1172832D01*
Y718214D01*
X1172963D01*
Y717557D01*
X1173095D01*
Y716768D01*
X1173226D01*
Y716504D01*
X1216364D01*
Y716636D01*
X1227675D01*
Y621812D01*
X1256872D01*
Y617077D01*
X1193743D01*
Y621812D01*
X1222940D01*
Y711770D01*
X1170465D01*
Y711901D01*
X1170070D01*
Y712033D01*
X1169807D01*
Y712164D01*
X1169676D01*
Y712296D01*
X1169412D01*
Y712427D01*
X1169281D01*
Y712690D01*
X1169149D01*
Y712822D01*
X1169018D01*
Y712953D01*
X1168886D01*
Y713216D01*
X1168755D01*
Y713611D01*
X1168623D01*
Y715847D01*
X1168492D01*
Y716504D01*
X1168360D01*
Y717293D01*
X1168229D01*
Y717688D01*
X1168097D01*
Y718083D01*
X1167966D01*
Y718477D01*
X1167834D01*
Y718872D01*
X1167703D01*
Y719135D01*
X1167571D01*
Y719398D01*
X1167440D01*
Y719792D01*
X1167308D01*
Y720055D01*
X1167177D01*
Y720187D01*
X1167045D01*
Y720450D01*
X1166914D01*
Y720713D01*
X1166782D01*
Y720844D01*
X1166651D01*
Y721107D01*
X1166519D01*
Y721239D01*
X1166387D01*
Y721502D01*
X1166256D01*
Y721634D01*
X1166124D01*
Y721765D01*
X1165993D01*
Y721897D01*
X1165861D01*
Y722028D01*
X1165730D01*
Y722160D01*
X1165598D01*
Y722291D01*
X1165467D01*
Y722423D01*
X1165335D01*
Y722554D01*
X1165204D01*
Y722686D01*
X1165072D01*
Y722817D01*
X1164941D01*
Y722949D01*
X1164809D01*
Y723080D01*
X1164546D01*
Y723212D01*
X1164415D01*
Y723343D01*
X1164283D01*
Y723475D01*
X1164020D01*
Y723606D01*
X1163757D01*
Y723738D01*
X1163494D01*
Y723869D01*
X1163231D01*
Y724001D01*
X1162837D01*
Y724132D01*
X1162442D01*
Y724264D01*
X1161653D01*
Y724396D01*
X1160075D01*
Y724264D01*
X1159417D01*
Y724132D01*
X1159023D01*
Y724001D01*
X1158628D01*
Y723869D01*
X1158365D01*
Y723738D01*
X1158102D01*
Y723606D01*
X1157839D01*
Y723475D01*
X1157576D01*
Y723343D01*
X1157444D01*
Y723212D01*
X1157313D01*
Y723080D01*
X1157050D01*
Y722949D01*
X1156918D01*
Y722817D01*
X1156787D01*
Y722686D01*
X1156655D01*
Y722554D01*
X1156524D01*
Y722423D01*
X1156392D01*
Y722291D01*
X1156261D01*
Y722160D01*
X1156129D01*
Y722028D01*
X1155998D01*
Y721897D01*
X1155866D01*
Y721765D01*
X1155735D01*
Y721634D01*
X1155603D01*
Y721502D01*
X1155472D01*
Y721239D01*
X1155340D01*
Y721107D01*
X1155209D01*
Y720844D01*
X1155077D01*
Y720713D01*
X1154946D01*
Y720450D01*
X1154814D01*
Y720318D01*
X1154682D01*
Y720055D01*
X1154551D01*
Y719792D01*
X1154419D01*
Y719529D01*
X1154288D01*
Y719266D01*
X1154156D01*
Y719003D01*
X1154025D01*
Y718609D01*
X1153893D01*
Y718214D01*
X1153762D01*
Y717820D01*
X1153630D01*
Y717425D01*
X1153499D01*
Y716768D01*
X1153367D01*
Y715978D01*
X1153236D01*
Y714137D01*
X1153104D01*
Y713348D01*
X1152973D01*
Y713085D01*
X1152841D01*
Y712822D01*
X1152710D01*
Y712690D01*
X1152578D01*
Y712559D01*
X1152447D01*
Y712427D01*
X1152315D01*
Y712296D01*
X1152184D01*
Y712164D01*
X1152052D01*
Y712033D01*
X1151789D01*
Y711901D01*
X1151395D01*
Y711770D01*
X1150211D01*
Y711901D01*
X1149816D01*
Y712033D01*
X1149553D01*
Y712164D01*
X1149422D01*
Y712296D01*
X1149290D01*
Y712427D01*
X1149159D01*
Y712559D01*
X1149027D01*
Y712690D01*
X1148896D01*
Y712822D01*
X1148764D01*
Y713085D01*
X1148633D01*
Y713480D01*
X1148501D01*
Y714137D01*
X1148370D01*
Y716110D01*
X1148238D01*
Y716768D01*
X1148107D01*
Y717557D01*
X1147975D01*
Y717951D01*
X1147844D01*
Y718346D01*
X1147712D01*
Y718740D01*
X1147580D01*
Y719003D01*
X1147449D01*
Y719266D01*
X1147318D01*
Y719529D01*
X1147186D01*
Y719924D01*
X1147054D01*
Y720055D01*
X1146923D01*
Y720318D01*
X1146791D01*
Y720582D01*
X1146660D01*
Y720713D01*
X1146528D01*
Y720976D01*
X1146397D01*
Y721107D01*
X1146265D01*
Y721371D01*
X1146134D01*
Y721502D01*
X1146002D01*
Y721634D01*
X1145871D01*
Y721765D01*
X1145739D01*
Y721897D01*
X1145608D01*
Y722028D01*
X1145476D01*
Y722160D01*
X1145345D01*
Y722423D01*
X1145213D01*
Y722554D01*
X1145082D01*
Y722686D01*
X1144950D01*
Y722817D01*
X1144687D01*
Y722949D01*
X1144556D01*
Y723080D01*
X1144424D01*
Y723212D01*
X1144161D01*
Y723343D01*
X1144030D01*
Y723475D01*
X1143766D01*
Y723606D01*
X1143503D01*
Y723738D01*
X1143241D01*
Y723869D01*
X1142977D01*
Y724001D01*
X1142583D01*
Y724132D01*
X1142188D01*
Y724264D01*
X1141531D01*
Y724396D01*
X1139952D01*
Y724264D01*
X1139163D01*
Y724132D01*
X1138769D01*
Y724001D01*
X1138374D01*
Y723869D01*
X1138111D01*
Y723738D01*
X1137848D01*
Y723606D01*
X1137717D01*
Y723475D01*
X1137454D01*
Y723343D01*
X1137191D01*
Y723212D01*
X1137059D01*
Y723080D01*
X1136928D01*
Y722949D01*
X1136796D01*
Y722817D01*
X1136533D01*
Y722686D01*
X1136402D01*
Y722554D01*
X1136270D01*
Y722423D01*
X1136139D01*
Y722291D01*
X1136007D01*
Y722160D01*
X1135875D01*
Y722028D01*
X1135744D01*
Y721897D01*
X1135612D01*
Y721765D01*
X1135481D01*
Y721634D01*
X1135349D01*
Y721371D01*
X1135218D01*
Y721239D01*
X1135086D01*
Y720976D01*
X1134955D01*
Y720844D01*
X1134823D01*
Y720582D01*
X1134692D01*
Y720450D01*
X1134560D01*
Y720187D01*
X1134429D01*
Y719924D01*
X1134297D01*
Y719661D01*
X1134166D01*
Y719398D01*
X1134034D01*
Y719135D01*
X1133903D01*
Y718872D01*
X1133771D01*
Y718477D01*
X1133640D01*
Y718083D01*
X1133508D01*
Y717688D01*
X1133377D01*
Y717030D01*
X1133245D01*
Y716373D01*
X1133114D01*
Y715321D01*
X1132982D01*
Y713611D01*
X1132851D01*
Y713216D01*
X1132719D01*
Y712953D01*
X1132588D01*
Y712690D01*
X1132456D01*
Y712559D01*
X1132325D01*
Y712427D01*
X1132193D01*
Y712296D01*
X1132061D01*
Y712164D01*
X1131798D01*
Y712033D01*
X1131535D01*
Y711901D01*
X1131141D01*
Y711770D01*
X1130089D01*
Y711901D01*
X1129694D01*
Y712033D01*
X1129431D01*
Y712164D01*
X1129168D01*
Y712296D01*
X1129037D01*
Y712427D01*
X1128905D01*
Y712559D01*
X1128773D01*
Y712690D01*
X1128642D01*
Y712953D01*
X1128511D01*
Y713216D01*
X1128379D01*
Y713611D01*
X1128248D01*
Y715321D01*
X1128116D01*
Y716373D01*
X1127984D01*
Y717030D01*
X1127853D01*
Y717688D01*
X1127721D01*
Y718083D01*
X1127590D01*
Y718477D01*
X1127458D01*
Y718872D01*
X1127327D01*
Y719135D01*
X1127195D01*
Y719398D01*
X1127064D01*
Y719661D01*
X1126932D01*
Y719924D01*
X1126801D01*
Y720187D01*
X1126669D01*
Y720450D01*
X1126538D01*
Y720582D01*
X1126406D01*
Y720844D01*
X1126275D01*
Y720976D01*
X1126143D01*
Y721239D01*
X1126012D01*
Y721371D01*
X1125880D01*
Y721634D01*
X1125749D01*
Y721765D01*
X1125617D01*
Y721897D01*
X1125486D01*
Y722028D01*
X1125354D01*
Y722160D01*
X1125222D01*
Y722291D01*
X1125091D01*
Y722423D01*
X1124959D01*
Y722554D01*
X1124828D01*
Y722686D01*
X1124697D01*
Y722817D01*
X1124565D01*
Y722949D01*
X1124302D01*
Y723080D01*
X1124170D01*
Y723212D01*
X1124039D01*
Y723343D01*
X1123776D01*
Y723475D01*
X1123513D01*
Y723606D01*
X1123381D01*
Y723738D01*
X1123118D01*
Y723869D01*
X1122855D01*
Y724001D01*
X1122461D01*
Y724132D01*
X1121935D01*
Y724264D01*
X1121277D01*
Y724396D01*
X1119699D01*
Y724264D01*
X1119041D01*
Y724132D01*
X1118647D01*
Y724001D01*
X1118252D01*
Y723869D01*
X1117989D01*
Y723738D01*
X1117726D01*
Y723606D01*
X1117463D01*
Y723475D01*
X1117200D01*
Y723343D01*
X1117068D01*
Y723212D01*
X1116805D01*
Y723080D01*
X1116674D01*
Y722949D01*
X1116542D01*
Y722817D01*
X1116411D01*
Y722686D01*
X1116148D01*
Y722554D01*
X1116016D01*
Y722423D01*
X1115885D01*
Y722291D01*
X1115753D01*
Y722160D01*
X1115622D01*
Y722028D01*
X1115490D01*
Y721765D01*
X1115359D01*
Y721634D01*
X1115227D01*
Y721502D01*
X1115096D01*
Y721371D01*
X1114964D01*
Y721107D01*
X1114833D01*
Y720976D01*
X1114701D01*
Y720713D01*
X1114570D01*
Y720582D01*
X1114438D01*
Y720318D01*
X1114307D01*
Y720055D01*
X1114175D01*
Y719792D01*
X1114044D01*
Y719529D01*
X1113912D01*
Y719266D01*
X1113781D01*
Y719003D01*
X1113649D01*
Y718740D01*
X1113518D01*
Y718346D01*
X1113386D01*
Y717951D01*
X1113254D01*
Y717557D01*
X1113123D01*
Y716768D01*
X1112991D01*
Y716110D01*
X1112860D01*
Y714137D01*
X1112728D01*
Y713480D01*
X1112597D01*
Y713085D01*
X1112465D01*
Y712822D01*
X1112334D01*
Y712690D01*
X1112202D01*
Y712559D01*
X1112071D01*
Y712427D01*
X1111939D01*
Y712296D01*
X1111808D01*
Y712164D01*
X1111676D01*
Y712033D01*
X1111413D01*
Y711901D01*
X1111019D01*
Y711770D01*
X1109835D01*
Y711901D01*
X1109441D01*
Y712033D01*
X1109177D01*
Y712164D01*
X1109046D01*
Y712296D01*
X1108914D01*
Y712427D01*
X1108783D01*
Y712559D01*
X1108651D01*
Y712690D01*
X1108520D01*
Y712822D01*
X1108388D01*
Y713085D01*
X1108257D01*
Y713348D01*
X1108125D01*
Y714137D01*
X1107994D01*
Y715978D01*
X1107862D01*
Y716768D01*
X1107731D01*
Y717425D01*
X1107599D01*
Y717820D01*
X1107468D01*
Y718214D01*
X1107336D01*
Y718609D01*
X1107205D01*
Y719003D01*
X1107073D01*
Y719266D01*
X1106942D01*
Y719529D01*
X1106810D01*
Y719792D01*
X1106679D01*
Y720055D01*
X1106547D01*
Y720318D01*
X1106415D01*
Y720450D01*
X1106284D01*
Y720713D01*
X1106152D01*
Y720844D01*
X1106021D01*
Y721107D01*
X1105890D01*
Y721239D01*
X1105758D01*
Y721502D01*
X1105626D01*
Y721634D01*
X1105495D01*
Y721765D01*
X1105363D01*
Y721897D01*
X1105232D01*
Y722028D01*
X1105100D01*
Y722160D01*
X1104969D01*
Y722291D01*
X1104837D01*
Y722423D01*
X1104706D01*
Y722554D01*
X1104574D01*
Y722686D01*
X1104443D01*
Y722817D01*
X1104311D01*
Y722949D01*
X1104180D01*
Y723080D01*
X1104048D01*
Y723212D01*
X1103785D01*
Y723343D01*
X1103654D01*
Y723475D01*
X1103391D01*
Y723606D01*
X1103128D01*
Y723738D01*
X1102865D01*
Y723869D01*
X1102602D01*
Y724001D01*
X1102207D01*
Y724132D01*
X1101812D01*
Y724264D01*
X1101023D01*
Y724396D01*
X1099445D01*
Y724264D01*
X1098788D01*
Y724132D01*
X1098393D01*
Y724001D01*
X1097998D01*
Y723869D01*
X1097735D01*
Y723738D01*
X1097472D01*
Y723606D01*
X1097209D01*
Y723475D01*
X1096946D01*
Y723343D01*
X1096815D01*
Y723212D01*
X1096683D01*
Y723080D01*
X1096552D01*
Y722949D01*
X1096289D01*
Y722817D01*
X1096157D01*
Y722686D01*
X1096026D01*
Y722554D01*
X1095894D01*
Y722423D01*
X1095763D01*
Y722291D01*
X1095631D01*
Y722160D01*
X1095500D01*
Y722028D01*
X1095368D01*
Y721897D01*
X1095237D01*
Y721765D01*
X1095105D01*
Y721634D01*
X1094974D01*
Y721502D01*
X1094842D01*
Y721239D01*
X1094710D01*
Y721107D01*
X1094579D01*
Y720844D01*
X1094447D01*
Y720713D01*
X1094316D01*
Y720450D01*
X1094184D01*
Y720187D01*
X1094053D01*
Y719924D01*
X1093921D01*
Y719661D01*
X1093790D01*
Y719398D01*
X1093658D01*
Y719135D01*
X1093527D01*
Y718872D01*
X1093395D01*
Y718477D01*
X1093264D01*
Y718083D01*
X1093132D01*
Y717688D01*
X1093001D01*
Y717293D01*
X1092869D01*
Y716504D01*
X1092738D01*
Y715847D01*
X1092606D01*
Y713611D01*
X1092475D01*
Y713216D01*
X1092343D01*
Y712953D01*
X1092212D01*
Y712822D01*
X1092080D01*
Y712559D01*
X1091949D01*
Y712427D01*
X1091686D01*
Y712296D01*
X1091554D01*
Y712164D01*
X1091423D01*
Y712033D01*
X1091160D01*
Y711901D01*
X1090765D01*
Y711770D01*
X987787D01*
Y694146D01*
X987524D01*
Y694278D01*
X987392D01*
Y694409D01*
X987129D01*
Y694541D01*
X986998D01*
Y694672D01*
X986735D01*
Y694804D01*
X986472D01*
Y694936D01*
X986340D01*
Y695067D01*
X986077D01*
Y695199D01*
X985946D01*
Y695330D01*
X985683D01*
Y695462D01*
X985419D01*
Y695593D01*
X985288D01*
Y695725D01*
X985025D01*
Y695856D01*
X984893D01*
Y695988D01*
X984630D01*
Y696119D01*
X984367D01*
Y696251D01*
X984236D01*
Y696382D01*
X983973D01*
Y696514D01*
X983841D01*
Y696645D01*
X983578D01*
Y696777D01*
X983315D01*
Y696908D01*
X983184D01*
Y697040D01*
X982921D01*
Y697171D01*
X982789D01*
Y697303D01*
X982526D01*
Y697434D01*
X982263D01*
Y697566D01*
X982132D01*
Y697697D01*
X981869D01*
Y697829D01*
X981737D01*
Y697961D01*
X981474D01*
Y698092D01*
X981211D01*
Y698223D01*
X981079D01*
Y698355D01*
X980816D01*
Y698486D01*
X980685D01*
Y698618D01*
X980422D01*
Y698750D01*
X980159D01*
Y698881D01*
X980027D01*
Y699013D01*
X979764D01*
Y699144D01*
X979633D01*
Y699276D01*
X979370D01*
Y699407D01*
X979107D01*
Y699539D01*
X978975D01*
Y699670D01*
X978712D01*
Y699802D01*
X978580D01*
Y699933D01*
X978317D01*
Y700065D01*
X978055D01*
Y700196D01*
X977923D01*
Y700328D01*
X977660D01*
Y700459D01*
X977528D01*
Y700591D01*
X977265D01*
Y700722D01*
X977002D01*
Y700854D01*
X976871D01*
Y700985D01*
X976608D01*
Y701117D01*
X976476D01*
Y701248D01*
X976213D01*
Y701380D01*
X975950D01*
Y701511D01*
X975819D01*
Y701643D01*
X975556D01*
Y701775D01*
X975424D01*
Y701906D01*
X975161D01*
Y702038D01*
X974898D01*
Y702169D01*
X974766D01*
Y702300D01*
X974503D01*
Y702432D01*
X974372D01*
Y702564D01*
X974109D01*
Y702695D01*
X973846D01*
Y702827D01*
X973714D01*
Y702958D01*
X973451D01*
Y703090D01*
X973320D01*
Y703221D01*
X973057D01*
Y703353D01*
X972794D01*
Y703484D01*
X972662D01*
Y703616D01*
X972399D01*
Y703747D01*
X972268D01*
Y703879D01*
X972005D01*
Y704010D01*
X971742D01*
Y704142D01*
X971610D01*
Y704273D01*
X971347D01*
Y704405D01*
X971216D01*
Y704536D01*
X970953D01*
Y704668D01*
X970689D01*
Y704799D01*
X970558D01*
Y704931D01*
X970295D01*
Y705062D01*
X970163D01*
Y705194D01*
X969900D01*
Y705325D01*
X969637D01*
Y705457D01*
X969506D01*
Y705589D01*
X969243D01*
Y705720D01*
X969111D01*
Y705852D01*
X968848D01*
Y705983D01*
X968585D01*
Y706115D01*
X968454D01*
Y706246D01*
X968191D01*
Y706378D01*
X968059D01*
Y706509D01*
X967796D01*
Y706641D01*
X967533D01*
Y706772D01*
X967402D01*
Y706904D01*
X967139D01*
Y707035D01*
X967007D01*
Y707167D01*
X966744D01*
Y707298D01*
X966481D01*
Y707430D01*
X966349D01*
Y707561D01*
X966086D01*
Y707693D01*
X965955D01*
Y707824D01*
X965692D01*
Y707956D01*
X965429D01*
Y708087D01*
X965297D01*
Y708219D01*
X965034D01*
Y708350D01*
X964903D01*
Y708482D01*
X964640D01*
Y708613D01*
X964377D01*
Y708745D01*
X964245D01*
Y708876D01*
X963982D01*
Y709008D01*
X963851D01*
Y709139D01*
X963588D01*
Y709271D01*
X963325D01*
Y709402D01*
X963193D01*
Y709534D01*
X962930D01*
Y709666D01*
X962798D01*
Y709797D01*
X962535D01*
Y698355D01*
X957801D01*
Y711770D01*
X880469D01*
Y621812D01*
X893883D01*
Y617077D01*
X862319D01*
Y621812D01*
X875734D01*
Y711770D01*
X791694D01*
Y711901D01*
X791300D01*
Y712033D01*
X791037D01*
Y712164D01*
X790905D01*
Y712296D01*
X790642D01*
Y712427D01*
X790510D01*
Y712690D01*
X790379D01*
Y712822D01*
X790247D01*
Y712953D01*
X790116D01*
Y713216D01*
X789984D01*
Y713611D01*
X789853D01*
Y715847D01*
X789721D01*
Y716504D01*
X789590D01*
Y717293D01*
X789458D01*
Y717688D01*
X789327D01*
Y718083D01*
X789195D01*
Y718477D01*
X789064D01*
Y718872D01*
X788932D01*
Y719135D01*
X788801D01*
Y719398D01*
X788669D01*
Y719792D01*
X788538D01*
Y720055D01*
X788406D01*
Y720187D01*
X788275D01*
Y720450D01*
X788143D01*
Y720713D01*
X788012D01*
Y720844D01*
X787880D01*
Y721107D01*
X787749D01*
Y721239D01*
X787617D01*
Y721502D01*
X787486D01*
Y721634D01*
X787354D01*
Y721765D01*
X787223D01*
Y721897D01*
X787091D01*
Y722028D01*
X786960D01*
Y722160D01*
X786828D01*
Y722291D01*
X786696D01*
Y722423D01*
X786565D01*
Y722554D01*
X786433D01*
Y722686D01*
X786302D01*
Y722817D01*
X786170D01*
Y722949D01*
X786039D01*
Y723080D01*
X785776D01*
Y723212D01*
X785644D01*
Y723343D01*
X785513D01*
Y723475D01*
X785250D01*
Y723606D01*
X784987D01*
Y723738D01*
X784724D01*
Y723869D01*
X784461D01*
Y724001D01*
X784066D01*
Y724132D01*
X783672D01*
Y724264D01*
X782883D01*
Y724396D01*
X781304D01*
Y724264D01*
X780647D01*
Y724132D01*
X780252D01*
Y724001D01*
X779858D01*
Y723869D01*
X779595D01*
Y723738D01*
X779332D01*
Y723606D01*
X779069D01*
Y723475D01*
X778805D01*
Y723343D01*
X778674D01*
Y723212D01*
X778542D01*
Y723080D01*
X778279D01*
Y722949D01*
X778148D01*
Y722817D01*
X778016D01*
Y722686D01*
X777885D01*
Y722554D01*
X777753D01*
Y722423D01*
X777622D01*
Y722291D01*
X777490D01*
Y722160D01*
X777359D01*
Y722028D01*
X777227D01*
Y721897D01*
X777096D01*
Y721765D01*
X776964D01*
Y721634D01*
X776833D01*
Y721502D01*
X776701D01*
Y721239D01*
X776570D01*
Y721107D01*
X776438D01*
Y720844D01*
X776307D01*
Y720713D01*
X776175D01*
Y720450D01*
X776044D01*
Y720318D01*
X775912D01*
Y720055D01*
X775781D01*
Y719792D01*
X775649D01*
Y719529D01*
X775518D01*
Y719266D01*
X775386D01*
Y719003D01*
X775255D01*
Y718609D01*
X775123D01*
Y718214D01*
X774992D01*
Y717820D01*
X774860D01*
Y717425D01*
X774728D01*
Y716768D01*
X774597D01*
Y715978D01*
X774465D01*
Y714137D01*
X774334D01*
Y713348D01*
X774202D01*
Y713085D01*
X774071D01*
Y712822D01*
X773939D01*
Y712690D01*
X773808D01*
Y712559D01*
X773676D01*
Y712427D01*
X773545D01*
Y712296D01*
X773413D01*
Y712164D01*
X773282D01*
Y712033D01*
X773019D01*
Y711901D01*
X772624D01*
Y711770D01*
X771441D01*
Y711901D01*
X771046D01*
Y712033D01*
X770783D01*
Y712164D01*
X770651D01*
Y712296D01*
X770520D01*
Y712427D01*
X770388D01*
Y712559D01*
X770257D01*
Y712690D01*
X770125D01*
Y712822D01*
X769994D01*
Y713085D01*
X769862D01*
Y713480D01*
X769731D01*
Y714137D01*
X769599D01*
Y716110D01*
X769468D01*
Y716768D01*
X769336D01*
Y717557D01*
X769205D01*
Y717951D01*
X769073D01*
Y718346D01*
X768942D01*
Y718740D01*
X768810D01*
Y719003D01*
X768679D01*
Y719266D01*
X768547D01*
Y719529D01*
X768416D01*
Y719924D01*
X768284D01*
Y720055D01*
X768152D01*
Y720318D01*
X768021D01*
Y720582D01*
X767889D01*
Y720713D01*
X767758D01*
Y720976D01*
X767626D01*
Y721107D01*
X767495D01*
Y721371D01*
X767363D01*
Y721502D01*
X767232D01*
Y721634D01*
X767100D01*
Y721765D01*
X766969D01*
Y721897D01*
X766837D01*
Y722028D01*
X766706D01*
Y722160D01*
X766574D01*
Y722423D01*
X766443D01*
Y722554D01*
X766311D01*
Y722686D01*
X766180D01*
Y722817D01*
X765917D01*
Y722949D01*
X765785D01*
Y723080D01*
X765654D01*
Y723212D01*
X765391D01*
Y723343D01*
X765259D01*
Y723475D01*
X764996D01*
Y723606D01*
X764733D01*
Y723738D01*
X764470D01*
Y723869D01*
X764207D01*
Y724001D01*
X763812D01*
Y724132D01*
X763418D01*
Y724264D01*
X762760D01*
Y724396D01*
X761182D01*
Y724264D01*
X760393D01*
Y724132D01*
X759998D01*
Y724001D01*
X759604D01*
Y723869D01*
X759341D01*
Y723738D01*
X759078D01*
Y723606D01*
X758946D01*
Y723475D01*
X758683D01*
Y723343D01*
X758420D01*
Y723212D01*
X758289D01*
Y723080D01*
X758157D01*
Y722949D01*
X758026D01*
Y722817D01*
X757763D01*
Y722686D01*
X757631D01*
Y722554D01*
X757500D01*
Y722423D01*
X757368D01*
Y722291D01*
X757237D01*
Y722160D01*
X757105D01*
Y722028D01*
X756974D01*
Y721897D01*
X756842D01*
Y721765D01*
X756711D01*
Y721634D01*
X756579D01*
Y721371D01*
X756448D01*
Y721239D01*
X756316D01*
Y720976D01*
X756184D01*
Y720844D01*
X756053D01*
Y720582D01*
X755921D01*
Y720450D01*
X755790D01*
Y720187D01*
X755658D01*
Y719924D01*
X755527D01*
Y719661D01*
X755395D01*
Y719398D01*
X755264D01*
Y719135D01*
X755132D01*
Y718872D01*
X755001D01*
Y718477D01*
X754869D01*
Y718083D01*
X754738D01*
Y717688D01*
X754606D01*
Y717030D01*
X754475D01*
Y716373D01*
X754343D01*
Y715321D01*
X754212D01*
Y713611D01*
X754080D01*
Y713216D01*
X753949D01*
Y712953D01*
X753817D01*
Y712690D01*
X753686D01*
Y712559D01*
X753554D01*
Y712427D01*
X753423D01*
Y712296D01*
X753291D01*
Y712164D01*
X753028D01*
Y712033D01*
X752765D01*
Y711901D01*
X752371D01*
Y711770D01*
X751318D01*
Y711901D01*
X750924D01*
Y712033D01*
X750661D01*
Y712164D01*
X750398D01*
Y712296D01*
X750266D01*
Y712427D01*
X750135D01*
Y712559D01*
X750003D01*
Y712690D01*
X749872D01*
Y712953D01*
X749740D01*
Y713216D01*
X749609D01*
Y713611D01*
X749477D01*
Y715321D01*
X749345D01*
Y716373D01*
X749214D01*
Y717030D01*
X749082D01*
Y717688D01*
X748951D01*
Y718083D01*
X748820D01*
Y718477D01*
X748688D01*
Y718872D01*
X748556D01*
Y719135D01*
X748425D01*
Y719398D01*
X748293D01*
Y719661D01*
X748162D01*
Y719924D01*
X748030D01*
Y720187D01*
X747899D01*
Y720450D01*
X747767D01*
Y720582D01*
X747636D01*
Y720844D01*
X747504D01*
Y720976D01*
X747373D01*
Y721239D01*
X747241D01*
Y721371D01*
X747110D01*
Y721634D01*
X746978D01*
Y721765D01*
X746847D01*
Y721897D01*
X746715D01*
Y722028D01*
X746584D01*
Y722160D01*
X746452D01*
Y722291D01*
X746321D01*
Y722423D01*
X746189D01*
Y722554D01*
X746058D01*
Y722686D01*
X745926D01*
Y722817D01*
X745795D01*
Y722949D01*
X745531D01*
Y723080D01*
X745400D01*
Y723212D01*
X745268D01*
Y723343D01*
X745005D01*
Y723475D01*
X744742D01*
Y723606D01*
X744611D01*
Y723738D01*
X744348D01*
Y723869D01*
X744085D01*
Y724001D01*
X743690D01*
Y724132D01*
X743164D01*
Y724264D01*
X742507D01*
Y724396D01*
X740928D01*
Y724264D01*
X740271D01*
Y724132D01*
X739876D01*
Y724001D01*
X739482D01*
Y723869D01*
X739219D01*
Y723738D01*
X738956D01*
Y723606D01*
X738693D01*
Y723475D01*
X738430D01*
Y723343D01*
X738298D01*
Y723212D01*
X738035D01*
Y723080D01*
X737904D01*
Y722949D01*
X737772D01*
Y722817D01*
X737641D01*
Y722686D01*
X737377D01*
Y722554D01*
X737246D01*
Y722423D01*
X737114D01*
Y722291D01*
X736983D01*
Y722160D01*
X736851D01*
Y722028D01*
X736720D01*
Y721765D01*
X736588D01*
Y721634D01*
X736457D01*
Y721502D01*
X736325D01*
Y721371D01*
X736194D01*
Y721107D01*
X736062D01*
Y720976D01*
X735931D01*
Y720713D01*
X735799D01*
Y720582D01*
X735668D01*
Y720318D01*
X735536D01*
Y720055D01*
X735405D01*
Y719792D01*
X735273D01*
Y719529D01*
X735142D01*
Y719266D01*
X735010D01*
Y719003D01*
X734879D01*
Y718740D01*
X734747D01*
Y718346D01*
X734616D01*
Y717951D01*
X734484D01*
Y717557D01*
X734353D01*
Y716768D01*
X734221D01*
Y716110D01*
X734090D01*
Y714137D01*
X733958D01*
Y713480D01*
X733827D01*
Y713085D01*
X733695D01*
Y712822D01*
X733563D01*
Y712690D01*
X733432D01*
Y712559D01*
X733300D01*
Y712427D01*
X733169D01*
Y712296D01*
X733037D01*
Y712164D01*
X732906D01*
Y712033D01*
X732643D01*
Y711901D01*
X732248D01*
Y711770D01*
X731065D01*
Y711901D01*
X730670D01*
Y712033D01*
X730407D01*
Y712164D01*
X730275D01*
Y712296D01*
X730144D01*
Y712427D01*
X730013D01*
Y712559D01*
X729881D01*
Y712690D01*
X729749D01*
Y712822D01*
X729618D01*
Y713085D01*
X729486D01*
Y713348D01*
X729355D01*
Y714137D01*
X729223D01*
Y715978D01*
X729092D01*
Y716768D01*
X728960D01*
Y717425D01*
X728829D01*
Y717820D01*
X728697D01*
Y718214D01*
X728566D01*
Y718609D01*
X728434D01*
Y719003D01*
X728303D01*
Y719266D01*
X728171D01*
Y719529D01*
X728040D01*
Y719792D01*
X727908D01*
Y720055D01*
X727777D01*
Y720318D01*
X727645D01*
Y720450D01*
X727514D01*
Y720713D01*
X727382D01*
Y720844D01*
X727251D01*
Y721107D01*
X727119D01*
Y721239D01*
X726988D01*
Y721502D01*
X726856D01*
Y721634D01*
X726724D01*
Y721765D01*
X726593D01*
Y721897D01*
X726461D01*
Y722028D01*
X726330D01*
Y722160D01*
X726199D01*
Y722291D01*
X726067D01*
Y722423D01*
X725935D01*
Y722554D01*
X725804D01*
Y722686D01*
X725672D01*
Y722817D01*
X725541D01*
Y722949D01*
X725409D01*
Y723080D01*
X725278D01*
Y723212D01*
X725015D01*
Y723343D01*
X724883D01*
Y723475D01*
X724620D01*
Y723606D01*
X724357D01*
Y723738D01*
X724094D01*
Y723869D01*
X723831D01*
Y724001D01*
X723437D01*
Y724132D01*
X723042D01*
Y724264D01*
X722253D01*
Y724396D01*
X720675D01*
Y724264D01*
X720017D01*
Y724132D01*
X719623D01*
Y724001D01*
X719228D01*
Y723869D01*
X718965D01*
Y723738D01*
X718702D01*
Y723606D01*
X718439D01*
Y723475D01*
X718176D01*
Y723343D01*
X718044D01*
Y723212D01*
X717913D01*
Y723080D01*
X717781D01*
Y722949D01*
X717518D01*
Y722817D01*
X717387D01*
Y722686D01*
X717255D01*
Y722554D01*
X717124D01*
Y722423D01*
X716992D01*
Y722291D01*
X716861D01*
Y722160D01*
X716729D01*
Y722028D01*
X716598D01*
Y721897D01*
X716466D01*
Y721765D01*
X716335D01*
Y721634D01*
X716203D01*
Y721502D01*
X716072D01*
Y721239D01*
X715940D01*
Y721107D01*
X715809D01*
Y720844D01*
X715677D01*
Y720713D01*
X715546D01*
Y720450D01*
X715414D01*
Y720187D01*
X715283D01*
Y719924D01*
X715151D01*
Y719661D01*
X715020D01*
Y719398D01*
X714888D01*
Y719135D01*
X714756D01*
Y718872D01*
X714625D01*
Y718477D01*
X714493D01*
Y718083D01*
X714362D01*
Y717688D01*
X714230D01*
Y717293D01*
X714099D01*
Y716504D01*
X713967D01*
Y715847D01*
X713836D01*
Y713611D01*
X713704D01*
Y713216D01*
X713573D01*
Y712953D01*
X713441D01*
Y712822D01*
X713310D01*
Y712559D01*
X713178D01*
Y712427D01*
X712915D01*
Y712296D01*
X712784D01*
Y712164D01*
X712652D01*
Y712033D01*
X712389D01*
Y711901D01*
X711995D01*
Y711770D01*
X609016D01*
Y694146D01*
X608753D01*
Y694278D01*
X608622D01*
Y694409D01*
X608359D01*
Y694541D01*
X608227D01*
Y694672D01*
X607964D01*
Y694804D01*
X607701D01*
Y694936D01*
X607570D01*
Y695067D01*
X607307D01*
Y695199D01*
X607175D01*
Y695330D01*
X606912D01*
Y695462D01*
X606649D01*
Y695593D01*
X606517D01*
Y695725D01*
X606255D01*
Y695856D01*
X606123D01*
Y695988D01*
X605860D01*
Y696119D01*
X605597D01*
Y696251D01*
X605465D01*
Y696382D01*
X605202D01*
Y696514D01*
X605071D01*
Y696645D01*
X604808D01*
Y696777D01*
X604545D01*
Y696908D01*
X604413D01*
Y697040D01*
X604150D01*
Y697171D01*
X604019D01*
Y697303D01*
X603756D01*
Y697434D01*
X603493D01*
Y697566D01*
X603361D01*
Y697697D01*
X603098D01*
Y697829D01*
X602967D01*
Y697961D01*
X602704D01*
Y698092D01*
X602440D01*
Y698223D01*
X602309D01*
Y698355D01*
X602046D01*
Y698486D01*
X601914D01*
Y698618D01*
X601651D01*
Y698750D01*
X601388D01*
Y698881D01*
X601257D01*
Y699013D01*
X600994D01*
Y699144D01*
X600862D01*
Y699276D01*
X600599D01*
Y699407D01*
X600336D01*
Y699539D01*
X600205D01*
Y699670D01*
X599942D01*
Y699802D01*
X599810D01*
Y699933D01*
X599547D01*
Y700065D01*
X599284D01*
Y700196D01*
X599152D01*
Y700328D01*
X598890D01*
Y700459D01*
X598758D01*
Y700591D01*
X598495D01*
Y700722D01*
X598232D01*
Y700854D01*
X598100D01*
Y700985D01*
X597837D01*
Y701117D01*
X597706D01*
Y701248D01*
X597443D01*
Y701380D01*
X597180D01*
Y701511D01*
X597048D01*
Y701643D01*
X596785D01*
Y701775D01*
X596654D01*
Y701906D01*
X596391D01*
Y702038D01*
X596128D01*
Y702169D01*
X595996D01*
Y702300D01*
X595733D01*
Y702432D01*
X595602D01*
Y702564D01*
X595339D01*
Y702695D01*
X595075D01*
Y702827D01*
X594944D01*
Y702958D01*
X594681D01*
Y703090D01*
X594549D01*
Y703221D01*
X594286D01*
Y703353D01*
X594023D01*
Y703484D01*
X593892D01*
Y703616D01*
X593629D01*
Y703747D01*
X593497D01*
Y703879D01*
X593234D01*
Y704010D01*
X592971D01*
Y704142D01*
X592840D01*
Y704273D01*
X592577D01*
Y704405D01*
X592445D01*
Y704536D01*
X592182D01*
Y704668D01*
X591919D01*
Y704799D01*
X591788D01*
Y704931D01*
X591525D01*
Y705062D01*
X591393D01*
Y705194D01*
X591130D01*
Y705325D01*
X590867D01*
Y705457D01*
X590735D01*
Y705589D01*
X590472D01*
Y705720D01*
X590341D01*
Y705852D01*
X590078D01*
Y705983D01*
X589815D01*
Y706115D01*
X589683D01*
Y706246D01*
X589420D01*
Y706378D01*
X589289D01*
Y706509D01*
X589026D01*
Y706641D01*
X588763D01*
Y706772D01*
X588631D01*
Y706904D01*
X588368D01*
Y707035D01*
X588237D01*
Y707167D01*
X587974D01*
Y707298D01*
X587710D01*
Y707430D01*
X587579D01*
Y707561D01*
X587316D01*
Y707693D01*
X587184D01*
Y707824D01*
X586921D01*
Y707956D01*
X586658D01*
Y708087D01*
X586527D01*
Y708219D01*
X586264D01*
Y708350D01*
X586132D01*
Y708482D01*
X585869D01*
Y708613D01*
X585606D01*
Y708745D01*
X585475D01*
Y708876D01*
X585212D01*
Y709008D01*
X585080D01*
Y709139D01*
X584817D01*
Y709271D01*
X584554D01*
Y709402D01*
X584423D01*
Y709534D01*
X584160D01*
Y709666D01*
X584028D01*
Y709797D01*
X583765D01*
Y698355D01*
X579030D01*
Y711770D01*
X501698D01*
Y621812D01*
X515113D01*
Y617077D01*
X483549D01*
Y621812D01*
X496964D01*
Y711770D01*
X432257D01*
Y655349D01*
X432125D01*
Y655217D01*
X431862D01*
Y655086D01*
X431731D01*
Y654954D01*
X431468D01*
Y654823D01*
X431336D01*
Y654691D01*
X431073D01*
Y654560D01*
X430810D01*
Y654428D01*
X430679D01*
Y654297D01*
X430416D01*
Y654165D01*
X430284D01*
Y654034D01*
X430021D01*
Y653902D01*
X429889D01*
Y653771D01*
X429627D01*
Y653639D01*
X429364D01*
Y653508D01*
X429232D01*
Y653376D01*
X428969D01*
Y653244D01*
X428837D01*
Y653113D01*
X428574D01*
Y652981D01*
X428443D01*
Y652850D01*
X428180D01*
Y652718D01*
X428048D01*
Y652587D01*
X427785D01*
Y652455D01*
X427522D01*
Y652324D01*
X427391D01*
Y652192D01*
X427128D01*
Y652061D01*
X426996D01*
Y651929D01*
X426733D01*
Y651798D01*
X426602D01*
Y651666D01*
X426470D01*
Y651535D01*
X426602D01*
Y651403D01*
X426865D01*
Y651272D01*
X426996D01*
Y651140D01*
X427259D01*
Y651009D01*
X427522D01*
Y650877D01*
X427654D01*
Y650746D01*
X427917D01*
Y650614D01*
X428048D01*
Y650483D01*
X428311D01*
Y650351D01*
X428443D01*
Y650220D01*
X428706D01*
Y650088D01*
X428969D01*
Y649957D01*
X429100D01*
Y649825D01*
X429364D01*
Y649694D01*
X429495D01*
Y649562D01*
X429758D01*
Y649430D01*
X429889D01*
Y649299D01*
X430153D01*
Y649167D01*
X430284D01*
Y649036D01*
X430547D01*
Y648904D01*
X430810D01*
Y648773D01*
X430942D01*
Y648641D01*
X431205D01*
Y648510D01*
X431336D01*
Y648378D01*
X431599D01*
Y648247D01*
X431731D01*
Y648115D01*
X431994D01*
Y647984D01*
X432257D01*
Y647852D01*
X432388D01*
Y647721D01*
X432651D01*
Y647589D01*
X432783D01*
Y647458D01*
X433046D01*
Y647326D01*
X433177D01*
Y647195D01*
X433441D01*
Y647063D01*
X433572D01*
Y646932D01*
X433835D01*
Y646800D01*
X434098D01*
Y646669D01*
X434230D01*
Y646537D01*
X434493D01*
Y646406D01*
X434624D01*
Y646274D01*
X434887D01*
Y646143D01*
X435019D01*
Y646011D01*
X435282D01*
Y645880D01*
X435545D01*
Y645748D01*
X435676D01*
Y645617D01*
X435939D01*
Y645485D01*
X436071D01*
Y645353D01*
X436334D01*
Y645222D01*
X436465D01*
Y645090D01*
X436728D01*
Y644959D01*
X436992D01*
Y644827D01*
X437123D01*
Y644696D01*
X437386D01*
Y644564D01*
X437518D01*
Y644433D01*
X437781D01*
Y644301D01*
X437912D01*
Y644170D01*
X438175D01*
Y644038D01*
X438438D01*
Y643907D01*
X438570D01*
Y643775D01*
X438833D01*
Y643644D01*
X438964D01*
Y643512D01*
X439227D01*
Y643381D01*
X439359D01*
Y643249D01*
X439622D01*
Y643118D01*
X439753D01*
Y642986D01*
X440016D01*
Y642855D01*
X440279D01*
Y642723D01*
X440411D01*
Y642592D01*
X440674D01*
Y642460D01*
X440806D01*
Y642329D01*
X441068D01*
Y642197D01*
X441200D01*
Y642066D01*
X441463D01*
Y641934D01*
X441726D01*
Y641803D01*
X441858D01*
Y641671D01*
X442121D01*
Y641408D01*
X441858D01*
Y641276D01*
X441726D01*
Y641145D01*
X441463D01*
Y641013D01*
X441200D01*
Y640882D01*
X441068D01*
Y640750D01*
X440806D01*
Y640619D01*
X440674D01*
Y640487D01*
X440411D01*
Y640356D01*
X440279D01*
Y640224D01*
X440016D01*
Y640093D01*
X439885D01*
Y639961D01*
X439622D01*
Y639830D01*
X439359D01*
Y639698D01*
X439227D01*
Y639567D01*
X438964D01*
Y639435D01*
X438833D01*
Y639304D01*
X438570D01*
Y639172D01*
X438438D01*
Y639041D01*
X438175D01*
Y638909D01*
X437912D01*
Y638778D01*
X437781D01*
Y638646D01*
X437518D01*
Y638515D01*
X437386D01*
Y638383D01*
X437123D01*
Y638251D01*
X436992D01*
Y638120D01*
X436728D01*
Y637989D01*
X436597D01*
Y637857D01*
X436334D01*
Y637725D01*
X436071D01*
Y637594D01*
X435939D01*
Y637462D01*
X435676D01*
Y637331D01*
X435545D01*
Y637199D01*
X435282D01*
Y637068D01*
X435150D01*
Y636936D01*
X434887D01*
Y636805D01*
X434624D01*
Y636673D01*
X434493D01*
Y636542D01*
X434230D01*
Y636410D01*
X434098D01*
Y636279D01*
X433835D01*
Y636147D01*
X433704D01*
Y636016D01*
X433441D01*
Y635884D01*
X433177D01*
Y635753D01*
X433046D01*
Y635621D01*
X432783D01*
Y635490D01*
X432651D01*
Y635358D01*
X432388D01*
Y635227D01*
X432257D01*
Y635095D01*
X431994D01*
Y634964D01*
X431862D01*
Y634832D01*
X431599D01*
Y634701D01*
X431336D01*
Y634569D01*
X431205D01*
Y634437D01*
X430942D01*
Y634306D01*
X430810D01*
Y634174D01*
X430547D01*
Y634043D01*
X430416D01*
Y633911D01*
X430153D01*
Y633780D01*
X429889D01*
Y633648D01*
X429758D01*
Y633517D01*
X429495D01*
Y633385D01*
X429364D01*
Y633254D01*
X429100D01*
Y633122D01*
X428969D01*
Y632991D01*
X428706D01*
Y632859D01*
X428443D01*
Y632728D01*
X428311D01*
Y632596D01*
X428048D01*
Y632465D01*
X427917D01*
Y632333D01*
X427654D01*
Y632202D01*
X427522D01*
Y632070D01*
X427259D01*
Y631939D01*
X426996D01*
Y631807D01*
X426865D01*
Y631676D01*
X426602D01*
Y631544D01*
X426470D01*
Y631413D01*
X426602D01*
Y631281D01*
X426733D01*
Y631150D01*
X426996D01*
Y631018D01*
X427128D01*
Y630886D01*
X427391D01*
Y630755D01*
X427522D01*
Y630624D01*
X427785D01*
Y630492D01*
X427917D01*
Y630360D01*
X428180D01*
Y630229D01*
X428443D01*
Y630097D01*
X428574D01*
Y629966D01*
X428837D01*
Y629834D01*
X428969D01*
Y629703D01*
X429232D01*
Y629571D01*
X429364D01*
Y629440D01*
X429627D01*
Y629308D01*
X429889D01*
Y629177D01*
X430021D01*
Y629045D01*
X430284D01*
Y628914D01*
X430416D01*
Y628782D01*
X430679D01*
Y628651D01*
X430810D01*
Y628519D01*
X431073D01*
Y628388D01*
X431336D01*
Y628256D01*
X431468D01*
Y628125D01*
X431731D01*
Y627993D01*
X431862D01*
Y627862D01*
X432125D01*
Y627730D01*
X432257D01*
Y627599D01*
X432520D01*
Y627467D01*
X432651D01*
Y627336D01*
X432915D01*
Y627204D01*
X433177D01*
Y627072D01*
X433309D01*
Y626941D01*
X433572D01*
Y626810D01*
X433704D01*
Y626678D01*
X433967D01*
Y626546D01*
X434098D01*
Y626415D01*
X434361D01*
Y626283D01*
X434624D01*
Y626152D01*
X434756D01*
Y626020D01*
X435019D01*
Y625889D01*
X435150D01*
Y625757D01*
X435413D01*
Y625626D01*
X435545D01*
Y625494D01*
X435808D01*
Y625363D01*
X435939D01*
Y625231D01*
X436202D01*
Y625100D01*
X436465D01*
Y624968D01*
X436597D01*
Y624837D01*
X436860D01*
Y624705D01*
X436992D01*
Y624574D01*
X437254D01*
Y624442D01*
X437386D01*
Y624311D01*
X437649D01*
Y624179D01*
X437912D01*
Y624048D01*
X438044D01*
Y623916D01*
X438307D01*
Y623785D01*
X438438D01*
Y623653D01*
X438701D01*
Y623521D01*
X438833D01*
Y623390D01*
X439096D01*
Y623259D01*
X439359D01*
Y623127D01*
X439490D01*
Y622995D01*
X439753D01*
Y622864D01*
X439885D01*
Y622732D01*
X440148D01*
Y622601D01*
X440279D01*
Y622469D01*
X440542D01*
Y622338D01*
X440806D01*
Y622206D01*
X440937D01*
Y622075D01*
X441200D01*
Y621943D01*
X441332D01*
Y621812D01*
X441595D01*
Y621680D01*
X441726D01*
Y621549D01*
X441989D01*
Y621417D01*
X442252D01*
Y621286D01*
X441989D01*
Y621154D01*
X441726D01*
Y621023D01*
X441595D01*
Y620891D01*
X441332D01*
Y620760D01*
X441200D01*
Y620628D01*
X440937D01*
Y620497D01*
X440806D01*
Y620365D01*
X440542D01*
Y620234D01*
X440279D01*
Y620102D01*
X440148D01*
Y619971D01*
X439885D01*
Y619839D01*
X439753D01*
Y619707D01*
X439490D01*
Y619576D01*
X439359D01*
Y619445D01*
X439096D01*
Y619313D01*
X438964D01*
Y619182D01*
X438701D01*
Y619050D01*
X438438D01*
Y618918D01*
X438307D01*
Y618787D01*
X438044D01*
Y618655D01*
X437912D01*
Y618524D01*
X437649D01*
Y618392D01*
X437518D01*
Y618261D01*
X437254D01*
Y618129D01*
X437123D01*
Y617998D01*
X436860D01*
Y617866D01*
X436597D01*
Y617735D01*
X436465D01*
Y617603D01*
X436202D01*
Y617472D01*
X436071D01*
Y617340D01*
X435808D01*
Y617209D01*
X435676D01*
Y617077D01*
X435413D01*
Y616946D01*
X435282D01*
Y616814D01*
X435019D01*
Y616683D01*
X434756D01*
Y616551D01*
X434624D01*
Y616420D01*
X434361D01*
Y616288D01*
X434230D01*
Y616157D01*
X433967D01*
Y616025D01*
X433835D01*
Y615894D01*
X433572D01*
Y615762D01*
X433309D01*
Y615630D01*
X433177D01*
Y615499D01*
X432915D01*
Y615368D01*
X432783D01*
Y615236D01*
X432520D01*
Y615104D01*
X432388D01*
Y614973D01*
X432125D01*
Y614841D01*
X431994D01*
Y614710D01*
X431731D01*
Y614578D01*
X431468D01*
Y614447D01*
X431336D01*
Y614315D01*
X431073D01*
Y614184D01*
X430942D01*
Y614052D01*
X430679D01*
Y613921D01*
X430547D01*
Y613789D01*
X430284D01*
Y613658D01*
X430021D01*
Y613526D01*
X429889D01*
Y613395D01*
X429627D01*
Y613263D01*
X429495D01*
Y613132D01*
X429232D01*
Y613000D01*
X429100D01*
Y612869D01*
X428837D01*
Y612737D01*
X428706D01*
Y612606D01*
X428443D01*
Y612474D01*
X428180D01*
Y612343D01*
X428048D01*
Y612211D01*
X427785D01*
Y612080D01*
X427654D01*
Y611948D01*
X427391D01*
Y611816D01*
X427259D01*
Y611685D01*
X426996D01*
Y611553D01*
X426733D01*
Y611422D01*
X426602D01*
Y611290D01*
X426339D01*
Y611159D01*
X426602D01*
Y611027D01*
X426865D01*
Y610896D01*
X426996D01*
Y610764D01*
X427259D01*
Y610633D01*
X427391D01*
Y610501D01*
X427654D01*
Y610370D01*
X427785D01*
Y610238D01*
X428048D01*
Y610107D01*
X428180D01*
Y609975D01*
X428443D01*
Y609844D01*
X428706D01*
Y609712D01*
X428837D01*
Y609581D01*
X429100D01*
Y609449D01*
X429232D01*
Y609318D01*
X429495D01*
Y609186D01*
X429627D01*
Y609055D01*
X429889D01*
Y608923D01*
X430153D01*
Y608792D01*
X430284D01*
Y608660D01*
X430547D01*
Y608529D01*
X430679D01*
Y608397D01*
X430942D01*
Y608265D01*
X431073D01*
Y608134D01*
X431336D01*
Y608003D01*
X431468D01*
Y607871D01*
X431731D01*
Y607739D01*
X431994D01*
Y607608D01*
X432125D01*
Y607476D01*
X432388D01*
Y607345D01*
X432520D01*
Y607213D01*
X432783D01*
Y607082D01*
X432915D01*
Y606950D01*
X433177D01*
Y606819D01*
X433441D01*
Y606687D01*
X433572D01*
Y606556D01*
X433835D01*
Y606424D01*
X433967D01*
Y606293D01*
X434230D01*
Y606161D01*
X434361D01*
Y606030D01*
X434624D01*
Y605898D01*
X434756D01*
Y605767D01*
X435019D01*
Y605635D01*
X435282D01*
Y605504D01*
X435413D01*
Y605372D01*
X435676D01*
Y605241D01*
X435808D01*
Y605109D01*
X436071D01*
Y604978D01*
X436202D01*
Y604846D01*
X436465D01*
Y604715D01*
X436728D01*
Y604583D01*
X436860D01*
Y604451D01*
X437123D01*
Y604320D01*
X437254D01*
Y604188D01*
X437518D01*
Y604057D01*
X437649D01*
Y603925D01*
X437912D01*
Y603794D01*
X438175D01*
Y603662D01*
X438307D01*
Y603531D01*
X438570D01*
Y603399D01*
X438701D01*
Y603268D01*
X438964D01*
Y603136D01*
X439096D01*
Y603005D01*
X439359D01*
Y602873D01*
X439622D01*
Y602742D01*
X439753D01*
Y602610D01*
X440016D01*
Y602479D01*
X440148D01*
Y602347D01*
X440411D01*
Y602216D01*
X440542D01*
Y602084D01*
X440806D01*
Y601953D01*
X440937D01*
Y601821D01*
X441200D01*
Y601690D01*
X441463D01*
Y601558D01*
X441595D01*
Y601427D01*
X441858D01*
Y601295D01*
X441989D01*
Y601164D01*
X442121D01*
Y601032D01*
X441989D01*
Y600901D01*
X441726D01*
Y600769D01*
X441463D01*
Y600638D01*
X441332D01*
Y600506D01*
X441068D01*
Y600374D01*
X440937D01*
Y600243D01*
X440674D01*
Y600111D01*
X440542D01*
Y599980D01*
X440279D01*
Y599848D01*
X440148D01*
Y599717D01*
X439885D01*
Y599585D01*
X439622D01*
Y599454D01*
X439490D01*
Y599322D01*
X439227D01*
Y599191D01*
X439096D01*
Y599059D01*
X438833D01*
Y598928D01*
X438701D01*
Y598796D01*
X438438D01*
Y598665D01*
X438175D01*
Y598533D01*
X438044D01*
Y598402D01*
X437781D01*
Y598270D01*
X437649D01*
Y598139D01*
X437386D01*
Y598007D01*
X437254D01*
Y597876D01*
X436992D01*
Y597744D01*
X436860D01*
Y597613D01*
X436597D01*
Y597481D01*
X436334D01*
Y597350D01*
X436202D01*
Y597218D01*
X435939D01*
Y597086D01*
X435808D01*
Y596955D01*
X435545D01*
Y596824D01*
X435413D01*
Y596692D01*
X435150D01*
Y596561D01*
X435019D01*
Y596429D01*
X434756D01*
Y596297D01*
X434493D01*
Y596166D01*
X434361D01*
Y596034D01*
X434098D01*
Y595903D01*
X433967D01*
Y595771D01*
X433704D01*
Y595640D01*
X433572D01*
Y595508D01*
X433309D01*
Y595377D01*
X433046D01*
Y595245D01*
X432915D01*
Y595114D01*
X432651D01*
Y594982D01*
X432520D01*
Y594851D01*
X432257D01*
Y594719D01*
X432125D01*
Y594588D01*
X431862D01*
Y594456D01*
X431599D01*
Y594325D01*
X431468D01*
Y594193D01*
X431205D01*
Y594062D01*
X431073D01*
Y593930D01*
X430810D01*
Y593799D01*
X430679D01*
Y593667D01*
X430416D01*
Y593536D01*
X430284D01*
Y593404D01*
X430021D01*
Y593273D01*
X429758D01*
Y593141D01*
X429627D01*
Y593009D01*
X429364D01*
Y592878D01*
X429232D01*
Y592747D01*
X428969D01*
Y592615D01*
X428837D01*
Y592483D01*
X428574D01*
Y592352D01*
X428311D01*
Y592220D01*
X428180D01*
Y592089D01*
X427917D01*
Y591957D01*
X427785D01*
Y591826D01*
X427522D01*
Y591694D01*
X427391D01*
Y591563D01*
X427128D01*
Y591431D01*
X426996D01*
Y591300D01*
X426733D01*
Y591168D01*
X426470D01*
Y590905D01*
X426733D01*
Y590774D01*
X426996D01*
Y590642D01*
X427128D01*
Y590511D01*
X427391D01*
Y590379D01*
X427522D01*
Y590248D01*
X427785D01*
Y590116D01*
X427917D01*
Y589985D01*
X428180D01*
Y589853D01*
X428311D01*
Y589722D01*
X428574D01*
Y589590D01*
X428837D01*
Y589459D01*
X428969D01*
Y589327D01*
X429232D01*
Y589196D01*
X429364D01*
Y589064D01*
X429627D01*
Y588932D01*
X429758D01*
Y588801D01*
X430021D01*
Y588669D01*
X430153D01*
Y588538D01*
X430416D01*
Y588406D01*
X430679D01*
Y588275D01*
X430810D01*
Y588143D01*
X431073D01*
Y588012D01*
X431205D01*
Y587880D01*
X431468D01*
Y587749D01*
X431599D01*
Y587617D01*
X431862D01*
Y587486D01*
X432125D01*
Y587354D01*
X432257D01*
Y587223D01*
X432520D01*
Y587091D01*
X432651D01*
Y586960D01*
X432915D01*
Y586828D01*
X433046D01*
Y586697D01*
X433309D01*
Y586565D01*
X433441D01*
Y586434D01*
X433704D01*
Y586302D01*
X433967D01*
Y586171D01*
X434098D01*
Y586039D01*
X434361D01*
Y585908D01*
X434493D01*
Y585776D01*
X434756D01*
Y585644D01*
X434887D01*
Y585513D01*
X435150D01*
Y585382D01*
X435413D01*
Y585250D01*
X435545D01*
Y585118D01*
X435808D01*
Y584987D01*
X435939D01*
Y584855D01*
X436202D01*
Y584724D01*
X436334D01*
Y584592D01*
X436597D01*
Y584461D01*
X436728D01*
Y584329D01*
X436992D01*
Y584198D01*
X437254D01*
Y584066D01*
X437386D01*
Y583935D01*
X437649D01*
Y583803D01*
X437781D01*
Y583672D01*
X438044D01*
Y583540D01*
X438175D01*
Y583409D01*
X438438D01*
Y583277D01*
X438701D01*
Y583146D01*
X438833D01*
Y583014D01*
X439096D01*
Y582883D01*
X439227D01*
Y582751D01*
X439490D01*
Y582620D01*
X439622D01*
Y582488D01*
X439885D01*
Y582357D01*
X440016D01*
Y582225D01*
X440279D01*
Y582094D01*
X440542D01*
Y581962D01*
X440674D01*
Y581830D01*
X440937D01*
Y581699D01*
X441068D01*
Y581567D01*
X441332D01*
Y581436D01*
X441463D01*
Y581304D01*
X441726D01*
Y581173D01*
X441989D01*
Y581041D01*
X442121D01*
Y580910D01*
X441989D01*
Y580778D01*
X441858D01*
Y580647D01*
X441595D01*
Y580515D01*
X441463D01*
Y580384D01*
X441200D01*
Y580252D01*
X441068D01*
Y580121D01*
X440806D01*
Y579989D01*
X440542D01*
Y579858D01*
X440411D01*
Y579726D01*
X440148D01*
Y579595D01*
X440016D01*
Y579463D01*
X439753D01*
Y579332D01*
X439622D01*
Y579200D01*
X439359D01*
Y579069D01*
X439096D01*
Y578937D01*
X438964D01*
Y578806D01*
X438701D01*
Y578674D01*
X438570D01*
Y578543D01*
X438307D01*
Y578411D01*
X438175D01*
Y578279D01*
X437912D01*
Y578148D01*
X437781D01*
Y578017D01*
X437518D01*
Y577885D01*
X437254D01*
Y577753D01*
X437123D01*
Y577622D01*
X436860D01*
Y577490D01*
X436728D01*
Y577359D01*
X436465D01*
Y577227D01*
X436334D01*
Y577096D01*
X436071D01*
Y576964D01*
X435808D01*
Y576833D01*
X435676D01*
Y576701D01*
X435413D01*
Y576570D01*
X435282D01*
Y576438D01*
X435019D01*
Y576307D01*
X434887D01*
Y576175D01*
X434624D01*
Y576044D01*
X434361D01*
Y575912D01*
X434230D01*
Y575781D01*
X433967D01*
Y575649D01*
X433835D01*
Y575518D01*
X433572D01*
Y575386D01*
X433441D01*
Y575255D01*
X433177D01*
Y575123D01*
X432915D01*
Y574992D01*
X432783D01*
Y574860D01*
X432520D01*
Y574729D01*
X432388D01*
Y574597D01*
X432257D01*
Y523963D01*
X496569D01*
Y529487D01*
X496700D01*
Y537509D01*
X496832D01*
Y545400D01*
X496964D01*
Y610633D01*
X496700D01*
Y610501D01*
X495780D01*
Y610370D01*
X495122D01*
Y610238D01*
X494596D01*
Y610107D01*
X494070D01*
Y609975D01*
X493544D01*
Y609844D01*
X493149D01*
Y609712D01*
X492886D01*
Y609581D01*
X492492D01*
Y609449D01*
X492097D01*
Y609318D01*
X491703D01*
Y609186D01*
X491440D01*
Y609055D01*
X491177D01*
Y608923D01*
X490914D01*
Y608792D01*
X490651D01*
Y608660D01*
X490256D01*
Y608529D01*
X489993D01*
Y608397D01*
X489861D01*
Y608265D01*
X489599D01*
Y608134D01*
X489335D01*
Y608003D01*
X489072D01*
Y607871D01*
X488941D01*
Y607739D01*
X488678D01*
Y607608D01*
X488415D01*
Y607476D01*
X488283D01*
Y607345D01*
X488020D01*
Y607213D01*
X487889D01*
Y607082D01*
X487626D01*
Y606950D01*
X487494D01*
Y606819D01*
X487231D01*
Y606687D01*
X487100D01*
Y606556D01*
X486837D01*
Y606424D01*
X486705D01*
Y606293D01*
X486574D01*
Y606161D01*
X486442D01*
Y606030D01*
X486179D01*
Y605898D01*
X486048D01*
Y605767D01*
X485916D01*
Y605635D01*
X485784D01*
Y605504D01*
X485653D01*
Y605372D01*
X485390D01*
Y605241D01*
X485258D01*
Y605109D01*
X484995D01*
Y605241D01*
X484864D01*
Y605372D01*
X484732D01*
Y605504D01*
X484601D01*
Y605767D01*
X484469D01*
Y605898D01*
X484338D01*
Y606030D01*
X484206D01*
Y606161D01*
X484075D01*
Y606293D01*
X483943D01*
Y606424D01*
X483812D01*
Y606556D01*
X483680D01*
Y606687D01*
X483549D01*
Y606950D01*
X483417D01*
Y607082D01*
X483286D01*
Y607213D01*
X483154D01*
Y607345D01*
X483023D01*
Y607476D01*
X482891D01*
Y607608D01*
X482760D01*
Y607739D01*
X482628D01*
Y607871D01*
X482496D01*
Y608134D01*
X482365D01*
Y608265D01*
X482234D01*
Y608397D01*
X482102D01*
Y608529D01*
X481970D01*
Y608660D01*
X482102D01*
Y608792D01*
X482234D01*
Y608923D01*
X482496D01*
Y609055D01*
X482628D01*
Y609186D01*
X482760D01*
Y609318D01*
X482891D01*
Y609449D01*
X483154D01*
Y609581D01*
X483286D01*
Y609712D01*
X483417D01*
Y609844D01*
X483549D01*
Y609975D01*
X483812D01*
Y610107D01*
X483943D01*
Y610238D01*
X484075D01*
Y610370D01*
X484338D01*
Y610501D01*
X484469D01*
Y610633D01*
X484601D01*
Y610764D01*
X484864D01*
Y610896D01*
X484995D01*
Y611027D01*
X485258D01*
Y611159D01*
X485390D01*
Y611290D01*
X485653D01*
Y611422D01*
X485784D01*
Y611553D01*
X485916D01*
Y611685D01*
X486179D01*
Y611816D01*
X486442D01*
Y611948D01*
X486705D01*
Y612080D01*
X486968D01*
Y612211D01*
X487100D01*
Y612343D01*
X487363D01*
Y612474D01*
X487626D01*
Y612606D01*
X487889D01*
Y612737D01*
X488152D01*
Y612869D01*
X488415D01*
Y613000D01*
X488678D01*
Y613132D01*
X489072D01*
Y613263D01*
X489335D01*
Y613395D01*
X489599D01*
Y613526D01*
X489861D01*
Y613658D01*
X490125D01*
Y613789D01*
X490519D01*
Y613921D01*
X490914D01*
Y614052D01*
X491308D01*
Y614184D01*
X491703D01*
Y614315D01*
X492097D01*
Y614447D01*
X492492D01*
Y614578D01*
X493018D01*
Y614710D01*
X493544D01*
Y614841D01*
X494070D01*
Y614973D01*
X494596D01*
Y615104D01*
X495385D01*
Y615236D01*
X496306D01*
Y615368D01*
X497753D01*
Y615499D01*
X500909D01*
Y615368D01*
X502356D01*
Y615236D01*
X503276D01*
Y615104D01*
X504065D01*
Y614973D01*
X504591D01*
Y614841D01*
X505118D01*
Y614710D01*
X505644D01*
Y614578D01*
X506170D01*
Y614447D01*
X506564D01*
Y614315D01*
X506959D01*
Y614184D01*
X507353D01*
Y614052D01*
X507748D01*
Y613921D01*
X508142D01*
Y613789D01*
X508537D01*
Y613658D01*
X508800D01*
Y613526D01*
X509063D01*
Y613395D01*
X509326D01*
Y613263D01*
X509589D01*
Y613132D01*
X509984D01*
Y613000D01*
X510247D01*
Y612869D01*
X510510D01*
Y612737D01*
X510773D01*
Y612606D01*
X511036D01*
Y612474D01*
X511299D01*
Y612343D01*
X511562D01*
Y612211D01*
X511693D01*
Y612080D01*
X511956D01*
Y611948D01*
X512220D01*
Y611816D01*
X512482D01*
Y611685D01*
X512746D01*
Y611553D01*
X512877D01*
Y611422D01*
X513009D01*
Y611290D01*
X513272D01*
Y611159D01*
X513403D01*
Y611027D01*
X513666D01*
Y610896D01*
X513798D01*
Y610764D01*
X514061D01*
Y610633D01*
X514192D01*
Y610501D01*
X514324D01*
Y610370D01*
X514587D01*
Y610238D01*
X514718D01*
Y610107D01*
X514850D01*
Y609975D01*
X515113D01*
Y609844D01*
X515244D01*
Y609712D01*
X515376D01*
Y609581D01*
X515507D01*
Y609449D01*
X515770D01*
Y609318D01*
X515902D01*
Y609186D01*
X516034D01*
Y609055D01*
X516165D01*
Y608923D01*
X516428D01*
Y608792D01*
X516560D01*
Y608660D01*
X516691D01*
Y608529D01*
X516560D01*
Y608397D01*
X516428D01*
Y608265D01*
X516297D01*
Y608134D01*
X516165D01*
Y607871D01*
X516034D01*
Y607739D01*
X515902D01*
Y607608D01*
X515770D01*
Y607476D01*
X515639D01*
Y607345D01*
X515507D01*
Y607213D01*
X515376D01*
Y607082D01*
X515244D01*
Y606950D01*
X515113D01*
Y606687D01*
X514981D01*
Y606556D01*
X514850D01*
Y606424D01*
X514718D01*
Y606293D01*
X514587D01*
Y606161D01*
X514455D01*
Y606030D01*
X514324D01*
Y605898D01*
X514192D01*
Y605767D01*
X514061D01*
Y605504D01*
X513929D01*
Y605372D01*
X513798D01*
Y605241D01*
X513666D01*
Y605109D01*
X513403D01*
Y605241D01*
X513272D01*
Y605372D01*
X513009D01*
Y605504D01*
X512877D01*
Y605635D01*
X512746D01*
Y605767D01*
X512614D01*
Y605898D01*
X512482D01*
Y606030D01*
X512220D01*
Y606161D01*
X512088D01*
Y606293D01*
X511956D01*
Y606424D01*
X511825D01*
Y606556D01*
X511562D01*
Y606687D01*
X511430D01*
Y606819D01*
X511167D01*
Y606950D01*
X511036D01*
Y607082D01*
X510773D01*
Y607213D01*
X510641D01*
Y607345D01*
X510378D01*
Y607476D01*
X510247D01*
Y607608D01*
X509984D01*
Y607739D01*
X509721D01*
Y607871D01*
X509589D01*
Y608003D01*
X509326D01*
Y608134D01*
X509063D01*
Y608265D01*
X508800D01*
Y608397D01*
X508669D01*
Y608529D01*
X508405D01*
Y608660D01*
X508011D01*
Y608792D01*
X507748D01*
Y608923D01*
X507485D01*
Y609055D01*
X507222D01*
Y609186D01*
X506959D01*
Y609318D01*
X506564D01*
Y609449D01*
X506170D01*
Y609581D01*
X505775D01*
Y609712D01*
X505512D01*
Y609844D01*
X505118D01*
Y609975D01*
X504591D01*
Y610107D01*
X504065D01*
Y610238D01*
X503539D01*
Y610370D01*
X502882D01*
Y610501D01*
X501961D01*
Y610633D01*
X501698D01*
Y545400D01*
X501567D01*
Y537378D01*
X501435D01*
Y529487D01*
X501303D01*
Y523963D01*
X875734D01*
Y610633D01*
X875471D01*
Y610501D01*
X874550D01*
Y610370D01*
X873893D01*
Y610238D01*
X873367D01*
Y610107D01*
X872840D01*
Y609975D01*
X872314D01*
Y609844D01*
X871920D01*
Y609712D01*
X871657D01*
Y609581D01*
X871262D01*
Y609449D01*
X870868D01*
Y609318D01*
X870473D01*
Y609186D01*
X870210D01*
Y609055D01*
X869947D01*
Y608923D01*
X869684D01*
Y608792D01*
X869421D01*
Y608660D01*
X869026D01*
Y608529D01*
X868763D01*
Y608397D01*
X868632D01*
Y608265D01*
X868369D01*
Y608134D01*
X868106D01*
Y608003D01*
X867843D01*
Y607871D01*
X867711D01*
Y607739D01*
X867448D01*
Y607608D01*
X867185D01*
Y607476D01*
X867054D01*
Y607345D01*
X866791D01*
Y607213D01*
X866659D01*
Y607082D01*
X866396D01*
Y606950D01*
X866265D01*
Y606819D01*
X866002D01*
Y606687D01*
X865870D01*
Y606556D01*
X865607D01*
Y606424D01*
X865475D01*
Y606293D01*
X865344D01*
Y606161D01*
X865212D01*
Y606030D01*
X864949D01*
Y605898D01*
X864818D01*
Y605767D01*
X864686D01*
Y605635D01*
X864555D01*
Y605504D01*
X864423D01*
Y605372D01*
X864160D01*
Y605241D01*
X864029D01*
Y605109D01*
X863766D01*
Y605241D01*
X863634D01*
Y605372D01*
X863503D01*
Y605504D01*
X863371D01*
Y605767D01*
X863240D01*
Y605898D01*
X863108D01*
Y606030D01*
X862977D01*
Y606161D01*
X862845D01*
Y606293D01*
X862714D01*
Y606424D01*
X862582D01*
Y606556D01*
X862451D01*
Y606687D01*
X862319D01*
Y606950D01*
X862188D01*
Y607082D01*
X862056D01*
Y607213D01*
X861925D01*
Y607345D01*
X861793D01*
Y607476D01*
X861662D01*
Y607608D01*
X861530D01*
Y607739D01*
X861398D01*
Y607871D01*
X861267D01*
Y608134D01*
X861135D01*
Y608265D01*
X861004D01*
Y608397D01*
X860872D01*
Y608529D01*
X860741D01*
Y608660D01*
X860872D01*
Y608792D01*
X861004D01*
Y608923D01*
X861267D01*
Y609055D01*
X861398D01*
Y609186D01*
X861530D01*
Y609318D01*
X861662D01*
Y609449D01*
X861925D01*
Y609581D01*
X862056D01*
Y609712D01*
X862188D01*
Y609844D01*
X862319D01*
Y609975D01*
X862582D01*
Y610107D01*
X862714D01*
Y610238D01*
X862845D01*
Y610370D01*
X863108D01*
Y610501D01*
X863240D01*
Y610633D01*
X863371D01*
Y610764D01*
X863634D01*
Y610896D01*
X863766D01*
Y611027D01*
X864029D01*
Y611159D01*
X864160D01*
Y611290D01*
X864423D01*
Y611422D01*
X864555D01*
Y611553D01*
X864686D01*
Y611685D01*
X864949D01*
Y611816D01*
X865212D01*
Y611948D01*
X865475D01*
Y612080D01*
X865739D01*
Y612211D01*
X865870D01*
Y612343D01*
X866133D01*
Y612474D01*
X866396D01*
Y612606D01*
X866659D01*
Y612737D01*
X866922D01*
Y612869D01*
X867185D01*
Y613000D01*
X867448D01*
Y613132D01*
X867843D01*
Y613263D01*
X868106D01*
Y613395D01*
X868369D01*
Y613526D01*
X868632D01*
Y613658D01*
X868895D01*
Y613789D01*
X869289D01*
Y613921D01*
X869684D01*
Y614052D01*
X870079D01*
Y614184D01*
X870473D01*
Y614315D01*
X870868D01*
Y614447D01*
X871262D01*
Y614578D01*
X871788D01*
Y614710D01*
X872314D01*
Y614841D01*
X872840D01*
Y614973D01*
X873367D01*
Y615104D01*
X874156D01*
Y615236D01*
X875076D01*
Y615368D01*
X876523D01*
Y615499D01*
X879679D01*
Y615368D01*
X881126D01*
Y615236D01*
X882047D01*
Y615104D01*
X882836D01*
Y614973D01*
X883362D01*
Y614841D01*
X883888D01*
Y614710D01*
X884414D01*
Y614578D01*
X884940D01*
Y614447D01*
X885335D01*
Y614315D01*
X885729D01*
Y614184D01*
X886124D01*
Y614052D01*
X886518D01*
Y613921D01*
X886913D01*
Y613789D01*
X887307D01*
Y613658D01*
X887570D01*
Y613526D01*
X887833D01*
Y613395D01*
X888096D01*
Y613263D01*
X888360D01*
Y613132D01*
X888754D01*
Y613000D01*
X889017D01*
Y612869D01*
X889280D01*
Y612737D01*
X889543D01*
Y612606D01*
X889806D01*
Y612474D01*
X890069D01*
Y612343D01*
X890332D01*
Y612211D01*
X890464D01*
Y612080D01*
X890727D01*
Y611948D01*
X890990D01*
Y611816D01*
X891253D01*
Y611685D01*
X891516D01*
Y611553D01*
X891647D01*
Y611422D01*
X891779D01*
Y611290D01*
X892042D01*
Y611159D01*
X892174D01*
Y611027D01*
X892437D01*
Y610896D01*
X892568D01*
Y610764D01*
X892831D01*
Y610633D01*
X892963D01*
Y610501D01*
X893094D01*
Y610370D01*
X893357D01*
Y610238D01*
X893489D01*
Y610107D01*
X893620D01*
Y609975D01*
X893883D01*
Y609844D01*
X894015D01*
Y609712D01*
X894146D01*
Y609581D01*
X894278D01*
Y609449D01*
X894541D01*
Y609318D01*
X894672D01*
Y609186D01*
X894804D01*
Y609055D01*
X894935D01*
Y608923D01*
X895198D01*
Y608792D01*
X895330D01*
Y608660D01*
X895462D01*
Y608529D01*
X895330D01*
Y608397D01*
X895198D01*
Y608265D01*
X895067D01*
Y608134D01*
X894935D01*
Y607871D01*
X894804D01*
Y607739D01*
X894672D01*
Y607608D01*
X894541D01*
Y607476D01*
X894409D01*
Y607345D01*
X894278D01*
Y607213D01*
X894146D01*
Y607082D01*
X894015D01*
Y606950D01*
X893883D01*
Y606687D01*
X893752D01*
Y606556D01*
X893620D01*
Y606424D01*
X893489D01*
Y606293D01*
X893357D01*
Y606161D01*
X893226D01*
Y606030D01*
X893094D01*
Y605898D01*
X892963D01*
Y605767D01*
X892831D01*
Y605504D01*
X892700D01*
Y605372D01*
X892568D01*
Y605241D01*
X892437D01*
Y605109D01*
X892174D01*
Y605241D01*
X892042D01*
Y605372D01*
X891779D01*
Y605504D01*
X891647D01*
Y605635D01*
X891516D01*
Y605767D01*
X891385D01*
Y605898D01*
X891253D01*
Y606030D01*
X890990D01*
Y606161D01*
X890858D01*
Y606293D01*
X890727D01*
Y606424D01*
X890595D01*
Y606556D01*
X890332D01*
Y606687D01*
X890201D01*
Y606819D01*
X889938D01*
Y606950D01*
X889806D01*
Y607082D01*
X889543D01*
Y607213D01*
X889412D01*
Y607345D01*
X889149D01*
Y607476D01*
X889017D01*
Y607608D01*
X888754D01*
Y607739D01*
X888491D01*
Y607871D01*
X888360D01*
Y608003D01*
X888096D01*
Y608134D01*
X887833D01*
Y608265D01*
X887570D01*
Y608397D01*
X887439D01*
Y608529D01*
X887176D01*
Y608660D01*
X886781D01*
Y608792D01*
X886518D01*
Y608923D01*
X886255D01*
Y609055D01*
X885992D01*
Y609186D01*
X885729D01*
Y609318D01*
X885335D01*
Y609449D01*
X884940D01*
Y609581D01*
X884546D01*
Y609712D01*
X884283D01*
Y609844D01*
X883888D01*
Y609975D01*
X883362D01*
Y610107D01*
X882836D01*
Y610238D01*
X882310D01*
Y610370D01*
X881652D01*
Y610501D01*
X880732D01*
Y610633D01*
X880469D01*
Y523963D01*
X1222940D01*
Y608265D01*
X1207158D01*
Y615499D01*
X1243457D01*
Y608265D01*
X1227675D01*
Y519097D01*
X880469D01*
Y502920D01*
X914400D01*
Y502789D01*
X914268D01*
Y502657D01*
X914137D01*
Y502525D01*
X914006D01*
Y502262D01*
X913874D01*
Y502131D01*
X913742D01*
Y501999D01*
X913611D01*
Y501736D01*
X913479D01*
Y501605D01*
X913348D01*
Y501473D01*
X913216D01*
Y501210D01*
X913085D01*
Y501079D01*
X912953D01*
Y500947D01*
X912822D01*
Y500684D01*
X912690D01*
Y500553D01*
X912559D01*
Y500421D01*
X912427D01*
Y500158D01*
X912296D01*
Y500027D01*
X912164D01*
Y499895D01*
X912033D01*
Y499632D01*
X911901D01*
Y499501D01*
X911770D01*
Y499369D01*
X911638D01*
Y499106D01*
X911507D01*
Y498974D01*
X911375D01*
Y498843D01*
X911244D01*
Y498580D01*
X911112D01*
Y498448D01*
X910981D01*
Y498317D01*
X910849D01*
Y498054D01*
X910717D01*
Y497922D01*
X910586D01*
Y497791D01*
X910454D01*
Y497528D01*
X910323D01*
Y497396D01*
X910191D01*
Y497265D01*
X910060D01*
Y497002D01*
X909928D01*
Y496870D01*
X909797D01*
Y496739D01*
X909665D01*
Y496476D01*
X909534D01*
Y496344D01*
X909402D01*
Y496213D01*
X909271D01*
Y495950D01*
X909139D01*
Y495818D01*
X909008D01*
Y495686D01*
X908876D01*
Y495424D01*
X908745D01*
Y495292D01*
X908613D01*
Y495160D01*
X908482D01*
Y494897D01*
X908350D01*
Y494766D01*
X908219D01*
Y494634D01*
X908087D01*
Y494371D01*
X907956D01*
Y494240D01*
X907824D01*
Y494108D01*
X907693D01*
Y493845D01*
X907561D01*
Y493714D01*
X907430D01*
Y493582D01*
X907298D01*
Y493319D01*
X907167D01*
Y493188D01*
X907035D01*
Y493056D01*
X906904D01*
Y492793D01*
X906772D01*
Y492662D01*
X906640D01*
Y492530D01*
X906509D01*
Y492267D01*
X906377D01*
Y492136D01*
X906246D01*
Y492004D01*
X906114D01*
Y491741D01*
X905983D01*
Y491609D01*
X905851D01*
Y491478D01*
X905720D01*
Y491215D01*
X905588D01*
Y491083D01*
X905457D01*
Y490952D01*
X905325D01*
Y490689D01*
X905194D01*
Y490557D01*
X905062D01*
Y490426D01*
X904931D01*
Y490163D01*
X904799D01*
Y490031D01*
X904668D01*
Y489900D01*
X904536D01*
Y489637D01*
X904405D01*
Y489505D01*
X904273D01*
Y489374D01*
X904142D01*
Y489111D01*
X904010D01*
Y488979D01*
X903879D01*
Y488848D01*
X903747D01*
Y488585D01*
X903616D01*
Y488453D01*
X903484D01*
Y488322D01*
X903353D01*
Y488059D01*
X903221D01*
Y487927D01*
X903090D01*
Y487795D01*
X902958D01*
Y487533D01*
X902827D01*
Y487401D01*
X902695D01*
Y487269D01*
X902563D01*
Y487006D01*
X902432D01*
Y486875D01*
X902300D01*
Y486743D01*
X902169D01*
Y486480D01*
X902037D01*
Y486349D01*
X901906D01*
Y486217D01*
X901774D01*
Y485954D01*
X901643D01*
Y485823D01*
X901511D01*
Y485691D01*
X901380D01*
Y485428D01*
X901248D01*
Y485297D01*
X901117D01*
Y485165D01*
X900985D01*
Y484902D01*
X900854D01*
Y484771D01*
X900722D01*
Y484639D01*
X900591D01*
Y484376D01*
X900459D01*
Y484244D01*
X900328D01*
Y484113D01*
X900196D01*
Y483850D01*
X900065D01*
Y483718D01*
X899933D01*
Y483587D01*
X899802D01*
Y483324D01*
X899670D01*
Y483192D01*
X899538D01*
Y483061D01*
X899407D01*
Y482798D01*
X899276D01*
Y482666D01*
X899144D01*
Y482535D01*
X899013D01*
Y482272D01*
X898881D01*
Y482140D01*
X898749D01*
Y482009D01*
X898618D01*
Y481746D01*
X898486D01*
Y481614D01*
X898355D01*
Y481483D01*
X898223D01*
Y481220D01*
X898092D01*
Y481088D01*
X897960D01*
Y480957D01*
X897829D01*
Y480694D01*
X897697D01*
Y480562D01*
X897566D01*
Y480430D01*
X897434D01*
Y480168D01*
X897303D01*
Y480036D01*
X897171D01*
Y479905D01*
X897040D01*
Y479641D01*
X896908D01*
Y479510D01*
X896777D01*
Y479378D01*
X896645D01*
Y479115D01*
X896514D01*
Y478984D01*
X896382D01*
Y478852D01*
X896251D01*
Y478589D01*
X896119D01*
Y478458D01*
X895987D01*
Y478326D01*
X895856D01*
Y478063D01*
X895724D01*
Y477932D01*
X895593D01*
Y477800D01*
X895462D01*
Y477537D01*
X895330D01*
Y477406D01*
X895198D01*
Y477274D01*
X895067D01*
Y477011D01*
X894935D01*
Y476880D01*
X894804D01*
Y476748D01*
X894672D01*
Y476485D01*
X894541D01*
Y476353D01*
X894409D01*
Y476222D01*
X894278D01*
Y475959D01*
X894146D01*
Y475827D01*
X894015D01*
Y475696D01*
X893883D01*
Y475433D01*
X893752D01*
Y475301D01*
X893620D01*
Y475170D01*
X893489D01*
Y474907D01*
X893357D01*
Y474775D01*
X893226D01*
Y474644D01*
X893094D01*
Y474381D01*
X892963D01*
Y474249D01*
X892831D01*
Y474118D01*
X892700D01*
Y473855D01*
X892568D01*
Y473723D01*
X892437D01*
Y473592D01*
X892305D01*
Y473329D01*
X892174D01*
Y473197D01*
X892042D01*
Y473065D01*
X891910D01*
Y472803D01*
X891779D01*
Y472671D01*
X891647D01*
Y472539D01*
X891516D01*
Y472276D01*
X891385D01*
Y472145D01*
X891253D01*
Y472013D01*
X891121D01*
Y471750D01*
X890990D01*
Y471619D01*
X890858D01*
Y471487D01*
X890727D01*
Y471224D01*
X890595D01*
Y471093D01*
X890464D01*
Y470961D01*
X890332D01*
Y470698D01*
X890201D01*
Y470567D01*
X890069D01*
Y470435D01*
X889938D01*
Y470172D01*
X889806D01*
Y470041D01*
X889675D01*
Y469909D01*
X889543D01*
Y469646D01*
X889412D01*
Y469515D01*
X889280D01*
Y469383D01*
X889149D01*
Y469120D01*
X889017D01*
Y468988D01*
X888886D01*
Y468857D01*
X888754D01*
Y468594D01*
X888623D01*
Y468462D01*
X888491D01*
Y468331D01*
X888360D01*
Y468068D01*
X888228D01*
Y467936D01*
X888096D01*
Y467805D01*
X887965D01*
Y467542D01*
X887833D01*
Y467410D01*
X887702D01*
Y467279D01*
X887570D01*
Y467016D01*
X887439D01*
Y466884D01*
X887307D01*
Y466753D01*
X887176D01*
Y466490D01*
X887044D01*
Y466358D01*
X886913D01*
Y466227D01*
X886781D01*
Y465964D01*
X886650D01*
Y465832D01*
X886518D01*
Y465700D01*
X886387D01*
Y465438D01*
X886255D01*
Y465306D01*
X886124D01*
Y465174D01*
X885992D01*
Y464911D01*
X885861D01*
Y464780D01*
X885729D01*
Y464648D01*
X885598D01*
Y464385D01*
X885466D01*
Y464254D01*
X885335D01*
Y464122D01*
X885203D01*
Y463859D01*
X885072D01*
Y463728D01*
X884940D01*
Y463596D01*
X884809D01*
Y463333D01*
X884677D01*
Y463202D01*
X884546D01*
Y463070D01*
X884414D01*
Y462807D01*
X884283D01*
Y462676D01*
X884151D01*
Y462544D01*
X884019D01*
Y462281D01*
X883888D01*
Y462150D01*
X883756D01*
Y462018D01*
X883625D01*
Y461755D01*
X883493D01*
Y461623D01*
X883362D01*
Y461492D01*
X883230D01*
Y461229D01*
X883099D01*
Y461097D01*
X882967D01*
Y460966D01*
X882836D01*
Y460703D01*
X882704D01*
Y460571D01*
X882573D01*
Y460440D01*
X882441D01*
Y460177D01*
X882310D01*
Y460045D01*
X882178D01*
Y459914D01*
X882047D01*
Y459651D01*
X881915D01*
Y459519D01*
X881784D01*
Y459388D01*
X881652D01*
Y459125D01*
X881521D01*
Y458993D01*
X881389D01*
Y458862D01*
X881258D01*
Y458599D01*
X881126D01*
Y458467D01*
X880995D01*
Y458336D01*
X880863D01*
Y458073D01*
X880732D01*
Y457941D01*
X880600D01*
Y457809D01*
X880469D01*
Y457547D01*
X880337D01*
Y457415D01*
X880206D01*
Y457283D01*
X880074D01*
Y457020D01*
X879942D01*
Y456889D01*
X879811D01*
Y456757D01*
X879679D01*
Y456494D01*
X879548D01*
Y456363D01*
X879416D01*
Y456231D01*
X879285D01*
Y456100D01*
X876917D01*
Y456231D01*
X876786D01*
Y456363D01*
X876655D01*
Y456494D01*
X876523D01*
Y456757D01*
X876391D01*
Y456889D01*
X876260D01*
Y457020D01*
X876128D01*
Y457283D01*
X875997D01*
Y457415D01*
X875865D01*
Y457547D01*
X875734D01*
Y457809D01*
X875602D01*
Y457941D01*
X875471D01*
Y458073D01*
X875339D01*
Y458336D01*
X875208D01*
Y458467D01*
X875076D01*
Y458599D01*
X874945D01*
Y458862D01*
X874813D01*
Y458993D01*
X874682D01*
Y459125D01*
X874550D01*
Y459388D01*
X874419D01*
Y459519D01*
X874287D01*
Y459651D01*
X874156D01*
Y459914D01*
X874024D01*
Y460045D01*
X873893D01*
Y460177D01*
X873761D01*
Y460440D01*
X873630D01*
Y460571D01*
X873498D01*
Y460703D01*
X873367D01*
Y460966D01*
X873235D01*
Y461097D01*
X873103D01*
Y461229D01*
X872972D01*
Y461492D01*
X872840D01*
Y461623D01*
X872709D01*
Y461755D01*
X872577D01*
Y462018D01*
X872446D01*
Y462150D01*
X872314D01*
Y462281D01*
X872183D01*
Y462544D01*
X872051D01*
Y462676D01*
X871920D01*
Y462807D01*
X871788D01*
Y463070D01*
X871657D01*
Y463202D01*
X871525D01*
Y463333D01*
X871394D01*
Y463596D01*
X871262D01*
Y463728D01*
X871131D01*
Y463859D01*
X870999D01*
Y464122D01*
X870868D01*
Y464254D01*
X870736D01*
Y464385D01*
X870605D01*
Y464648D01*
X870473D01*
Y464780D01*
X870342D01*
Y464911D01*
X870210D01*
Y465174D01*
X870079D01*
Y465306D01*
X869947D01*
Y465438D01*
X869816D01*
Y465700D01*
X869684D01*
Y465832D01*
X869553D01*
Y465964D01*
X869421D01*
Y466227D01*
X869289D01*
Y466358D01*
X869158D01*
Y466490D01*
X869026D01*
Y466753D01*
X868895D01*
Y466884D01*
X868763D01*
Y467016D01*
X868632D01*
Y467279D01*
X868500D01*
Y467410D01*
X868369D01*
Y467542D01*
X868237D01*
Y467805D01*
X868106D01*
Y467936D01*
X867974D01*
Y468068D01*
X867843D01*
Y468331D01*
X867711D01*
Y468462D01*
X867580D01*
Y468594D01*
X867448D01*
Y468857D01*
X867317D01*
Y468988D01*
X867185D01*
Y469120D01*
X867054D01*
Y469383D01*
X866922D01*
Y469515D01*
X866791D01*
Y469646D01*
X866659D01*
Y469909D01*
X866528D01*
Y470041D01*
X866396D01*
Y470172D01*
X866265D01*
Y470435D01*
X866133D01*
Y470567D01*
X866002D01*
Y470698D01*
X865870D01*
Y470961D01*
X865739D01*
Y471093D01*
X865607D01*
Y471224D01*
X865475D01*
Y471487D01*
X865344D01*
Y471619D01*
X865212D01*
Y471750D01*
X865081D01*
Y472013D01*
X864949D01*
Y472145D01*
X864818D01*
Y472276D01*
X864686D01*
Y472539D01*
X864555D01*
Y472671D01*
X864423D01*
Y472803D01*
X864292D01*
Y473065D01*
X864160D01*
Y473197D01*
X864029D01*
Y473329D01*
X863897D01*
Y473592D01*
X863766D01*
Y473723D01*
X863634D01*
Y473855D01*
X863503D01*
Y474118D01*
X863371D01*
Y474249D01*
X863240D01*
Y474381D01*
X863108D01*
Y474644D01*
X862977D01*
Y474775D01*
X862845D01*
Y474907D01*
X862714D01*
Y475170D01*
X862582D01*
Y475301D01*
X862451D01*
Y475433D01*
X862319D01*
Y475696D01*
X862188D01*
Y475827D01*
X862056D01*
Y475959D01*
X861925D01*
Y476222D01*
X861793D01*
Y476353D01*
X861662D01*
Y476485D01*
X861530D01*
Y476748D01*
X861398D01*
Y476880D01*
X861267D01*
Y477011D01*
X861135D01*
Y477274D01*
X861004D01*
Y477406D01*
X860872D01*
Y477537D01*
X860741D01*
Y477800D01*
X860609D01*
Y477932D01*
X860478D01*
Y478063D01*
X860346D01*
Y478326D01*
X860215D01*
Y478458D01*
X860083D01*
Y478589D01*
X859952D01*
Y478852D01*
X859820D01*
Y478984D01*
X859689D01*
Y479115D01*
X859557D01*
Y479378D01*
X859426D01*
Y479510D01*
X859294D01*
Y479641D01*
X859163D01*
Y479905D01*
X859031D01*
Y480036D01*
X858900D01*
Y480168D01*
X858768D01*
Y480430D01*
X858637D01*
Y480562D01*
X858505D01*
Y480694D01*
X858373D01*
Y480957D01*
X858242D01*
Y481088D01*
X858111D01*
Y481220D01*
X857979D01*
Y481483D01*
X857848D01*
Y481614D01*
X857716D01*
Y481746D01*
X857584D01*
Y482009D01*
X857453D01*
Y482140D01*
X857321D01*
Y482272D01*
X857190D01*
Y482535D01*
X857058D01*
Y482666D01*
X856927D01*
Y482798D01*
X856795D01*
Y483061D01*
X856664D01*
Y483192D01*
X856532D01*
Y483324D01*
X856401D01*
Y483587D01*
X856269D01*
Y483718D01*
X856138D01*
Y483850D01*
X856006D01*
Y484113D01*
X855875D01*
Y484244D01*
X855743D01*
Y484376D01*
X855612D01*
Y484639D01*
X855480D01*
Y484771D01*
X855349D01*
Y484902D01*
X855217D01*
Y485165D01*
X855086D01*
Y485297D01*
X854954D01*
Y485428D01*
X854823D01*
Y485691D01*
X854691D01*
Y485823D01*
X854559D01*
Y485954D01*
X854428D01*
Y486217D01*
X854296D01*
Y486349D01*
X854165D01*
Y486480D01*
X854034D01*
Y486743D01*
X853902D01*
Y486875D01*
X853770D01*
Y487006D01*
X853639D01*
Y487269D01*
X853507D01*
Y487401D01*
X853376D01*
Y487533D01*
X853244D01*
Y487795D01*
X853113D01*
Y487927D01*
X852981D01*
Y488059D01*
X852850D01*
Y488322D01*
X852718D01*
Y488453D01*
X852587D01*
Y488585D01*
X852455D01*
Y488848D01*
X852324D01*
Y488979D01*
X852192D01*
Y489111D01*
X852061D01*
Y489374D01*
X851929D01*
Y489505D01*
X851798D01*
Y489637D01*
X851666D01*
Y489900D01*
X851535D01*
Y490031D01*
X851403D01*
Y490163D01*
X851272D01*
Y490426D01*
X851140D01*
Y490557D01*
X851009D01*
Y490689D01*
X850877D01*
Y490952D01*
X850745D01*
Y491083D01*
X850614D01*
Y491215D01*
X850482D01*
Y491478D01*
X850351D01*
Y491609D01*
X850219D01*
Y491741D01*
X850088D01*
Y492004D01*
X849956D01*
Y492136D01*
X849825D01*
Y492267D01*
X849693D01*
Y492530D01*
X849562D01*
Y492662D01*
X849430D01*
Y492793D01*
X849299D01*
Y493056D01*
X849167D01*
Y493188D01*
X849036D01*
Y493319D01*
X848904D01*
Y493582D01*
X848773D01*
Y493714D01*
X848641D01*
Y493845D01*
X848510D01*
Y494108D01*
X848378D01*
Y494240D01*
X848247D01*
Y494371D01*
X848115D01*
Y494634D01*
X847984D01*
Y494766D01*
X847852D01*
Y494897D01*
X847721D01*
Y495160D01*
X847589D01*
Y495292D01*
X847458D01*
Y495424D01*
X847326D01*
Y495686D01*
X847195D01*
Y495818D01*
X847063D01*
Y495950D01*
X846932D01*
Y496213D01*
X846800D01*
Y496344D01*
X846668D01*
Y496476D01*
X846537D01*
Y496739D01*
X846405D01*
Y496870D01*
X846274D01*
Y497002D01*
X846142D01*
Y497265D01*
X846011D01*
Y497396D01*
X845879D01*
Y497528D01*
X845748D01*
Y497791D01*
X845616D01*
Y497922D01*
X845485D01*
Y498054D01*
X845353D01*
Y498317D01*
X845222D01*
Y498448D01*
X845090D01*
Y498580D01*
X844959D01*
Y498843D01*
X844827D01*
Y498974D01*
X844696D01*
Y499106D01*
X844564D01*
Y499369D01*
X844433D01*
Y499501D01*
X844301D01*
Y499632D01*
X844170D01*
Y499895D01*
X844038D01*
Y500027D01*
X843907D01*
Y500158D01*
X843775D01*
Y500421D01*
X843644D01*
Y500553D01*
X843512D01*
Y500684D01*
X843381D01*
Y500947D01*
X843249D01*
Y501079D01*
X843118D01*
Y501210D01*
X842986D01*
Y501473D01*
X842855D01*
Y501605D01*
X842723D01*
Y501736D01*
X842591D01*
Y501999D01*
X842460D01*
Y502131D01*
X842328D01*
Y502262D01*
X842197D01*
Y502525D01*
X842065D01*
Y502657D01*
X841934D01*
Y502789D01*
X841802D01*
Y502920D01*
X875734D01*
Y519097D01*
X827072D01*
Y519228D01*
X826941D01*
Y519097D01*
X826809D01*
Y519228D01*
X826678D01*
Y519097D01*
X826546D01*
Y519228D01*
X826415D01*
Y519097D01*
X826283D01*
Y519228D01*
X826152D01*
Y519097D01*
X826020D01*
Y519228D01*
X825889D01*
Y519097D01*
X825757D01*
Y519228D01*
X825626D01*
Y519097D01*
X825494D01*
Y519228D01*
X825363D01*
Y519097D01*
X825231D01*
Y519228D01*
X825100D01*
Y519097D01*
X824968D01*
Y519228D01*
X824837D01*
Y519097D01*
X822469D01*
Y519228D01*
X822338D01*
Y519097D01*
X822206D01*
Y519228D01*
X822075D01*
Y519097D01*
X821943D01*
Y519228D01*
X821812D01*
Y519097D01*
X821680D01*
Y519228D01*
X821549D01*
Y519097D01*
X821417D01*
Y519228D01*
X821286D01*
Y519097D01*
X821154D01*
Y519228D01*
X821023D01*
Y519097D01*
X820891D01*
Y519228D01*
X820760D01*
Y519097D01*
X820628D01*
Y519228D01*
X820497D01*
Y519097D01*
X818129D01*
Y519228D01*
X817998D01*
Y519097D01*
X817866D01*
Y519228D01*
X817735D01*
Y519097D01*
X817603D01*
Y519228D01*
X817472D01*
Y519097D01*
X817340D01*
Y519228D01*
X817209D01*
Y519097D01*
X817077D01*
Y519228D01*
X816945D01*
Y519097D01*
X816814D01*
Y519228D01*
X816683D01*
Y519097D01*
X816551D01*
Y519228D01*
X816420D01*
Y519097D01*
X816288D01*
Y519228D01*
X816156D01*
Y519097D01*
X813789D01*
Y519228D01*
X813658D01*
Y519097D01*
X813526D01*
Y519228D01*
X813395D01*
Y519097D01*
X813263D01*
Y519228D01*
X813131D01*
Y519097D01*
X813000D01*
Y519228D01*
X812868D01*
Y519097D01*
X812737D01*
Y519228D01*
X812606D01*
Y519097D01*
X812474D01*
Y519228D01*
X812342D01*
Y519097D01*
X812211D01*
Y519228D01*
X812079D01*
Y519097D01*
X811948D01*
Y519228D01*
X811816D01*
Y519097D01*
X811685D01*
Y519228D01*
X811553D01*
Y519097D01*
X809186D01*
Y519228D01*
X809054D01*
Y519097D01*
X808923D01*
Y519228D01*
X808791D01*
Y519097D01*
X808660D01*
Y519228D01*
X808528D01*
Y519097D01*
X808397D01*
Y519228D01*
X808265D01*
Y519097D01*
X808134D01*
Y519228D01*
X808002D01*
Y519097D01*
X807871D01*
Y519228D01*
X807739D01*
Y519097D01*
X807608D01*
Y519228D01*
X807476D01*
Y519097D01*
X807345D01*
Y519228D01*
X807213D01*
Y519097D01*
X804846D01*
Y519228D01*
X804714D01*
Y519097D01*
X804583D01*
Y519228D01*
X804451D01*
Y519097D01*
X804320D01*
Y519228D01*
X804188D01*
Y519097D01*
X804057D01*
Y519228D01*
X803925D01*
Y519097D01*
X803794D01*
Y519228D01*
X803662D01*
Y519097D01*
X803531D01*
Y519228D01*
X803399D01*
Y519097D01*
X803268D01*
Y519228D01*
X803136D01*
Y519097D01*
X803005D01*
Y519228D01*
X802873D01*
Y519097D01*
X800506D01*
Y519228D01*
X800374D01*
Y519097D01*
X800243D01*
Y519228D01*
X800111D01*
Y519097D01*
X799980D01*
Y519228D01*
X799848D01*
Y519097D01*
X799717D01*
Y519228D01*
X799585D01*
Y519097D01*
X799454D01*
Y519228D01*
X799322D01*
Y519097D01*
X799191D01*
Y519228D01*
X799059D01*
Y519097D01*
X798928D01*
Y519228D01*
X798796D01*
Y519097D01*
X798665D01*
Y519228D01*
X798533D01*
Y519097D01*
X798402D01*
Y519228D01*
X798270D01*
Y519097D01*
X795903D01*
Y519228D01*
X795771D01*
Y519097D01*
X795640D01*
Y519228D01*
X795508D01*
Y519097D01*
X795377D01*
Y519228D01*
X795245D01*
Y519097D01*
X795114D01*
Y519228D01*
X794982D01*
Y519097D01*
X794851D01*
Y519228D01*
X794719D01*
Y519097D01*
X794588D01*
Y519228D01*
X794456D01*
Y519097D01*
X794324D01*
Y519228D01*
X794193D01*
Y519097D01*
X794062D01*
Y519228D01*
X793930D01*
Y519097D01*
X791563D01*
Y519228D01*
X791431D01*
Y519097D01*
X791300D01*
Y519228D01*
X791168D01*
Y519097D01*
X791037D01*
Y519228D01*
X790905D01*
Y519097D01*
X790774D01*
Y519228D01*
X790642D01*
Y519097D01*
X790510D01*
Y519228D01*
X790379D01*
Y519097D01*
X790247D01*
Y519228D01*
X790116D01*
Y519097D01*
X789984D01*
Y519228D01*
X789853D01*
Y519097D01*
X789721D01*
Y519228D01*
X789590D01*
Y519097D01*
X787223D01*
Y519228D01*
X787091D01*
Y519097D01*
X786960D01*
Y519228D01*
X786828D01*
Y519097D01*
X786696D01*
Y519228D01*
X786565D01*
Y519097D01*
X786433D01*
Y519228D01*
X786302D01*
Y519097D01*
X786170D01*
Y519228D01*
X786039D01*
Y519097D01*
X785907D01*
Y519228D01*
X785776D01*
Y519097D01*
X785644D01*
Y519228D01*
X785513D01*
Y519097D01*
X785381D01*
Y519228D01*
X785250D01*
Y519097D01*
X782619D01*
Y519228D01*
X782488D01*
Y519097D01*
X782356D01*
Y519228D01*
X782225D01*
Y519097D01*
X782093D01*
Y519228D01*
X781962D01*
Y519097D01*
X781830D01*
Y519228D01*
X781699D01*
Y519097D01*
X781567D01*
Y519228D01*
X781436D01*
Y519097D01*
X781304D01*
Y519228D01*
X781173D01*
Y519097D01*
X781041D01*
Y519228D01*
X780910D01*
Y519097D01*
X780778D01*
Y519228D01*
X780647D01*
Y519097D01*
X778279D01*
Y519228D01*
X778148D01*
Y519097D01*
X778016D01*
Y519228D01*
X777885D01*
Y519097D01*
X777753D01*
Y519228D01*
X777622D01*
Y519097D01*
X777490D01*
Y519228D01*
X777359D01*
Y519097D01*
X777227D01*
Y519228D01*
X777096D01*
Y519097D01*
X776964D01*
Y519228D01*
X776833D01*
Y519097D01*
X776701D01*
Y519228D01*
X776570D01*
Y519097D01*
X776438D01*
Y519228D01*
X776307D01*
Y519097D01*
X773676D01*
Y519228D01*
X773545D01*
Y519097D01*
X773413D01*
Y519228D01*
X773282D01*
Y519097D01*
X773150D01*
Y519228D01*
X773019D01*
Y519097D01*
X772887D01*
Y519228D01*
X772756D01*
Y519097D01*
X772624D01*
Y519228D01*
X772493D01*
Y519097D01*
X772361D01*
Y519228D01*
X772230D01*
Y519097D01*
X772098D01*
Y519228D01*
X771967D01*
Y519097D01*
X769336D01*
Y519228D01*
X769205D01*
Y519097D01*
X769073D01*
Y519228D01*
X768942D01*
Y519097D01*
X768810D01*
Y519228D01*
X768679D01*
Y519097D01*
X768547D01*
Y519228D01*
X768416D01*
Y519097D01*
X768284D01*
Y519228D01*
X768152D01*
Y519097D01*
X768021D01*
Y519228D01*
X767889D01*
Y519097D01*
X767758D01*
Y519228D01*
X767626D01*
Y519097D01*
X767495D01*
Y519228D01*
X767363D01*
Y519097D01*
X764996D01*
Y519228D01*
X764865D01*
Y519097D01*
X764733D01*
Y519228D01*
X764602D01*
Y519097D01*
X764470D01*
Y519228D01*
X764339D01*
Y519097D01*
X764207D01*
Y519228D01*
X764075D01*
Y519097D01*
X763944D01*
Y519228D01*
X763812D01*
Y519097D01*
X763681D01*
Y519228D01*
X763549D01*
Y519097D01*
X763418D01*
Y519228D01*
X763286D01*
Y519097D01*
X763155D01*
Y519228D01*
X763023D01*
Y519097D01*
X760393D01*
Y519228D01*
X760262D01*
Y519097D01*
X760130D01*
Y519228D01*
X759998D01*
Y519097D01*
X759867D01*
Y519228D01*
X759735D01*
Y519097D01*
X759604D01*
Y519228D01*
X759472D01*
Y519097D01*
X759341D01*
Y519228D01*
X759209D01*
Y519097D01*
X759078D01*
Y519228D01*
X758946D01*
Y519097D01*
X758815D01*
Y519228D01*
X758683D01*
Y519097D01*
X756053D01*
Y519228D01*
X755921D01*
Y519097D01*
X755790D01*
Y519228D01*
X755658D01*
Y519097D01*
X755527D01*
Y519228D01*
X755395D01*
Y519097D01*
X755264D01*
Y519228D01*
X755132D01*
Y519097D01*
X755001D01*
Y519228D01*
X754869D01*
Y519097D01*
X754738D01*
Y519228D01*
X754606D01*
Y519097D01*
X754475D01*
Y519228D01*
X754343D01*
Y519097D01*
X751713D01*
Y519228D01*
X751581D01*
Y519097D01*
X751450D01*
Y519228D01*
X751318D01*
Y519097D01*
X751187D01*
Y519228D01*
X751055D01*
Y519097D01*
X750924D01*
Y519228D01*
X750792D01*
Y519097D01*
X750661D01*
Y519228D01*
X750529D01*
Y519097D01*
X750398D01*
Y519228D01*
X750266D01*
Y519097D01*
X750135D01*
Y519228D01*
X750003D01*
Y519097D01*
X749872D01*
Y519228D01*
X749740D01*
Y519097D01*
X747373D01*
Y519228D01*
X747241D01*
Y519097D01*
X747110D01*
Y519228D01*
X746978D01*
Y519097D01*
X746847D01*
Y519228D01*
X746715D01*
Y519097D01*
X746584D01*
Y519228D01*
X746452D01*
Y519097D01*
X746321D01*
Y519228D01*
X746189D01*
Y519097D01*
X746058D01*
Y519228D01*
X745926D01*
Y519097D01*
X745795D01*
Y519228D01*
X745663D01*
Y519097D01*
X745531D01*
Y519228D01*
X745400D01*
Y519097D01*
X742770D01*
Y519228D01*
X742638D01*
Y519097D01*
X742507D01*
Y519228D01*
X742375D01*
Y519097D01*
X742244D01*
Y519228D01*
X742112D01*
Y519097D01*
X741981D01*
Y519228D01*
X741849D01*
Y519097D01*
X741718D01*
Y519228D01*
X741586D01*
Y519097D01*
X741454D01*
Y519228D01*
X741323D01*
Y519097D01*
X741191D01*
Y519228D01*
X741060D01*
Y519097D01*
X738430D01*
Y519228D01*
X738298D01*
Y519097D01*
X738167D01*
Y519228D01*
X738035D01*
Y519097D01*
X737904D01*
Y519228D01*
X737772D01*
Y519097D01*
X737641D01*
Y519228D01*
X737509D01*
Y519097D01*
X737377D01*
Y519228D01*
X737246D01*
Y519097D01*
X737114D01*
Y519228D01*
X736983D01*
Y519097D01*
X736851D01*
Y519228D01*
X736720D01*
Y519097D01*
X736588D01*
Y519228D01*
X736457D01*
Y519097D01*
X734090D01*
Y519228D01*
X733958D01*
Y519097D01*
X733827D01*
Y519228D01*
X733695D01*
Y519097D01*
X733563D01*
Y519228D01*
X733432D01*
Y519097D01*
X733300D01*
Y519228D01*
X733169D01*
Y519097D01*
X733037D01*
Y519228D01*
X732906D01*
Y519097D01*
X732774D01*
Y519228D01*
X732643D01*
Y519097D01*
X732511D01*
Y519228D01*
X732380D01*
Y519097D01*
X732248D01*
Y519228D01*
X732117D01*
Y519097D01*
X729486D01*
Y519228D01*
X729355D01*
Y519097D01*
X729223D01*
Y519228D01*
X729092D01*
Y519097D01*
X728960D01*
Y519228D01*
X728829D01*
Y519097D01*
X728697D01*
Y519228D01*
X728566D01*
Y519097D01*
X728434D01*
Y519228D01*
X728303D01*
Y519097D01*
X728171D01*
Y519228D01*
X728040D01*
Y519097D01*
X727908D01*
Y519228D01*
X727777D01*
Y519097D01*
X724883D01*
Y519228D01*
X724752D01*
Y519097D01*
X724620D01*
Y519228D01*
X724489D01*
Y519097D01*
X724357D01*
Y519228D01*
X724226D01*
Y519097D01*
X724094D01*
Y519228D01*
X723963D01*
Y519097D01*
X723831D01*
Y519228D01*
X723700D01*
Y519097D01*
X723568D01*
Y519228D01*
X723437D01*
Y519097D01*
X720543D01*
Y519228D01*
X720412D01*
Y519097D01*
X720280D01*
Y519228D01*
X720149D01*
Y519097D01*
X720017D01*
Y519228D01*
X719886D01*
Y519097D01*
X719754D01*
Y519228D01*
X719623D01*
Y519097D01*
X719491D01*
Y519228D01*
X719360D01*
Y519097D01*
X719228D01*
Y519228D01*
X719097D01*
Y519097D01*
X718965D01*
Y519228D01*
X718833D01*
Y519097D01*
X716203D01*
Y519228D01*
X716072D01*
Y519097D01*
X715940D01*
Y519228D01*
X715809D01*
Y519097D01*
X715677D01*
Y519228D01*
X715546D01*
Y519097D01*
X715414D01*
Y519228D01*
X715283D01*
Y519097D01*
X715151D01*
Y519228D01*
X715020D01*
Y519097D01*
X714888D01*
Y519228D01*
X714756D01*
Y519097D01*
X714625D01*
Y519228D01*
X714493D01*
Y519097D01*
X711600D01*
Y519228D01*
X711469D01*
Y519097D01*
X711337D01*
Y519228D01*
X711206D01*
Y519097D01*
X711074D01*
Y519228D01*
X710942D01*
Y519097D01*
X710811D01*
Y519228D01*
X710679D01*
Y519097D01*
X710548D01*
Y519228D01*
X710416D01*
Y519097D01*
X710285D01*
Y519228D01*
X710153D01*
Y519097D01*
X707260D01*
Y519228D01*
X707128D01*
Y519097D01*
X706997D01*
Y519228D01*
X706865D01*
Y519097D01*
X706734D01*
Y519228D01*
X706602D01*
Y519097D01*
X706471D01*
Y519228D01*
X706339D01*
Y519097D01*
X706208D01*
Y519228D01*
X706076D01*
Y519097D01*
X705945D01*
Y519228D01*
X705813D01*
Y519097D01*
X705682D01*
Y519228D01*
X705550D01*
Y519097D01*
X702920D01*
Y519228D01*
X702788D01*
Y519097D01*
X702657D01*
Y519228D01*
X702525D01*
Y519097D01*
X702394D01*
Y519228D01*
X702262D01*
Y519097D01*
X702131D01*
Y519228D01*
X701999D01*
Y519097D01*
X701868D01*
Y519228D01*
X701736D01*
Y519097D01*
X701605D01*
Y519228D01*
X701473D01*
Y519097D01*
X701342D01*
Y519228D01*
X701210D01*
Y519097D01*
X698317D01*
Y519228D01*
X698185D01*
Y519097D01*
X698054D01*
Y519228D01*
X697922D01*
Y519097D01*
X697791D01*
Y519228D01*
X697659D01*
Y519097D01*
X697528D01*
Y519228D01*
X697396D01*
Y519097D01*
X697265D01*
Y519228D01*
X697133D01*
Y519097D01*
X697002D01*
Y519228D01*
X696870D01*
Y519097D01*
X693977D01*
Y519228D01*
X693845D01*
Y519097D01*
X693714D01*
Y519228D01*
X693582D01*
Y519097D01*
X693451D01*
Y519228D01*
X693319D01*
Y519097D01*
X693188D01*
Y519228D01*
X693056D01*
Y519097D01*
X692924D01*
Y519228D01*
X692793D01*
Y519097D01*
X692662D01*
Y519228D01*
X692530D01*
Y519097D01*
X689637D01*
Y519228D01*
X689505D01*
Y519097D01*
X689374D01*
Y519228D01*
X689242D01*
Y519097D01*
X689110D01*
Y519228D01*
X688979D01*
Y519097D01*
X688848D01*
Y519228D01*
X688716D01*
Y519097D01*
X688584D01*
Y519228D01*
X688453D01*
Y519097D01*
X688321D01*
Y519228D01*
X688190D01*
Y519097D01*
X688058D01*
Y519228D01*
X687927D01*
Y519097D01*
X685296D01*
Y519228D01*
X685165D01*
Y519097D01*
X685033D01*
Y519228D01*
X684902D01*
Y519097D01*
X684771D01*
Y519228D01*
X684639D01*
Y519097D01*
X684507D01*
Y519228D01*
X684376D01*
Y519097D01*
X684244D01*
Y519228D01*
X684113D01*
Y519097D01*
X683981D01*
Y519228D01*
X683850D01*
Y519097D01*
X683718D01*
Y519228D01*
X683587D01*
Y519097D01*
X680693D01*
Y519228D01*
X680562D01*
Y519097D01*
X680430D01*
Y519228D01*
X680299D01*
Y519097D01*
X680167D01*
Y519228D01*
X680036D01*
Y519097D01*
X679904D01*
Y519228D01*
X679773D01*
Y519097D01*
X679641D01*
Y519228D01*
X679510D01*
Y519097D01*
X679378D01*
Y519228D01*
X679247D01*
Y519097D01*
X676353D01*
Y519228D01*
X676222D01*
Y519097D01*
X676090D01*
Y519228D01*
X675959D01*
Y519097D01*
X675827D01*
Y519228D01*
X675696D01*
Y519097D01*
X675564D01*
Y519228D01*
X675433D01*
Y519097D01*
X675301D01*
Y519228D01*
X675170D01*
Y519097D01*
X675038D01*
Y519228D01*
X674907D01*
Y519097D01*
X674775D01*
Y519228D01*
X674644D01*
Y519097D01*
X672013D01*
Y519228D01*
X671882D01*
Y519097D01*
X671750D01*
Y519228D01*
X671619D01*
Y519097D01*
X671487D01*
Y519228D01*
X671356D01*
Y519097D01*
X671224D01*
Y519228D01*
X671093D01*
Y519097D01*
X670961D01*
Y519228D01*
X670830D01*
Y519097D01*
X670698D01*
Y519228D01*
X670567D01*
Y519097D01*
X670435D01*
Y519228D01*
X670303D01*
Y519097D01*
X667410D01*
Y519228D01*
X667279D01*
Y519097D01*
X667147D01*
Y519228D01*
X667016D01*
Y519097D01*
X666884D01*
Y519228D01*
X666752D01*
Y519097D01*
X666621D01*
Y519228D01*
X666489D01*
Y519097D01*
X666358D01*
Y519228D01*
X666227D01*
Y519097D01*
X666095D01*
Y519228D01*
X665963D01*
Y519097D01*
X663070D01*
Y519228D01*
X662939D01*
Y519097D01*
X662807D01*
Y519228D01*
X662675D01*
Y519097D01*
X662544D01*
Y519228D01*
X662412D01*
Y519097D01*
X662281D01*
Y519228D01*
X662150D01*
Y519097D01*
X662018D01*
Y519228D01*
X661886D01*
Y519097D01*
X661755D01*
Y519228D01*
X661623D01*
Y519097D01*
X658730D01*
Y519228D01*
X658598D01*
Y519097D01*
X658467D01*
Y519228D01*
X658335D01*
Y519097D01*
X658204D01*
Y519228D01*
X658072D01*
Y519097D01*
X657941D01*
Y519228D01*
X657809D01*
Y519097D01*
X657678D01*
Y519228D01*
X657546D01*
Y519097D01*
X657415D01*
Y519228D01*
X657283D01*
Y519097D01*
X657152D01*
Y519228D01*
X657020D01*
Y519097D01*
X654390D01*
Y519228D01*
X654258D01*
Y519097D01*
X654127D01*
Y519228D01*
X653995D01*
Y519097D01*
X653864D01*
Y519228D01*
X653732D01*
Y519097D01*
X653601D01*
Y519228D01*
X653469D01*
Y519097D01*
X653338D01*
Y519228D01*
X653206D01*
Y519097D01*
X653075D01*
Y519228D01*
X652943D01*
Y519097D01*
X652812D01*
Y519228D01*
X652680D01*
Y519097D01*
X649787D01*
Y519228D01*
X649655D01*
Y519097D01*
X649524D01*
Y519228D01*
X649392D01*
Y519097D01*
X649261D01*
Y519228D01*
X649129D01*
Y519097D01*
X648998D01*
Y519228D01*
X648866D01*
Y519097D01*
X648735D01*
Y519228D01*
X648603D01*
Y519097D01*
X648472D01*
Y519228D01*
X648340D01*
Y519097D01*
X645447D01*
Y519228D01*
X645315D01*
Y519097D01*
X645184D01*
Y519228D01*
X645052D01*
Y519097D01*
X644921D01*
Y519228D01*
X644789D01*
Y519097D01*
X644658D01*
Y519228D01*
X644526D01*
Y519097D01*
X644395D01*
Y519228D01*
X644263D01*
Y519097D01*
X644132D01*
Y519228D01*
X644000D01*
Y519097D01*
X643868D01*
Y519228D01*
X643737D01*
Y519097D01*
X641107D01*
Y519228D01*
X640975D01*
Y519097D01*
X640844D01*
Y519228D01*
X640712D01*
Y519097D01*
X640581D01*
Y519228D01*
X640449D01*
Y519097D01*
X640318D01*
Y519228D01*
X640186D01*
Y519097D01*
X640054D01*
Y519228D01*
X639923D01*
Y519097D01*
X639791D01*
Y519228D01*
X639660D01*
Y519097D01*
X639528D01*
Y519228D01*
X639397D01*
Y519097D01*
X636503D01*
Y519228D01*
X636372D01*
Y519097D01*
X636241D01*
Y519228D01*
X636109D01*
Y519097D01*
X635978D01*
Y519228D01*
X635846D01*
Y519097D01*
X635714D01*
Y519228D01*
X635583D01*
Y519097D01*
X635451D01*
Y519228D01*
X635320D01*
Y519097D01*
X635188D01*
Y519228D01*
X635057D01*
Y519097D01*
X632164D01*
Y519228D01*
X632032D01*
Y519097D01*
X631900D01*
Y519228D01*
X631769D01*
Y519097D01*
X631637D01*
Y519228D01*
X631506D01*
Y519097D01*
X631374D01*
Y519228D01*
X631243D01*
Y519097D01*
X631111D01*
Y519228D01*
X630980D01*
Y519097D01*
X630848D01*
Y519228D01*
X630717D01*
Y519097D01*
X627823D01*
Y519228D01*
X627692D01*
Y519097D01*
X627560D01*
Y519228D01*
X627429D01*
Y519097D01*
X627297D01*
Y519228D01*
X627166D01*
Y519097D01*
X627034D01*
Y519228D01*
X626903D01*
Y519097D01*
X626771D01*
Y519228D01*
X626640D01*
Y519097D01*
X624009D01*
Y519228D01*
X623352D01*
Y519097D01*
X623220D01*
Y519228D01*
X623089D01*
Y519097D01*
X622957D01*
Y519228D01*
X622826D01*
Y519097D01*
X622694D01*
Y519228D01*
X622563D01*
Y519097D01*
X622431D01*
Y519228D01*
X622300D01*
Y519097D01*
X619538D01*
Y519228D01*
X619012D01*
Y519097D01*
X618880D01*
Y519228D01*
X618749D01*
Y519097D01*
X618617D01*
Y519228D01*
X618486D01*
Y519097D01*
X618354D01*
Y519228D01*
X618223D01*
Y519097D01*
X618091D01*
Y519228D01*
X617960D01*
Y519097D01*
X615198D01*
Y519228D01*
X614409D01*
Y519097D01*
X614277D01*
Y519228D01*
X614146D01*
Y519097D01*
X614014D01*
Y519228D01*
X613882D01*
Y519097D01*
X613751D01*
Y519228D01*
X613619D01*
Y519097D01*
X610726D01*
Y519228D01*
X610069D01*
Y519097D01*
X609937D01*
Y519228D01*
X609805D01*
Y519097D01*
X609674D01*
Y519228D01*
X609542D01*
Y519097D01*
X609411D01*
Y519228D01*
X609279D01*
Y519097D01*
X609148D01*
Y519228D01*
X609016D01*
Y519097D01*
X606255D01*
Y519228D01*
X605728D01*
Y519097D01*
X605597D01*
Y519228D01*
X605465D01*
Y519097D01*
X605334D01*
Y519228D01*
X605202D01*
Y519097D01*
X605071D01*
Y519228D01*
X604939D01*
Y519097D01*
X604808D01*
Y519228D01*
X604676D01*
Y519097D01*
X601914D01*
Y519228D01*
X601125D01*
Y519097D01*
X600994D01*
Y519228D01*
X600862D01*
Y519097D01*
X600731D01*
Y519228D01*
X600599D01*
Y519097D01*
X600468D01*
Y519228D01*
X600336D01*
Y519097D01*
X597443D01*
Y519228D01*
X596785D01*
Y519097D01*
X596654D01*
Y519228D01*
X596522D01*
Y519097D01*
X596391D01*
Y519228D01*
X596259D01*
Y519097D01*
X596128D01*
Y519228D01*
X595996D01*
Y519097D01*
X595865D01*
Y519228D01*
X595733D01*
Y519097D01*
X593103D01*
Y519228D01*
X592445D01*
Y519097D01*
X592314D01*
Y519228D01*
X592182D01*
Y519097D01*
X592051D01*
Y519228D01*
X591919D01*
Y519097D01*
X591788D01*
Y519228D01*
X591656D01*
Y519097D01*
X591525D01*
Y519228D01*
X591393D01*
Y519097D01*
X588631D01*
Y519228D01*
X587842D01*
Y519097D01*
X587710D01*
Y519228D01*
X587579D01*
Y519097D01*
X587448D01*
Y519228D01*
X587316D01*
Y519097D01*
X587184D01*
Y519228D01*
X587053D01*
Y519097D01*
X584291D01*
Y519228D01*
X583502D01*
Y519097D01*
X583371D01*
Y519228D01*
X583239D01*
Y519097D01*
X583107D01*
Y519228D01*
X582976D01*
Y519097D01*
X582844D01*
Y519228D01*
X582713D01*
Y519097D01*
X579819D01*
Y519228D01*
X579162D01*
Y519097D01*
X579030D01*
Y519228D01*
X578899D01*
Y519097D01*
X578767D01*
Y519228D01*
X578636D01*
Y519097D01*
X578504D01*
Y519228D01*
X578373D01*
Y519097D01*
X578241D01*
Y519228D01*
X578110D01*
Y519097D01*
X575348D01*
Y519228D01*
X574822D01*
Y519097D01*
X574690D01*
Y519228D01*
X574559D01*
Y519097D01*
X574427D01*
Y519228D01*
X574296D01*
Y519097D01*
X574164D01*
Y519228D01*
X574033D01*
Y519097D01*
X573901D01*
Y519228D01*
X573770D01*
Y519097D01*
X571008D01*
Y519228D01*
X570219D01*
Y519097D01*
X570087D01*
Y519228D01*
X569956D01*
Y519097D01*
X569824D01*
Y519228D01*
X569693D01*
Y519097D01*
X569561D01*
Y519228D01*
X569430D01*
Y519097D01*
X566536D01*
Y519228D01*
X565879D01*
Y519097D01*
X565747D01*
Y519228D01*
X565616D01*
Y519097D01*
X565484D01*
Y519228D01*
X565353D01*
Y519097D01*
X565221D01*
Y519228D01*
X565089D01*
Y519097D01*
X564958D01*
Y519228D01*
X564827D01*
Y519097D01*
X562196D01*
Y519228D01*
X561539D01*
Y519097D01*
X561407D01*
Y519228D01*
X561275D01*
Y519097D01*
X561144D01*
Y519228D01*
X561012D01*
Y519097D01*
X560881D01*
Y519228D01*
X560749D01*
Y519097D01*
X560618D01*
Y519228D01*
X560486D01*
Y519097D01*
X557724D01*
Y519228D01*
X556935D01*
Y519097D01*
X556804D01*
Y519228D01*
X556672D01*
Y519097D01*
X556541D01*
Y519228D01*
X556409D01*
Y519097D01*
X556278D01*
Y519228D01*
X556146D01*
Y519097D01*
X553385D01*
Y519228D01*
X552595D01*
Y519097D01*
X552464D01*
Y519228D01*
X552332D01*
Y519097D01*
X552201D01*
Y519228D01*
X552069D01*
Y519097D01*
X551938D01*
Y519228D01*
X551806D01*
Y519097D01*
X548913D01*
Y519228D01*
X548255D01*
Y519097D01*
X548124D01*
Y519228D01*
X547992D01*
Y519097D01*
X547861D01*
Y519228D01*
X547729D01*
Y519097D01*
X547598D01*
Y519228D01*
X547466D01*
Y519097D01*
X547335D01*
Y519228D01*
X547203D01*
Y519097D01*
X544441D01*
Y519228D01*
X543915D01*
Y519097D01*
X543784D01*
Y519228D01*
X543652D01*
Y519097D01*
X543521D01*
Y519228D01*
X543389D01*
Y519097D01*
X543258D01*
Y519228D01*
X543126D01*
Y519097D01*
X542995D01*
Y519228D01*
X542863D01*
Y519097D01*
X540101D01*
Y519228D01*
X539312D01*
Y519097D01*
X539181D01*
Y519228D01*
X539049D01*
Y519097D01*
X538918D01*
Y519228D01*
X538786D01*
Y519097D01*
X538655D01*
Y519228D01*
X538523D01*
Y519097D01*
X535630D01*
Y519228D01*
X534972D01*
Y519097D01*
X534841D01*
Y519228D01*
X534709D01*
Y519097D01*
X534577D01*
Y519228D01*
X534446D01*
Y519097D01*
X534314D01*
Y519228D01*
X534183D01*
Y519097D01*
X534051D01*
Y519228D01*
X533920D01*
Y519097D01*
X531289D01*
Y519228D01*
X530632D01*
Y519097D01*
X530500D01*
Y519228D01*
X530369D01*
Y519097D01*
X530237D01*
Y519228D01*
X530106D01*
Y519097D01*
X529974D01*
Y519228D01*
X529843D01*
Y519097D01*
X529711D01*
Y519228D01*
X529580D01*
Y519097D01*
X526818D01*
Y519228D01*
X525766D01*
Y519097D01*
X525634D01*
Y519228D01*
X525503D01*
Y519097D01*
X522478D01*
Y519228D01*
X521426D01*
Y519097D01*
X521294D01*
Y519228D01*
X521163D01*
Y519097D01*
X518006D01*
Y519228D01*
X517086D01*
Y519097D01*
X516954D01*
Y519228D01*
X516823D01*
Y519097D01*
X516691D01*
Y519228D01*
X516560D01*
Y519097D01*
X513535D01*
Y519228D01*
X512746D01*
Y519097D01*
X512614D01*
Y519228D01*
X512482D01*
Y519097D01*
X512351D01*
Y519228D01*
X512220D01*
Y519097D01*
X509195D01*
Y519228D01*
X508142D01*
Y519097D01*
X508011D01*
Y519228D01*
X507879D01*
Y519097D01*
X504723D01*
Y519228D01*
X503802D01*
Y519097D01*
X503671D01*
Y519228D01*
X503539D01*
Y519097D01*
X503408D01*
Y519228D01*
X503276D01*
Y519097D01*
X500383D01*
Y519228D01*
X499462D01*
Y519097D01*
X499331D01*
Y519228D01*
X499199D01*
Y519097D01*
X499068D01*
Y519228D01*
X498936D01*
Y519097D01*
X495911D01*
Y519228D01*
X494859D01*
Y519097D01*
X494728D01*
Y519228D01*
X494596D01*
Y519097D01*
X491571D01*
Y519228D01*
X490519D01*
Y519097D01*
X490388D01*
Y519228D01*
X490256D01*
Y519097D01*
X487100D01*
Y519228D01*
X486179D01*
Y519097D01*
X486048D01*
Y519228D01*
X485916D01*
Y519097D01*
X485784D01*
Y519228D01*
X485653D01*
Y519097D01*
X482628D01*
Y519228D01*
X481839D01*
Y519097D01*
X481707D01*
Y519228D01*
X481576D01*
Y519097D01*
X481444D01*
Y519228D01*
X481313D01*
Y519097D01*
X478288D01*
Y519228D01*
X477236D01*
Y519097D01*
X477104D01*
Y519228D01*
X476973D01*
Y519097D01*
X473816D01*
Y519228D01*
X472633D01*
Y519097D01*
X469476D01*
Y519228D01*
X468293D01*
Y519097D01*
X465005D01*
Y519228D01*
X463953D01*
Y519097D01*
X463821D01*
Y519228D01*
X463689D01*
Y519097D01*
X460665D01*
Y519228D01*
X459613D01*
Y519097D01*
X459481D01*
Y519228D01*
X459349D01*
Y519097D01*
X456193D01*
Y519228D01*
X455009D01*
Y519097D01*
X451721D01*
Y519228D01*
X450669D01*
Y519097D01*
X447381D01*
Y519228D01*
X446066D01*
Y519097D01*
X442910D01*
Y519228D01*
X441726D01*
Y519097D01*
X438570D01*
Y519228D01*
X437386D01*
Y519097D01*
X434098D01*
Y519228D01*
X432915D01*
Y519097D01*
X429758D01*
Y519228D01*
X428574D01*
Y519097D01*
X427391D01*
Y530539D01*
X427522D01*
Y577227D01*
X427654D01*
Y577359D01*
X427917D01*
Y577490D01*
X428048D01*
Y577622D01*
X428311D01*
Y577753D01*
X428443D01*
Y577885D01*
X428706D01*
Y578017D01*
X428969D01*
Y578148D01*
X429100D01*
Y578279D01*
X429364D01*
Y578411D01*
X429495D01*
Y578543D01*
X429758D01*
Y578674D01*
X429889D01*
Y578806D01*
X430153D01*
Y578937D01*
X430416D01*
Y579069D01*
X430547D01*
Y579200D01*
X430810D01*
Y579332D01*
X430942D01*
Y579463D01*
X431205D01*
Y579595D01*
X431336D01*
Y579726D01*
X431599D01*
Y579858D01*
X431731D01*
Y579989D01*
X431994D01*
Y580121D01*
X432257D01*
Y580252D01*
X432388D01*
Y580384D01*
X432651D01*
Y580515D01*
X432783D01*
Y580647D01*
X433046D01*
Y580778D01*
X433177D01*
Y580910D01*
X433309D01*
Y581041D01*
X433177D01*
Y581173D01*
X432915D01*
Y581304D01*
X432783D01*
Y581436D01*
X432520D01*
Y581567D01*
X432257D01*
Y581699D01*
X432125D01*
Y581830D01*
X431862D01*
Y581962D01*
X431731D01*
Y582094D01*
X431468D01*
Y582225D01*
X431336D01*
Y582357D01*
X431073D01*
Y582488D01*
X430810D01*
Y582620D01*
X430679D01*
Y582751D01*
X430416D01*
Y582883D01*
X430284D01*
Y583014D01*
X430021D01*
Y583146D01*
X429889D01*
Y583277D01*
X429627D01*
Y583409D01*
X429364D01*
Y583540D01*
X429232D01*
Y583672D01*
X428969D01*
Y583803D01*
X428837D01*
Y583935D01*
X428574D01*
Y584066D01*
X428443D01*
Y584198D01*
X428180D01*
Y584329D01*
X427917D01*
Y584461D01*
X427785D01*
Y584592D01*
X427522D01*
Y584724D01*
X427391D01*
Y584855D01*
X427128D01*
Y584987D01*
X426996D01*
Y585118D01*
X426733D01*
Y585250D01*
X426602D01*
Y585382D01*
X426339D01*
Y585513D01*
X426076D01*
Y585644D01*
X425944D01*
Y585776D01*
X425681D01*
Y585908D01*
X425550D01*
Y586039D01*
X425286D01*
Y586171D01*
X425155D01*
Y586302D01*
X424892D01*
Y586434D01*
X424629D01*
Y586565D01*
X424497D01*
Y586697D01*
X424234D01*
Y586828D01*
X424103D01*
Y586960D01*
X423840D01*
Y587091D01*
X423708D01*
Y587223D01*
X423445D01*
Y587354D01*
X423182D01*
Y587486D01*
X423051D01*
Y587617D01*
X422788D01*
Y587749D01*
X422656D01*
Y587880D01*
X422393D01*
Y588012D01*
X422262D01*
Y588143D01*
X421998D01*
Y588275D01*
X421867D01*
Y588406D01*
X421604D01*
Y588538D01*
X421341D01*
Y588669D01*
X421209D01*
Y588801D01*
X420946D01*
Y588932D01*
X420815D01*
Y589064D01*
X420552D01*
Y589196D01*
X420420D01*
Y589327D01*
X420157D01*
Y589459D01*
X419894D01*
Y589590D01*
X419763D01*
Y589722D01*
X419500D01*
Y589853D01*
X419368D01*
Y589985D01*
X419105D01*
Y590116D01*
X418974D01*
Y590248D01*
X418711D01*
Y590379D01*
X418579D01*
Y590511D01*
X418316D01*
Y590642D01*
X418053D01*
Y590774D01*
X417921D01*
Y590905D01*
X417658D01*
Y591168D01*
X417921D01*
Y591300D01*
X418053D01*
Y591431D01*
X418316D01*
Y591563D01*
X418579D01*
Y591694D01*
X418711D01*
Y591826D01*
X418974D01*
Y591957D01*
X419105D01*
Y592089D01*
X419368D01*
Y592220D01*
X419500D01*
Y592352D01*
X419763D01*
Y592483D01*
X420026D01*
Y592615D01*
X420157D01*
Y592747D01*
X420420D01*
Y592878D01*
X420552D01*
Y593009D01*
X420815D01*
Y593141D01*
X420946D01*
Y593273D01*
X421209D01*
Y593404D01*
X421341D01*
Y593536D01*
X421604D01*
Y593667D01*
X421867D01*
Y593799D01*
X421998D01*
Y593930D01*
X422262D01*
Y594062D01*
X422393D01*
Y594193D01*
X422656D01*
Y594325D01*
X422788D01*
Y594456D01*
X423051D01*
Y594588D01*
X423314D01*
Y594719D01*
X423445D01*
Y594851D01*
X423708D01*
Y594982D01*
X423840D01*
Y595114D01*
X424103D01*
Y595245D01*
X424234D01*
Y595377D01*
X424497D01*
Y595508D01*
X424760D01*
Y595640D01*
X424892D01*
Y595771D01*
X425155D01*
Y595903D01*
X425286D01*
Y596034D01*
X425550D01*
Y596166D01*
X425681D01*
Y596297D01*
X425944D01*
Y596429D01*
X426207D01*
Y596561D01*
X426339D01*
Y596692D01*
X426602D01*
Y596824D01*
X426733D01*
Y596955D01*
X426996D01*
Y597086D01*
X427128D01*
Y597218D01*
X427391D01*
Y597350D01*
X427522D01*
Y597481D01*
X427785D01*
Y597613D01*
X428048D01*
Y597744D01*
X428180D01*
Y597876D01*
X428443D01*
Y598007D01*
X428574D01*
Y598139D01*
X428837D01*
Y598270D01*
X428969D01*
Y598402D01*
X429232D01*
Y598533D01*
X429495D01*
Y598665D01*
X429627D01*
Y598796D01*
X429889D01*
Y598928D01*
X430021D01*
Y599059D01*
X430284D01*
Y599191D01*
X430416D01*
Y599322D01*
X430679D01*
Y599454D01*
X430810D01*
Y599585D01*
X431073D01*
Y599717D01*
X431336D01*
Y599848D01*
X431468D01*
Y599980D01*
X431731D01*
Y600111D01*
X431862D01*
Y600243D01*
X432125D01*
Y600374D01*
X432257D01*
Y600506D01*
X432520D01*
Y600638D01*
X432783D01*
Y600769D01*
X432915D01*
Y600901D01*
X433177D01*
Y601032D01*
X433309D01*
Y601164D01*
X433177D01*
Y601295D01*
X433046D01*
Y601427D01*
X432783D01*
Y601558D01*
X432651D01*
Y601690D01*
X432388D01*
Y601821D01*
X432257D01*
Y601953D01*
X431994D01*
Y602084D01*
X431731D01*
Y602216D01*
X431599D01*
Y602347D01*
X431336D01*
Y602479D01*
X431205D01*
Y602610D01*
X430942D01*
Y602742D01*
X430810D01*
Y602873D01*
X430547D01*
Y603005D01*
X430416D01*
Y603136D01*
X430153D01*
Y603268D01*
X429889D01*
Y603399D01*
X429758D01*
Y603531D01*
X429495D01*
Y603662D01*
X429364D01*
Y603794D01*
X429100D01*
Y603925D01*
X428969D01*
Y604057D01*
X428706D01*
Y604188D01*
X428443D01*
Y604320D01*
X428311D01*
Y604451D01*
X428048D01*
Y604583D01*
X427917D01*
Y604715D01*
X427654D01*
Y604846D01*
X427522D01*
Y604978D01*
X427259D01*
Y605109D01*
X426996D01*
Y605241D01*
X426865D01*
Y605372D01*
X426602D01*
Y605504D01*
X426470D01*
Y605635D01*
X426207D01*
Y605767D01*
X426076D01*
Y605898D01*
X425812D01*
Y606030D01*
X425550D01*
Y606161D01*
X425418D01*
Y606293D01*
X425155D01*
Y606424D01*
X425023D01*
Y606556D01*
X424760D01*
Y606687D01*
X424629D01*
Y606819D01*
X424366D01*
Y606950D01*
X424234D01*
Y607082D01*
X423971D01*
Y607213D01*
X423708D01*
Y607345D01*
X423577D01*
Y607476D01*
X423314D01*
Y607608D01*
X423182D01*
Y607739D01*
X422919D01*
Y607871D01*
X422788D01*
Y608003D01*
X422525D01*
Y608134D01*
X422262D01*
Y608265D01*
X422130D01*
Y608397D01*
X421867D01*
Y608529D01*
X421735D01*
Y608660D01*
X421472D01*
Y608792D01*
X421341D01*
Y608923D01*
X421078D01*
Y609055D01*
X420946D01*
Y609186D01*
X420683D01*
Y609318D01*
X420420D01*
Y609449D01*
X420289D01*
Y609581D01*
X420026D01*
Y609712D01*
X419894D01*
Y609844D01*
X419631D01*
Y609975D01*
X419500D01*
Y610107D01*
X419237D01*
Y610238D01*
X418974D01*
Y610370D01*
X418842D01*
Y610501D01*
X418579D01*
Y610633D01*
X418447D01*
Y610764D01*
X418185D01*
Y610896D01*
X418053D01*
Y611027D01*
X417790D01*
Y611159D01*
X417527D01*
Y611290D01*
X417790D01*
Y611422D01*
X418053D01*
Y611553D01*
X418185D01*
Y611685D01*
X418447D01*
Y611816D01*
X418579D01*
Y611948D01*
X418842D01*
Y612080D01*
X418974D01*
Y612211D01*
X419237D01*
Y612343D01*
X419500D01*
Y612474D01*
X419631D01*
Y612606D01*
X419894D01*
Y612737D01*
X420026D01*
Y612869D01*
X420289D01*
Y613000D01*
X420420D01*
Y613132D01*
X420683D01*
Y613263D01*
X420946D01*
Y613395D01*
X421078D01*
Y613526D01*
X421341D01*
Y613658D01*
X421472D01*
Y613789D01*
X421735D01*
Y613921D01*
X421867D01*
Y614052D01*
X422130D01*
Y614184D01*
X422393D01*
Y614315D01*
X422525D01*
Y614447D01*
X422788D01*
Y614578D01*
X422919D01*
Y614710D01*
X423182D01*
Y614841D01*
X423314D01*
Y614973D01*
X423577D01*
Y615104D01*
X423840D01*
Y615236D01*
X423971D01*
Y615368D01*
X424234D01*
Y615499D01*
X424366D01*
Y615630D01*
X424629D01*
Y615762D01*
X424760D01*
Y615894D01*
X425023D01*
Y616025D01*
X425155D01*
Y616157D01*
X425418D01*
Y616288D01*
X425681D01*
Y616420D01*
X425812D01*
Y616551D01*
X426076D01*
Y616683D01*
X426207D01*
Y616814D01*
X426470D01*
Y616946D01*
X426602D01*
Y617077D01*
X426865D01*
Y617209D01*
X427128D01*
Y617340D01*
X427259D01*
Y617472D01*
X427522D01*
Y617603D01*
X427654D01*
Y617735D01*
X427917D01*
Y617866D01*
X428048D01*
Y617998D01*
X428311D01*
Y618129D01*
X428443D01*
Y618261D01*
X428706D01*
Y618392D01*
X428969D01*
Y618524D01*
X429100D01*
Y618655D01*
X429364D01*
Y618787D01*
X429495D01*
Y618918D01*
X429758D01*
Y619050D01*
X429889D01*
Y619182D01*
X430153D01*
Y619313D01*
X430416D01*
Y619445D01*
X430547D01*
Y619576D01*
X430810D01*
Y619707D01*
X430942D01*
Y619839D01*
X431205D01*
Y619971D01*
X431336D01*
Y620102D01*
X431599D01*
Y620234D01*
X431862D01*
Y620365D01*
X431994D01*
Y620497D01*
X432257D01*
Y620628D01*
X432388D01*
Y620760D01*
X432651D01*
Y620891D01*
X432783D01*
Y621023D01*
X433046D01*
Y621154D01*
X433177D01*
Y621286D01*
X433309D01*
Y621417D01*
X433177D01*
Y621549D01*
X432915D01*
Y621680D01*
X432783D01*
Y621812D01*
X432520D01*
Y621943D01*
X432257D01*
Y622075D01*
X432125D01*
Y622206D01*
X431862D01*
Y622338D01*
X431731D01*
Y622469D01*
X431468D01*
Y622601D01*
X431336D01*
Y622732D01*
X431073D01*
Y622864D01*
X430810D01*
Y622995D01*
X430679D01*
Y623127D01*
X430416D01*
Y623259D01*
X430284D01*
Y623390D01*
X430021D01*
Y623521D01*
X429889D01*
Y623653D01*
X429627D01*
Y623785D01*
X429495D01*
Y623916D01*
X429232D01*
Y624048D01*
X428969D01*
Y624179D01*
X428837D01*
Y624311D01*
X428574D01*
Y624442D01*
X428443D01*
Y624574D01*
X428180D01*
Y624705D01*
X428048D01*
Y624837D01*
X427785D01*
Y624968D01*
X427654D01*
Y625100D01*
X427391D01*
Y625231D01*
X427128D01*
Y625363D01*
X426996D01*
Y625494D01*
X426733D01*
Y625626D01*
X426602D01*
Y625757D01*
X426339D01*
Y625889D01*
X426207D01*
Y626020D01*
X425944D01*
Y626152D01*
X425681D01*
Y626283D01*
X425550D01*
Y626415D01*
X425286D01*
Y626546D01*
X425155D01*
Y626678D01*
X424892D01*
Y626810D01*
X424760D01*
Y626941D01*
X424497D01*
Y627072D01*
X424366D01*
Y627204D01*
X424103D01*
Y627336D01*
X423840D01*
Y627467D01*
X423708D01*
Y627599D01*
X423445D01*
Y627730D01*
X423314D01*
Y627862D01*
X423051D01*
Y627993D01*
X422919D01*
Y628125D01*
X422656D01*
Y628256D01*
X422525D01*
Y628388D01*
X422262D01*
Y628519D01*
X421998D01*
Y628651D01*
X421867D01*
Y628782D01*
X421604D01*
Y628914D01*
X421472D01*
Y629045D01*
X421209D01*
Y629177D01*
X421078D01*
Y629308D01*
X420815D01*
Y629440D01*
X420552D01*
Y629571D01*
X420420D01*
Y629703D01*
X420157D01*
Y629834D01*
X420026D01*
Y629966D01*
X419763D01*
Y630097D01*
X419631D01*
Y630229D01*
X419368D01*
Y630360D01*
X419237D01*
Y630492D01*
X418974D01*
Y630624D01*
X418711D01*
Y630755D01*
X418579D01*
Y630886D01*
X418316D01*
Y631018D01*
X418185D01*
Y631150D01*
X417921D01*
Y631281D01*
X417790D01*
Y631413D01*
X417658D01*
Y631544D01*
X417790D01*
Y631676D01*
X418053D01*
Y631807D01*
X418316D01*
Y631939D01*
X418447D01*
Y632070D01*
X418711D01*
Y632202D01*
X418842D01*
Y632333D01*
X419105D01*
Y632465D01*
X419237D01*
Y632596D01*
X419500D01*
Y632728D01*
X419763D01*
Y632859D01*
X419894D01*
Y632991D01*
X420157D01*
Y633122D01*
X420289D01*
Y633254D01*
X420552D01*
Y633385D01*
X420683D01*
Y633517D01*
X420946D01*
Y633648D01*
X421078D01*
Y633780D01*
X421341D01*
Y633911D01*
X421604D01*
Y634043D01*
X421735D01*
Y634174D01*
X421998D01*
Y634306D01*
X422130D01*
Y634437D01*
X422393D01*
Y634569D01*
X422525D01*
Y634701D01*
X422788D01*
Y634832D01*
X423051D01*
Y634964D01*
X423182D01*
Y635095D01*
X423445D01*
Y635227D01*
X423577D01*
Y635358D01*
X423840D01*
Y635490D01*
X423971D01*
Y635621D01*
X424234D01*
Y635753D01*
X424366D01*
Y635884D01*
X424629D01*
Y636016D01*
X424892D01*
Y636147D01*
X425023D01*
Y636279D01*
X425286D01*
Y636410D01*
X425418D01*
Y636542D01*
X425681D01*
Y636673D01*
X425812D01*
Y636805D01*
X426076D01*
Y636936D01*
X426339D01*
Y637068D01*
X426470D01*
Y637199D01*
X426733D01*
Y637331D01*
X426865D01*
Y637462D01*
X427128D01*
Y637594D01*
X427259D01*
Y637725D01*
X427522D01*
Y637857D01*
X427654D01*
Y637989D01*
X427917D01*
Y638120D01*
X428180D01*
Y638251D01*
X428311D01*
Y638383D01*
X428574D01*
Y638515D01*
X428706D01*
Y638646D01*
X428969D01*
Y638778D01*
X429100D01*
Y638909D01*
X429364D01*
Y639041D01*
X429627D01*
Y639172D01*
X429758D01*
Y639304D01*
X430021D01*
Y639435D01*
X430153D01*
Y639567D01*
X430416D01*
Y639698D01*
X430547D01*
Y639830D01*
X430810D01*
Y639961D01*
X430942D01*
Y640093D01*
X431205D01*
Y640224D01*
X431468D01*
Y640356D01*
X431599D01*
Y640487D01*
X431862D01*
Y640619D01*
X431994D01*
Y640750D01*
X432257D01*
Y640882D01*
X432388D01*
Y641013D01*
X432651D01*
Y641145D01*
X432783D01*
Y641276D01*
X433046D01*
Y641408D01*
X433309D01*
Y641671D01*
X433046D01*
Y641803D01*
X432783D01*
Y641934D01*
X432651D01*
Y642066D01*
X432388D01*
Y642197D01*
X432257D01*
Y642329D01*
X431994D01*
Y642460D01*
X431862D01*
Y642592D01*
X431599D01*
Y642723D01*
X431468D01*
Y642855D01*
X431205D01*
Y642986D01*
X430942D01*
Y643118D01*
X430810D01*
Y643249D01*
X430547D01*
Y643381D01*
X430416D01*
Y643512D01*
X430153D01*
Y643644D01*
X430021D01*
Y643775D01*
X429758D01*
Y643907D01*
X429495D01*
Y644038D01*
X429364D01*
Y644170D01*
X429100D01*
Y644301D01*
X428969D01*
Y644433D01*
X428706D01*
Y644564D01*
X428574D01*
Y644696D01*
X428311D01*
Y644827D01*
X428180D01*
Y644959D01*
X427917D01*
Y645090D01*
X427654D01*
Y645222D01*
X427522D01*
Y645353D01*
X427259D01*
Y645485D01*
X427128D01*
Y645617D01*
X426865D01*
Y645748D01*
X426733D01*
Y645880D01*
X426470D01*
Y646011D01*
X426207D01*
Y646143D01*
X426076D01*
Y646274D01*
X425812D01*
Y646406D01*
X425681D01*
Y646537D01*
X425418D01*
Y646669D01*
X425286D01*
Y646800D01*
X425023D01*
Y646932D01*
X424760D01*
Y647063D01*
X424629D01*
Y647195D01*
X424366D01*
Y647326D01*
X424234D01*
Y647458D01*
X423971D01*
Y647589D01*
X423840D01*
Y647721D01*
X423577D01*
Y647852D01*
X423445D01*
Y647984D01*
X423182D01*
Y648115D01*
X422919D01*
Y648247D01*
X422788D01*
Y648378D01*
X422525D01*
Y648510D01*
X422393D01*
Y648641D01*
X422130D01*
Y648773D01*
X421998D01*
Y648904D01*
X421735D01*
Y649036D01*
X421604D01*
Y649167D01*
X421341D01*
Y649299D01*
X421078D01*
Y649430D01*
X420946D01*
Y649562D01*
X420683D01*
Y649694D01*
X420552D01*
Y649825D01*
X420289D01*
Y649957D01*
X420157D01*
Y650088D01*
X419894D01*
Y650220D01*
X419631D01*
Y650351D01*
X419500D01*
Y650483D01*
X419237D01*
Y650614D01*
X419105D01*
Y650746D01*
X418842D01*
Y650877D01*
X418711D01*
Y651009D01*
X418447D01*
Y651140D01*
X418316D01*
Y651272D01*
X418053D01*
Y651403D01*
X417790D01*
Y651535D01*
X417658D01*
Y651666D01*
X417790D01*
Y651798D01*
X417921D01*
Y651929D01*
X418185D01*
Y652061D01*
X418316D01*
Y652192D01*
X418579D01*
Y652324D01*
X418842D01*
Y652455D01*
X418974D01*
Y652587D01*
X419237D01*
Y652718D01*
X419368D01*
Y652850D01*
X419631D01*
Y652981D01*
X419763D01*
Y653113D01*
X420026D01*
Y653244D01*
X420157D01*
Y653376D01*
X420420D01*
Y653508D01*
X420683D01*
Y653639D01*
X420815D01*
Y653771D01*
X421078D01*
Y653902D01*
X421209D01*
Y654034D01*
X421472D01*
Y654165D01*
X421604D01*
Y654297D01*
X421867D01*
Y654428D01*
X422130D01*
Y654560D01*
X422262D01*
Y654691D01*
X422525D01*
Y654823D01*
X422656D01*
Y654954D01*
X422919D01*
Y655086D01*
X423051D01*
Y655217D01*
X423314D01*
Y655349D01*
X423577D01*
Y655480D01*
X423708D01*
Y655612D01*
X423971D01*
Y655743D01*
X424103D01*
Y655875D01*
X424366D01*
Y656006D01*
X424497D01*
Y656138D01*
X424760D01*
Y656269D01*
X424892D01*
Y656401D01*
X425155D01*
Y656532D01*
X425418D01*
Y656664D01*
X425550D01*
Y656796D01*
X425812D01*
Y656927D01*
X425944D01*
Y657058D01*
X426207D01*
Y657190D01*
X426339D01*
Y657321D01*
X426602D01*
Y657453D01*
X426865D01*
Y657585D01*
X426996D01*
Y657716D01*
X427259D01*
Y657848D01*
X427391D01*
Y657979D01*
X427522D01*
Y714137D01*
X429889D01*
Y716504D01*
X496964D01*
Y716636D01*
X499331D01*
Y716504D01*
X579030D01*
Y729919D01*
X583765D01*
Y718477D01*
X584028D01*
Y718609D01*
X584160D01*
Y718740D01*
X584423D01*
Y718872D01*
X584554D01*
Y719003D01*
X584817D01*
Y719135D01*
X585080D01*
Y719266D01*
X585212D01*
Y719398D01*
X585475D01*
Y719529D01*
X585606D01*
Y719661D01*
X585869D01*
Y719792D01*
X586132D01*
Y719924D01*
X586264D01*
Y720055D01*
X586527D01*
Y720187D01*
X586658D01*
Y720318D01*
X586921D01*
Y720450D01*
X587184D01*
Y720582D01*
X587316D01*
Y720713D01*
X587579D01*
Y720844D01*
X587710D01*
Y720976D01*
X587974D01*
Y721107D01*
X588237D01*
Y721239D01*
X588368D01*
Y721371D01*
X588631D01*
Y721502D01*
X588763D01*
Y721634D01*
X589026D01*
Y721765D01*
X589289D01*
Y721897D01*
X589420D01*
Y722028D01*
X589683D01*
Y722160D01*
X589815D01*
Y722291D01*
X590078D01*
Y722423D01*
X590341D01*
Y722554D01*
X590472D01*
Y722686D01*
X590735D01*
Y722817D01*
X590867D01*
Y722949D01*
X591130D01*
Y723080D01*
X591393D01*
Y723212D01*
X591525D01*
Y723343D01*
X591788D01*
Y723475D01*
X591919D01*
Y723606D01*
X592182D01*
Y723738D01*
X592445D01*
Y723869D01*
X592577D01*
Y724001D01*
X592840D01*
Y724132D01*
X592971D01*
Y724264D01*
X593234D01*
Y724396D01*
X593497D01*
Y724527D01*
X593629D01*
Y724659D01*
X593892D01*
Y724790D01*
X594023D01*
Y724921D01*
X594286D01*
Y725053D01*
X594549D01*
Y725185D01*
X594681D01*
Y725316D01*
X594944D01*
Y725448D01*
X595075D01*
Y725579D01*
X595339D01*
Y725711D01*
X595602D01*
Y725842D01*
X595733D01*
Y725974D01*
X595996D01*
Y726105D01*
X596128D01*
Y726237D01*
X596391D01*
Y726368D01*
X596654D01*
Y726500D01*
X596785D01*
Y726631D01*
X597048D01*
Y726763D01*
X597180D01*
Y726894D01*
X597443D01*
Y727026D01*
X597706D01*
Y727157D01*
X597837D01*
Y727289D01*
X598100D01*
Y727420D01*
X598232D01*
Y727552D01*
X598495D01*
Y727683D01*
X598758D01*
Y727815D01*
X598890D01*
Y727946D01*
X599152D01*
Y728078D01*
X599284D01*
Y728210D01*
X599547D01*
Y728341D01*
X599810D01*
Y728473D01*
X599942D01*
Y728604D01*
X600205D01*
Y728736D01*
X600336D01*
Y728867D01*
X600599D01*
Y728999D01*
X600862D01*
Y729130D01*
X600994D01*
Y729262D01*
X601257D01*
Y729393D01*
X601388D01*
Y729525D01*
X601651D01*
Y729656D01*
X601914D01*
Y729788D01*
X602046D01*
Y729919D01*
X602309D01*
Y730051D01*
X602440D01*
Y730182D01*
X602704D01*
Y730314D01*
X602967D01*
Y730445D01*
X603098D01*
Y730577D01*
X603361D01*
Y730708D01*
X603493D01*
Y730840D01*
X603756D01*
Y730971D01*
X604019D01*
Y731103D01*
X604150D01*
Y731234D01*
X604413D01*
Y731366D01*
X604545D01*
Y731497D01*
X604808D01*
Y731629D01*
X605071D01*
Y731760D01*
X605202D01*
Y731892D01*
X605465D01*
Y732023D01*
X605597D01*
Y732155D01*
X605860D01*
Y732287D01*
X606123D01*
Y732418D01*
X606255D01*
Y732550D01*
X606517D01*
Y732681D01*
X606649D01*
Y732813D01*
X606912D01*
Y732944D01*
X607175D01*
Y733076D01*
X607307D01*
Y733207D01*
X607570D01*
Y733339D01*
X607701D01*
Y733470D01*
X607964D01*
Y733602D01*
X608227D01*
Y733733D01*
X608359D01*
Y733865D01*
X608622D01*
Y733996D01*
X608753D01*
Y734128D01*
X609016D01*
Y716504D01*
X655837D01*
Y716636D01*
X662675D01*
Y839605D01*
X863108D01*
Y853020D01*
X867843D01*
Y841578D01*
X868106D01*
Y841709D01*
X868237D01*
Y841841D01*
X868500D01*
Y841972D01*
X868632D01*
Y842104D01*
X868895D01*
Y842235D01*
X869158D01*
Y842367D01*
X869289D01*
Y842498D01*
X869553D01*
Y842630D01*
X869684D01*
Y842761D01*
X869947D01*
Y842893D01*
X870210D01*
Y843024D01*
X870342D01*
Y843156D01*
X870605D01*
Y843287D01*
X870736D01*
Y843419D01*
X870999D01*
Y843550D01*
X871262D01*
Y843682D01*
X871394D01*
Y843813D01*
X871657D01*
Y843945D01*
X871788D01*
Y844076D01*
X872051D01*
Y844208D01*
X872314D01*
Y844339D01*
X872446D01*
Y844471D01*
X872709D01*
Y844603D01*
X872840D01*
Y844734D01*
X873103D01*
Y844865D01*
X873367D01*
Y844997D01*
X873498D01*
Y845128D01*
X873761D01*
Y845260D01*
X873893D01*
Y845392D01*
X874156D01*
Y845523D01*
X874419D01*
Y845655D01*
X874550D01*
Y845786D01*
X874813D01*
Y845918D01*
X874945D01*
Y846049D01*
X875208D01*
Y846181D01*
X875471D01*
Y846312D01*
X875602D01*
Y846444D01*
X875865D01*
Y846575D01*
X875997D01*
Y846707D01*
X876260D01*
Y846838D01*
X876523D01*
Y846970D01*
X876655D01*
Y847101D01*
X876917D01*
Y847233D01*
X877049D01*
Y847364D01*
X877312D01*
Y847496D01*
X877575D01*
Y847627D01*
X877707D01*
Y847759D01*
X877970D01*
Y847890D01*
X878101D01*
Y848022D01*
X878364D01*
Y848153D01*
X878627D01*
Y848285D01*
X878759D01*
Y848417D01*
X879022D01*
Y848548D01*
X879153D01*
Y848680D01*
X879416D01*
Y848811D01*
X879679D01*
Y848942D01*
X879811D01*
Y849074D01*
X880074D01*
Y849206D01*
X880206D01*
Y849337D01*
X880469D01*
Y849469D01*
X880732D01*
Y849600D01*
X880863D01*
Y849732D01*
X881126D01*
Y849863D01*
X881258D01*
Y849995D01*
X881521D01*
Y850126D01*
X881784D01*
Y850258D01*
X881915D01*
Y850389D01*
X882178D01*
Y850521D01*
X882310D01*
Y850652D01*
X882573D01*
Y850784D01*
X882836D01*
Y850915D01*
X882967D01*
Y851047D01*
X883230D01*
Y851178D01*
X883362D01*
Y851310D01*
X883625D01*
Y851441D01*
X883888D01*
Y851573D01*
X884019D01*
Y851704D01*
X884283D01*
Y851836D01*
X884414D01*
Y851967D01*
X884677D01*
Y852099D01*
X884940D01*
Y852231D01*
X885072D01*
Y852362D01*
X885335D01*
Y852494D01*
X885466D01*
Y852625D01*
X885729D01*
Y852757D01*
X885992D01*
Y852888D01*
X886124D01*
Y853020D01*
X886387D01*
Y853151D01*
X886518D01*
Y853283D01*
X886781D01*
Y853414D01*
X887044D01*
Y853546D01*
X887176D01*
Y853677D01*
X887439D01*
Y853809D01*
X887570D01*
Y853940D01*
X887833D01*
Y854072D01*
X888096D01*
Y854203D01*
X888228D01*
Y854335D01*
X888491D01*
Y854466D01*
X888623D01*
Y854598D01*
X888886D01*
Y854729D01*
X889149D01*
Y854861D01*
X889280D01*
Y854992D01*
X889543D01*
Y855124D01*
X889675D01*
Y855255D01*
X889938D01*
Y855387D01*
X890201D01*
Y855518D01*
X890332D01*
Y855650D01*
X890595D01*
Y855781D01*
X890727D01*
Y855913D01*
X890990D01*
Y856044D01*
X891253D01*
Y856176D01*
X891385D01*
Y856308D01*
X891647D01*
Y856439D01*
X891779D01*
Y856571D01*
X892042D01*
Y856702D01*
X892305D01*
Y856834D01*
X892437D01*
Y856965D01*
X892700D01*
Y857097D01*
X892831D01*
Y857228D01*
X893094D01*
Y839605D01*
D02*
G37*
G36*
X588631Y762010D02*
X589552D01*
Y761878D01*
X590209D01*
Y761746D01*
X590735D01*
Y761615D01*
X591130D01*
Y761483D01*
X591656D01*
Y761352D01*
X591919D01*
Y758327D01*
X591525D01*
Y758458D01*
X591261D01*
Y758590D01*
X590998D01*
Y758721D01*
X590604D01*
Y758853D01*
X590341D01*
Y758985D01*
X589946D01*
Y759116D01*
X589420D01*
Y759248D01*
X588763D01*
Y759379D01*
X586790D01*
Y759248D01*
X586264D01*
Y759116D01*
X586001D01*
Y758985D01*
X585738D01*
Y758853D01*
X585606D01*
Y758721D01*
X585475D01*
Y758458D01*
X585343D01*
Y757538D01*
X585475D01*
Y757275D01*
X585606D01*
Y757012D01*
X585869D01*
Y756880D01*
X586001D01*
Y756749D01*
X586264D01*
Y756617D01*
X586921D01*
Y756486D01*
X589157D01*
Y754118D01*
X586658D01*
Y753987D01*
X586132D01*
Y753855D01*
X585738D01*
Y753724D01*
X585606D01*
Y753592D01*
X585475D01*
Y753461D01*
X585343D01*
Y753329D01*
X585212D01*
Y752803D01*
X585080D01*
Y752277D01*
X585212D01*
Y751751D01*
X585343D01*
Y751488D01*
X585475D01*
Y751357D01*
X585606D01*
Y751225D01*
X585738D01*
Y751094D01*
X585869D01*
Y750962D01*
X586132D01*
Y750831D01*
X586395D01*
Y750699D01*
X587053D01*
Y750567D01*
X588894D01*
Y750699D01*
X589552D01*
Y750831D01*
X590078D01*
Y750962D01*
X590472D01*
Y751094D01*
X590867D01*
Y751225D01*
X591130D01*
Y751357D01*
X591393D01*
Y751488D01*
X591656D01*
Y751620D01*
X591919D01*
Y751751D01*
X592445D01*
Y748726D01*
X592314D01*
Y748595D01*
X592051D01*
Y748463D01*
X591656D01*
Y748332D01*
X591130D01*
Y748200D01*
X590604D01*
Y748069D01*
X590078D01*
Y747937D01*
X589026D01*
Y747806D01*
X586132D01*
Y747937D01*
X585343D01*
Y748069D01*
X584817D01*
Y748200D01*
X584423D01*
Y748332D01*
X584160D01*
Y748463D01*
X583896D01*
Y748595D01*
X583633D01*
Y748726D01*
X583371D01*
Y748858D01*
X583239D01*
Y748989D01*
X583107D01*
Y749121D01*
X582844D01*
Y749252D01*
X582713D01*
Y749384D01*
X582581D01*
Y749515D01*
X582450D01*
Y749647D01*
X582318D01*
Y749910D01*
X582187D01*
Y750041D01*
X582055D01*
Y750304D01*
X581924D01*
Y750567D01*
X581792D01*
Y750962D01*
X581661D01*
Y751488D01*
X581529D01*
Y752935D01*
X581661D01*
Y753461D01*
X581792D01*
Y753724D01*
X581924D01*
Y753987D01*
X582055D01*
Y754118D01*
X582187D01*
Y754250D01*
X582318D01*
Y754381D01*
X582450D01*
Y754513D01*
X582581D01*
Y754644D01*
X582713D01*
Y754776D01*
X582976D01*
Y754908D01*
X583107D01*
Y755039D01*
X583502D01*
Y755171D01*
X583896D01*
Y755302D01*
X584423D01*
Y755565D01*
X584028D01*
Y755697D01*
X583765D01*
Y755828D01*
X583502D01*
Y755960D01*
X583239D01*
Y756091D01*
X583107D01*
Y756223D01*
X582976D01*
Y756354D01*
X582844D01*
Y756486D01*
X582713D01*
Y756617D01*
X582581D01*
Y756749D01*
X582450D01*
Y757012D01*
X582318D01*
Y757143D01*
X582187D01*
Y757538D01*
X582055D01*
Y757932D01*
X581924D01*
Y759511D01*
X582055D01*
Y759905D01*
X582187D01*
Y760168D01*
X582318D01*
Y760431D01*
X582450D01*
Y760563D01*
X582581D01*
Y760694D01*
X582713D01*
Y760826D01*
X582844D01*
Y760957D01*
X582976D01*
Y761089D01*
X583107D01*
Y761220D01*
X583371D01*
Y761352D01*
X583633D01*
Y761483D01*
X583896D01*
Y761615D01*
X584160D01*
Y761746D01*
X584554D01*
Y761878D01*
X585212D01*
Y762010D01*
X586001D01*
Y762141D01*
X588631D01*
Y762010D01*
D02*
G37*
G36*
X1142451Y748069D02*
X1132456D01*
Y750699D01*
X1138900D01*
Y761878D01*
X1142451D01*
Y748069D01*
D02*
G37*
G36*
X1126275Y761746D02*
X1126406D01*
Y761220D01*
X1126538D01*
Y760957D01*
X1126669D01*
Y760826D01*
X1126801D01*
Y760694D01*
X1126932D01*
Y760563D01*
X1127064D01*
Y760431D01*
X1127327D01*
Y760300D01*
X1127721D01*
Y760168D01*
X1128379D01*
Y760037D01*
X1129563D01*
Y757801D01*
X1126669D01*
Y750436D01*
X1129563D01*
Y748069D01*
X1120488D01*
Y750436D01*
X1123250D01*
Y761878D01*
X1126275D01*
Y761746D01*
D02*
G37*
G36*
X607701Y748069D02*
X601257D01*
Y748200D01*
X600205D01*
Y748332D01*
X599547D01*
Y748463D01*
X599152D01*
Y748595D01*
X598758D01*
Y748726D01*
X598495D01*
Y748858D01*
X598232D01*
Y748989D01*
X597969D01*
Y749121D01*
X597706D01*
Y749252D01*
X597574D01*
Y749384D01*
X597311D01*
Y749515D01*
X597180D01*
Y749647D01*
X597048D01*
Y749778D01*
X596785D01*
Y749910D01*
X596654D01*
Y750041D01*
X596522D01*
Y750173D01*
X596391D01*
Y750436D01*
X596259D01*
Y750567D01*
X596128D01*
Y750699D01*
X595996D01*
Y750831D01*
X595865D01*
Y751094D01*
X595733D01*
Y751225D01*
X595602D01*
Y751488D01*
X595470D01*
Y751751D01*
X595339D01*
Y752014D01*
X595207D01*
Y752277D01*
X595075D01*
Y752672D01*
X594944D01*
Y753066D01*
X594813D01*
Y753724D01*
X594681D01*
Y756354D01*
X594813D01*
Y757012D01*
X594944D01*
Y757406D01*
X595075D01*
Y757801D01*
X595207D01*
Y758064D01*
X595339D01*
Y758327D01*
X595470D01*
Y758590D01*
X595602D01*
Y758721D01*
X595733D01*
Y758985D01*
X595865D01*
Y759116D01*
X595996D01*
Y759379D01*
X596128D01*
Y759511D01*
X596259D01*
Y759642D01*
X596391D01*
Y759774D01*
X596522D01*
Y759905D01*
X596654D01*
Y760037D01*
X596785D01*
Y760168D01*
X596917D01*
Y760300D01*
X597048D01*
Y760431D01*
X597311D01*
Y760563D01*
X597443D01*
Y760694D01*
X597706D01*
Y760826D01*
X597837D01*
Y760957D01*
X598100D01*
Y761089D01*
X598363D01*
Y761220D01*
X598758D01*
Y761352D01*
X599152D01*
Y761483D01*
X599547D01*
Y761615D01*
X600205D01*
Y761746D01*
X601125D01*
Y761878D01*
X607701D01*
Y748069D01*
D02*
G37*
G36*
X541942Y624705D02*
X542863D01*
Y624574D01*
X543521D01*
Y624442D01*
X544047D01*
Y624311D01*
X544441D01*
Y624179D01*
X544836D01*
Y624048D01*
X545230D01*
Y620891D01*
X544836D01*
Y621023D01*
X544704D01*
Y621154D01*
X544441D01*
Y621286D01*
X544178D01*
Y621417D01*
X543915D01*
Y621549D01*
X543521D01*
Y621680D01*
X543258D01*
Y621812D01*
X542863D01*
Y621943D01*
X542206D01*
Y622075D01*
X540627D01*
Y621943D01*
X540233D01*
Y621812D01*
X539970D01*
Y621680D01*
X539707D01*
Y621549D01*
X539575D01*
Y621417D01*
X539444D01*
Y621286D01*
X539312D01*
Y621023D01*
X539181D01*
Y620497D01*
X539049D01*
Y619707D01*
X539181D01*
Y619182D01*
X539312D01*
Y618918D01*
X539444D01*
Y618655D01*
X539575D01*
Y618392D01*
X539707D01*
Y618129D01*
X539838D01*
Y617998D01*
X539970D01*
Y617866D01*
X540101D01*
Y617735D01*
X540233D01*
Y617472D01*
X540364D01*
Y617340D01*
X540496D01*
Y617209D01*
X540627D01*
Y617077D01*
X540759D01*
Y616946D01*
X540890D01*
Y616814D01*
X541022D01*
Y616683D01*
X541153D01*
Y616551D01*
X541285D01*
Y616420D01*
X541416D01*
Y616288D01*
X541548D01*
Y616157D01*
X541811D01*
Y616025D01*
X541942D01*
Y615894D01*
X542074D01*
Y615762D01*
X542206D01*
Y615630D01*
X542337D01*
Y615499D01*
X542468D01*
Y615368D01*
X542732D01*
Y615236D01*
X542863D01*
Y615104D01*
X542995D01*
Y614973D01*
X543126D01*
Y614841D01*
X543258D01*
Y614710D01*
X543521D01*
Y614578D01*
X543652D01*
Y614447D01*
X543784D01*
Y614315D01*
X544047D01*
Y614184D01*
X544178D01*
Y614052D01*
X544310D01*
Y613921D01*
X544441D01*
Y613789D01*
X544704D01*
Y613658D01*
X544836D01*
Y613526D01*
X544967D01*
Y613395D01*
X545230D01*
Y613263D01*
X545362D01*
Y613132D01*
X545625D01*
Y610764D01*
X534841D01*
Y613395D01*
X540890D01*
Y613526D01*
X540759D01*
Y613658D01*
X540627D01*
Y613789D01*
X540364D01*
Y613921D01*
X540233D01*
Y614052D01*
X540101D01*
Y614184D01*
X539838D01*
Y614315D01*
X539707D01*
Y614447D01*
X539575D01*
Y614578D01*
X539312D01*
Y614710D01*
X539181D01*
Y614841D01*
X539049D01*
Y614973D01*
X538918D01*
Y615104D01*
X538786D01*
Y615236D01*
X538523D01*
Y615368D01*
X538391D01*
Y615499D01*
X538260D01*
Y615630D01*
X538128D01*
Y615762D01*
X537997D01*
Y615894D01*
X537865D01*
Y616025D01*
X537734D01*
Y616157D01*
X537602D01*
Y616288D01*
X537471D01*
Y616420D01*
X537339D01*
Y616551D01*
X537208D01*
Y616683D01*
X537076D01*
Y616946D01*
X536945D01*
Y617077D01*
X536813D01*
Y617209D01*
X536682D01*
Y617340D01*
X536550D01*
Y617603D01*
X536419D01*
Y617735D01*
X536287D01*
Y617998D01*
X536156D01*
Y618261D01*
X536024D01*
Y618392D01*
X535893D01*
Y618787D01*
X535761D01*
Y619050D01*
X535630D01*
Y619576D01*
X535498D01*
Y621680D01*
X535630D01*
Y622206D01*
X535761D01*
Y622469D01*
X535893D01*
Y622732D01*
X536024D01*
Y622995D01*
X536156D01*
Y623127D01*
X536287D01*
Y623259D01*
X536419D01*
Y623390D01*
X536550D01*
Y623521D01*
X536682D01*
Y623653D01*
X536813D01*
Y623785D01*
X536945D01*
Y623916D01*
X537208D01*
Y624048D01*
X537339D01*
Y624179D01*
X537602D01*
Y624311D01*
X537865D01*
Y624442D01*
X538260D01*
Y624574D01*
X538786D01*
Y624705D01*
X539575D01*
Y624837D01*
X541942D01*
Y624705D01*
D02*
G37*
G36*
X1156787Y610764D02*
X1153630D01*
Y620102D01*
X1153499D01*
Y619971D01*
X1153367D01*
Y619839D01*
X1153236D01*
Y619576D01*
X1153104D01*
Y619445D01*
X1152973D01*
Y619182D01*
X1152841D01*
Y618918D01*
X1152710D01*
Y618787D01*
X1152578D01*
Y618524D01*
X1152447D01*
Y618261D01*
X1152315D01*
Y618129D01*
X1152184D01*
Y617866D01*
X1152052D01*
Y617735D01*
X1151921D01*
Y617472D01*
X1151789D01*
Y617209D01*
X1151658D01*
Y617077D01*
X1151526D01*
Y616814D01*
X1151395D01*
Y616551D01*
X1151263D01*
Y616420D01*
X1151132D01*
Y616157D01*
X1151000D01*
Y616025D01*
X1150869D01*
Y615762D01*
X1150737D01*
Y615499D01*
X1150605D01*
Y615368D01*
X1150474D01*
Y615104D01*
X1150342D01*
Y614973D01*
X1150211D01*
Y614710D01*
X1150079D01*
Y614447D01*
X1149948D01*
Y614315D01*
X1149816D01*
Y614052D01*
X1149685D01*
Y613789D01*
X1149553D01*
Y613658D01*
X1149422D01*
Y613395D01*
X1149290D01*
Y613263D01*
X1149159D01*
Y613000D01*
X1149027D01*
Y612737D01*
X1148896D01*
Y612606D01*
X1148764D01*
Y612343D01*
X1148633D01*
Y612080D01*
X1148501D01*
Y611948D01*
X1148370D01*
Y611685D01*
X1148238D01*
Y611553D01*
X1148107D01*
Y611290D01*
X1147975D01*
Y611027D01*
X1147844D01*
Y610896D01*
X1147712D01*
Y610764D01*
X1144293D01*
Y624574D01*
X1147580D01*
Y616814D01*
X1147712D01*
Y616946D01*
X1147844D01*
Y617209D01*
X1147975D01*
Y617472D01*
X1148107D01*
Y617603D01*
X1148238D01*
Y617866D01*
X1148370D01*
Y617998D01*
X1148501D01*
Y618261D01*
X1148633D01*
Y618392D01*
X1148764D01*
Y618655D01*
X1148896D01*
Y618918D01*
X1149027D01*
Y619050D01*
X1149159D01*
Y619313D01*
X1149290D01*
Y619445D01*
X1149422D01*
Y619707D01*
X1149553D01*
Y619839D01*
X1149685D01*
Y620102D01*
X1149816D01*
Y620365D01*
X1149948D01*
Y620497D01*
X1150079D01*
Y620760D01*
X1150211D01*
Y620891D01*
X1150342D01*
Y621154D01*
X1150474D01*
Y621286D01*
X1150605D01*
Y621549D01*
X1150737D01*
Y621812D01*
X1150869D01*
Y621943D01*
X1151000D01*
Y622206D01*
X1151132D01*
Y622338D01*
X1151263D01*
Y622601D01*
X1151395D01*
Y622732D01*
X1151526D01*
Y622864D01*
Y622995D01*
X1151658D01*
Y623259D01*
X1151789D01*
Y623390D01*
X1151921D01*
Y623653D01*
X1152052D01*
Y623785D01*
X1152184D01*
Y624048D01*
X1152315D01*
Y624311D01*
X1152447D01*
Y624442D01*
X1152578D01*
Y624574D01*
X1156787D01*
Y610764D01*
D02*
G37*
G36*
X1183090Y624179D02*
X1182959D01*
Y623916D01*
X1182827D01*
Y623521D01*
X1182696D01*
Y623127D01*
X1182564D01*
Y622732D01*
X1182433D01*
Y622469D01*
X1182301D01*
Y622075D01*
X1182170D01*
Y621680D01*
X1182038D01*
Y621286D01*
X1181907D01*
Y621023D01*
X1181775D01*
Y620628D01*
X1181644D01*
Y620234D01*
X1181512D01*
Y619839D01*
X1181380D01*
Y619576D01*
X1181249D01*
Y619182D01*
X1181117D01*
Y618787D01*
X1180986D01*
Y618392D01*
X1180854D01*
Y618129D01*
X1180723D01*
Y617735D01*
X1180591D01*
Y617340D01*
X1180460D01*
Y616946D01*
X1180328D01*
Y616683D01*
X1180197D01*
Y616288D01*
X1180065D01*
Y615894D01*
X1179934D01*
Y615499D01*
X1179802D01*
Y615236D01*
X1179671D01*
Y614841D01*
X1179539D01*
Y614447D01*
X1179408D01*
Y614052D01*
X1179276D01*
Y613789D01*
X1179145D01*
Y613395D01*
X1179013D01*
Y613000D01*
X1178882D01*
Y612606D01*
X1178750D01*
Y612343D01*
X1178619D01*
Y611948D01*
X1178487D01*
Y611553D01*
X1178356D01*
Y611159D01*
X1178224D01*
Y610896D01*
X1178093D01*
Y610764D01*
X1174147D01*
Y611027D01*
X1174016D01*
Y611290D01*
X1173884D01*
Y611685D01*
X1173753D01*
Y612080D01*
X1173621D01*
Y612474D01*
X1173490D01*
Y612737D01*
X1173358D01*
Y613132D01*
X1173226D01*
Y613526D01*
X1173095D01*
Y613921D01*
X1172963D01*
Y614184D01*
X1172832D01*
Y614578D01*
X1172700D01*
Y614973D01*
X1172569D01*
Y615368D01*
X1172437D01*
Y615630D01*
X1172306D01*
Y616025D01*
X1172174D01*
Y616420D01*
X1172043D01*
Y616814D01*
X1171911D01*
Y617077D01*
X1171780D01*
Y617472D01*
X1171648D01*
Y617866D01*
X1171517D01*
Y618261D01*
X1171385D01*
Y618524D01*
X1171254D01*
Y618918D01*
X1171122D01*
Y619313D01*
X1170991D01*
Y619707D01*
X1170859D01*
Y619971D01*
X1170728D01*
Y620365D01*
X1170596D01*
Y620760D01*
X1170465D01*
Y621154D01*
X1170333D01*
Y621417D01*
X1170201D01*
Y621812D01*
X1170070D01*
Y622206D01*
X1169939D01*
Y622601D01*
X1169807D01*
Y622864D01*
X1169676D01*
Y623259D01*
X1169544D01*
Y623653D01*
X1169412D01*
Y624048D01*
X1169281D01*
Y624311D01*
X1169149D01*
Y624574D01*
X1172832D01*
Y624179D01*
X1172963D01*
Y623785D01*
X1173095D01*
Y623390D01*
X1173226D01*
Y622995D01*
X1173358D01*
Y622601D01*
X1173490D01*
Y622206D01*
X1173621D01*
Y621943D01*
X1173753D01*
Y621549D01*
X1173884D01*
Y621154D01*
X1174016D01*
Y620760D01*
X1174147D01*
Y620365D01*
X1174279D01*
Y619971D01*
X1174410D01*
Y619576D01*
X1174542D01*
Y619182D01*
X1174673D01*
Y618787D01*
X1174805D01*
Y618392D01*
X1174936D01*
Y617998D01*
X1175068D01*
Y617603D01*
X1175199D01*
Y617340D01*
X1175331D01*
Y616946D01*
X1175462D01*
Y616551D01*
X1175594D01*
Y616157D01*
X1175725D01*
Y615762D01*
X1175857D01*
Y615368D01*
X1175988D01*
Y614973D01*
X1176120D01*
Y615104D01*
X1176251D01*
Y615499D01*
X1176383D01*
Y615894D01*
X1176514D01*
Y616288D01*
X1176646D01*
Y616683D01*
X1176777D01*
Y617077D01*
X1176909D01*
Y617472D01*
X1177040D01*
Y617866D01*
X1177172D01*
Y618261D01*
X1177303D01*
Y618524D01*
X1177435D01*
Y618918D01*
X1177567D01*
Y619313D01*
X1177698D01*
Y619707D01*
X1177830D01*
Y620102D01*
X1177961D01*
Y620497D01*
X1178093D01*
Y620891D01*
X1178224D01*
Y621286D01*
X1178356D01*
Y621680D01*
X1178487D01*
Y622075D01*
X1178619D01*
Y622469D01*
X1178750D01*
Y622732D01*
X1178882D01*
Y623127D01*
X1179013D01*
Y623521D01*
X1179145D01*
Y623916D01*
X1179276D01*
Y624311D01*
X1179408D01*
Y624574D01*
X1183090D01*
Y624179D01*
D02*
G37*
G36*
X838251Y624705D02*
X839041D01*
Y624574D01*
X839566D01*
Y624442D01*
X839961D01*
Y624311D01*
X840224D01*
Y624179D01*
X840487D01*
Y624048D01*
X840750D01*
Y623916D01*
X841013D01*
Y623785D01*
X841276D01*
Y623653D01*
X841408D01*
Y623521D01*
X841671D01*
Y623390D01*
X841802D01*
Y623259D01*
X841934D01*
Y623127D01*
X842065D01*
Y622995D01*
X842197D01*
Y622864D01*
X842328D01*
Y622732D01*
X842460D01*
Y622601D01*
X842591D01*
Y622469D01*
X842723D01*
Y622206D01*
X842855D01*
Y622075D01*
X842986D01*
Y621943D01*
X843118D01*
Y621680D01*
X843249D01*
Y621417D01*
X843381D01*
Y621154D01*
X843512D01*
Y620891D01*
X843644D01*
Y620497D01*
X843775D01*
Y620102D01*
X843907D01*
Y619576D01*
X844038D01*
Y618655D01*
X844170D01*
Y616683D01*
X844038D01*
Y615762D01*
X843907D01*
Y615104D01*
X843775D01*
Y614710D01*
X843644D01*
Y614315D01*
X843512D01*
Y614052D01*
X843381D01*
Y613789D01*
X843249D01*
Y613526D01*
X843118D01*
Y613395D01*
X842986D01*
Y613132D01*
X842855D01*
Y613000D01*
X842723D01*
Y612869D01*
X842591D01*
Y612606D01*
X842460D01*
Y612474D01*
X842328D01*
Y612343D01*
X842197D01*
Y612211D01*
X842065D01*
Y612080D01*
X841802D01*
Y611948D01*
X841671D01*
Y611816D01*
X841539D01*
Y611685D01*
X841276D01*
Y611553D01*
X841145D01*
Y611422D01*
X840882D01*
Y611290D01*
X840619D01*
Y611159D01*
X840356D01*
Y611027D01*
X839961D01*
Y610896D01*
X839566D01*
Y610764D01*
X839041D01*
Y610633D01*
X838251D01*
Y610501D01*
X835752D01*
Y610633D01*
X835095D01*
Y610764D01*
X834437D01*
Y610896D01*
X834043D01*
Y611027D01*
X833648D01*
Y611159D01*
X833385D01*
Y611290D01*
X832991D01*
Y611422D01*
X832728D01*
Y611553D01*
X832465D01*
Y611685D01*
X832333D01*
Y614973D01*
X832728D01*
Y614841D01*
X832859D01*
Y614710D01*
X832991D01*
Y614578D01*
X833122D01*
Y614447D01*
X833385D01*
Y614315D01*
X833517D01*
Y614184D01*
X833648D01*
Y614052D01*
X833911D01*
Y613921D01*
X834174D01*
Y613789D01*
X834306D01*
Y613658D01*
X834569D01*
Y613526D01*
X834832D01*
Y613395D01*
X835227D01*
Y613263D01*
X835752D01*
Y613132D01*
X837331D01*
Y613263D01*
X837857D01*
Y613395D01*
X838251D01*
Y613526D01*
X838514D01*
Y613658D01*
X838777D01*
Y613789D01*
X838909D01*
Y613921D01*
X839041D01*
Y614052D01*
X839172D01*
Y614184D01*
X839304D01*
Y614315D01*
X839435D01*
Y614447D01*
X839566D01*
Y614578D01*
X839698D01*
Y614841D01*
X839830D01*
Y614973D01*
X839961D01*
Y615236D01*
X840093D01*
Y615630D01*
X840224D01*
Y616025D01*
X840356D01*
Y616683D01*
X840487D01*
Y618524D01*
X840356D01*
Y619313D01*
X840224D01*
Y619707D01*
X840093D01*
Y619971D01*
X839961D01*
Y620365D01*
X839830D01*
Y620497D01*
X839698D01*
Y620760D01*
X839566D01*
Y620891D01*
X839435D01*
Y621023D01*
X839304D01*
Y621154D01*
X839172D01*
Y621286D01*
X839041D01*
Y621417D01*
X838909D01*
Y621549D01*
X838777D01*
Y621680D01*
X838514D01*
Y621812D01*
X838251D01*
Y621943D01*
X837857D01*
Y622075D01*
X837331D01*
Y622206D01*
X835884D01*
Y622075D01*
X835358D01*
Y621943D01*
X834963D01*
Y621812D01*
X834700D01*
Y621680D01*
X834437D01*
Y621549D01*
X834174D01*
Y621417D01*
X833911D01*
Y621286D01*
X833780D01*
Y621154D01*
X833517D01*
Y621023D01*
X833385D01*
Y620891D01*
X833254D01*
Y620760D01*
X833122D01*
Y620628D01*
X832859D01*
Y620497D01*
X832728D01*
Y620365D01*
X832333D01*
Y623785D01*
X832596D01*
Y623916D01*
X832859D01*
Y624048D01*
X833254D01*
Y624179D01*
X833517D01*
Y624311D01*
X833911D01*
Y624442D01*
X834306D01*
Y624574D01*
X834963D01*
Y624705D01*
X835884D01*
Y624837D01*
X838251D01*
Y624705D01*
D02*
G37*
G36*
X554174D02*
X554963D01*
Y624574D01*
X555489D01*
Y624442D01*
X555883D01*
Y624311D01*
X556146D01*
Y624179D01*
X556409D01*
Y624048D01*
X556672D01*
Y623916D01*
X556935D01*
Y623785D01*
X557198D01*
Y623653D01*
X557330D01*
Y623521D01*
X557593D01*
Y623390D01*
X557724D01*
Y623259D01*
X557856D01*
Y623127D01*
X557988D01*
Y622995D01*
X558119D01*
Y622864D01*
X558251D01*
Y622732D01*
X558382D01*
Y622601D01*
X558514D01*
Y622469D01*
X558645D01*
Y622206D01*
X558777D01*
Y622075D01*
X558908D01*
Y621943D01*
X559040D01*
Y621680D01*
X559171D01*
Y621417D01*
X559303D01*
Y621154D01*
X559434D01*
Y620891D01*
X559566D01*
Y620497D01*
X559697D01*
Y620102D01*
X559829D01*
Y619576D01*
X559960D01*
Y618655D01*
X560092D01*
Y616683D01*
X559960D01*
Y615894D01*
Y615762D01*
X559829D01*
Y615104D01*
X559697D01*
Y614710D01*
X559566D01*
Y614315D01*
X559434D01*
Y614052D01*
X559303D01*
Y613789D01*
X559171D01*
Y613526D01*
X559040D01*
Y613395D01*
X558908D01*
Y613132D01*
X558777D01*
Y613000D01*
X558645D01*
Y612869D01*
X558514D01*
Y612606D01*
X558382D01*
Y612474D01*
X558251D01*
Y612343D01*
X558119D01*
Y612211D01*
X557988D01*
Y612080D01*
X557724D01*
Y611948D01*
X557593D01*
Y611816D01*
X557462D01*
Y611685D01*
X557198D01*
Y611553D01*
X557067D01*
Y611422D01*
X556804D01*
Y611290D01*
X556541D01*
Y611159D01*
X556278D01*
Y611027D01*
X555883D01*
Y610896D01*
X555489D01*
Y610764D01*
X554963D01*
Y610633D01*
X554174D01*
Y610501D01*
X551675D01*
Y610633D01*
X551017D01*
Y610764D01*
X550360D01*
Y610896D01*
X549965D01*
Y611027D01*
X549571D01*
Y611159D01*
X549307D01*
Y611290D01*
X548913D01*
Y611422D01*
X548650D01*
Y611553D01*
X548387D01*
Y611685D01*
X548255D01*
Y614973D01*
X548650D01*
Y614841D01*
X548781D01*
Y614710D01*
X548913D01*
Y614578D01*
X549044D01*
Y614447D01*
X549307D01*
Y614315D01*
X549439D01*
Y614184D01*
X549571D01*
Y614052D01*
X549833D01*
Y613921D01*
X550097D01*
Y613789D01*
X550228D01*
Y613658D01*
X550491D01*
Y613526D01*
X550754D01*
Y613395D01*
X551149D01*
Y613263D01*
X551675D01*
Y613132D01*
X553253D01*
Y613263D01*
X553779D01*
Y613395D01*
X554174D01*
Y613526D01*
X554437D01*
Y613658D01*
X554700D01*
Y613789D01*
X554831D01*
Y613921D01*
X554963D01*
Y614052D01*
X555094D01*
Y614184D01*
X555226D01*
Y614315D01*
X555357D01*
Y614447D01*
X555489D01*
Y614578D01*
X555620D01*
Y614841D01*
X555752D01*
Y614973D01*
X555883D01*
Y615236D01*
X556015D01*
Y615630D01*
X556146D01*
Y616025D01*
X556278D01*
Y616683D01*
X556409D01*
Y618524D01*
X556278D01*
Y619313D01*
X556146D01*
Y619707D01*
X556015D01*
Y619971D01*
X555883D01*
Y620365D01*
X555752D01*
Y620497D01*
X555620D01*
Y620760D01*
X555489D01*
Y620891D01*
X555357D01*
Y621023D01*
X555226D01*
Y621154D01*
X555094D01*
Y621286D01*
X554963D01*
Y621417D01*
X554831D01*
Y621549D01*
X554700D01*
Y621680D01*
X554437D01*
Y621812D01*
X554174D01*
Y621943D01*
X553779D01*
Y622075D01*
X553253D01*
Y622206D01*
X551806D01*
Y622075D01*
X551280D01*
Y621943D01*
X550886D01*
Y621812D01*
X550623D01*
Y621680D01*
X550360D01*
Y621549D01*
X550097D01*
Y621417D01*
X549833D01*
Y621286D01*
X549702D01*
Y621154D01*
X549439D01*
Y621023D01*
X549307D01*
Y620891D01*
X549176D01*
Y620760D01*
X549044D01*
Y620628D01*
X548781D01*
Y620497D01*
X548650D01*
Y620365D01*
X548255D01*
Y623785D01*
X548518D01*
Y623916D01*
X548781D01*
Y624048D01*
X549176D01*
Y624179D01*
X549439D01*
Y624311D01*
X549833D01*
Y624442D01*
X550228D01*
Y624574D01*
X550886D01*
Y624705D01*
X551806D01*
Y624837D01*
X554174D01*
Y624705D01*
D02*
G37*
G36*
X1167703Y622075D02*
X1165467D01*
Y621286D01*
Y621154D01*
Y613263D01*
X1167703D01*
Y610764D01*
X1159680D01*
Y613263D01*
X1161916D01*
Y622075D01*
X1159680D01*
Y624574D01*
X1167703D01*
Y622075D01*
D02*
G37*
G36*
X825626Y624311D02*
X825757D01*
Y623916D01*
X825889D01*
Y623653D01*
X826020D01*
Y623521D01*
X826152D01*
Y623390D01*
X826283D01*
Y623259D01*
X826415D01*
Y623127D01*
X826678D01*
Y622995D01*
X827072D01*
Y622864D01*
X827730D01*
Y622732D01*
X828914D01*
Y620497D01*
X826020D01*
Y613132D01*
X828914D01*
Y610764D01*
X819707D01*
Y613132D01*
X822601D01*
Y621812D01*
Y621943D01*
Y624574D01*
X825626D01*
Y624311D01*
D02*
G37*
G36*
X402929Y610764D02*
X399378D01*
Y615894D01*
X397668D01*
Y615762D01*
X397536D01*
Y615499D01*
X397405D01*
Y615368D01*
X397273D01*
Y615236D01*
X397142D01*
Y614973D01*
X397010D01*
Y614841D01*
X396879D01*
Y614710D01*
X396747D01*
Y614447D01*
X396616D01*
Y614315D01*
X396484D01*
Y614184D01*
X396353D01*
Y613921D01*
X396221D01*
Y613789D01*
X396090D01*
Y613526D01*
X395958D01*
Y613395D01*
X395826D01*
Y613263D01*
X395695D01*
Y613000D01*
X395564D01*
Y612869D01*
X395432D01*
Y612737D01*
X395300D01*
Y612474D01*
X395169D01*
Y612343D01*
X395037D01*
Y612211D01*
X394906D01*
Y611948D01*
X394774D01*
Y611816D01*
X394643D01*
Y611553D01*
X394511D01*
Y611422D01*
X394380D01*
Y611290D01*
X394248D01*
Y611027D01*
X394117D01*
Y610896D01*
X393985D01*
Y610764D01*
X389645D01*
Y610896D01*
X389777D01*
Y611027D01*
X389908D01*
Y611159D01*
X390040D01*
Y611290D01*
X390171D01*
Y611553D01*
X390303D01*
Y611685D01*
X390434D01*
Y611816D01*
X390566D01*
Y612080D01*
X390697D01*
Y612211D01*
X390829D01*
Y612343D01*
X390960D01*
Y612606D01*
X391092D01*
Y612737D01*
X391223D01*
Y612869D01*
X391355D01*
Y613000D01*
X391486D01*
Y613263D01*
X391618D01*
Y613395D01*
X391749D01*
Y613526D01*
X391881D01*
Y613789D01*
X392012D01*
Y613921D01*
X392144D01*
Y614052D01*
X392276D01*
Y614315D01*
X392407D01*
Y614447D01*
X392539D01*
Y614578D01*
X392670D01*
Y614710D01*
X392802D01*
Y614973D01*
X392933D01*
Y615104D01*
X393065D01*
Y615236D01*
X393196D01*
Y615499D01*
X393328D01*
Y615630D01*
X393459D01*
Y615762D01*
X393591D01*
Y616025D01*
X393722D01*
Y616157D01*
X393854D01*
Y616288D01*
X393985D01*
Y616551D01*
X394117D01*
Y616683D01*
X394248D01*
Y616814D01*
X393985D01*
Y616946D01*
X393722D01*
Y617077D01*
X393591D01*
Y617209D01*
X393328D01*
Y617340D01*
X393196D01*
Y617472D01*
X392933D01*
Y617603D01*
X392802D01*
Y617735D01*
X392670D01*
Y617866D01*
X392539D01*
Y617998D01*
X392407D01*
Y618129D01*
X392276D01*
Y618392D01*
X392144D01*
Y618524D01*
X392012D01*
Y618787D01*
X391881D01*
Y619050D01*
X391749D01*
Y619445D01*
X391618D01*
Y620102D01*
X391486D01*
Y621417D01*
X391618D01*
Y622075D01*
X391749D01*
Y622338D01*
X391881D01*
Y622601D01*
X392012D01*
Y622864D01*
X392144D01*
Y622995D01*
X392276D01*
Y623127D01*
X392407D01*
Y623259D01*
X392539D01*
Y623390D01*
X392670D01*
Y623521D01*
X392802D01*
Y623653D01*
X393065D01*
Y623785D01*
X393196D01*
Y623916D01*
X393459D01*
Y624048D01*
X393722D01*
Y624179D01*
X394117D01*
Y624311D01*
X394511D01*
Y624442D01*
X395432D01*
Y624574D01*
X402929D01*
Y610764D01*
D02*
G37*
G36*
X388067Y611159D02*
Y611027D01*
Y610764D01*
X378203D01*
Y613395D01*
X384516D01*
Y624574D01*
X388067D01*
Y611159D01*
D02*
G37*
%LPC*%
G36*
X888228Y882348D02*
X885729D01*
Y882216D01*
X885072D01*
Y882085D01*
X884677D01*
Y881953D01*
X884414D01*
Y881822D01*
X884151D01*
Y881690D01*
X884019D01*
Y881559D01*
X883756D01*
Y881427D01*
X883625D01*
Y881296D01*
X883493D01*
Y881164D01*
X883362D01*
Y881033D01*
X883230D01*
Y880901D01*
X883099D01*
Y880638D01*
X882967D01*
Y880375D01*
X882836D01*
Y880112D01*
X882704D01*
Y879849D01*
X882573D01*
Y879323D01*
X882441D01*
Y876824D01*
X882573D01*
Y876298D01*
X882704D01*
Y875904D01*
X882836D01*
Y875641D01*
X882967D01*
Y875509D01*
X883099D01*
Y875246D01*
X883230D01*
Y875115D01*
X883362D01*
Y874983D01*
X883493D01*
Y874852D01*
X883625D01*
Y874720D01*
X883756D01*
Y874588D01*
X884019D01*
Y874457D01*
X884151D01*
Y874325D01*
X884414D01*
Y874194D01*
X884677D01*
Y874062D01*
X885072D01*
Y873931D01*
X885729D01*
Y873799D01*
X888228D01*
Y882348D01*
D02*
G37*
G36*
X1039868Y834870D02*
X893094D01*
Y817247D01*
X892831D01*
Y817378D01*
X892700D01*
Y817510D01*
X892437D01*
Y817641D01*
X892305D01*
Y817773D01*
X892042D01*
Y817904D01*
X891779D01*
Y818036D01*
X891647D01*
Y818167D01*
X891385D01*
Y818299D01*
X891253D01*
Y818430D01*
X890990D01*
Y818562D01*
X890727D01*
Y818693D01*
X890595D01*
Y818825D01*
X890332D01*
Y818957D01*
X890201D01*
Y819088D01*
X889938D01*
Y819220D01*
X889675D01*
Y819351D01*
X889543D01*
Y819483D01*
X889280D01*
Y819614D01*
X889149D01*
Y819746D01*
X888886D01*
Y819877D01*
X888623D01*
Y820009D01*
X888491D01*
Y820140D01*
X888228D01*
Y820272D01*
X888096D01*
Y820403D01*
X887833D01*
Y820535D01*
X887570D01*
Y820666D01*
X887439D01*
Y820798D01*
X887176D01*
Y820929D01*
X887044D01*
Y821061D01*
X886781D01*
Y821192D01*
X886518D01*
Y821324D01*
X886387D01*
Y821455D01*
X886124D01*
Y821587D01*
X885992D01*
Y821718D01*
X885729D01*
Y821850D01*
X885466D01*
Y821982D01*
X885335D01*
Y822113D01*
X885072D01*
Y822244D01*
X884940D01*
Y822376D01*
X884677D01*
Y822507D01*
X884414D01*
Y822639D01*
X884283D01*
Y822771D01*
X884019D01*
Y822902D01*
X883888D01*
Y823034D01*
X883625D01*
Y823165D01*
X883362D01*
Y823297D01*
X883230D01*
Y823428D01*
X882967D01*
Y823560D01*
X882836D01*
Y823691D01*
X882573D01*
Y823823D01*
X882310D01*
Y823954D01*
X882178D01*
Y824086D01*
X881915D01*
Y824217D01*
X881784D01*
Y824349D01*
X881521D01*
Y824480D01*
X881258D01*
Y824612D01*
X881126D01*
Y824743D01*
X880863D01*
Y824875D01*
X880732D01*
Y825006D01*
X880469D01*
Y825138D01*
X880206D01*
Y825269D01*
X880074D01*
Y825401D01*
X879811D01*
Y825532D01*
X879679D01*
Y825664D01*
X879416D01*
Y825796D01*
X879153D01*
Y825927D01*
X879022D01*
Y826059D01*
X878759D01*
Y826190D01*
X878627D01*
Y826321D01*
X878364D01*
Y826453D01*
X878101D01*
Y826585D01*
X877970D01*
Y826716D01*
X877707D01*
Y826848D01*
X877575D01*
Y826979D01*
X877312D01*
Y827111D01*
X877049D01*
Y827242D01*
X876917D01*
Y827374D01*
X876655D01*
Y827505D01*
X876523D01*
Y827637D01*
X876260D01*
Y827768D01*
X875997D01*
Y827900D01*
X875865D01*
Y828031D01*
X875602D01*
Y828163D01*
X875471D01*
Y828294D01*
X875208D01*
Y828426D01*
X874945D01*
Y828557D01*
X874813D01*
Y828689D01*
X874550D01*
Y828820D01*
X874419D01*
Y828952D01*
X874156D01*
Y829083D01*
X873893D01*
Y829215D01*
X873761D01*
Y829346D01*
X873498D01*
Y829478D01*
X873367D01*
Y829610D01*
X873103D01*
Y829741D01*
X872840D01*
Y829873D01*
X872709D01*
Y830004D01*
X872446D01*
Y830136D01*
X872314D01*
Y830267D01*
X872051D01*
Y830399D01*
X871788D01*
Y830530D01*
X871657D01*
Y830662D01*
X871394D01*
Y830793D01*
X871262D01*
Y830925D01*
X870999D01*
Y831056D01*
X870736D01*
Y831188D01*
X870605D01*
Y831319D01*
X870342D01*
Y831451D01*
X870210D01*
Y831582D01*
X869947D01*
Y831714D01*
X869684D01*
Y831845D01*
X869553D01*
Y831977D01*
X869289D01*
Y832108D01*
X869158D01*
Y832240D01*
X868895D01*
Y832371D01*
X868632D01*
Y832503D01*
X868500D01*
Y832634D01*
X868237D01*
Y832766D01*
X868106D01*
Y832897D01*
X867843D01*
Y821455D01*
X863108D01*
Y834870D01*
X667410D01*
Y716504D01*
X709233D01*
Y716768D01*
X709364D01*
Y717557D01*
X709496D01*
Y718214D01*
X709627D01*
Y718740D01*
X709759D01*
Y719266D01*
X709890D01*
Y719661D01*
X710022D01*
Y720055D01*
X710153D01*
Y720450D01*
X710285D01*
Y720713D01*
X710416D01*
Y721107D01*
X710548D01*
Y721371D01*
X710679D01*
Y721634D01*
X710811D01*
Y721897D01*
X710942D01*
Y722160D01*
X711074D01*
Y722423D01*
X711206D01*
Y722686D01*
X711337D01*
Y722817D01*
X711469D01*
Y723080D01*
X711600D01*
Y723343D01*
X711731D01*
Y723475D01*
X711863D01*
Y723738D01*
X711995D01*
Y723869D01*
X712126D01*
Y724001D01*
X712258D01*
Y724264D01*
X712389D01*
Y724396D01*
X712521D01*
Y724659D01*
X712652D01*
Y724790D01*
X712784D01*
Y724921D01*
X712915D01*
Y725053D01*
X713047D01*
Y725185D01*
X713178D01*
Y725316D01*
X713310D01*
Y725448D01*
X713441D01*
Y725579D01*
X713573D01*
Y725711D01*
X713704D01*
Y725842D01*
X713836D01*
Y725974D01*
X713967D01*
Y726105D01*
X714099D01*
Y726237D01*
X714230D01*
Y726368D01*
X714362D01*
Y726500D01*
X714625D01*
Y726631D01*
X714756D01*
Y726763D01*
X714888D01*
Y726894D01*
X715020D01*
Y727026D01*
X715283D01*
Y727157D01*
X715546D01*
Y727289D01*
X715677D01*
Y727420D01*
X715940D01*
Y727552D01*
X716072D01*
Y727683D01*
X716335D01*
Y727815D01*
X716598D01*
Y727946D01*
X716861D01*
Y728078D01*
X717124D01*
Y728210D01*
X717387D01*
Y728341D01*
X717650D01*
Y728473D01*
X718176D01*
Y728604D01*
X718570D01*
Y728736D01*
X718965D01*
Y728867D01*
X719623D01*
Y728999D01*
X720280D01*
Y729130D01*
X722911D01*
Y728999D01*
X723568D01*
Y728867D01*
X724094D01*
Y728736D01*
X724489D01*
Y728604D01*
X725015D01*
Y728473D01*
X725409D01*
Y728341D01*
X725672D01*
Y728210D01*
X725935D01*
Y728078D01*
X726199D01*
Y727946D01*
X726461D01*
Y727815D01*
X726724D01*
Y727683D01*
X726988D01*
Y727552D01*
X727119D01*
Y727420D01*
X727382D01*
Y727289D01*
X727645D01*
Y727157D01*
X727777D01*
Y727026D01*
X728040D01*
Y726894D01*
X728171D01*
Y726763D01*
X728303D01*
Y726631D01*
X728434D01*
Y726500D01*
X728566D01*
Y726368D01*
X728829D01*
Y726237D01*
X728960D01*
Y726105D01*
X729092D01*
Y725974D01*
X729223D01*
Y725842D01*
X729355D01*
Y725711D01*
X729486D01*
Y725579D01*
X729618D01*
Y725448D01*
X729749D01*
Y725316D01*
X729881D01*
Y725185D01*
X730013D01*
Y725053D01*
X730144D01*
Y724921D01*
X730275D01*
Y724790D01*
X730407D01*
Y724659D01*
X730538D01*
Y724527D01*
X730670D01*
Y724264D01*
X730802D01*
Y724132D01*
X730933D01*
Y723869D01*
X731065D01*
Y723738D01*
X731196D01*
Y723475D01*
X731328D01*
Y723343D01*
X731459D01*
Y723212D01*
X731591D01*
Y722949D01*
X731722D01*
Y723212D01*
X731854D01*
Y723343D01*
X731985D01*
Y723606D01*
X732117D01*
Y723738D01*
X732248D01*
Y724001D01*
X732380D01*
Y724132D01*
X732511D01*
Y724264D01*
X732643D01*
Y724527D01*
X732774D01*
Y724659D01*
X732906D01*
Y724790D01*
X733037D01*
Y724921D01*
X733169D01*
Y725053D01*
X733300D01*
Y725185D01*
X733432D01*
Y725316D01*
X733563D01*
Y725448D01*
X733695D01*
Y725711D01*
X733827D01*
Y725842D01*
X733958D01*
Y725974D01*
X734090D01*
Y726105D01*
X734353D01*
Y726237D01*
X734484D01*
Y726368D01*
X734616D01*
Y726500D01*
X734747D01*
Y726631D01*
X735010D01*
Y726763D01*
X735142D01*
Y726894D01*
X735273D01*
Y727026D01*
X735536D01*
Y727157D01*
X735668D01*
Y727289D01*
X735931D01*
Y727420D01*
X736194D01*
Y727552D01*
X736325D01*
Y727683D01*
X736588D01*
Y727815D01*
X736851D01*
Y727946D01*
X737114D01*
Y728078D01*
X737377D01*
Y728210D01*
X737641D01*
Y728341D01*
X737904D01*
Y728473D01*
X738298D01*
Y728604D01*
X738693D01*
Y728736D01*
X739087D01*
Y728867D01*
X739745D01*
Y728999D01*
X740402D01*
Y729130D01*
X743033D01*
Y728999D01*
X743690D01*
Y728867D01*
X744348D01*
Y728736D01*
X744742D01*
Y728604D01*
X745137D01*
Y728473D01*
X745531D01*
Y728341D01*
X745795D01*
Y728210D01*
X746189D01*
Y728078D01*
X746452D01*
Y727946D01*
X746715D01*
Y727815D01*
X746978D01*
Y727683D01*
X747110D01*
Y727552D01*
X747373D01*
Y727420D01*
X747636D01*
Y727289D01*
X747767D01*
Y727157D01*
X748030D01*
Y727026D01*
X748162D01*
Y726894D01*
X748425D01*
Y726763D01*
X748556D01*
Y726631D01*
X748688D01*
Y726500D01*
X748820D01*
Y726368D01*
X748951D01*
Y726237D01*
X749214D01*
Y726105D01*
X749345D01*
Y725974D01*
X749477D01*
Y725842D01*
X749609D01*
Y725711D01*
X749740D01*
Y725579D01*
X749872D01*
Y725448D01*
X750003D01*
Y725316D01*
X750135D01*
Y725185D01*
X750266D01*
Y725053D01*
X750398D01*
Y724921D01*
X750529D01*
Y724659D01*
X750661D01*
Y724527D01*
X750792D01*
Y724396D01*
X750924D01*
Y724132D01*
X751055D01*
Y724001D01*
X751187D01*
Y723869D01*
X751318D01*
Y723606D01*
X751450D01*
Y723475D01*
X751581D01*
Y723212D01*
X751713D01*
Y723080D01*
X751976D01*
Y723212D01*
X752107D01*
Y723475D01*
X752239D01*
Y723606D01*
X752371D01*
Y723869D01*
X752502D01*
Y724001D01*
X752634D01*
Y724132D01*
X752765D01*
Y724396D01*
X752896D01*
Y724527D01*
X753028D01*
Y724659D01*
X753160D01*
Y724790D01*
X753291D01*
Y724921D01*
X753423D01*
Y725185D01*
X753554D01*
Y725316D01*
X753686D01*
Y725448D01*
X753817D01*
Y725579D01*
X753949D01*
Y725711D01*
X754080D01*
Y725842D01*
X754212D01*
Y725974D01*
X754343D01*
Y726105D01*
X754475D01*
Y726237D01*
X754606D01*
Y726368D01*
X754869D01*
Y726500D01*
X755001D01*
Y726631D01*
X755132D01*
Y726763D01*
X755264D01*
Y726894D01*
X755395D01*
Y727026D01*
X755658D01*
Y727157D01*
X755921D01*
Y727289D01*
X756053D01*
Y727420D01*
X756316D01*
Y727552D01*
X756579D01*
Y727683D01*
X756711D01*
Y727815D01*
X756974D01*
Y727946D01*
X757237D01*
Y728078D01*
X757500D01*
Y728210D01*
X757894D01*
Y728341D01*
X758157D01*
Y728473D01*
X758552D01*
Y728604D01*
X758946D01*
Y728736D01*
X759341D01*
Y728867D01*
X759998D01*
Y728999D01*
X760656D01*
Y729130D01*
X763286D01*
Y728999D01*
X763944D01*
Y728867D01*
X764602D01*
Y728736D01*
X764996D01*
Y728604D01*
X765391D01*
Y728473D01*
X765785D01*
Y728341D01*
X766048D01*
Y728210D01*
X766311D01*
Y728078D01*
X766574D01*
Y727946D01*
X766837D01*
Y727815D01*
X767100D01*
Y727683D01*
X767363D01*
Y727552D01*
X767495D01*
Y727420D01*
X767758D01*
Y727289D01*
X768021D01*
Y727157D01*
X768152D01*
Y727026D01*
X768416D01*
Y726894D01*
X768547D01*
Y726763D01*
X768679D01*
Y726631D01*
X768942D01*
Y726500D01*
X769073D01*
Y726368D01*
X769205D01*
Y726237D01*
X769336D01*
Y726105D01*
X769468D01*
Y725974D01*
X769731D01*
Y725842D01*
X769862D01*
Y725711D01*
X769994D01*
Y725579D01*
X770125D01*
Y725448D01*
X770257D01*
Y725316D01*
X770388D01*
Y725053D01*
X770520D01*
Y724921D01*
X770651D01*
Y724790D01*
X770783D01*
Y724659D01*
X770914D01*
Y724527D01*
X771046D01*
Y724264D01*
X771178D01*
Y724132D01*
X771309D01*
Y724001D01*
X771441D01*
Y723738D01*
X771572D01*
Y723606D01*
X771703D01*
Y723343D01*
X771835D01*
Y723212D01*
X771967D01*
Y722949D01*
X772098D01*
Y723212D01*
X772230D01*
Y723343D01*
X772361D01*
Y723475D01*
X772493D01*
Y723738D01*
X772624D01*
Y723869D01*
X772756D01*
Y724132D01*
X772887D01*
Y724264D01*
X773019D01*
Y724527D01*
X773150D01*
Y724659D01*
X773282D01*
Y724790D01*
X773413D01*
Y724921D01*
X773545D01*
Y725053D01*
X773676D01*
Y725185D01*
X773808D01*
Y725316D01*
X773939D01*
Y725448D01*
X774071D01*
Y725579D01*
X774202D01*
Y725711D01*
X774334D01*
Y725842D01*
X774465D01*
Y725974D01*
X774597D01*
Y726105D01*
X774728D01*
Y726237D01*
X774860D01*
Y726368D01*
X774992D01*
Y726500D01*
X775255D01*
Y726631D01*
X775386D01*
Y726763D01*
X775518D01*
Y726894D01*
X775649D01*
Y727026D01*
X775912D01*
Y727157D01*
X776044D01*
Y727289D01*
X776307D01*
Y727420D01*
X776570D01*
Y727552D01*
X776701D01*
Y727683D01*
X776964D01*
Y727815D01*
X777227D01*
Y727946D01*
X777490D01*
Y728078D01*
X777753D01*
Y728210D01*
X778016D01*
Y728341D01*
X778279D01*
Y728473D01*
X778674D01*
Y728604D01*
X779200D01*
Y728736D01*
X779595D01*
Y728867D01*
X780252D01*
Y728999D01*
X780778D01*
Y729130D01*
X783409D01*
Y728999D01*
X784066D01*
Y728867D01*
X784724D01*
Y728736D01*
X785118D01*
Y728604D01*
X785513D01*
Y728473D01*
X785907D01*
Y728341D01*
X786302D01*
Y728210D01*
X786565D01*
Y728078D01*
X786828D01*
Y727946D01*
X787091D01*
Y727815D01*
X787354D01*
Y727683D01*
X787617D01*
Y727552D01*
X787749D01*
Y727420D01*
X788012D01*
Y727289D01*
X788143D01*
Y727157D01*
X788406D01*
Y727026D01*
X788669D01*
Y726894D01*
X788801D01*
Y726763D01*
X788932D01*
Y726631D01*
X789064D01*
Y726500D01*
X789195D01*
Y726368D01*
X789458D01*
Y726237D01*
X789590D01*
Y726105D01*
X789721D01*
Y725974D01*
X789853D01*
Y725842D01*
X789984D01*
Y725711D01*
X790116D01*
Y725579D01*
X790247D01*
Y725448D01*
X790379D01*
Y725316D01*
X790510D01*
Y725185D01*
X790642D01*
Y725053D01*
X790774D01*
Y724921D01*
X790905D01*
Y724790D01*
X791037D01*
Y724659D01*
X791168D01*
Y724396D01*
X791300D01*
Y724264D01*
X791431D01*
Y724001D01*
X791563D01*
Y723869D01*
X791694D01*
Y723738D01*
X791826D01*
Y723475D01*
X791957D01*
Y723343D01*
X792089D01*
Y723080D01*
X792220D01*
Y722817D01*
X792352D01*
Y722686D01*
X792483D01*
Y722423D01*
X792615D01*
Y722160D01*
X792746D01*
Y721897D01*
X792878D01*
Y721634D01*
X793009D01*
Y721371D01*
X793141D01*
Y721107D01*
X793272D01*
Y720713D01*
X793404D01*
Y720450D01*
X793535D01*
Y720055D01*
X793667D01*
Y719661D01*
X793799D01*
Y719135D01*
X793930D01*
Y718740D01*
X794062D01*
Y718214D01*
X794193D01*
Y717557D01*
X794324D01*
Y716768D01*
X794456D01*
Y716504D01*
X957801D01*
Y729919D01*
X962535D01*
Y718477D01*
X962798D01*
Y718609D01*
X962930D01*
Y718740D01*
X963193D01*
Y718872D01*
X963325D01*
Y719003D01*
X963588D01*
Y719135D01*
X963851D01*
Y719266D01*
X963982D01*
Y719398D01*
X964245D01*
Y719529D01*
X964377D01*
Y719661D01*
X964640D01*
Y719792D01*
X964903D01*
Y719924D01*
X965034D01*
Y720055D01*
X965297D01*
Y720187D01*
X965429D01*
Y720318D01*
X965692D01*
Y720450D01*
X965955D01*
Y720582D01*
X966086D01*
Y720713D01*
X966349D01*
Y720844D01*
X966481D01*
Y720976D01*
X966744D01*
Y721107D01*
X967007D01*
Y721239D01*
X967139D01*
Y721371D01*
X967402D01*
Y721502D01*
X967533D01*
Y721634D01*
X967796D01*
Y721765D01*
X968059D01*
Y721897D01*
X968191D01*
Y722028D01*
X968454D01*
Y722160D01*
X968585D01*
Y722291D01*
X968848D01*
Y722423D01*
X969111D01*
Y722554D01*
X969243D01*
Y722686D01*
X969506D01*
Y722817D01*
X969637D01*
Y722949D01*
X969900D01*
Y723080D01*
X970163D01*
Y723212D01*
X970295D01*
Y723343D01*
X970558D01*
Y723475D01*
X970689D01*
Y723606D01*
X970953D01*
Y723738D01*
X971216D01*
Y723869D01*
X971347D01*
Y724001D01*
X971610D01*
Y724132D01*
X971742D01*
Y724264D01*
X972005D01*
Y724396D01*
X972268D01*
Y724527D01*
X972399D01*
Y724659D01*
X972662D01*
Y724790D01*
X972794D01*
Y724921D01*
X973057D01*
Y725053D01*
X973320D01*
Y725185D01*
X973451D01*
Y725316D01*
X973714D01*
Y725448D01*
X973846D01*
Y725579D01*
X974109D01*
Y725711D01*
X974372D01*
Y725842D01*
X974503D01*
Y725974D01*
X974766D01*
Y726105D01*
X974898D01*
Y726237D01*
X975161D01*
Y726368D01*
X975424D01*
Y726500D01*
X975556D01*
Y726631D01*
X975819D01*
Y726763D01*
X975950D01*
Y726894D01*
X976213D01*
Y727026D01*
X976476D01*
Y727157D01*
X976608D01*
Y727289D01*
X976871D01*
Y727420D01*
X977002D01*
Y727552D01*
X977265D01*
Y727683D01*
X977528D01*
Y727815D01*
X977660D01*
Y727946D01*
X977923D01*
Y728078D01*
X978055D01*
Y728210D01*
X978317D01*
Y728341D01*
X978580D01*
Y728473D01*
X978712D01*
Y728604D01*
X978975D01*
Y728736D01*
X979107D01*
Y728867D01*
X979370D01*
Y728999D01*
X979633D01*
Y729130D01*
X979764D01*
Y729262D01*
X980027D01*
Y729393D01*
X980159D01*
Y729525D01*
X980422D01*
Y729656D01*
X980685D01*
Y729788D01*
X980816D01*
Y729919D01*
X981079D01*
Y730051D01*
X981211D01*
Y730182D01*
X981474D01*
Y730314D01*
X981737D01*
Y730445D01*
X981869D01*
Y730577D01*
X982132D01*
Y730708D01*
X982263D01*
Y730840D01*
X982526D01*
Y730971D01*
X982789D01*
Y731103D01*
X982921D01*
Y731234D01*
X983184D01*
Y731366D01*
X983315D01*
Y731497D01*
X983578D01*
Y731629D01*
X983841D01*
Y731760D01*
X983973D01*
Y731892D01*
X984236D01*
Y732023D01*
X984367D01*
Y732155D01*
X984630D01*
Y732287D01*
X984893D01*
Y732418D01*
X985025D01*
Y732550D01*
X985288D01*
Y732681D01*
X985419D01*
Y732813D01*
X985683D01*
Y732944D01*
X985946D01*
Y733076D01*
X986077D01*
Y733207D01*
X986340D01*
Y733339D01*
X986472D01*
Y733470D01*
X986735D01*
Y733602D01*
X986998D01*
Y733733D01*
X987129D01*
Y733865D01*
X987392D01*
Y733996D01*
X987524D01*
Y734128D01*
X987787D01*
Y716504D01*
X1039868D01*
Y756749D01*
Y756880D01*
Y834870D01*
D02*
G37*
G36*
X432257Y523963D02*
X432125D01*
Y523831D01*
X432257D01*
Y523963D01*
D02*
G37*
G36*
X904931Y498185D02*
X851272D01*
Y498054D01*
X851403D01*
Y497922D01*
X851535D01*
Y497791D01*
X851666D01*
Y497528D01*
X851798D01*
Y497396D01*
X851929D01*
Y497265D01*
X852061D01*
Y497002D01*
X852192D01*
Y496870D01*
X852324D01*
Y496739D01*
X852455D01*
Y496476D01*
X852587D01*
Y496344D01*
X852718D01*
Y496213D01*
X852850D01*
Y495950D01*
X852981D01*
Y495818D01*
X853113D01*
Y495686D01*
X853244D01*
Y495424D01*
X853376D01*
Y495292D01*
X853507D01*
Y495160D01*
X853639D01*
Y494897D01*
X853770D01*
Y494766D01*
X853902D01*
Y494634D01*
X854034D01*
Y494371D01*
X854165D01*
Y494240D01*
X854296D01*
Y494108D01*
X854428D01*
Y493845D01*
X854559D01*
Y493714D01*
X854691D01*
Y493582D01*
X854823D01*
Y493319D01*
X854954D01*
Y493188D01*
X855086D01*
Y493056D01*
X855217D01*
Y492793D01*
X855349D01*
Y492662D01*
X855480D01*
Y492530D01*
X855612D01*
Y492267D01*
X855743D01*
Y492136D01*
X855875D01*
Y492004D01*
X856006D01*
Y491741D01*
X856138D01*
Y491609D01*
X856269D01*
Y491478D01*
X856401D01*
Y491215D01*
X856532D01*
Y491083D01*
X856664D01*
Y490952D01*
X856795D01*
Y490689D01*
X856927D01*
Y490557D01*
X857058D01*
Y490426D01*
X857190D01*
Y490163D01*
X857321D01*
Y490031D01*
X857453D01*
Y489900D01*
X857584D01*
Y489637D01*
X857716D01*
Y489505D01*
X857848D01*
Y489374D01*
X857979D01*
Y489111D01*
X858111D01*
Y488979D01*
X858242D01*
Y488848D01*
X858373D01*
Y488585D01*
X858505D01*
Y488453D01*
X858637D01*
Y488322D01*
X858768D01*
Y488059D01*
X858900D01*
Y487927D01*
X859031D01*
Y487795D01*
X859163D01*
Y487533D01*
X859294D01*
Y487401D01*
X859426D01*
Y487269D01*
X859557D01*
Y487006D01*
X859689D01*
Y486875D01*
X859820D01*
Y486743D01*
X859952D01*
Y486480D01*
X860083D01*
Y486349D01*
X860215D01*
Y486217D01*
X860346D01*
Y485954D01*
X860478D01*
Y485823D01*
X860609D01*
Y485691D01*
X860741D01*
Y485428D01*
X860872D01*
Y485297D01*
X861004D01*
Y485165D01*
X861135D01*
Y484902D01*
X861267D01*
Y484771D01*
X861398D01*
Y484639D01*
X861530D01*
Y484376D01*
X861662D01*
Y484244D01*
X861793D01*
Y484113D01*
X861925D01*
Y483850D01*
X862056D01*
Y483718D01*
X862188D01*
Y483587D01*
X862319D01*
Y483324D01*
X862451D01*
Y483192D01*
X862582D01*
Y483061D01*
X862714D01*
Y482798D01*
X862845D01*
Y482666D01*
X862977D01*
Y482535D01*
X863108D01*
Y482272D01*
X863240D01*
Y482140D01*
X863371D01*
Y482009D01*
X863503D01*
Y481746D01*
X863634D01*
Y481614D01*
X863766D01*
Y481483D01*
X863897D01*
Y481220D01*
X864029D01*
Y481088D01*
X864160D01*
Y480957D01*
X864292D01*
Y480694D01*
X864423D01*
Y480562D01*
X864555D01*
Y480430D01*
X864686D01*
Y480168D01*
X864818D01*
Y480036D01*
X864949D01*
Y479905D01*
X865081D01*
Y479641D01*
X865212D01*
Y479510D01*
X865344D01*
Y479378D01*
X865475D01*
Y479115D01*
X865607D01*
Y478984D01*
X865739D01*
Y478852D01*
X865870D01*
Y478589D01*
X866002D01*
Y478458D01*
X866133D01*
Y478326D01*
X866265D01*
Y478063D01*
X866396D01*
Y477932D01*
X866528D01*
Y477800D01*
X866659D01*
Y477537D01*
X866791D01*
Y477406D01*
X866922D01*
Y477274D01*
X867054D01*
Y477011D01*
X867185D01*
Y476880D01*
X867317D01*
Y476748D01*
X867448D01*
Y476485D01*
X867580D01*
Y476353D01*
X867711D01*
Y476222D01*
X867843D01*
Y475959D01*
X867974D01*
Y475827D01*
X868106D01*
Y475696D01*
X868237D01*
Y475433D01*
X868369D01*
Y475301D01*
X868500D01*
Y475170D01*
X868632D01*
Y474907D01*
X868763D01*
Y474775D01*
X868895D01*
Y474644D01*
X869026D01*
Y474381D01*
X869158D01*
Y474249D01*
X869289D01*
Y474118D01*
X869421D01*
Y473855D01*
X869553D01*
Y473723D01*
X869684D01*
Y473592D01*
X869816D01*
Y473329D01*
X869947D01*
Y473197D01*
X870079D01*
Y473065D01*
X870210D01*
Y472803D01*
X870342D01*
Y472671D01*
X870473D01*
Y472539D01*
X870605D01*
Y472276D01*
X870736D01*
Y472145D01*
X870868D01*
Y472013D01*
X870999D01*
Y471750D01*
X871131D01*
Y471619D01*
X871262D01*
Y471487D01*
X871394D01*
Y471224D01*
X871525D01*
Y471093D01*
X871657D01*
Y470961D01*
X871788D01*
Y470698D01*
X871920D01*
Y470567D01*
X872051D01*
Y470435D01*
X872183D01*
Y470172D01*
X872314D01*
Y470041D01*
X872446D01*
Y469909D01*
X872577D01*
Y469646D01*
X872709D01*
Y469515D01*
X872840D01*
Y469383D01*
X872972D01*
Y469120D01*
X873103D01*
Y468988D01*
X873235D01*
Y468857D01*
X873367D01*
Y468594D01*
X873498D01*
Y468462D01*
X873630D01*
Y468331D01*
X873761D01*
Y468068D01*
X873893D01*
Y467936D01*
X874024D01*
Y467805D01*
X874156D01*
Y467542D01*
X874287D01*
Y467410D01*
X874419D01*
Y467279D01*
X874550D01*
Y467016D01*
X874682D01*
Y466884D01*
X874813D01*
Y466753D01*
X874945D01*
Y466490D01*
X875076D01*
Y466358D01*
X875208D01*
Y466227D01*
X875339D01*
Y465964D01*
X875471D01*
Y465832D01*
X875602D01*
Y465700D01*
X875734D01*
Y465438D01*
X875865D01*
Y465306D01*
X875997D01*
Y465174D01*
X876128D01*
Y464911D01*
X876260D01*
Y464780D01*
X876391D01*
Y464648D01*
X876523D01*
Y464385D01*
X876655D01*
Y464254D01*
X876786D01*
Y464122D01*
X876917D01*
Y463859D01*
X877049D01*
Y463728D01*
X877180D01*
Y463596D01*
X877312D01*
Y463333D01*
X877444D01*
Y463202D01*
X877575D01*
Y463070D01*
X877707D01*
Y462807D01*
X877838D01*
Y462676D01*
X877970D01*
Y462544D01*
X878233D01*
Y462676D01*
X878364D01*
Y462807D01*
X878496D01*
Y463070D01*
X878627D01*
Y463202D01*
X878759D01*
Y463333D01*
X878890D01*
Y463596D01*
X879022D01*
Y463728D01*
X879153D01*
Y463859D01*
X879285D01*
Y464122D01*
X879416D01*
Y464254D01*
X879548D01*
Y464385D01*
X879679D01*
Y464648D01*
X879811D01*
Y464780D01*
X879942D01*
Y464911D01*
X880074D01*
Y465174D01*
X880206D01*
Y465306D01*
X880337D01*
Y465438D01*
X880469D01*
Y465700D01*
X880600D01*
Y465832D01*
X880732D01*
Y465964D01*
X880863D01*
Y466227D01*
X880995D01*
Y466358D01*
X881126D01*
Y466490D01*
X881258D01*
Y466753D01*
X881389D01*
Y466884D01*
X881521D01*
Y467016D01*
X881652D01*
Y467279D01*
X881784D01*
Y467410D01*
X881915D01*
Y467542D01*
X882047D01*
Y467805D01*
X882178D01*
Y467936D01*
X882310D01*
Y468068D01*
X882441D01*
Y468331D01*
X882573D01*
Y468462D01*
X882704D01*
Y468594D01*
X882836D01*
Y468857D01*
X882967D01*
Y468988D01*
X883099D01*
Y469120D01*
X883230D01*
Y469383D01*
X883362D01*
Y469515D01*
X883493D01*
Y469646D01*
X883625D01*
Y469909D01*
X883756D01*
Y470041D01*
X883888D01*
Y470172D01*
X884019D01*
Y470435D01*
X884151D01*
Y470567D01*
X884283D01*
Y470698D01*
X884414D01*
Y470961D01*
X884546D01*
Y471093D01*
X884677D01*
Y471224D01*
X884809D01*
Y471487D01*
X884940D01*
Y471619D01*
X885072D01*
Y471750D01*
X885203D01*
Y472013D01*
X885335D01*
Y472145D01*
X885466D01*
Y472276D01*
X885598D01*
Y472539D01*
X885729D01*
Y472671D01*
X885861D01*
Y472803D01*
X885992D01*
Y473065D01*
X886124D01*
Y473197D01*
X886255D01*
Y473329D01*
X886387D01*
Y473592D01*
X886518D01*
Y473723D01*
X886650D01*
Y473855D01*
X886781D01*
Y474118D01*
X886913D01*
Y474249D01*
X887044D01*
Y474381D01*
X887176D01*
Y474644D01*
X887307D01*
Y474775D01*
X887439D01*
Y474907D01*
X887570D01*
Y475170D01*
X887702D01*
Y475301D01*
X887833D01*
Y475433D01*
X887965D01*
Y475696D01*
X888096D01*
Y475827D01*
X888228D01*
Y475959D01*
X888360D01*
Y476222D01*
X888491D01*
Y476353D01*
X888623D01*
Y476485D01*
X888754D01*
Y476748D01*
X888886D01*
Y476880D01*
X889017D01*
Y477011D01*
X889149D01*
Y477274D01*
X889280D01*
Y477406D01*
X889412D01*
Y477537D01*
X889543D01*
Y477800D01*
X889675D01*
Y477932D01*
X889806D01*
Y478063D01*
X889938D01*
Y478326D01*
X890069D01*
Y478458D01*
X890201D01*
Y478589D01*
X890332D01*
Y478852D01*
X890464D01*
Y478984D01*
X890595D01*
Y479115D01*
X890727D01*
Y479378D01*
X890858D01*
Y479510D01*
X890990D01*
Y479641D01*
X891121D01*
Y479905D01*
X891253D01*
Y480036D01*
X891385D01*
Y480168D01*
X891516D01*
Y480430D01*
X891647D01*
Y480562D01*
X891779D01*
Y480694D01*
X891910D01*
Y480957D01*
X892042D01*
Y481088D01*
X892174D01*
Y481220D01*
X892305D01*
Y481483D01*
X892437D01*
Y481614D01*
X892568D01*
Y481746D01*
X892700D01*
Y482009D01*
X892831D01*
Y482140D01*
X892963D01*
Y482272D01*
X893094D01*
Y482535D01*
X893226D01*
Y482666D01*
X893357D01*
Y482798D01*
X893489D01*
Y483061D01*
X893620D01*
Y483192D01*
X893752D01*
Y483324D01*
X893883D01*
Y483587D01*
X894015D01*
Y483718D01*
X894146D01*
Y483850D01*
X894278D01*
Y484113D01*
X894409D01*
Y484244D01*
X894541D01*
Y484376D01*
X894672D01*
Y484639D01*
X894804D01*
Y484771D01*
X894935D01*
Y484902D01*
X895067D01*
Y485165D01*
X895198D01*
Y485297D01*
X895330D01*
Y485428D01*
X895462D01*
Y485691D01*
X895593D01*
Y485823D01*
X895724D01*
Y485954D01*
X895856D01*
Y486217D01*
X895987D01*
Y486349D01*
X896119D01*
Y486480D01*
X896251D01*
Y486743D01*
X896382D01*
Y486875D01*
X896514D01*
Y487006D01*
X896645D01*
Y487269D01*
X896777D01*
Y487401D01*
X896908D01*
Y487533D01*
X897040D01*
Y487795D01*
X897171D01*
Y487927D01*
X897303D01*
Y488059D01*
X897434D01*
Y488322D01*
X897566D01*
Y488453D01*
X897697D01*
Y488585D01*
X897829D01*
Y488848D01*
X897960D01*
Y488979D01*
X898092D01*
Y489111D01*
X898223D01*
Y489374D01*
X898355D01*
Y489505D01*
X898486D01*
Y489637D01*
X898618D01*
Y489900D01*
X898749D01*
Y490031D01*
X898881D01*
Y490163D01*
X899013D01*
Y490426D01*
X899144D01*
Y490557D01*
X899276D01*
Y490689D01*
X899407D01*
Y490952D01*
X899538D01*
Y491083D01*
X899670D01*
Y491215D01*
X899802D01*
Y491478D01*
X899933D01*
Y491609D01*
X900065D01*
Y491741D01*
X900196D01*
Y492004D01*
X900328D01*
Y492136D01*
X900459D01*
Y492267D01*
X900591D01*
Y492530D01*
X900722D01*
Y492662D01*
X900854D01*
Y492793D01*
X900985D01*
Y493056D01*
X901117D01*
Y493188D01*
X901248D01*
Y493319D01*
X901380D01*
Y493582D01*
X901511D01*
Y493714D01*
X901643D01*
Y493845D01*
X901774D01*
Y494108D01*
X901906D01*
Y494240D01*
X902037D01*
Y494371D01*
X902169D01*
Y494634D01*
X902300D01*
Y494766D01*
X902432D01*
Y494897D01*
X902563D01*
Y495160D01*
X902695D01*
Y495292D01*
X902827D01*
Y495424D01*
X902958D01*
Y495686D01*
X903090D01*
Y495818D01*
X903221D01*
Y495950D01*
X903353D01*
Y496213D01*
X903484D01*
Y496344D01*
X903616D01*
Y496476D01*
X903747D01*
Y496739D01*
X903879D01*
Y496870D01*
X904010D01*
Y497002D01*
X904142D01*
Y497265D01*
X904273D01*
Y497396D01*
X904405D01*
Y497528D01*
X904536D01*
Y497791D01*
X904668D01*
Y497922D01*
X904799D01*
Y498054D01*
X904931D01*
Y498185D01*
D02*
G37*
%LPD*%
G36*
X747899Y762010D02*
X748820D01*
Y761878D01*
X749477D01*
Y761746D01*
X750003D01*
Y761615D01*
X750529D01*
Y761483D01*
X750924D01*
Y761352D01*
X751187D01*
Y758195D01*
X750792D01*
Y758327D01*
X750661D01*
Y758458D01*
X750398D01*
Y758590D01*
X750135D01*
Y758721D01*
X749872D01*
Y758853D01*
X749609D01*
Y758985D01*
X749214D01*
Y759116D01*
X748820D01*
Y759248D01*
X748162D01*
Y759379D01*
X746715D01*
Y759248D01*
X746189D01*
Y759116D01*
X745926D01*
Y758985D01*
X745663D01*
Y758853D01*
X745531D01*
Y758721D01*
X745400D01*
Y758458D01*
X745268D01*
Y758195D01*
X745137D01*
Y757669D01*
X745005D01*
Y757143D01*
X745137D01*
Y756486D01*
X745268D01*
Y756223D01*
X745400D01*
Y755960D01*
X745531D01*
Y755697D01*
X745663D01*
Y755565D01*
X745795D01*
Y755302D01*
X745926D01*
Y755171D01*
X746058D01*
Y755039D01*
X746189D01*
Y754908D01*
X746321D01*
Y754644D01*
X746452D01*
Y754513D01*
X746584D01*
Y754381D01*
X746715D01*
Y754250D01*
X746847D01*
Y754118D01*
X746978D01*
Y753987D01*
X747110D01*
Y753855D01*
X747241D01*
Y753724D01*
X747504D01*
Y753592D01*
X747636D01*
Y753461D01*
X747767D01*
Y753329D01*
X747899D01*
Y753198D01*
X748030D01*
Y753066D01*
X748162D01*
Y752935D01*
X748293D01*
Y752803D01*
X748556D01*
Y752672D01*
X748688D01*
Y752540D01*
X748820D01*
Y752409D01*
X748951D01*
Y752277D01*
X749082D01*
Y752146D01*
X749345D01*
Y752014D01*
X749477D01*
Y751883D01*
X749609D01*
Y751751D01*
X749740D01*
Y751620D01*
X750003D01*
Y751488D01*
X750135D01*
Y751357D01*
X750266D01*
Y751225D01*
X750529D01*
Y751094D01*
X750661D01*
Y750962D01*
X750792D01*
Y750831D01*
X751055D01*
Y750699D01*
X751187D01*
Y750567D01*
X751318D01*
Y750436D01*
X751581D01*
Y748069D01*
X740797D01*
Y750699D01*
X746847D01*
Y750831D01*
X746715D01*
Y750962D01*
X746584D01*
Y751094D01*
X746321D01*
Y751225D01*
X746189D01*
Y751357D01*
X746058D01*
Y751488D01*
X745795D01*
Y751620D01*
X745663D01*
Y751751D01*
X745531D01*
Y751883D01*
X745400D01*
Y752014D01*
X745137D01*
Y752146D01*
X745005D01*
Y752277D01*
X744874D01*
Y752409D01*
X744742D01*
Y752540D01*
X744611D01*
Y752672D01*
X744479D01*
Y752803D01*
X744216D01*
Y752935D01*
X744085D01*
Y753066D01*
X743953D01*
Y753198D01*
X743822D01*
Y753329D01*
X743690D01*
Y753461D01*
X743559D01*
Y753592D01*
X743427D01*
Y753724D01*
X743296D01*
Y753855D01*
X743164D01*
Y754118D01*
X743033D01*
Y754250D01*
X742901D01*
Y754381D01*
X742770D01*
Y754513D01*
X742638D01*
Y754776D01*
X742507D01*
Y754908D01*
X742375D01*
Y755039D01*
X742244D01*
Y755302D01*
X742112D01*
Y755565D01*
X741981D01*
Y755828D01*
X741849D01*
Y756091D01*
X741718D01*
Y756486D01*
X741586D01*
Y757012D01*
X741454D01*
Y758853D01*
X741586D01*
Y759379D01*
X741718D01*
Y759774D01*
X741849D01*
Y760037D01*
X741981D01*
Y760300D01*
X742112D01*
Y760431D01*
X742244D01*
Y760563D01*
X742375D01*
Y760694D01*
X742507D01*
Y760826D01*
X742638D01*
Y760957D01*
X742770D01*
Y761089D01*
X742901D01*
Y761220D01*
X743164D01*
Y761352D01*
X743296D01*
Y761483D01*
X743559D01*
Y761615D01*
X743953D01*
Y761746D01*
X744216D01*
Y761878D01*
X744742D01*
Y762010D01*
X745531D01*
Y762141D01*
X747899D01*
Y762010D01*
D02*
G37*
G36*
X986472Y759116D02*
Y758985D01*
Y748069D01*
X980027D01*
Y748200D01*
X978975D01*
Y748332D01*
X978317D01*
Y748463D01*
X977923D01*
Y748595D01*
X977528D01*
Y748726D01*
X977265D01*
Y748858D01*
X977002D01*
Y748989D01*
X976739D01*
Y749121D01*
X976476D01*
Y749252D01*
X976345D01*
Y749384D01*
X976082D01*
Y749515D01*
X975950D01*
Y749647D01*
X975819D01*
Y749778D01*
X975556D01*
Y749910D01*
X975424D01*
Y750041D01*
X975293D01*
Y750173D01*
X975161D01*
Y750436D01*
X975030D01*
Y750567D01*
X974898D01*
Y750699D01*
X974766D01*
Y750831D01*
X974635D01*
Y751094D01*
X974503D01*
Y751225D01*
X974372D01*
Y751488D01*
X974240D01*
Y751751D01*
X974109D01*
Y752014D01*
X973977D01*
Y752277D01*
X973846D01*
Y752672D01*
X973714D01*
Y753066D01*
X973583D01*
Y753724D01*
X973451D01*
Y756354D01*
X973583D01*
Y757012D01*
X973714D01*
Y757406D01*
X973846D01*
Y757801D01*
X973977D01*
Y758064D01*
X974109D01*
Y758327D01*
X974240D01*
Y758590D01*
X974372D01*
Y758721D01*
X974503D01*
Y758985D01*
X974635D01*
Y759116D01*
X974766D01*
Y759379D01*
X974898D01*
Y759511D01*
X975030D01*
Y759642D01*
X975161D01*
Y759774D01*
X975293D01*
Y759905D01*
X975424D01*
Y760037D01*
X975556D01*
Y760168D01*
X975687D01*
Y760300D01*
X975819D01*
Y760431D01*
X976082D01*
Y760563D01*
X976213D01*
Y760694D01*
X976476D01*
Y760826D01*
X976608D01*
Y760957D01*
X976871D01*
Y761089D01*
X977134D01*
Y761220D01*
X977528D01*
Y761352D01*
X977923D01*
Y761483D01*
X978317D01*
Y761615D01*
X978975D01*
Y761746D01*
X979896D01*
Y761878D01*
X986472D01*
Y759116D01*
D02*
G37*
G36*
X966744Y761352D02*
X966876D01*
Y761089D01*
X967007D01*
Y760826D01*
X967139D01*
Y760694D01*
X967270D01*
Y760563D01*
X967533D01*
Y760431D01*
X967796D01*
Y760300D01*
X968059D01*
Y760168D01*
X968848D01*
Y760037D01*
X970032D01*
Y757801D01*
X967139D01*
Y750436D01*
X970032D01*
Y748069D01*
X960826D01*
Y750436D01*
X963719D01*
Y761878D01*
X966744D01*
Y761352D01*
D02*
G37*
G36*
X763681Y750962D02*
Y750831D01*
Y748069D01*
X753686D01*
Y750699D01*
X760130D01*
Y761878D01*
X763681D01*
Y750962D01*
D02*
G37*
%LPC*%
G36*
X982921Y759248D02*
X980422D01*
Y759116D01*
X979764D01*
Y758985D01*
X979370D01*
Y758853D01*
X979107D01*
Y758721D01*
X978844D01*
Y758590D01*
X978712D01*
Y758458D01*
X978449D01*
Y758327D01*
X978317D01*
Y758195D01*
X978186D01*
Y758064D01*
X978055D01*
Y757932D01*
X977923D01*
Y757801D01*
X977791D01*
Y757538D01*
X977660D01*
Y757275D01*
X977528D01*
Y757012D01*
X977397D01*
Y756749D01*
X977265D01*
Y756223D01*
X977134D01*
Y753724D01*
X977265D01*
Y753198D01*
X977397D01*
Y752803D01*
X977528D01*
Y752540D01*
X977660D01*
Y752409D01*
X977791D01*
Y752146D01*
X977923D01*
Y752014D01*
X978055D01*
Y751883D01*
X978186D01*
Y751751D01*
X978317D01*
Y751620D01*
X978449D01*
Y751488D01*
X978712D01*
Y751357D01*
X978844D01*
Y751225D01*
X979107D01*
Y751094D01*
X979370D01*
Y750962D01*
X979764D01*
Y750831D01*
X980422D01*
Y750699D01*
X982921D01*
Y759248D01*
D02*
G37*
G36*
X604150D02*
X601651D01*
Y759116D01*
X600994D01*
Y758985D01*
X600599D01*
Y758853D01*
X600336D01*
Y758721D01*
X600073D01*
Y758590D01*
X599942D01*
Y758458D01*
X599679D01*
Y758327D01*
X599547D01*
Y758195D01*
X599416D01*
Y758064D01*
X599284D01*
Y757932D01*
X599152D01*
Y757801D01*
X599021D01*
Y757538D01*
X598890D01*
Y757275D01*
X598758D01*
Y757012D01*
X598627D01*
Y756749D01*
X598495D01*
Y756223D01*
X598363D01*
Y753724D01*
X598495D01*
Y753198D01*
X598627D01*
Y752803D01*
X598758D01*
Y752540D01*
X598890D01*
Y752409D01*
X599021D01*
Y752146D01*
X599152D01*
Y752014D01*
X599284D01*
Y751883D01*
X599416D01*
Y751751D01*
X599547D01*
Y751620D01*
X599679D01*
Y751488D01*
X599942D01*
Y751357D01*
X600073D01*
Y751225D01*
X600336D01*
Y751094D01*
X600599D01*
Y750962D01*
X600994D01*
Y750831D01*
X601651D01*
Y750699D01*
X604150D01*
Y759248D01*
D02*
G37*
G36*
X399378Y622075D02*
X396616D01*
Y621943D01*
X396090D01*
Y621812D01*
X395826D01*
Y621680D01*
X395695D01*
Y621549D01*
X395564D01*
Y621417D01*
X395432D01*
Y621286D01*
X395300D01*
Y620891D01*
X395169D01*
Y619839D01*
X395300D01*
Y619445D01*
X395432D01*
Y619182D01*
X395564D01*
Y619050D01*
X395695D01*
Y618918D01*
X395826D01*
Y618787D01*
X396090D01*
Y618655D01*
X396353D01*
Y618524D01*
X397010D01*
Y618392D01*
X399378D01*
Y622075D01*
D02*
G37*
%LPD*%
D30*
X929620Y343538D02*
X935967D01*
Y362582D01*
X929620D01*
X907402Y359408D02*
X910576Y362582D01*
X916924D01*
X920098Y359408D01*
Y346712D01*
X916924Y343538D01*
X910576D01*
X907402Y346712D01*
X901054Y343538D02*
X894706D01*
Y362582D01*
X901054D01*
X853444Y343538D02*
X866140D01*
X853444Y356234D01*
Y359408D01*
X856618Y362582D01*
X862966D01*
X866140Y359408D01*
X847096D02*
X843922Y362582D01*
X837574D01*
X834400Y359408D01*
Y346712D01*
X837574Y343538D01*
X843922D01*
X847096Y346712D01*
Y359408D01*
X815356Y343538D02*
X828052D01*
X815356Y356234D01*
Y359408D01*
X818530Y362582D01*
X824878D01*
X828052Y359408D01*
X796313Y362582D02*
X802661Y359408D01*
X809008Y353060D01*
Y346712D01*
X805835Y343538D01*
X799486D01*
X796313Y346712D01*
Y349886D01*
X799486Y353060D01*
X809008D01*
X1085778Y314956D02*
Y295912D01*
X1076256D01*
X1073082Y299086D01*
Y311782D01*
X1076256Y314956D01*
X1085778D01*
X1057213Y295912D02*
X1063560D01*
X1066734Y299086D01*
Y305434D01*
X1063560Y308608D01*
X1057213D01*
X1054038Y305434D01*
Y302260D01*
X1066734D01*
X1047691Y295912D02*
X1038169D01*
X1034995Y299086D01*
X1038169Y302260D01*
X1044517D01*
X1047691Y305434D01*
X1044517Y308608D01*
X1034995D01*
X1028647Y295912D02*
X1022299D01*
X1025473D01*
Y308608D01*
X1028647D01*
X1006429Y289564D02*
X1003255D01*
X1000081Y292738D01*
Y308608D01*
X1009603D01*
X1012777Y305434D01*
Y299086D01*
X1009603Y295912D01*
X1000081D01*
X993733D02*
Y308608D01*
X984211D01*
X981037Y305434D01*
Y295912D01*
X965167D02*
X971515D01*
X974689Y299086D01*
Y305434D01*
X971515Y308608D01*
X965167D01*
X961993Y305434D01*
Y302260D01*
X974689D01*
X942949Y314956D02*
Y295912D01*
X952471D01*
X955645Y299086D01*
Y305434D01*
X952471Y308608D01*
X942949D01*
X917558Y314956D02*
Y295912D01*
X908036D01*
X904862Y299086D01*
Y302260D01*
X908036Y305434D01*
X917558D01*
X908036D01*
X904862Y308608D01*
Y311782D01*
X908036Y314956D01*
X917558D01*
X898514Y308608D02*
Y299086D01*
X895340Y295912D01*
X885818D01*
Y292738D01*
X888992Y289564D01*
X892166D01*
X885818Y295912D02*
Y308608D01*
X879470D02*
X876296D01*
Y305434D01*
X879470D01*
Y308608D01*
Y299086D02*
X876296D01*
Y295912D01*
X879470D01*
Y299086D01*
X844556Y314956D02*
Y295912D01*
Y305434D01*
X831860D01*
Y314956D01*
Y295912D01*
X822338Y308608D02*
X815990D01*
X812816Y305434D01*
Y295912D01*
X822338D01*
X825512Y299086D01*
X822338Y302260D01*
X812816D01*
X806468Y308608D02*
Y295912D01*
Y302260D01*
X803295Y305434D01*
X800120Y308608D01*
X796946D01*
X787425Y295912D02*
X777903D01*
X774729Y299086D01*
X777903Y302260D01*
X784251D01*
X787425Y305434D01*
X784251Y308608D01*
X774729D01*
X768381Y314956D02*
Y295912D01*
Y305434D01*
X765207Y308608D01*
X758859D01*
X755685Y305434D01*
Y295912D01*
X746163Y308608D02*
X739815D01*
X736641Y305434D01*
Y295912D01*
X746163D01*
X749337Y299086D01*
X746163Y302260D01*
X736641D01*
X730293Y295912D02*
Y314956D01*
Y302260D02*
X720771Y308608D01*
X730293Y302260D02*
X720771Y295912D01*
X692205Y314956D02*
Y302260D01*
X685857Y295912D01*
X679509Y302260D01*
Y314956D01*
X654118Y295912D02*
Y314956D01*
X644596D01*
X641422Y311782D01*
Y305434D01*
X644596Y302260D01*
X654118D01*
D33*
X1285732Y923294D02*
Y948686D01*
X1292080Y955034D01*
X1304776D01*
X1311124Y948686D01*
Y923294D01*
X1304776Y916946D01*
X1292080D01*
X1298428Y929642D02*
X1285732Y916946D01*
X1292080D02*
X1285732Y923294D01*
X1273036Y955034D02*
Y923294D01*
X1266689Y916946D01*
X1253993D01*
X1247645Y923294D01*
Y955034D01*
X1234949Y916946D02*
Y942338D01*
X1222253Y955034D01*
X1209557Y942338D01*
Y916946D01*
Y935990D01*
X1234949D01*
X1196861Y955034D02*
Y916946D01*
X1177817D01*
X1171469Y923294D01*
Y948686D01*
X1177817Y955034D01*
X1196861D01*
X1158773Y916946D02*
Y955034D01*
X1139730D01*
X1133382Y948686D01*
Y935990D01*
X1139730Y929642D01*
X1158773D01*
X1146077D02*
X1133382Y916946D01*
X1120686D02*
Y942338D01*
X1107990Y955034D01*
X1095294Y942338D01*
Y916946D01*
Y935990D01*
X1120686D01*
X1082598Y955034D02*
X1057206D01*
X1069902D01*
Y916946D01*
X1044510Y955034D02*
X1031814D01*
X1038162D01*
Y916946D01*
X1044510D01*
X1031814D01*
X987379Y948686D02*
X993727Y955034D01*
X1006423D01*
X1012771Y948686D01*
Y923294D01*
X1006423Y916946D01*
X993727D01*
X987379Y923294D01*
X936595Y955034D02*
Y916946D01*
X917551D01*
X911203Y923294D01*
Y929642D01*
X917551Y935990D01*
X936595D01*
X917551D01*
X911203Y942338D01*
Y948686D01*
X917551Y955034D01*
X936595D01*
X879464D02*
X892160D01*
X898508Y948686D01*
Y923294D01*
X892160Y916946D01*
X879464D01*
X873116Y923294D01*
Y948686D01*
X879464Y955034D01*
X841376D02*
X854072D01*
X860420Y948686D01*
Y923294D01*
X854072Y916946D01*
X841376D01*
X835028Y923294D01*
Y948686D01*
X841376Y955034D01*
X796940Y948686D02*
X803288Y955034D01*
X815984D01*
X822332Y948686D01*
Y942338D01*
X815984Y935990D01*
X803288D01*
X796940Y929642D01*
Y923294D01*
X803288Y916946D01*
X815984D01*
X822332Y923294D01*
X784245Y955034D02*
X758853D01*
X771549D01*
Y916946D01*
X682677Y948686D02*
X689025Y955034D01*
X701721D01*
X708069Y948686D01*
Y923294D01*
X701721Y916946D01*
X689025D01*
X682677Y923294D01*
X650938Y955034D02*
X663633D01*
X669982Y948686D01*
Y923294D01*
X663633Y916946D01*
X650938D01*
X644590Y923294D01*
Y948686D01*
X650938Y955034D01*
X631894Y916946D02*
Y955034D01*
X606502Y916946D01*
Y955034D01*
X593806D02*
Y929642D01*
X581110Y916946D01*
X568414Y929642D01*
Y955034D01*
X530327D02*
X555718D01*
Y916946D01*
X530327D01*
X555718Y935990D02*
X543022D01*
X517631Y916946D02*
Y955034D01*
X498587D01*
X492239Y948686D01*
Y935990D01*
X498587Y929642D01*
X517631D01*
X504935D02*
X492239Y916946D01*
X479543Y955034D02*
X454151D01*
X466847D01*
Y916946D01*
X416064Y955034D02*
X441455D01*
Y916946D01*
X416064D01*
X441455Y935990D02*
X428759D01*
X403368Y916946D02*
Y955034D01*
X384324D01*
X377976Y948686D01*
Y935990D01*
X384324Y929642D01*
X403368D01*
X390672D02*
X377976Y916946D01*
M02*
