M48
;Layer_Color=9474304
;FILE_FORMAT=4:4
METRIC,LZ
;TYPE=PLATED
T01F00S00C0.5000
T02F00S00C0.6000
T03F00S00C0.8000
T04F00S00C1.1430
T05F00S00C1.3000
T06F00S00C1.3200
T07F00S00C1.4000
T08F00S00C1.6000
T09F00S00C1.7500
%
T01
X008382Y0019844
Y0021844
X014759Y0039243
X014959
Y0049784
X014759
Y0060325
X014959
Y0070866
X014759
Y0081407
X014959
T02
X0087305Y010668
X0090805
T03
X008382Y0012446
Y0014986
X0089408Y0014224
Y0016764
Y0019304
Y0021844
X0097028
Y0019304
Y0016764
Y0014224
X01016Y0019304
Y0021844
T04
X0061976Y0103378
X0067056
X01104053
X01154853
X0142494
X0147574
T05
X0120396Y0012954
X0122936
X0125476
T06
X00229235Y0012954
X00313389
X00397544
X00481698
X00565853
X00650007
T07
X001143Y0012954
X001643
X0150448
X0155448
T08
X0101981Y0042799
X0107061
X0112141
X0117221
X0122301
X0127381
X0096901
X0091821
X0086741
X0061976Y0040132
X0056896
X0051816
X0046736
X0041656
X0036576
X0031496
X0026416
X0021336
X0016256
Y0080772
X0021336
X0026416
X0031496
X0036576
X0041656
X0046736
X0051816
X0056896
X0061976
X0086741Y0078359
X0091821
X0096901
X0101981
X0107061
X0112141
X0117221
X0122301
X0127381
T09
X0073533Y0015621
X0077493
M30
