G04*
G04 #@! TF.GenerationSoftware,Altium Limited,Altium Designer,26.7.1 (11)*
G04*
G04 Layer_Color=32896*
G04 Board_Origin=100000000|100000000*
%FSLAX44Y44*%
%MOMM*%
G71*
G04*
G04 #@! TF.SameCoordinates,35D10A8D-50D3-486A-B6A2-89D25CCCEA80*
G04*
G04*
G04 #@! TF.FilePolarity,Positive*
G04*
G01*
G75*
%ADD11C,0.1524*%
%ADD79C,0.2540*%
%ADD80C,0.1778*%
D11*
X684784Y226822D02*
X685038Y227076D01*
X74168Y226822D02*
X684784D01*
X74168D02*
Y253238D01*
X685038D01*
Y227076D02*
Y253238D01*
Y1016D02*
Y27178D01*
X74168D02*
X685038D01*
X74168Y762D02*
Y27178D01*
Y762D02*
X684784D01*
X685038Y1016D01*
X668274Y263144D02*
Y266530D01*
Y264837D01*
X678431D01*
X676738Y263144D01*
X665734Y-7366D02*
Y-3980D01*
Y-5673D01*
X675891D01*
X674198Y-7366D01*
D79*
X388602Y122762D02*
Y112606D01*
X383524D01*
X381831Y114298D01*
Y121069D01*
X383524Y122762D01*
X388602D01*
X373367Y112606D02*
X376753D01*
X378445Y114298D01*
Y117684D01*
X376753Y119377D01*
X373367D01*
X371674Y117684D01*
Y115991D01*
X378445D01*
X368288Y112606D02*
X363210D01*
X361517Y114298D01*
X363210Y115991D01*
X366596D01*
X368288Y117684D01*
X366596Y119377D01*
X361517D01*
X358132Y112606D02*
X354746D01*
X356439D01*
Y119377D01*
X358132D01*
X346282Y109220D02*
X344590D01*
X342897Y110913D01*
Y119377D01*
X347975D01*
X349668Y117684D01*
Y114298D01*
X347975Y112606D01*
X342897D01*
X339511D02*
Y119377D01*
X334433D01*
X332740Y117684D01*
Y112606D01*
X324276D02*
X327662D01*
X329354Y114298D01*
Y117684D01*
X327662Y119377D01*
X324276D01*
X322583Y117684D01*
Y115991D01*
X329354D01*
X312427Y122762D02*
Y112606D01*
X317505D01*
X319198Y114298D01*
Y117684D01*
X317505Y119377D01*
X312427D01*
X298884Y122762D02*
Y112606D01*
X293806D01*
X292113Y114298D01*
Y115991D01*
X293806Y117684D01*
X298884D01*
X293806D01*
X292113Y119377D01*
Y121069D01*
X293806Y122762D01*
X298884D01*
X288727Y119377D02*
Y114298D01*
X287035Y112606D01*
X281956D01*
Y110913D01*
X283649Y109220D01*
X285342D01*
X281956Y112606D02*
Y119377D01*
X278571D02*
X276878D01*
Y117684D01*
X278571D01*
Y119377D01*
Y114298D02*
X276878D01*
Y112606D01*
X278571D01*
Y114298D01*
X387350Y100327D02*
Y90170D01*
Y95248D01*
X380579D01*
Y100327D01*
Y90170D01*
X375500Y96941D02*
X372115D01*
X370422Y95248D01*
Y90170D01*
X375500D01*
X377193Y91863D01*
X375500Y93556D01*
X370422D01*
X367037Y96941D02*
Y90170D01*
Y93556D01*
X365344Y95248D01*
X363651Y96941D01*
X361958D01*
X356880Y90170D02*
X351801D01*
X350109Y91863D01*
X351801Y93556D01*
X355187D01*
X356880Y95248D01*
X355187Y96941D01*
X350109D01*
X346723Y100327D02*
Y90170D01*
Y95248D01*
X345030Y96941D01*
X341645D01*
X339952Y95248D01*
Y90170D01*
X334874Y96941D02*
X331488D01*
X329795Y95248D01*
Y90170D01*
X334874D01*
X336566Y91863D01*
X334874Y93556D01*
X329795D01*
X326410Y90170D02*
Y100327D01*
Y93556D02*
X321331Y96941D01*
X326410Y93556D02*
X321331Y90170D01*
X306096Y100327D02*
Y93556D01*
X302711Y90170D01*
X299325Y93556D01*
Y100327D01*
X285783Y90170D02*
Y100327D01*
X280704D01*
X279012Y98634D01*
Y95248D01*
X280704Y93556D01*
X285783D01*
X423759Y147317D02*
X430530D01*
Y137160D01*
X423759D01*
X430530Y142238D02*
X427144D01*
X413602Y145624D02*
X415295Y147317D01*
X418680D01*
X420373Y145624D01*
Y143931D01*
X418680Y142238D01*
X415295D01*
X413602Y140546D01*
Y138853D01*
X415295Y137160D01*
X418680D01*
X420373Y138853D01*
X410217Y137160D02*
Y147317D01*
X405138D01*
X403445Y145624D01*
Y142238D01*
X405138Y140546D01*
X410217D01*
X400060Y145624D02*
X398367Y147317D01*
X394981D01*
X393289Y145624D01*
Y143931D01*
X394981Y142238D01*
X396674D01*
X394981D01*
X393289Y140546D01*
Y138853D01*
X394981Y137160D01*
X398367D01*
X400060Y138853D01*
X383132Y137160D02*
X389903D01*
X383132Y143931D01*
Y145624D01*
X384825Y147317D01*
X388210D01*
X389903Y145624D01*
X362818D02*
X364511Y147317D01*
X367897D01*
X369590Y145624D01*
Y143931D01*
X367897Y142238D01*
X364511D01*
X362818Y140546D01*
Y138853D01*
X364511Y137160D01*
X367897D01*
X369590Y138853D01*
X359433Y145624D02*
X357740Y147317D01*
X354355D01*
X352662Y145624D01*
Y143931D01*
X354355Y142238D01*
X356047D01*
X354355D01*
X352662Y140546D01*
Y138853D01*
X354355Y137160D01*
X357740D01*
X359433Y138853D01*
X339119Y147317D02*
Y137160D01*
X335734Y140546D01*
X332348Y137160D01*
Y147317D01*
X328963D02*
X325577D01*
X327270D01*
Y137160D01*
X328963D01*
X325577D01*
X320499Y147317D02*
X313728D01*
X317113D01*
Y137160D01*
X310342Y147317D02*
Y137160D01*
Y142238D01*
X303571D01*
Y147317D01*
Y137160D01*
X290029Y147317D02*
Y138853D01*
X288336Y137160D01*
X284950D01*
X283258Y138853D01*
Y147317D01*
X273101Y145624D02*
X274794Y147317D01*
X278179D01*
X279872Y145624D01*
Y143931D01*
X278179Y142238D01*
X274794D01*
X273101Y140546D01*
Y138853D01*
X274794Y137160D01*
X278179D01*
X279872Y138853D01*
X269715Y147317D02*
Y137160D01*
X264637D01*
X262944Y138853D01*
Y140546D01*
X264637Y142238D01*
X269715D01*
X264637D01*
X262944Y143931D01*
Y145624D01*
X264637Y147317D01*
X269715D01*
X242631Y145624D02*
X244323Y147317D01*
X247709D01*
X249402Y145624D01*
Y138853D01*
X247709Y137160D01*
X244323D01*
X242631Y138853D01*
X365327Y156210D02*
X368713D01*
Y166367D01*
X365327D01*
X353478Y164674D02*
X355171Y166367D01*
X358556D01*
X360249Y164674D01*
Y157903D01*
X358556Y156210D01*
X355171D01*
X353478Y157903D01*
X350092Y156210D02*
X346707D01*
Y166367D01*
X350092D01*
X334857Y156210D02*
X341628D01*
X334857Y162981D01*
Y164674D01*
X336550Y166367D01*
X339936D01*
X341628Y164674D01*
X331472D02*
X329779Y166367D01*
X326393D01*
X324701Y164674D01*
Y157903D01*
X326393Y156210D01*
X329779D01*
X331472Y157903D01*
Y164674D01*
X314544Y156210D02*
X321315D01*
X314544Y162981D01*
Y164674D01*
X316237Y166367D01*
X319622D01*
X321315Y164674D01*
X304387Y166367D02*
X307773Y164674D01*
X311158Y161288D01*
Y157903D01*
X309465Y156210D01*
X306080D01*
X304387Y157903D01*
Y159596D01*
X306080Y161288D01*
X311158D01*
D80*
X677672Y177928D02*
X673228Y182372D01*
X668785Y177928D01*
X673228Y173485D02*
Y167560D01*
Y164598D02*
Y158673D01*
Y155711D02*
Y149786D01*
X677672Y146824D02*
X668785D01*
Y142380D01*
X670266Y140899D01*
X673228D01*
X674710Y142380D01*
Y146824D01*
X668785Y137936D02*
Y134974D01*
Y136455D01*
X677672D01*
Y137936D01*
Y134974D01*
Y130530D02*
X668785D01*
X677672Y124606D01*
X668785D01*
X677672Y121643D02*
Y118681D01*
Y120162D01*
X668785D01*
X670266Y121643D01*
X673228Y114237D02*
Y108313D01*
Y105350D02*
Y99425D01*
Y96463D02*
Y90538D01*
X677672Y87576D02*
X673228Y83132D01*
X668785Y87576D01*
X184915Y71882D02*
X193379D01*
X195072Y70189D01*
Y66804D01*
X193379Y65111D01*
X184915D01*
X186608Y54954D02*
X184915Y56647D01*
Y60033D01*
X186608Y61725D01*
X188301D01*
X189994Y60033D01*
Y56647D01*
X191686Y54954D01*
X193379D01*
X195072Y56647D01*
Y60033D01*
X193379Y61725D01*
X184915Y51569D02*
X195072D01*
Y46490D01*
X193379Y44797D01*
X191686D01*
X189994Y46490D01*
Y51569D01*
Y46490D01*
X188301Y44797D01*
X186608D01*
X184915Y46490D01*
Y51569D01*
X189994Y41412D02*
Y34641D01*
X186608Y38026D02*
X193379D01*
X672594Y71882D02*
Y65111D01*
X669208Y68496D02*
X675979D01*
X669208Y61725D02*
X667515Y60033D01*
Y56647D01*
X669208Y54954D01*
X670901D01*
X672594Y56647D01*
Y58340D01*
Y56647D01*
X674286Y54954D01*
X675979D01*
X677672Y56647D01*
Y60033D01*
X675979Y61725D01*
X667515Y51569D02*
X674286D01*
X677672Y48183D01*
X674286Y44797D01*
X667515D01*
X669208Y41412D02*
X667515Y39719D01*
Y36333D01*
X669208Y34641D01*
X670901D01*
X672594Y36333D01*
Y38026D01*
Y36333D01*
X674286Y34641D01*
X675979D01*
X677672Y36333D01*
Y39719D01*
X675979Y41412D01*
X85008Y53681D02*
X83315Y55374D01*
Y58759D01*
X85008Y60452D01*
X91779D01*
X93472Y58759D01*
Y55374D01*
X91779Y53681D01*
X88394D01*
Y57066D01*
X93472Y50295D02*
X83315D01*
X93472Y43524D01*
X83315D01*
Y40139D02*
X93472D01*
Y35060D01*
X91779Y33367D01*
X85008D01*
X83315Y35060D01*
Y40139D01*
X93472Y220472D02*
X83315D01*
X93472Y213701D01*
X83315D01*
X85008Y203544D02*
X83315Y205237D01*
Y208622D01*
X85008Y210315D01*
X91779D01*
X93472Y208622D01*
Y205237D01*
X91779Y203544D01*
X564645Y69342D02*
Y65956D01*
Y67649D01*
X574802D01*
Y69342D01*
Y65956D01*
X564645Y55800D02*
Y59185D01*
X566338Y60878D01*
X573109D01*
X574802Y59185D01*
Y55800D01*
X573109Y54107D01*
X566338D01*
X564645Y55800D01*
X574802Y45643D02*
X564645D01*
X569724Y50721D01*
Y43950D01*
X564645Y33793D02*
Y40565D01*
X569724D01*
X568031Y37179D01*
Y35486D01*
X569724Y33793D01*
X573109D01*
X574802Y35486D01*
Y38872D01*
X573109Y40565D01*
X550672Y60452D02*
X540515D01*
Y55374D01*
X542208Y53681D01*
X545594D01*
X547286Y55374D01*
Y60452D01*
Y57066D02*
X550672Y53681D01*
X540515Y50295D02*
X550672Y43524D01*
X540515D02*
X550672Y50295D01*
X540515Y40139D02*
X550672D01*
Y35060D01*
X548979Y33367D01*
X542208D01*
X540515Y35060D01*
Y40139D01*
X515115Y60452D02*
Y53681D01*
Y57066D01*
X525272D01*
X515115Y50295D02*
X525272Y43524D01*
X515115D02*
X525272Y50295D01*
X515115Y40139D02*
X525272D01*
Y35060D01*
X523579Y33367D01*
X516808D01*
X515115Y35060D01*
Y40139D01*
X413515Y69342D02*
Y65956D01*
Y67649D01*
X423672D01*
Y69342D01*
Y65956D01*
X413515Y55800D02*
Y59185D01*
X415208Y60878D01*
X421979D01*
X423672Y59185D01*
Y55800D01*
X421979Y54107D01*
X415208D01*
X413515Y55800D01*
X415208Y50721D02*
X413515Y49029D01*
Y45643D01*
X415208Y43950D01*
X416901D01*
X418594Y45643D01*
Y47336D01*
Y45643D01*
X420286Y43950D01*
X421979D01*
X423672Y45643D01*
Y49029D01*
X421979Y50721D01*
Y40565D02*
X423672Y38872D01*
Y35486D01*
X421979Y33793D01*
X415208D01*
X413515Y35486D01*
Y38872D01*
X415208Y40565D01*
X416901D01*
X418594Y38872D01*
Y33793D01*
X463045Y66802D02*
Y63416D01*
Y65109D01*
X473202D01*
Y66802D01*
Y63416D01*
X463045Y53260D02*
Y56645D01*
X464738Y58338D01*
X471509D01*
X473202Y56645D01*
Y53260D01*
X471509Y51567D01*
X464738D01*
X463045Y53260D01*
X473202Y43103D02*
X463045D01*
X468124Y48181D01*
Y41410D01*
X473202Y38025D02*
Y34639D01*
Y36332D01*
X463045D01*
X464738Y38025D01*
X437645Y69342D02*
Y65956D01*
Y67649D01*
X447802D01*
Y69342D01*
Y65956D01*
X437645Y55800D02*
Y59185D01*
X439338Y60878D01*
X446109D01*
X447802Y59185D01*
Y55800D01*
X446109Y54107D01*
X439338D01*
X437645Y55800D01*
X447802Y45643D02*
X437645D01*
X442724Y50721D01*
Y43950D01*
X439338Y40565D02*
X437645Y38872D01*
Y35486D01*
X439338Y33793D01*
X446109D01*
X447802Y35486D01*
Y38872D01*
X446109Y40565D01*
X439338D01*
X388115Y69342D02*
Y65956D01*
Y67649D01*
X398272D01*
Y69342D01*
Y65956D01*
X388115Y55800D02*
Y59185D01*
X389808Y60878D01*
X396579D01*
X398272Y59185D01*
Y55800D01*
X396579Y54107D01*
X389808D01*
X388115Y55800D01*
X389808Y50721D02*
X388115Y49029D01*
Y45643D01*
X389808Y43950D01*
X391501D01*
X393194Y45643D01*
Y47336D01*
Y45643D01*
X394886Y43950D01*
X396579D01*
X398272Y45643D01*
Y49029D01*
X396579Y50721D01*
X389808Y40565D02*
X388115Y38872D01*
Y35486D01*
X389808Y33793D01*
X391501D01*
X393194Y35486D01*
X394886Y33793D01*
X396579D01*
X398272Y35486D01*
Y38872D01*
X396579Y40565D01*
X394886D01*
X393194Y38872D01*
X391501Y40565D01*
X389808D01*
X393194Y38872D02*
Y35486D01*
X108715Y69342D02*
Y65956D01*
Y67649D01*
X118872D01*
Y69342D01*
Y65956D01*
X108715Y55800D02*
Y59185D01*
X110408Y60878D01*
X117179D01*
X118872Y59185D01*
Y55800D01*
X117179Y54107D01*
X110408D01*
X108715Y55800D01*
X118872Y45643D02*
X108715D01*
X113794Y50721D01*
Y43950D01*
X108715Y40565D02*
Y33793D01*
X110408D01*
X117179Y40565D01*
X118872D01*
X337315Y69342D02*
Y65956D01*
Y67649D01*
X347472D01*
Y69342D01*
Y65956D01*
X337315Y55800D02*
Y59185D01*
X339008Y60878D01*
X345779D01*
X347472Y59185D01*
Y55800D01*
X345779Y54107D01*
X339008D01*
X337315Y55800D01*
X339008Y50721D02*
X337315Y49029D01*
Y45643D01*
X339008Y43950D01*
X340701D01*
X342394Y45643D01*
Y47336D01*
Y45643D01*
X344086Y43950D01*
X345779D01*
X347472Y45643D01*
Y49029D01*
X345779Y50721D01*
X337315Y33793D02*
X339008Y37179D01*
X342394Y40565D01*
X345779D01*
X347472Y38872D01*
Y35486D01*
X345779Y33793D01*
X344086D01*
X342394Y35486D01*
Y40565D01*
X139194Y220472D02*
Y213701D01*
X135808Y217086D02*
X142579D01*
X134115Y203544D02*
Y210315D01*
X139194D01*
X137501Y206930D01*
Y205237D01*
X139194Y203544D01*
X142579D01*
X144272Y205237D01*
Y208622D01*
X142579Y210315D01*
X134115Y200159D02*
X140886D01*
X144272Y196773D01*
X140886Y193387D01*
X134115D01*
Y69342D02*
Y65956D01*
Y67649D01*
X144272D01*
Y69342D01*
Y65956D01*
X134115Y55800D02*
Y59185D01*
X135808Y60878D01*
X142579D01*
X144272Y59185D01*
Y55800D01*
X142579Y54107D01*
X135808D01*
X134115Y55800D01*
X144272Y45643D02*
X134115D01*
X139194Y50721D01*
Y43950D01*
X135808Y40565D02*
X134115Y38872D01*
Y35486D01*
X135808Y33793D01*
X137501D01*
X139194Y35486D01*
X140886Y33793D01*
X142579D01*
X144272Y35486D01*
Y38872D01*
X142579Y40565D01*
X140886D01*
X139194Y38872D01*
X137501Y40565D01*
X135808D01*
X139194Y38872D02*
Y35486D01*
X110408Y213701D02*
X108715Y215394D01*
Y218779D01*
X110408Y220472D01*
X117179D01*
X118872Y218779D01*
Y215394D01*
X117179Y213701D01*
X113794D01*
Y217086D01*
X118872Y210315D02*
X108715D01*
X118872Y203544D01*
X108715D01*
Y200159D02*
X118872D01*
Y195080D01*
X117179Y193387D01*
X110408D01*
X108715Y195080D01*
Y200159D01*
X311915Y220472D02*
Y217086D01*
Y218779D01*
X322072D01*
Y220472D01*
Y217086D01*
X311915Y206930D02*
Y210315D01*
X313608Y212008D01*
X320379D01*
X322072Y210315D01*
Y206930D01*
X320379Y205237D01*
X313608D01*
X311915Y206930D01*
X322072Y201851D02*
Y198466D01*
Y200159D01*
X311915D01*
X313608Y201851D01*
X322072Y186616D02*
Y193387D01*
X315301Y186616D01*
X313608D01*
X311915Y188309D01*
Y191695D01*
X313608Y193387D01*
X489715Y69342D02*
Y65956D01*
Y67649D01*
X499872D01*
Y69342D01*
Y65956D01*
X489715Y55800D02*
Y59185D01*
X491408Y60878D01*
X498179D01*
X499872Y59185D01*
Y55800D01*
X498179Y54107D01*
X491408D01*
X489715Y55800D01*
X499872Y45643D02*
X489715D01*
X494794Y50721D01*
Y43950D01*
X499872Y33793D02*
Y40565D01*
X493101Y33793D01*
X491408D01*
X489715Y35486D01*
Y38872D01*
X491408Y40565D01*
X235715Y69342D02*
Y65956D01*
Y67649D01*
X245872D01*
Y69342D01*
Y65956D01*
X235715Y55800D02*
Y59185D01*
X237408Y60878D01*
X244179D01*
X245872Y59185D01*
Y55800D01*
X244179Y54107D01*
X237408D01*
X235715Y55800D01*
X245872Y43950D02*
Y50721D01*
X239101Y43950D01*
X237408D01*
X235715Y45643D01*
Y49029D01*
X237408Y50721D01*
X235715Y33793D02*
X237408Y37179D01*
X240794Y40565D01*
X244179D01*
X245872Y38872D01*
Y35486D01*
X244179Y33793D01*
X242486D01*
X240794Y35486D01*
Y40565D01*
X210315Y66802D02*
Y63416D01*
Y65109D01*
X220472D01*
Y66802D01*
Y63416D01*
X210315Y53260D02*
Y56645D01*
X212008Y58338D01*
X218779D01*
X220472Y56645D01*
Y53260D01*
X218779Y51567D01*
X212008D01*
X210315Y53260D01*
X220472Y41410D02*
Y48181D01*
X213701Y41410D01*
X212008D01*
X210315Y43103D01*
Y46489D01*
X212008Y48181D01*
X220472Y38025D02*
Y34639D01*
Y36332D01*
X210315D01*
X212008Y38025D01*
X647194Y220472D02*
Y213701D01*
X643808Y217086D02*
X650579D01*
X643808Y210315D02*
X642115Y208622D01*
Y205237D01*
X643808Y203544D01*
X645501D01*
X647194Y205237D01*
Y206930D01*
Y205237D01*
X648886Y203544D01*
X650579D01*
X652272Y205237D01*
Y208622D01*
X650579Y210315D01*
X642115Y200159D02*
X648886D01*
X652272Y196773D01*
X648886Y193387D01*
X642115D01*
X643808Y190002D02*
X642115Y188309D01*
Y184923D01*
X643808Y183231D01*
X645501D01*
X647194Y184923D01*
Y186616D01*
Y184923D01*
X648886Y183231D01*
X650579D01*
X652272Y184923D01*
Y188309D01*
X650579Y190002D01*
X362715Y69342D02*
Y65956D01*
Y67649D01*
X372872D01*
Y69342D01*
Y65956D01*
X362715Y55800D02*
Y59185D01*
X364408Y60878D01*
X371179D01*
X372872Y59185D01*
Y55800D01*
X371179Y54107D01*
X364408D01*
X362715Y55800D01*
X364408Y50721D02*
X362715Y49029D01*
Y45643D01*
X364408Y43950D01*
X366101D01*
X367794Y45643D01*
Y47336D01*
Y45643D01*
X369486Y43950D01*
X371179D01*
X372872Y45643D01*
Y49029D01*
X371179Y50721D01*
X362715Y40565D02*
Y33793D01*
X364408D01*
X371179Y40565D01*
X372872D01*
X184915Y220472D02*
Y217086D01*
Y218779D01*
X195072D01*
Y220472D01*
Y217086D01*
X184915Y206930D02*
Y210315D01*
X186608Y212008D01*
X193379D01*
X195072Y210315D01*
Y206930D01*
X193379Y205237D01*
X186608D01*
X184915Y206930D01*
X195072Y201851D02*
Y198466D01*
Y200159D01*
X184915D01*
X186608Y201851D01*
X184915Y193387D02*
Y186616D01*
X186608D01*
X193379Y193387D01*
X195072D01*
X210315Y220472D02*
Y217086D01*
Y218779D01*
X220472D01*
Y220472D01*
Y217086D01*
X210315Y206930D02*
Y210315D01*
X212008Y212008D01*
X218779D01*
X220472Y210315D01*
Y206930D01*
X218779Y205237D01*
X212008D01*
X210315Y206930D01*
X220472Y201851D02*
Y198466D01*
Y200159D01*
X210315D01*
X212008Y201851D01*
X210315Y186616D02*
X212008Y190002D01*
X215394Y193387D01*
X218779D01*
X220472Y191695D01*
Y188309D01*
X218779Y186616D01*
X217086D01*
X215394Y188309D01*
Y193387D01*
X590045Y69342D02*
Y65956D01*
Y67649D01*
X600202D01*
Y69342D01*
Y65956D01*
X590045Y55800D02*
Y59185D01*
X591738Y60878D01*
X598509D01*
X600202Y59185D01*
Y55800D01*
X598509Y54107D01*
X591738D01*
X590045Y55800D01*
X600202Y45643D02*
X590045D01*
X595124Y50721D01*
Y43950D01*
X590045Y33793D02*
X591738Y37179D01*
X595124Y40565D01*
X598509D01*
X600202Y38872D01*
Y35486D01*
X598509Y33793D01*
X596816D01*
X595124Y35486D01*
Y40565D01*
X669208Y213701D02*
X667515Y215394D01*
Y218779D01*
X669208Y220472D01*
X675979D01*
X677672Y218779D01*
Y215394D01*
X675979Y213701D01*
X672594D01*
Y217086D01*
X677672Y210315D02*
X667515D01*
X677672Y203544D01*
X667515D01*
Y200159D02*
X677672D01*
Y195080D01*
X675979Y193387D01*
X669208D01*
X667515Y195080D01*
Y200159D01*
X591315Y220472D02*
Y217086D01*
Y218779D01*
X601472D01*
Y220472D01*
Y217086D01*
X591315Y206930D02*
Y210315D01*
X593008Y212008D01*
X599779D01*
X601472Y210315D01*
Y206930D01*
X599779Y205237D01*
X593008D01*
X591315Y206930D01*
X601472Y201851D02*
Y198466D01*
Y200159D01*
X591315D01*
X593008Y201851D01*
X413515Y220472D02*
Y217086D01*
Y218779D01*
X423672D01*
Y220472D01*
Y217086D01*
X413515Y206930D02*
Y210315D01*
X415208Y212008D01*
X421979D01*
X423672Y210315D01*
Y206930D01*
X421979Y205237D01*
X415208D01*
X413515Y206930D01*
X415208Y201851D02*
X413515Y200159D01*
Y196773D01*
X415208Y195080D01*
X416901D01*
X418594Y196773D01*
X420286Y195080D01*
X421979D01*
X423672Y196773D01*
Y200159D01*
X421979Y201851D01*
X420286D01*
X418594Y200159D01*
X416901Y201851D01*
X415208D01*
X418594Y200159D02*
Y196773D01*
X438915Y220472D02*
Y217086D01*
Y218779D01*
X449072D01*
Y220472D01*
Y217086D01*
X438915Y206930D02*
Y210315D01*
X440608Y212008D01*
X447379D01*
X449072Y210315D01*
Y206930D01*
X447379Y205237D01*
X440608D01*
X438915Y206930D01*
Y201851D02*
Y195080D01*
X440608D01*
X447379Y201851D01*
X449072D01*
X540515Y220472D02*
Y217086D01*
Y218779D01*
X550672D01*
Y220472D01*
Y217086D01*
X540515Y206930D02*
Y210315D01*
X542208Y212008D01*
X548979D01*
X550672Y210315D01*
Y206930D01*
X548979Y205237D01*
X542208D01*
X540515Y206930D01*
X542208Y201851D02*
X540515Y200159D01*
Y196773D01*
X542208Y195080D01*
X543901D01*
X545594Y196773D01*
Y198466D01*
Y196773D01*
X547286Y195080D01*
X548979D01*
X550672Y196773D01*
Y200159D01*
X548979Y201851D01*
X565915Y220472D02*
Y217086D01*
Y218779D01*
X576072D01*
Y220472D01*
Y217086D01*
X565915Y206930D02*
Y210315D01*
X567608Y212008D01*
X574379D01*
X576072Y210315D01*
Y206930D01*
X574379Y205237D01*
X567608D01*
X565915Y206930D01*
X576072Y195080D02*
Y201851D01*
X569301Y195080D01*
X567608D01*
X565915Y196773D01*
Y200159D01*
X567608Y201851D01*
X515115Y220472D02*
Y217086D01*
Y218779D01*
X525272D01*
Y220472D01*
Y217086D01*
X515115Y206930D02*
Y210315D01*
X516808Y212008D01*
X523579D01*
X525272Y210315D01*
Y206930D01*
X523579Y205237D01*
X516808D01*
X515115Y206930D01*
X525272Y196773D02*
X515115D01*
X520194Y201851D01*
Y195080D01*
X489715Y220472D02*
Y217086D01*
Y218779D01*
X499872D01*
Y220472D01*
Y217086D01*
X489715Y206930D02*
Y210315D01*
X491408Y212008D01*
X498179D01*
X499872Y210315D01*
Y206930D01*
X498179Y205237D01*
X491408D01*
X489715Y206930D01*
Y195080D02*
Y201851D01*
X494794D01*
X493101Y198466D01*
Y196773D01*
X494794Y195080D01*
X498179D01*
X499872Y196773D01*
Y200159D01*
X498179Y201851D01*
X464315Y220472D02*
Y217086D01*
Y218779D01*
X474472D01*
Y220472D01*
Y217086D01*
X464315Y206930D02*
Y210315D01*
X466008Y212008D01*
X472779D01*
X474472Y210315D01*
Y206930D01*
X472779Y205237D01*
X466008D01*
X464315Y206930D01*
Y195080D02*
X466008Y198466D01*
X469394Y201851D01*
X472779D01*
X474472Y200159D01*
Y196773D01*
X472779Y195080D01*
X471086D01*
X469394Y196773D01*
Y201851D01*
X615445Y44791D02*
Y51562D01*
X625602D01*
Y44791D01*
X620524Y51562D02*
Y48176D01*
X625602Y41405D02*
X615445D01*
X625602Y34634D01*
X615445D01*
X642538Y54951D02*
X640845Y56644D01*
Y60029D01*
X642538Y61722D01*
X649309D01*
X651002Y60029D01*
Y56644D01*
X649309Y54951D01*
X645924D01*
Y58336D01*
X651002Y51565D02*
X640845D01*
X651002Y44794D01*
X640845D01*
Y41409D02*
X651002D01*
Y36330D01*
X649309Y34637D01*
X642538D01*
X640845Y36330D01*
Y41409D01*
X337315Y220472D02*
Y217086D01*
Y218779D01*
X347472D01*
Y220472D01*
Y217086D01*
X337315Y206930D02*
Y210315D01*
X339008Y212008D01*
X345779D01*
X347472Y210315D01*
Y206930D01*
X345779Y205237D01*
X339008D01*
X337315Y206930D01*
X347472Y201851D02*
Y198466D01*
Y200159D01*
X337315D01*
X339008Y201851D01*
X347472Y193387D02*
Y190002D01*
Y191695D01*
X337315D01*
X339008Y193387D01*
X362715Y220472D02*
Y217086D01*
Y218779D01*
X372872D01*
Y220472D01*
Y217086D01*
X362715Y206930D02*
Y210315D01*
X364408Y212008D01*
X371179D01*
X372872Y210315D01*
Y206930D01*
X371179Y205237D01*
X364408D01*
X362715Y206930D01*
X372872Y201851D02*
Y198466D01*
Y200159D01*
X362715D01*
X364408Y201851D01*
Y193387D02*
X362715Y191695D01*
Y188309D01*
X364408Y186616D01*
X371179D01*
X372872Y188309D01*
Y191695D01*
X371179Y193387D01*
X364408D01*
X388115Y220472D02*
Y217086D01*
Y218779D01*
X398272D01*
Y220472D01*
Y217086D01*
X388115Y206930D02*
Y210315D01*
X389808Y212008D01*
X396579D01*
X398272Y210315D01*
Y206930D01*
X396579Y205237D01*
X389808D01*
X388115Y206930D01*
X396579Y201851D02*
X398272Y200159D01*
Y196773D01*
X396579Y195080D01*
X389808D01*
X388115Y196773D01*
Y200159D01*
X389808Y201851D01*
X391501D01*
X393194Y200159D01*
Y195080D01*
X616715Y220472D02*
Y217086D01*
Y218779D01*
X626872D01*
Y220472D01*
Y217086D01*
X616715Y206930D02*
Y210315D01*
X618408Y212008D01*
X625179D01*
X626872Y210315D01*
Y206930D01*
X625179Y205237D01*
X618408D01*
X616715Y206930D01*
X618408Y201851D02*
X616715Y200159D01*
Y196773D01*
X618408Y195080D01*
X625179D01*
X626872Y196773D01*
Y200159D01*
X625179Y201851D01*
X618408D01*
X159515Y220472D02*
Y217086D01*
Y218779D01*
X169672D01*
Y220472D01*
Y217086D01*
X159515Y206930D02*
Y210315D01*
X161208Y212008D01*
X167979D01*
X169672Y210315D01*
Y206930D01*
X167979Y205237D01*
X161208D01*
X159515Y206930D01*
X169672Y201851D02*
Y198466D01*
Y200159D01*
X159515D01*
X161208Y201851D01*
Y193387D02*
X159515Y191695D01*
Y188309D01*
X161208Y186616D01*
X162901D01*
X164594Y188309D01*
X166286Y186616D01*
X167979D01*
X169672Y188309D01*
Y191695D01*
X167979Y193387D01*
X166286D01*
X164594Y191695D01*
X162901Y193387D01*
X161208D01*
X164594Y191695D02*
Y188309D01*
X261115Y69342D02*
Y65956D01*
Y67649D01*
X271272D01*
Y69342D01*
Y65956D01*
X261115Y55800D02*
Y59185D01*
X262808Y60878D01*
X269579D01*
X271272Y59185D01*
Y55800D01*
X269579Y54107D01*
X262808D01*
X261115Y55800D01*
X262808Y50721D02*
X261115Y49029D01*
Y45643D01*
X262808Y43950D01*
X264501D01*
X266194Y45643D01*
Y47336D01*
Y45643D01*
X267886Y43950D01*
X269579D01*
X271272Y45643D01*
Y49029D01*
X269579Y50721D01*
X262808Y40565D02*
X261115Y38872D01*
Y35486D01*
X262808Y33793D01*
X264501D01*
X266194Y35486D01*
Y37179D01*
Y35486D01*
X267886Y33793D01*
X269579D01*
X271272Y35486D01*
Y38872D01*
X269579Y40565D01*
X286515Y69342D02*
Y65956D01*
Y67649D01*
X296672D01*
Y69342D01*
Y65956D01*
X286515Y55800D02*
Y59185D01*
X288208Y60878D01*
X294979D01*
X296672Y59185D01*
Y55800D01*
X294979Y54107D01*
X288208D01*
X286515Y55800D01*
X288208Y50721D02*
X286515Y49029D01*
Y45643D01*
X288208Y43950D01*
X289901D01*
X291594Y45643D01*
Y47336D01*
Y45643D01*
X293286Y43950D01*
X294979D01*
X296672Y45643D01*
Y49029D01*
X294979Y50721D01*
X296672Y35486D02*
X286515D01*
X291594Y40565D01*
Y33793D01*
X311915Y69342D02*
Y65956D01*
Y67649D01*
X322072D01*
Y69342D01*
Y65956D01*
X311915Y55800D02*
Y59185D01*
X313608Y60878D01*
X320379D01*
X322072Y59185D01*
Y55800D01*
X320379Y54107D01*
X313608D01*
X311915Y55800D01*
X313608Y50721D02*
X311915Y49029D01*
Y45643D01*
X313608Y43950D01*
X315301D01*
X316994Y45643D01*
Y47336D01*
Y45643D01*
X318686Y43950D01*
X320379D01*
X322072Y45643D01*
Y49029D01*
X320379Y50721D01*
X311915Y33793D02*
Y40565D01*
X316994D01*
X315301Y37179D01*
Y35486D01*
X316994Y33793D01*
X320379D01*
X322072Y35486D01*
Y38872D01*
X320379Y40565D01*
X235715Y220472D02*
Y217086D01*
Y218779D01*
X245872D01*
Y220472D01*
Y217086D01*
X235715Y206930D02*
Y210315D01*
X237408Y212008D01*
X244179D01*
X245872Y210315D01*
Y206930D01*
X244179Y205237D01*
X237408D01*
X235715Y206930D01*
X245872Y201851D02*
Y198466D01*
Y200159D01*
X235715D01*
X237408Y201851D01*
X235715Y186616D02*
Y193387D01*
X240794D01*
X239101Y190002D01*
Y188309D01*
X240794Y186616D01*
X244179D01*
X245872Y188309D01*
Y191695D01*
X244179Y193387D01*
X160785Y70612D02*
X169249D01*
X170942Y68919D01*
Y65534D01*
X169249Y63841D01*
X160785D01*
X162478Y53684D02*
X160785Y55377D01*
Y58762D01*
X162478Y60455D01*
X164171D01*
X165864Y58762D01*
Y55377D01*
X167556Y53684D01*
X169249D01*
X170942Y55377D01*
Y58762D01*
X169249Y60455D01*
X160785Y50299D02*
X170942D01*
Y45220D01*
X169249Y43527D01*
X167556D01*
X165864Y45220D01*
Y50299D01*
Y45220D01*
X164171Y43527D01*
X162478D01*
X160785Y45220D01*
Y50299D01*
X165864Y40142D02*
Y33371D01*
X286515Y220472D02*
Y217086D01*
Y218779D01*
X296672D01*
Y220472D01*
Y217086D01*
X286515Y206930D02*
Y210315D01*
X288208Y212008D01*
X294979D01*
X296672Y210315D01*
Y206930D01*
X294979Y205237D01*
X288208D01*
X286515Y206930D01*
X296672Y201851D02*
Y198466D01*
Y200159D01*
X286515D01*
X288208Y201851D01*
Y193387D02*
X286515Y191695D01*
Y188309D01*
X288208Y186616D01*
X289901D01*
X291594Y188309D01*
Y190002D01*
Y188309D01*
X293286Y186616D01*
X294979D01*
X296672Y188309D01*
Y191695D01*
X294979Y193387D01*
X261115Y220472D02*
Y217086D01*
Y218779D01*
X271272D01*
Y220472D01*
Y217086D01*
X261115Y206930D02*
Y210315D01*
X262808Y212008D01*
X269579D01*
X271272Y210315D01*
Y206930D01*
X269579Y205237D01*
X262808D01*
X261115Y206930D01*
X271272Y201851D02*
Y198466D01*
Y200159D01*
X261115D01*
X262808Y201851D01*
X271272Y188309D02*
X261115D01*
X266194Y193387D01*
Y186616D01*
M02*
