G04*
G04 #@! TF.GenerationSoftware,Altium Limited,Altium Designer,26.7.1 (11)*
G04*
G04 Layer_Color=65535*
G04 Board_Origin=100000000|100000000*
%FSLAX44Y44*%
%MOMM*%
G71*
G04*
G04 #@! TF.SameCoordinates,35D10A8D-50D3-486A-B6A2-89D25CCCEA80*
G04*
G04*
G04 #@! TF.FilePolarity,Positive*
G04*
G01*
G75*
%ADD10C,0.2500*%
%ADD11C,0.1524*%
%ADD12C,0.2000*%
%ADD13C,0.1270*%
%ADD14R,1.4224X0.4885*%
G36*
X393618Y33838D02*
X393723Y33827D01*
X393871Y33795D01*
X394030Y33743D01*
X394209Y33669D01*
X394378Y33563D01*
X394547Y33426D01*
X394568Y33405D01*
X394611Y33352D01*
X394685Y33256D01*
X394759Y33130D01*
X394833Y32982D01*
X394907Y32802D01*
X394949Y32612D01*
X394970Y32390D01*
Y32380D01*
Y32358D01*
Y32327D01*
X394959Y32284D01*
X394949Y32179D01*
X394917Y32031D01*
X394864Y31872D01*
X394790Y31703D01*
X394685Y31534D01*
X394547Y31365D01*
X394526Y31344D01*
X394473Y31302D01*
X394378Y31228D01*
X394262Y31143D01*
X394104Y31069D01*
X393935Y30995D01*
X393734Y30953D01*
X393512Y30932D01*
X393448D01*
X393406Y30942D01*
X393301Y30953D01*
X393153Y30985D01*
X392994Y31038D01*
X392825Y31112D01*
X392656Y31217D01*
X392487Y31365D01*
X392466Y31386D01*
X392424Y31439D01*
X392350Y31534D01*
X392265Y31650D01*
X392191Y31798D01*
X392117Y31978D01*
X392075Y32168D01*
X392054Y32390D01*
Y32401D01*
Y32411D01*
Y32443D01*
X392064Y32496D01*
X392075Y32601D01*
X392107Y32749D01*
X392159Y32908D01*
X392233Y33077D01*
X392339Y33256D01*
X392487Y33426D01*
X392508Y33447D01*
X392561Y33489D01*
X392656Y33563D01*
X392772Y33637D01*
X392920Y33711D01*
X393100Y33785D01*
X393290Y33827D01*
X393512Y33848D01*
X393575D01*
X393618Y33838D01*
D02*
G37*
G36*
Y160838D02*
X393723Y160827D01*
X393871Y160795D01*
X394030Y160743D01*
X394209Y160669D01*
X394378Y160563D01*
X394547Y160426D01*
X394568Y160404D01*
X394611Y160352D01*
X394685Y160257D01*
X394759Y160130D01*
X394833Y159982D01*
X394907Y159802D01*
X394949Y159612D01*
X394970Y159390D01*
Y159380D01*
Y159358D01*
Y159327D01*
X394959Y159284D01*
X394949Y159179D01*
X394917Y159031D01*
X394864Y158872D01*
X394790Y158703D01*
X394685Y158534D01*
X394547Y158365D01*
X394526Y158344D01*
X394473Y158302D01*
X394378Y158228D01*
X394262Y158143D01*
X394104Y158069D01*
X393935Y157995D01*
X393734Y157953D01*
X393512Y157932D01*
X393448D01*
X393406Y157942D01*
X393301Y157953D01*
X393153Y157985D01*
X392994Y158038D01*
X392825Y158111D01*
X392656Y158217D01*
X392487Y158365D01*
X392466Y158386D01*
X392424Y158439D01*
X392350Y158534D01*
X392265Y158650D01*
X392191Y158798D01*
X392117Y158978D01*
X392075Y159168D01*
X392054Y159390D01*
Y159401D01*
Y159411D01*
Y159443D01*
X392064Y159496D01*
X392075Y159601D01*
X392107Y159749D01*
X392159Y159908D01*
X392233Y160077D01*
X392339Y160257D01*
X392487Y160426D01*
X392508Y160447D01*
X392561Y160489D01*
X392656Y160563D01*
X392772Y160637D01*
X392920Y160711D01*
X393100Y160785D01*
X393290Y160827D01*
X393512Y160848D01*
X393575D01*
X393618Y160838D01*
D02*
G37*
D10*
X196830Y210820D02*
G03*
X196830Y210820I-1250J0D01*
G01*
X77550Y230050D02*
G03*
X77550Y230050I-1250J0D01*
G01*
Y90350D02*
G03*
X77550Y90350I-1250J0D01*
G01*
X168120Y106660D02*
G03*
X168120Y106660I-1250J0D01*
G01*
D11*
X373126Y63500D02*
G03*
X373126Y63500I-17526J0D01*
G01*
Y190500D02*
G03*
X373126Y190500I-17526J0D01*
G01*
X198882Y121412D02*
Y132588D01*
X179578D02*
X198882D01*
X179578Y121412D02*
X198882D01*
X324358Y94742D02*
X386842D01*
X324358Y48691D02*
Y78309D01*
Y32258D02*
X386842D01*
Y48691D02*
Y78309D01*
X170942Y121412D02*
Y132588D01*
Y121412D02*
X190246D01*
X170942Y132588D02*
X190246D01*
X455422Y37846D02*
Y57150D01*
X466598D01*
Y37846D02*
Y57150D01*
X455422Y37846D02*
X466598D01*
X356870Y116205D02*
Y129858D01*
X328930Y116205D02*
X356870D01*
Y129858D02*
Y137795D01*
X328930D02*
X356870D01*
X328930Y116205D02*
Y137795D01*
X356870Y116205D02*
Y129858D01*
X122988Y151130D02*
Y163068D01*
X102922D02*
X122988D01*
X102922Y151130D02*
Y163068D01*
Y151130D02*
X122988D01*
X98552Y201422D02*
X109728D01*
Y220726D01*
X98552D02*
X109728D01*
X98552Y201422D02*
Y220726D01*
X124968Y194564D02*
Y205740D01*
Y194564D02*
X144272D01*
Y205740D01*
X124968D02*
X144272D01*
X124968Y191770D02*
X144272D01*
Y180594D02*
Y191770D01*
X124968Y180594D02*
X144272D01*
X124968D02*
Y191770D01*
X99314Y53086D02*
X110490D01*
X99314Y33782D02*
Y53086D01*
Y33782D02*
X110490D01*
Y53086D01*
X99060Y58928D02*
X110236D01*
Y78232D01*
X99060D02*
X110236D01*
X99060Y58928D02*
Y78232D01*
X484634Y125476D02*
Y136652D01*
Y125476D02*
X503938D01*
X484634Y136652D02*
X503938D01*
X80264Y179070D02*
Y195326D01*
Y179070D02*
X91440D01*
X80264Y195326D02*
X91440D01*
Y179070D02*
Y195326D01*
X109728Y175260D02*
Y194564D01*
X98552Y175260D02*
X109728D01*
X98552D02*
Y194564D01*
X109728D01*
X244602Y192786D02*
X255778D01*
Y212090D01*
X244602D02*
X255778D01*
X244602Y192786D02*
Y212090D01*
X259339Y212580D02*
X296921D01*
Y178580D02*
Y212580D01*
X259339Y178580D02*
X296921D01*
X259339D02*
Y212580D01*
X163322Y142240D02*
X175260D01*
Y162306D01*
X163322D02*
X175260D01*
X163322Y142240D02*
Y162306D01*
X199136Y136398D02*
Y148336D01*
X179070D02*
X199136D01*
X179070Y136398D02*
Y148336D01*
Y136398D02*
X199136D01*
Y150368D02*
Y162306D01*
X179070D02*
X199136D01*
X179070Y150368D02*
Y162306D01*
Y150368D02*
X199136D01*
X613918Y210058D02*
Y221996D01*
Y210058D02*
X633984D01*
Y221996D01*
X613918D02*
X633984D01*
X216916Y169418D02*
X236220D01*
Y158242D02*
Y169418D01*
X216916Y158242D02*
X236220D01*
X216916D02*
Y169418D01*
X505968Y32512D02*
X525272D01*
X505968D02*
Y43688D01*
X525272D01*
Y32512D02*
Y43688D01*
X493268Y215138D02*
X512572D01*
Y203962D02*
Y215138D01*
X493268Y203962D02*
X512572D01*
X493268D02*
Y215138D01*
X235712Y212598D02*
Y223774D01*
X216408D02*
X235712D01*
X216408Y212598D02*
Y223774D01*
Y212598D02*
X235712D01*
X236220Y144272D02*
Y155448D01*
X216916D02*
X236220D01*
X216916Y144272D02*
Y155448D01*
Y144272D02*
X236220D01*
X149352Y142240D02*
Y161544D01*
X160528D01*
Y142240D02*
Y161544D01*
X149352Y142240D02*
X160528D01*
X493266Y125476D02*
X512570D01*
X493266Y136652D02*
X512570D01*
Y125476D02*
Y136652D01*
X493268Y201168D02*
X512572D01*
Y189992D02*
Y201168D01*
X493268Y189992D02*
X512572D01*
X493268D02*
Y201168D01*
X255778Y140208D02*
Y159512D01*
X244602Y140208D02*
X255778D01*
X244602D02*
Y159512D01*
X255778D01*
X531368Y32512D02*
X550672D01*
X531368D02*
Y43688D01*
X550672D01*
Y32512D02*
Y43688D01*
X466598Y196852D02*
Y216156D01*
X455422Y196852D02*
X466598D01*
X455422D02*
Y216156D01*
X466598D01*
X216916Y130302D02*
Y141478D01*
Y130302D02*
X236220D01*
Y141478D01*
X216916D02*
X236220D01*
X512570Y108966D02*
Y120142D01*
X493266D02*
X512570D01*
X493266Y108966D02*
X512570D01*
X484634Y120142D02*
X503938D01*
X484634Y108966D02*
X503938D01*
X484634D02*
Y120142D01*
X413512Y61468D02*
Y80772D01*
X424688D01*
Y61468D02*
Y80772D01*
X413512Y61468D02*
X424688D01*
X657860Y26162D02*
Y38100D01*
Y26162D02*
X677926D01*
Y38100D01*
X657860D02*
X677926D01*
X438150Y220218D02*
X450850D01*
X438150Y196850D02*
Y220218D01*
Y196850D02*
X450850D01*
Y220218D01*
X259339Y173972D02*
X296921D01*
Y139972D02*
Y173972D01*
X259339Y139972D02*
X296921D01*
X259339D02*
Y173972D01*
X137414Y65786D02*
X149352D01*
X137414Y45720D02*
Y65786D01*
Y45720D02*
X149352D01*
Y65786D01*
X122174D02*
X134112D01*
X122174Y45720D02*
Y65786D01*
Y45720D02*
X134112D01*
Y65786D01*
X137668Y82296D02*
X149606D01*
Y102362D01*
X137668D02*
X149606D01*
X137668Y82296D02*
Y102362D01*
X235966Y197358D02*
Y209296D01*
X215900D02*
X235966D01*
X215900Y197358D02*
Y209296D01*
Y197358D02*
X235966D01*
X124460Y165862D02*
Y177800D01*
Y165862D02*
X144526D01*
Y177800D01*
X124460D02*
X144526D01*
X80518Y102362D02*
X96774D01*
X80518Y91186D02*
Y102362D01*
X96774Y91186D02*
Y102362D01*
X80518Y91186D02*
X96774D01*
X80518Y151638D02*
X96774D01*
Y162814D01*
X80518Y151638D02*
Y162814D01*
X96774D01*
X91694Y200914D02*
Y217170D01*
X80518D02*
X91694D01*
X80518Y200914D02*
X91694D01*
X80518D02*
Y217170D01*
X80772Y57860D02*
Y74116D01*
Y57860D02*
X91948D01*
X80772Y74116D02*
X91948D01*
Y57860D02*
Y74116D01*
X80772Y38914D02*
Y55170D01*
Y38914D02*
X91948D01*
X80772Y55170D02*
X91948D01*
Y38914D02*
Y55170D01*
X438150Y33782D02*
X450850D01*
Y57150D01*
X438150D02*
X450850D01*
X438150Y33782D02*
Y57150D01*
X92393Y106680D02*
X98108D01*
X84455D02*
Y147320D01*
Y106680D02*
X92393D01*
X84455Y147320D02*
X106045D01*
X98108Y106680D02*
X106045D01*
Y147320D01*
X637032Y210058D02*
X657098D01*
X637032D02*
Y221996D01*
X657098D01*
Y210058D02*
Y221996D01*
X413258Y38354D02*
Y58420D01*
X425196D01*
Y38354D02*
Y58420D01*
X413258Y38354D02*
X425196D01*
X386842Y175691D02*
Y205309D01*
X324358Y159258D02*
X386842D01*
X324358Y175691D02*
Y205309D01*
Y221742D02*
X386842D01*
X413258Y165354D02*
Y185420D01*
X425196D01*
Y165354D02*
Y185420D01*
X413258Y165354D02*
X425196D01*
X102870Y91186D02*
X122936D01*
X102870D02*
Y103124D01*
X122936D01*
Y91186D02*
Y103124D01*
X660198Y210058D02*
X680264D01*
X660198D02*
Y221996D01*
X680264D01*
Y210058D02*
Y221996D01*
X124206Y220980D02*
X144272D01*
Y209042D02*
Y220980D01*
X124206Y209042D02*
X144272D01*
X124206D02*
Y220980D01*
X435864Y61214D02*
Y68832D01*
X439673D01*
X440942Y67562D01*
Y65023D01*
X439673Y63753D01*
X435864D01*
X447290Y68832D02*
X444751D01*
X443481Y67562D01*
Y62484D01*
X444751Y61214D01*
X447290D01*
X448560Y62484D01*
Y67562D01*
X447290Y68832D01*
X451099D02*
Y61214D01*
X453638Y63753D01*
X456177Y61214D01*
Y68832D01*
X463795D02*
X458717D01*
Y61214D01*
X463795D01*
X458717Y65023D02*
X461256D01*
X466334Y61214D02*
Y68832D01*
X470143D01*
X471413Y67562D01*
Y65023D01*
X470143Y63753D01*
X466334D01*
X468873D02*
X471413Y61214D01*
X438404Y192022D02*
Y185674D01*
X439674Y184404D01*
X442213D01*
X443482Y185674D01*
Y192022D01*
X451100Y190752D02*
X449830Y192022D01*
X447291D01*
X446021Y190752D01*
Y189482D01*
X447291Y188213D01*
X449830D01*
X451100Y186943D01*
Y185674D01*
X449830Y184404D01*
X447291D01*
X446021Y185674D01*
X458717Y192022D02*
X453639D01*
Y184404D01*
X458717D01*
X453639Y188213D02*
X456178D01*
X461257Y184404D02*
Y192022D01*
X465065D01*
X466335Y190752D01*
Y188213D01*
X465065Y186943D01*
X461257D01*
X463796D02*
X466335Y184404D01*
X339090Y99060D02*
Y106678D01*
X342899D01*
X344168Y105408D01*
Y102869D01*
X342899Y101599D01*
X339090D01*
X341629D02*
X344168Y99060D01*
X351786Y106678D02*
X346707D01*
Y99060D01*
X351786D01*
X346707Y102869D02*
X349247D01*
X359403Y105408D02*
X358134Y106678D01*
X355595D01*
X354325Y105408D01*
Y104138D01*
X355595Y102869D01*
X358134D01*
X359403Y101599D01*
Y100330D01*
X358134Y99060D01*
X355595D01*
X354325Y100330D01*
X367021Y106678D02*
X361943D01*
Y99060D01*
X367021D01*
X361943Y102869D02*
X364482D01*
X369560Y106678D02*
X374638D01*
X372099D01*
Y99060D01*
X363474Y127253D02*
X368552D01*
X366013Y129792D02*
Y124714D01*
X371091Y129792D02*
X372361Y131061D01*
X374900D01*
X376170Y129792D01*
Y128522D01*
X374900Y127253D01*
X373631D01*
X374900D01*
X376170Y125983D01*
Y124714D01*
X374900Y123444D01*
X372361D01*
X371091Y124714D01*
X378709Y131061D02*
Y125983D01*
X381248Y123444D01*
X383787Y125983D01*
Y131061D01*
X386327Y129792D02*
X387596Y131061D01*
X390135D01*
X391405Y129792D01*
Y128522D01*
X390135Y127253D01*
X388866D01*
X390135D01*
X391405Y125983D01*
Y124714D01*
X390135Y123444D01*
X387596D01*
X386327Y124714D01*
X301244Y123444D02*
Y131061D01*
X305053D01*
X306322Y129792D01*
Y127253D01*
X305053Y125983D01*
X301244D01*
X303783D02*
X306322Y123444D01*
X313940Y131061D02*
X308862D01*
Y123444D01*
X313940D01*
X308862Y127253D02*
X311401D01*
X321557Y129792D02*
X320288Y131061D01*
X317749D01*
X316479Y129792D01*
Y124714D01*
X317749Y123444D01*
X320288D01*
X321557Y124714D01*
Y127253D01*
X319018D01*
X110744D02*
X115822D01*
X113283Y129792D02*
Y124714D01*
X123440Y131061D02*
X118362D01*
Y127253D01*
X120901Y128522D01*
X122170D01*
X123440Y127253D01*
Y124714D01*
X122170Y123444D01*
X119631D01*
X118362Y124714D01*
X125979Y131061D02*
Y125983D01*
X128518Y123444D01*
X131057Y125983D01*
Y131061D01*
X110744Y118362D02*
Y112014D01*
X112014Y110744D01*
X114553D01*
X115822Y112014D01*
Y118362D01*
X123440Y117092D02*
X122170Y118362D01*
X119631D01*
X118362Y117092D01*
Y115822D01*
X119631Y114553D01*
X122170D01*
X123440Y113283D01*
Y112014D01*
X122170Y110744D01*
X119631D01*
X118362Y112014D01*
X125979Y118362D02*
Y110744D01*
X129788D01*
X131057Y112014D01*
Y113283D01*
X129788Y114553D01*
X125979D01*
X129788D01*
X131057Y115822D01*
Y117092D01*
X129788Y118362D01*
X125979D01*
X138675Y110744D02*
X133597D01*
X138675Y115822D01*
Y117092D01*
X137405Y118362D01*
X134866D01*
X133597Y117092D01*
X110744Y143762D02*
Y137414D01*
X112014Y136144D01*
X114553D01*
X115822Y137414D01*
Y143762D01*
X123440Y142492D02*
X122170Y143762D01*
X119631D01*
X118362Y142492D01*
Y141222D01*
X119631Y139953D01*
X122170D01*
X123440Y138683D01*
Y137414D01*
X122170Y136144D01*
X119631D01*
X118362Y137414D01*
X125979Y143762D02*
Y136144D01*
X129788D01*
X131057Y137414D01*
Y138683D01*
X129788Y139953D01*
X125979D01*
X129788D01*
X131057Y141222D01*
Y142492D01*
X129788Y143762D01*
X125979D01*
X133597Y136144D02*
X136136D01*
X134866D01*
Y143762D01*
X133597Y142492D01*
X7874Y145031D02*
Y136567D01*
X9567Y134874D01*
X12952D01*
X14645Y136567D01*
Y145031D01*
X18031Y134874D02*
Y141645D01*
X21416Y145031D01*
X24802Y141645D01*
Y134874D01*
Y139952D01*
X18031D01*
X28187Y134874D02*
Y145031D01*
X33266D01*
X34959Y143338D01*
Y139952D01*
X33266Y138260D01*
X28187D01*
X31573D02*
X34959Y134874D01*
X38344Y145031D02*
X45115D01*
X41730D01*
Y134874D01*
X14645Y124711D02*
X7874D01*
Y114554D01*
X14645D01*
X7874Y119632D02*
X11260D01*
X24802Y123018D02*
X23109Y124711D01*
X19724D01*
X18031Y123018D01*
Y121325D01*
X19724Y119632D01*
X23109D01*
X24802Y117940D01*
Y116247D01*
X23109Y114554D01*
X19724D01*
X18031Y116247D01*
X28187Y114554D02*
Y124711D01*
X33266D01*
X34959Y123018D01*
Y119632D01*
X33266Y117940D01*
X28187D01*
X595035Y38351D02*
X591650D01*
X593342D01*
Y29887D01*
X591650Y28194D01*
X589957D01*
X588264Y29887D01*
X605192Y28194D02*
X598421D01*
X605192Y34965D01*
Y36658D01*
X603499Y38351D01*
X600113D01*
X598421Y36658D01*
X595035Y221231D02*
X591650D01*
X593342D01*
Y212767D01*
X591650Y211074D01*
X589957D01*
X588264Y212767D01*
X598421Y211074D02*
X601806D01*
X600113D01*
Y221231D01*
X598421Y219538D01*
X75184Y133604D02*
X78570D01*
X76877D01*
Y143761D01*
X75184Y142068D01*
X323850Y151128D02*
Y143510D01*
X327659D01*
X328928Y144780D01*
Y146049D01*
X327659Y147319D01*
X323850D01*
X327659D01*
X328928Y148588D01*
Y149858D01*
X327659Y151128D01*
X323850D01*
X335276D02*
X332737D01*
X331468Y149858D01*
Y144780D01*
X332737Y143510D01*
X335276D01*
X336546Y144780D01*
Y149858D01*
X335276Y151128D01*
X342894D02*
X340355D01*
X339085Y149858D01*
Y144780D01*
X340355Y143510D01*
X342894D01*
X344163Y144780D01*
Y149858D01*
X342894Y151128D01*
X346703D02*
X351781D01*
X349242D01*
Y143510D01*
X354320D02*
X359398Y148588D01*
X361938Y151128D02*
Y144780D01*
X363207Y143510D01*
X365746D01*
X367016Y144780D01*
Y151128D01*
X374634Y149858D02*
X373364Y151128D01*
X370825D01*
X369555Y149858D01*
Y148588D01*
X370825Y147319D01*
X373364D01*
X374634Y146049D01*
Y144780D01*
X373364Y143510D01*
X370825D01*
X369555Y144780D01*
X382251Y151128D02*
X377173D01*
Y143510D01*
X382251D01*
X377173Y147319D02*
X379712D01*
X384790Y143510D02*
Y151128D01*
X388599D01*
X389869Y149858D01*
Y147319D01*
X388599Y146049D01*
X384790D01*
X387329D02*
X389869Y143510D01*
D12*
X160340Y175580D02*
Y180580D01*
Y175580D02*
X165340D01*
X200340D02*
Y180580D01*
X195340Y175580D02*
X200340D01*
X160340Y210580D02*
Y215580D01*
X165340D01*
X200340Y210580D02*
Y215580D01*
X195340D02*
X200340D01*
X284630Y202830D02*
Y210080D01*
X278130D02*
X284630D01*
Y181080D02*
Y188330D01*
X278130Y181080D02*
X284630D01*
X-2950Y152400D02*
X4300D01*
X33800D02*
X46300D01*
X-2950D02*
Y243800D01*
X4300D01*
X33800D02*
X46300D01*
X33800Y104100D02*
X46300D01*
X-2950D02*
X4300D01*
X-2950Y12700D02*
Y104100D01*
X33800Y12700D02*
X46300D01*
X-2950D02*
X4300D01*
X284630Y164222D02*
Y171472D01*
X278130D02*
X284630D01*
Y142472D02*
Y149722D01*
X278130Y142472D02*
X284630D01*
X178620Y40160D02*
X217620D01*
X178620Y107160D02*
X217620D01*
Y40160D02*
Y107160D01*
X178620Y40160D02*
Y107160D01*
D13*
X736088Y50000D02*
Y204000D01*
X685588Y50000D02*
X736088D01*
X531088D02*
Y204000D01*
X685588D02*
X736088D01*
D14*
X444500Y218792D02*
D03*
Y35208D02*
D03*
M02*
