G04*
G04 #@! TF.GenerationSoftware,Altium Limited,Altium Designer,26.7.1 (11)*
G04*
G04 Layer_Color=16711935*
G04 Board_Origin=100000000|100000000*
%FSLAX44Y44*%
%MOMM*%
G71*
G04*
G04 #@! TF.SameCoordinates,35D10A8D-50D3-486A-B6A2-89D25CCCEA80*
G04*
G04*
G04 #@! TF.FilePolarity,Negative*
G04*
G01*
G75*
%ADD51C,1.1176*%
%ADD52R,1.7272X1.7272*%
%ADD53C,1.7272*%
%ADD54R,1.1176X1.1176*%
%ADD55R,1.1176X1.1176*%
G04:AMPARAMS|DCode=56|XSize=1mm|YSize=1.8mm|CornerRadius=0.5mm|HoleSize=0mm|Usage=FLASHONLY|Rotation=270.000|XOffset=0mm|YOffset=0mm|HoleType=Round|Shape=RoundedRectangle|*
%AMROUNDEDRECTD56*
21,1,1.0000,0.8000,0,0,270.0*
21,1,0.0000,1.8000,0,0,270.0*
1,1,1.0000,-0.4000,0.0000*
1,1,1.0000,-0.4000,0.0000*
1,1,1.0000,0.4000,0.0000*
1,1,1.0000,0.4000,0.0000*
%
%ADD56ROUNDEDRECTD56*%
G04:AMPARAMS|DCode=57|XSize=1mm|YSize=2.2mm|CornerRadius=0.5mm|HoleSize=0mm|Usage=FLASHONLY|Rotation=270.000|XOffset=0mm|YOffset=0mm|HoleType=Round|Shape=RoundedRectangle|*
%AMROUNDEDRECTD57*
21,1,1.0000,1.2000,0,0,270.0*
21,1,0.0000,2.2000,0,0,270.0*
1,1,1.0000,-0.6000,0.0000*
1,1,1.0000,-0.6000,0.0000*
1,1,1.0000,0.6000,0.0000*
1,1,1.0000,0.6000,0.0000*
%
%ADD57ROUNDEDRECTD57*%
D51*
X349250Y127000D02*
D03*
X95250D02*
D03*
Y114300D02*
D03*
D52*
X671830Y13970D02*
D03*
Y240030D02*
D03*
D53*
X646430D02*
D03*
X87630D02*
D03*
X163830D02*
D03*
X189230D02*
D03*
X214630D02*
D03*
X240030D02*
D03*
X265430D02*
D03*
X290830D02*
D03*
X316230D02*
D03*
X341630D02*
D03*
X367030D02*
D03*
X392430D02*
D03*
X417830D02*
D03*
X443230D02*
D03*
X468630D02*
D03*
X494030D02*
D03*
X519430D02*
D03*
X544830D02*
D03*
X570230D02*
D03*
X595630D02*
D03*
X621030D02*
D03*
X138430D02*
D03*
X113030D02*
D03*
X646430Y13970D02*
D03*
X87630D02*
D03*
X621030D02*
D03*
X189230D02*
D03*
X163830D02*
D03*
X214630D02*
D03*
X240030D02*
D03*
X265430D02*
D03*
X290830D02*
D03*
X316230D02*
D03*
X341630D02*
D03*
X367030D02*
D03*
X392430D02*
D03*
X417830D02*
D03*
X443230D02*
D03*
X468630D02*
D03*
X494030D02*
D03*
X570230D02*
D03*
X595630D02*
D03*
X113030D02*
D03*
X138430D02*
D03*
X544830D02*
D03*
X519430D02*
D03*
D54*
X336550Y127000D02*
D03*
D55*
X95250Y139700D02*
D03*
D56*
X59050Y241300D02*
D03*
Y154900D02*
D03*
Y101600D02*
D03*
Y15200D02*
D03*
D57*
X19050Y241300D02*
D03*
Y154900D02*
D03*
Y101600D02*
D03*
Y15200D02*
D03*
M02*
