G04*
G04 #@! TF.GenerationSoftware,Altium Limited,Altium Designer,26.7.1 (11)*
G04*
G04 Layer_Color=8421504*
G04 Board_Origin=100000000|100000000*
%FSLAX44Y44*%
%MOMM*%
G71*
G04*
G04 #@! TF.SameCoordinates,35D10A8D-50D3-486A-B6A2-89D25CCCEA80*
G04*
G04*
G04 #@! TF.FilePolarity,Positive*
G04*
G01*
G75*
%ADD15R,1.2965X1.2965*%
%ADD16R,0.5400X0.6000*%
G04:AMPARAMS|DCode=17|XSize=0.6mm|YSize=0.67mm|CornerRadius=0.075mm|HoleSize=0mm|Usage=FLASHONLY|Rotation=180.000|XOffset=0mm|YOffset=0mm|HoleType=Round|Shape=RoundedRectangle|*
%AMROUNDEDRECTD17*
21,1,0.6000,0.5200,0,0,180.0*
21,1,0.4500,0.6700,0,0,180.0*
1,1,0.1500,-0.2250,0.2600*
1,1,0.1500,0.2250,0.2600*
1,1,0.1500,0.2250,-0.2600*
1,1,0.1500,-0.2250,-0.2600*
%
%ADD17ROUNDEDRECTD17*%
G04:AMPARAMS|DCode=18|XSize=0.8397mm|YSize=0.2425mm|CornerRadius=0.1212mm|HoleSize=0mm|Usage=FLASHONLY|Rotation=270.000|XOffset=0mm|YOffset=0mm|HoleType=Round|Shape=RoundedRectangle|*
%AMROUNDEDRECTD18*
21,1,0.8397,0.0000,0,0,270.0*
21,1,0.5972,0.2425,0,0,270.0*
1,1,0.2425,0.0000,-0.2986*
1,1,0.2425,0.0000,0.2986*
1,1,0.2425,0.0000,0.2986*
1,1,0.2425,0.0000,-0.2986*
%
%ADD18ROUNDEDRECTD18*%
%ADD19R,0.6000X0.5400*%
%ADD20R,0.4000X0.8000*%
G04:AMPARAMS|DCode=21|XSize=0.2425mm|YSize=0.8397mm|CornerRadius=0.1212mm|HoleSize=0mm|Usage=FLASHONLY|Rotation=270.000|XOffset=0mm|YOffset=0mm|HoleType=Round|Shape=RoundedRectangle|*
%AMROUNDEDRECTD21*
21,1,0.2425,0.5972,0,0,270.0*
21,1,0.0000,0.8397,0,0,270.0*
1,1,0.2425,-0.2986,0.0000*
1,1,0.2425,-0.2986,0.0000*
1,1,0.2425,0.2986,0.0000*
1,1,0.2425,0.2986,0.0000*
%
%ADD21ROUNDEDRECTD21*%
%ADD22R,0.2425X0.8397*%
G04:AMPARAMS|DCode=23|XSize=1.3571mm|YSize=0.5721mm|CornerRadius=0.2861mm|HoleSize=0mm|Usage=FLASHONLY|Rotation=0.000|XOffset=0mm|YOffset=0mm|HoleType=Round|Shape=RoundedRectangle|*
%AMROUNDEDRECTD23*
21,1,1.3571,0.0000,0,0,0.0*
21,1,0.7850,0.5721,0,0,0.0*
1,1,0.5721,0.3925,0.0000*
1,1,0.5721,-0.3925,0.0000*
1,1,0.5721,-0.3925,0.0000*
1,1,0.5721,0.3925,0.0000*
%
%ADD23ROUNDEDRECTD23*%
G04:AMPARAMS|DCode=24|XSize=0.6mm|YSize=0.67mm|CornerRadius=0.075mm|HoleSize=0mm|Usage=FLASHONLY|Rotation=90.000|XOffset=0mm|YOffset=0mm|HoleType=Round|Shape=RoundedRectangle|*
%AMROUNDEDRECTD24*
21,1,0.6000,0.5200,0,0,90.0*
21,1,0.4500,0.6700,0,0,90.0*
1,1,0.1500,0.2600,0.2250*
1,1,0.1500,0.2600,-0.2250*
1,1,0.1500,-0.2600,-0.2250*
1,1,0.1500,-0.2600,0.2250*
%
%ADD24ROUNDEDRECTD24*%
%ADD25R,2.1986X0.8728*%
%ADD26R,0.7000X0.6000*%
G04:AMPARAMS|DCode=27|XSize=0.9mm|YSize=1.75mm|CornerRadius=0.0495mm|HoleSize=0mm|Usage=FLASHONLY|Rotation=90.000|XOffset=0mm|YOffset=0mm|HoleType=Round|Shape=RoundedRectangle|*
%AMROUNDEDRECTD27*
21,1,0.9000,1.6510,0,0,90.0*
21,1,0.8010,1.7500,0,0,90.0*
1,1,0.0990,0.8255,0.4005*
1,1,0.0990,0.8255,-0.4005*
1,1,0.0990,-0.8255,-0.4005*
1,1,0.0990,-0.8255,0.4005*
%
%ADD27ROUNDEDRECTD27*%
%ADD28R,0.3500X0.6000*%
%ADD29R,1.1500X0.6000*%
%ADD30R,0.6000X0.3500*%
%ADD31R,1.1500X0.3000*%
%ADD32R,0.8000X0.4000*%
%ADD33R,0.8000X0.8000*%
%ADD34R,1.2000X1.2000*%
G04:AMPARAMS|DCode=35|XSize=3.2mm|YSize=1.75mm|CornerRadius=0.0525mm|HoleSize=0mm|Usage=FLASHONLY|Rotation=90.000|XOffset=0mm|YOffset=0mm|HoleType=Round|Shape=RoundedRectangle|*
%AMROUNDEDRECTD35*
21,1,3.2000,1.6450,0,0,90.0*
21,1,3.0950,1.7500,0,0,90.0*
1,1,0.1050,0.8225,1.5475*
1,1,0.1050,0.8225,-1.5475*
1,1,0.1050,-0.8225,-1.5475*
1,1,0.1050,-0.8225,1.5475*
%
%ADD35ROUNDEDRECTD35*%
%ADD36R,1.3571X0.5721*%
G36*
X618838Y137500D02*
Y149500D01*
X624838D01*
X630838Y143500D01*
Y137500D01*
X618838D01*
D02*
G37*
D15*
X180340Y195581D02*
D03*
D16*
X193550Y127000D02*
D03*
X184910D02*
D03*
X184914D02*
D03*
X230380Y218186D02*
D03*
X511300Y38100D02*
D03*
X222248Y163830D02*
D03*
Y149860D02*
D03*
X138940Y186182D02*
D03*
Y200152D02*
D03*
X222248Y135890D02*
D03*
X536700Y38100D02*
D03*
X221740Y218186D02*
D03*
X176274Y127000D02*
D03*
X230888Y163830D02*
D03*
X130300Y200152D02*
D03*
Y186182D02*
D03*
X489966Y131064D02*
D03*
Y114554D02*
D03*
X498606Y131064D02*
D03*
X498598D02*
D03*
X230888Y149860D02*
D03*
Y135890D02*
D03*
X498600Y195580D02*
D03*
Y209550D02*
D03*
X507238Y131064D02*
D03*
Y114554D02*
D03*
X498598D02*
D03*
X498606D02*
D03*
X507240Y195580D02*
D03*
Y209550D02*
D03*
X545340Y38100D02*
D03*
X519940D02*
D03*
D17*
X184860Y142240D02*
D03*
Y156210D02*
D03*
X642822Y215900D02*
D03*
X628194Y216154D02*
D03*
X672136Y32258D02*
D03*
X665988Y215900D02*
D03*
X138736Y171958D02*
D03*
X221690Y203200D02*
D03*
X108712Y156972D02*
D03*
X117452D02*
D03*
X674728Y215900D02*
D03*
X619454Y216154D02*
D03*
X651562Y215900D02*
D03*
X663396Y32258D02*
D03*
X230430Y203200D02*
D03*
X193600Y156210D02*
D03*
Y142240D02*
D03*
X129742Y215138D02*
D03*
X129996Y171958D02*
D03*
X117400Y97028D02*
D03*
X138482Y215138D02*
D03*
X108660Y97028D02*
D03*
D18*
X175340Y176425D02*
D03*
X185340Y214735D02*
D03*
X175340D02*
D03*
X170340D02*
D03*
X185340Y176425D02*
D03*
X170340D02*
D03*
X190340D02*
D03*
X180340D02*
D03*
Y214735D02*
D03*
D19*
X419100Y75440D02*
D03*
X461010Y202184D02*
D03*
Y51818D02*
D03*
X250190Y198118D02*
D03*
X154940Y156212D02*
D03*
X250190Y154180D02*
D03*
X154940Y147572D02*
D03*
X461010Y43178D02*
D03*
X104140Y215394D02*
D03*
Y206754D02*
D03*
X104902Y39114D02*
D03*
Y47754D02*
D03*
X104648Y72900D02*
D03*
Y64260D02*
D03*
X104140Y180592D02*
D03*
Y189232D02*
D03*
X250190Y145540D02*
D03*
Y206758D02*
D03*
X419100Y66800D02*
D03*
X461010Y210824D02*
D03*
D20*
X650838Y197000D02*
D03*
X667838D02*
D03*
X659338D02*
D03*
X650838Y57000D02*
D03*
X642338D02*
D03*
X667838D02*
D03*
X642338Y197000D02*
D03*
X633838D02*
D03*
X625338D02*
D03*
X616838D02*
D03*
X608338D02*
D03*
X599838D02*
D03*
X591338D02*
D03*
X582838D02*
D03*
X574338D02*
D03*
X565838D02*
D03*
X557338D02*
D03*
X548838D02*
D03*
Y57000D02*
D03*
X557338D02*
D03*
X565838D02*
D03*
X574338D02*
D03*
X582838D02*
D03*
X591338D02*
D03*
X599838D02*
D03*
X608338D02*
D03*
X633838D02*
D03*
X659338D02*
D03*
X625338D02*
D03*
X616838D02*
D03*
D21*
X161185Y205580D02*
D03*
Y200580D02*
D03*
X199495Y185580D02*
D03*
Y190580D02*
D03*
X161185Y185580D02*
D03*
X199495Y205580D02*
D03*
Y195580D02*
D03*
Y200580D02*
D03*
X161185Y190580D02*
D03*
Y195580D02*
D03*
D22*
X190340Y214735D02*
D03*
D23*
X268624Y147472D02*
D03*
Y186080D02*
D03*
X287635Y195580D02*
D03*
Y156972D02*
D03*
D24*
X169164Y156516D02*
D03*
X143510Y51510D02*
D03*
X128270D02*
D03*
X419100Y170890D02*
D03*
Y43890D02*
D03*
X169164Y147776D02*
D03*
X143510Y87832D02*
D03*
X128270Y60250D02*
D03*
X143510D02*
D03*
X419100Y179630D02*
D03*
X143510Y96572D02*
D03*
X419100Y52630D02*
D03*
D25*
X318135Y41000D02*
D03*
X393065D02*
D03*
Y86000D02*
D03*
X318135D02*
D03*
X393065Y213000D02*
D03*
X318135D02*
D03*
Y168000D02*
D03*
X393065D02*
D03*
D26*
X444500Y51740D02*
D03*
Y42240D02*
D03*
Y211760D02*
D03*
Y202260D02*
D03*
D27*
X166870Y50660D02*
D03*
Y73660D02*
D03*
Y96660D02*
D03*
D28*
X91896Y157226D02*
D03*
X85396D02*
D03*
Y96774D02*
D03*
X91896D02*
D03*
D29*
X64800Y222100D02*
D03*
Y174100D02*
D03*
Y230100D02*
D03*
Y166100D02*
D03*
Y90400D02*
D03*
Y26400D02*
D03*
Y82400D02*
D03*
Y34400D02*
D03*
D30*
X85852Y190448D02*
D03*
X86106Y205792D02*
D03*
X86360Y62738D02*
D03*
Y50292D02*
D03*
X85852Y183948D02*
D03*
X86106Y212292D02*
D03*
X86360Y69238D02*
D03*
Y43792D02*
D03*
D31*
X64800Y200600D02*
D03*
Y190600D02*
D03*
Y205600D02*
D03*
Y195600D02*
D03*
Y65900D02*
D03*
Y55900D02*
D03*
Y60900D02*
D03*
Y50900D02*
D03*
Y40900D02*
D03*
Y70900D02*
D03*
Y210600D02*
D03*
Y180600D02*
D03*
Y185600D02*
D03*
Y215600D02*
D03*
Y75900D02*
D03*
Y45900D02*
D03*
D32*
X538338Y127000D02*
D03*
X678338Y186500D02*
D03*
Y178000D02*
D03*
Y169500D02*
D03*
Y161000D02*
D03*
Y144000D02*
D03*
Y152500D02*
D03*
Y135500D02*
D03*
Y118500D02*
D03*
Y127000D02*
D03*
Y93000D02*
D03*
Y101500D02*
D03*
Y84500D02*
D03*
Y110000D02*
D03*
Y67500D02*
D03*
Y76000D02*
D03*
X538338Y118500D02*
D03*
Y186500D02*
D03*
Y178000D02*
D03*
Y169500D02*
D03*
Y161000D02*
D03*
Y152500D02*
D03*
Y144000D02*
D03*
Y135500D02*
D03*
Y110000D02*
D03*
Y101500D02*
D03*
Y84500D02*
D03*
Y76000D02*
D03*
Y93000D02*
D03*
Y67500D02*
D03*
D33*
X678338Y197000D02*
D03*
X538338D02*
D03*
X678338Y57000D02*
D03*
X538338D02*
D03*
D34*
X608338Y143500D02*
D03*
X591838D02*
D03*
X624838Y127000D02*
D03*
Y110500D02*
D03*
X608338Y127000D02*
D03*
X591838D02*
D03*
X608338Y110500D02*
D03*
X591838D02*
D03*
D35*
X229370Y73660D02*
D03*
D36*
X268624Y166472D02*
D03*
Y205080D02*
D03*
M02*
