G04*
G04 #@! TF.GenerationSoftware,Altium Limited,Altium Designer,26.7.1 (11)*
G04*
G04 Layer_Color=8388736*
G04 Board_Origin=14090000|106210000*
%FSLAX25Y25*%
%MOIN*%
G70*
G04*
G04 #@! TF.SameCoordinates,1190F324-7C53-4A33-901E-C1DE6189C4DA*
G04*
G04*
G04 #@! TF.FilePolarity,Negative*
G04*
G01*
G75*
%ADD17C,0.07677*%
%ADD18R,0.07677X0.07677*%
%ADD19R,0.05900X0.05900*%
%ADD20C,0.12992*%
G04:AMPARAMS|DCode=21|XSize=183.07mil|YSize=41.34mil|CornerRadius=0mil|HoleSize=0mil|Usage=FLASHONLY|Rotation=350.000|XOffset=0mil|YOffset=0mil|HoleType=Round|Shape=Round|*
%AMOVALD21*
21,1,0.14173,0.04134,0.00000,0.00000,350.0*
1,1,0.04134,-0.06979,0.01231*
1,1,0.04134,0.06979,-0.01231*
%
%ADD21OVALD21*%

%ADD22R,0.12992X0.12992*%
%ADD23C,0.07480*%
%ADD24C,0.06299*%
%ADD25C,0.05165*%
%ADD26C,0.07835*%
%ADD27R,0.07480X0.07480*%
%ADD28C,0.07063*%
%ADD29R,0.05165X0.05165*%
%ADD30R,0.06299X0.06299*%
%ADD31C,0.06000*%
%ADD32C,0.16000*%
%ADD33R,0.06000X0.06000*%
%ADD34R,0.07835X0.07835*%
%ADD35R,0.07835X0.07835*%
D17*
X454500Y260785D02*
D03*
X33500Y237500D02*
D03*
D18*
X454500Y241100D02*
D03*
X33500Y257185D02*
D03*
D19*
X447000Y24100D02*
D03*
Y75600D02*
D03*
X446783Y127600D02*
D03*
D20*
X391504Y105774D02*
D03*
X361555Y99134D02*
D03*
D21*
X387174Y199663D02*
D03*
X358000Y149839D02*
D03*
D22*
X331606Y105774D02*
D03*
D23*
X336000Y27500D02*
D03*
X366000D02*
D03*
X356000D02*
D03*
X276000D02*
D03*
X306000D02*
D03*
X316000D02*
D03*
X326000D02*
D03*
X346000D02*
D03*
X296000D02*
D03*
X286000D02*
D03*
D24*
Y145600D02*
D03*
Y394100D02*
D03*
X236600Y420400D02*
D03*
X266600D02*
D03*
Y400400D02*
D03*
X214000Y419474D02*
D03*
X266600Y170400D02*
D03*
Y150400D02*
D03*
X236600Y170400D02*
D03*
X214000Y169600D02*
D03*
X286000Y135600D02*
D03*
Y384100D02*
D03*
X266600Y380400D02*
D03*
Y130400D02*
D03*
X214000Y161726D02*
D03*
X222500Y140300D02*
D03*
Y130300D02*
D03*
X266600Y120400D02*
D03*
Y140400D02*
D03*
Y160400D02*
D03*
Y180400D02*
D03*
X236600Y120400D02*
D03*
Y150400D02*
D03*
Y130400D02*
D03*
Y140400D02*
D03*
Y160400D02*
D03*
Y400400D02*
D03*
Y390400D02*
D03*
Y380400D02*
D03*
Y370400D02*
D03*
X266600Y430400D02*
D03*
Y410400D02*
D03*
Y390400D02*
D03*
Y370400D02*
D03*
X236600Y410400D02*
D03*
X222500Y380100D02*
D03*
Y390100D02*
D03*
X214000Y411600D02*
D03*
D25*
X315500Y394100D02*
D03*
Y404100D02*
D03*
D26*
X230000Y465100D02*
D03*
X116500Y473100D02*
D03*
X116600Y222900D02*
D03*
Y337900D02*
D03*
Y87900D02*
D03*
Y212900D02*
D03*
Y97900D02*
D03*
X116500Y463100D02*
D03*
X116600Y347900D02*
D03*
X220000Y465100D02*
D03*
D27*
X266000Y27500D02*
D03*
D28*
X203500Y143600D02*
D03*
Y105200D02*
D03*
X315500Y424600D02*
D03*
Y464600D02*
D03*
X293000Y424600D02*
D03*
Y464600D02*
D03*
X207500Y352700D02*
D03*
Y391100D02*
D03*
X190500Y423600D02*
D03*
X150500D02*
D03*
X151600Y400600D02*
D03*
X190000D02*
D03*
X190500Y173600D02*
D03*
X150500D02*
D03*
X186000Y24900D02*
D03*
X147600D02*
D03*
X146600Y47900D02*
D03*
X186600D02*
D03*
X151100Y275600D02*
D03*
X189500D02*
D03*
X190500Y298600D02*
D03*
X150500D02*
D03*
X315500Y368600D02*
D03*
Y328600D02*
D03*
X151100Y150600D02*
D03*
X189500D02*
D03*
X33500Y284100D02*
D03*
Y322500D02*
D03*
D29*
X315500Y384100D02*
D03*
D30*
X236600Y180400D02*
D03*
Y430400D02*
D03*
D31*
X400800Y299900D02*
D03*
D32*
X361500Y436100D02*
D03*
X440100Y363700D02*
D03*
D33*
X400800Y499900D02*
D03*
D34*
X116600Y77900D02*
D03*
Y327900D02*
D03*
X116500Y453100D02*
D03*
X116600Y202900D02*
D03*
D35*
X210000Y465100D02*
D03*
M02*
