G04*
G04 #@! TF.GenerationSoftware,Altium Limited,Altium Designer,26.7.1 (11)*
G04*
G04 Layer_Physical_Order=1*
G04 Layer_Color=255*
G04 Board_Origin=14090000|106210000*
%FSLAX25Y25*%
%MOIN*%
G70*
G04*
G04 #@! TF.SameCoordinates,1190F324-7C53-4A33-901E-C1DE6189C4DA*
G04*
G04*
G04 #@! TF.FilePolarity,Positive*
G04*
G01*
G75*
%ADD17C,0.07677*%
%ADD18R,0.07677X0.07677*%
%ADD19R,0.05900X0.05900*%
%ADD20C,0.12992*%
G04:AMPARAMS|DCode=21|XSize=183.07mil|YSize=41.34mil|CornerRadius=0mil|HoleSize=0mil|Usage=FLASHONLY|Rotation=350.000|XOffset=0mil|YOffset=0mil|HoleType=Round|Shape=Round|*
%AMOVALD21*
21,1,0.14173,0.04134,0.00000,0.00000,350.0*
1,1,0.04134,-0.06979,0.01231*
1,1,0.04134,0.06979,-0.01231*
%
%ADD21OVALD21*%

%ADD22R,0.12992X0.12992*%
%ADD23C,0.07480*%
%ADD24C,0.06299*%
%ADD26C,0.07835*%
%ADD27R,0.07480X0.07480*%
%ADD30R,0.06299X0.06299*%
%ADD31C,0.06000*%
%ADD32C,0.16000*%
%ADD33R,0.06000X0.06000*%
%ADD34R,0.07835X0.07835*%
%ADD35R,0.07835X0.07835*%
%ADD36C,0.06000*%
%ADD37C,0.05900*%
%ADD38C,0.04362*%
%ADD39C,0.06260*%
%ADD40R,0.04362X0.04362*%
G36*
X408500Y488000D02*
X241500Y488000D01*
X225000Y471500D01*
Y460000D01*
X215000D01*
Y498500D01*
X227500Y511000D01*
X408500D01*
Y488000D01*
D02*
G37*
G36*
X216000Y379500D02*
X206500Y370000D01*
X146500D01*
X120000Y343500D01*
X112500D01*
Y384980D01*
X202500D01*
X212000Y384980D01*
X212099Y385000D01*
X216000D01*
Y379500D01*
D02*
G37*
G36*
X298500Y457500D02*
X271000D01*
X262100Y448600D01*
Y385000D01*
X256300Y379700D01*
X241000Y395000D01*
Y405514D01*
X231514D01*
X212000Y386000D01*
X202500Y386000D01*
X103500D01*
Y342500D01*
X104000Y342000D01*
X121359D01*
X121400Y341900D01*
Y333500D01*
X104000D01*
X103500Y333000D01*
Y317500D01*
Y145000D01*
X198500D01*
Y165000D01*
X241100D01*
Y156209D01*
X240391Y155503D01*
X230416Y155552D01*
X222550Y146950D01*
X214179Y137796D01*
X213983Y137600D01*
X103500D01*
Y93000D01*
X104200Y92300D01*
X121500D01*
X121600Y92200D01*
Y83500D01*
X52076D01*
X51200Y83800D01*
Y317500D01*
X28500D01*
Y342500D01*
X71500D01*
Y394000D01*
X202500D01*
Y415000D01*
X241000D01*
Y445000D01*
X268500Y472500D01*
X298500D01*
Y457500D01*
D02*
G37*
G36*
X264960Y366140D02*
X267623Y365839D01*
X310594Y322900D01*
X413500D01*
Y289500D01*
X281816D01*
X265500Y304700D01*
Y353000D01*
X256200Y362300D01*
Y368158D01*
X259200Y368600D01*
X262200Y368900D01*
X264960Y366140D01*
D02*
G37*
G36*
X253500Y378000D02*
Y360000D01*
X261000Y352500D01*
Y285500D01*
X276500Y270000D01*
X461000D01*
Y252500D01*
X260500D01*
X243000Y270000D01*
Y380500D01*
X247000Y384500D01*
X253500Y378000D01*
D02*
G37*
G36*
X42500Y250000D02*
X25000D01*
Y290000D01*
X42500D01*
Y250000D01*
D02*
G37*
G36*
X481000Y20000D02*
X467515D01*
X467226Y20727D01*
X467203Y21000D01*
X467877Y21675D01*
X468397Y22575D01*
X468667Y23580D01*
Y24620D01*
X468397Y25625D01*
X467877Y26525D01*
X467142Y27261D01*
X466241Y27781D01*
X465237Y28050D01*
X464196D01*
X463192Y27781D01*
X462291Y27261D01*
X461556Y26525D01*
X461036Y25625D01*
X460767Y24620D01*
Y23580D01*
X461036Y22575D01*
X461556Y21675D01*
X462230Y21000D01*
X462207Y20727D01*
X461918Y20000D01*
X451888D01*
X450950Y20150D01*
X450950Y21000D01*
Y28050D01*
X443050D01*
Y21000D01*
X443050Y20150D01*
X442112Y20000D01*
X362020D01*
Y42000D01*
X362000Y42099D01*
Y43500D01*
X353520Y51980D01*
Y101500D01*
X353500Y101599D01*
Y103000D01*
X315000Y141500D01*
X279500Y141500D01*
X276000Y145000D01*
X258000D01*
Y156000D01*
X442690D01*
X443267Y155000D01*
X443103Y154715D01*
X442834Y153711D01*
Y152671D01*
X443103Y151666D01*
X443623Y150765D01*
X444358Y150030D01*
X445259Y149510D01*
X446263Y149241D01*
X447303D01*
X448308Y149510D01*
X449209Y150030D01*
X449944Y150765D01*
X450464Y151666D01*
X450734Y152671D01*
Y153711D01*
X450464Y154715D01*
X450300Y155000D01*
X450877Y156000D01*
X481000D01*
Y20000D01*
D02*
G37*
G36*
X461000Y232000D02*
X276000D01*
X261000Y217000D01*
Y160500D01*
X248000Y147500D01*
X244250Y150750D01*
X243500Y151500D01*
Y233000D01*
X260500Y250000D01*
X461000D01*
Y232000D01*
D02*
G37*
G36*
X217400Y131100D02*
X206300Y120000D01*
X146000D01*
X119500Y93500D01*
X112500D01*
Y136500D01*
X217400D01*
X217400Y131100D01*
D02*
G37*
G36*
X352500Y101500D02*
Y50500D01*
X361000Y42000D01*
Y20000D01*
X351000D01*
Y31500D01*
X335000Y47500D01*
Y71000D01*
X281000Y125000D01*
X258500D01*
Y135000D01*
X276000D01*
X281000Y140000D01*
X314000D01*
X352500Y101500D01*
D02*
G37*
%LPC*%
G36*
X33500Y288135D02*
X32456Y287997D01*
X31483Y287594D01*
X30647Y286953D01*
X30006Y286117D01*
X29603Y285144D01*
X29465Y284100D01*
Y257185D01*
X29603Y256141D01*
X30006Y255168D01*
X30647Y254332D01*
X31483Y253691D01*
X32456Y253288D01*
X33500Y253151D01*
X34544Y253288D01*
X35517Y253691D01*
X36353Y254332D01*
X36994Y255168D01*
X37397Y256141D01*
X37534Y257185D01*
Y284100D01*
X37397Y285144D01*
X36994Y286117D01*
X36353Y286953D01*
X35517Y287594D01*
X34544Y287997D01*
X33500Y288135D01*
D02*
G37*
G36*
X350751Y154151D02*
X349963Y153976D01*
X349247Y153603D01*
X348651Y153058D01*
X348218Y152376D01*
X347975Y151606D01*
X347939Y150800D01*
X348114Y150011D01*
X348487Y149295D01*
X349033Y148699D01*
X349714Y148266D01*
X350484Y148023D01*
X364442Y145562D01*
X365249Y145526D01*
X366037Y145701D01*
X366753Y146074D01*
X367349Y146620D01*
X367782Y147301D01*
X368025Y148071D01*
X368061Y148878D01*
X367886Y149666D01*
X367513Y150382D01*
X366967Y150978D01*
X366286Y151412D01*
X365516Y151654D01*
X351558Y154116D01*
X350751Y154151D01*
D02*
G37*
G36*
X465020Y131550D02*
X463980D01*
X462975Y131281D01*
X462075Y130761D01*
X461339Y130025D01*
X460819Y129125D01*
X460550Y128120D01*
Y127080D01*
X460819Y126075D01*
X461339Y125175D01*
X462075Y124439D01*
X462975Y123919D01*
X463980Y123650D01*
X465020D01*
X466025Y123919D01*
X466925Y124439D01*
X467661Y125175D01*
X468181Y126075D01*
X468450Y127080D01*
Y128120D01*
X468181Y129125D01*
X467661Y130025D01*
X466925Y130761D01*
X466025Y131281D01*
X465020Y131550D01*
D02*
G37*
G36*
X450734D02*
X442834D01*
Y123650D01*
X450734D01*
Y131550D01*
D02*
G37*
G36*
X392243Y113270D02*
X390766D01*
X389318Y112982D01*
X387954Y112417D01*
X386726Y111596D01*
X385682Y110552D01*
X384861Y109324D01*
X384296Y107960D01*
X384008Y106512D01*
Y105035D01*
X384296Y103587D01*
X384861Y102223D01*
X385682Y100995D01*
X386726Y99951D01*
X387954Y99131D01*
X389318Y98566D01*
X390766Y98278D01*
X392243D01*
X393691Y98566D01*
X395055Y99131D01*
X396283Y99951D01*
X397327Y100995D01*
X398147Y102223D01*
X398712Y103587D01*
X399000Y105035D01*
Y106512D01*
X398712Y107960D01*
X398147Y109324D01*
X397327Y110552D01*
X396283Y111596D01*
X395055Y112417D01*
X393691Y112982D01*
X392243Y113270D01*
D02*
G37*
G36*
X447520Y105141D02*
X446480D01*
X445475Y104871D01*
X444575Y104351D01*
X443839Y103616D01*
X443319Y102715D01*
X443050Y101711D01*
Y100671D01*
X443319Y99666D01*
X443839Y98765D01*
X444575Y98030D01*
X445475Y97510D01*
X446480Y97241D01*
X447520D01*
X448525Y97510D01*
X449425Y98030D01*
X450161Y98765D01*
X450681Y99666D01*
X450950Y100671D01*
Y101711D01*
X450681Y102715D01*
X450161Y103616D01*
X449425Y104351D01*
X448525Y104871D01*
X447520Y105141D01*
D02*
G37*
G36*
X465237Y79550D02*
X464196D01*
X463192Y79281D01*
X462291Y78761D01*
X461556Y78025D01*
X461036Y77125D01*
X460767Y76120D01*
Y75080D01*
X461036Y74075D01*
X461556Y73175D01*
X462291Y72439D01*
X463192Y71919D01*
X464196Y71650D01*
X465237D01*
X466241Y71919D01*
X467142Y72439D01*
X467877Y73175D01*
X468397Y74075D01*
X468667Y75080D01*
Y76120D01*
X468397Y77125D01*
X467877Y78025D01*
X467142Y78761D01*
X466241Y79281D01*
X465237Y79550D01*
D02*
G37*
G36*
X450950D02*
X443050D01*
Y71650D01*
X450950D01*
Y79550D01*
D02*
G37*
G36*
X447520Y53641D02*
X446480D01*
X445475Y53371D01*
X444575Y52851D01*
X443839Y52116D01*
X443319Y51215D01*
X443050Y50211D01*
Y49171D01*
X443319Y48166D01*
X443839Y47265D01*
X444575Y46530D01*
X445475Y46010D01*
X446480Y45741D01*
X447520D01*
X448525Y46010D01*
X449425Y46530D01*
X450161Y47265D01*
X450681Y48166D01*
X450950Y49171D01*
Y50211D01*
X450681Y51215D01*
X450161Y52116D01*
X449425Y52851D01*
X448525Y53371D01*
X447520Y53641D01*
D02*
G37*
%LPD*%
D17*
X454500Y260785D02*
D03*
X33500Y237500D02*
D03*
D18*
X454500Y241100D02*
D03*
X33500Y257185D02*
D03*
D19*
X447000Y24100D02*
D03*
Y75600D02*
D03*
X446783Y127600D02*
D03*
D20*
X391504Y105774D02*
D03*
X361555Y99134D02*
D03*
D21*
X387174Y199663D02*
D03*
X358000Y149839D02*
D03*
D22*
X331606Y105774D02*
D03*
D23*
X336000Y27500D02*
D03*
X366000D02*
D03*
X356000D02*
D03*
X276000D02*
D03*
X306000D02*
D03*
X316000D02*
D03*
X326000D02*
D03*
X346000D02*
D03*
X296000D02*
D03*
X286000D02*
D03*
D24*
Y145600D02*
D03*
Y394100D02*
D03*
X236600Y420400D02*
D03*
X266600D02*
D03*
Y400400D02*
D03*
X214000Y419474D02*
D03*
X266600Y170400D02*
D03*
Y150400D02*
D03*
X236600Y170400D02*
D03*
X214000Y169600D02*
D03*
X286000Y135600D02*
D03*
Y384100D02*
D03*
X266600Y380400D02*
D03*
Y130400D02*
D03*
X214000Y161726D02*
D03*
X222500Y140300D02*
D03*
Y130300D02*
D03*
X266600Y120400D02*
D03*
Y140400D02*
D03*
Y160400D02*
D03*
Y180400D02*
D03*
X236600Y120400D02*
D03*
Y150400D02*
D03*
Y130400D02*
D03*
Y140400D02*
D03*
Y160400D02*
D03*
Y400400D02*
D03*
Y390400D02*
D03*
Y380400D02*
D03*
Y370400D02*
D03*
X266600Y430400D02*
D03*
Y410400D02*
D03*
Y390400D02*
D03*
Y370400D02*
D03*
X236600Y410400D02*
D03*
X222500Y380100D02*
D03*
Y390100D02*
D03*
X214000Y411600D02*
D03*
D26*
X230000Y465100D02*
D03*
X116500Y473100D02*
D03*
X116600Y222900D02*
D03*
Y337900D02*
D03*
Y87900D02*
D03*
Y212900D02*
D03*
Y97900D02*
D03*
X116500Y463100D02*
D03*
X116600Y347900D02*
D03*
X220000Y465100D02*
D03*
D27*
X266000Y27500D02*
D03*
D30*
X236600Y180400D02*
D03*
Y430400D02*
D03*
D31*
X400800Y299900D02*
D03*
D32*
X361500Y436100D02*
D03*
X440100Y363700D02*
D03*
D33*
X400800Y499900D02*
D03*
D34*
X116600Y77900D02*
D03*
Y327900D02*
D03*
X116500Y453100D02*
D03*
X116600Y202900D02*
D03*
D35*
X210000Y465100D02*
D03*
D36*
X328900Y145600D02*
X361555Y112945D01*
Y99134D02*
Y112945D01*
X286000Y145600D02*
X328900D01*
X331606Y105774D02*
X345500Y91879D01*
Y47800D02*
X355717Y37583D01*
X345500Y47800D02*
Y91879D01*
X301779Y135600D02*
X331606Y105774D01*
X434500Y40000D02*
X455026D01*
X464716Y49691D01*
X376704Y97796D02*
X434500Y40000D01*
X362893Y97796D02*
X376704D01*
X361555Y99134D02*
X362893Y97796D01*
X361555Y50424D02*
Y99134D01*
X286000Y135600D02*
X301779D01*
X474500Y122251D02*
Y143191D01*
X464500Y153191D02*
X474500Y143191D01*
X464716Y112468D02*
X474500Y122251D01*
Y70393D02*
Y91407D01*
X464716Y101191D02*
X474500Y91407D01*
X464716Y60610D02*
X474500Y70393D01*
X285919Y145600D02*
X286000D01*
X285919Y394100D02*
X286000D01*
X279619Y400400D02*
X285919Y394100D01*
X266600Y400400D02*
X279619D01*
X281119Y150400D02*
X285919Y145600D01*
X266600Y150400D02*
X281119D01*
X464716Y101191D02*
Y112468D01*
Y49691D02*
Y60610D01*
X366000Y27500D02*
Y45979D01*
X361555Y50424D02*
X366000Y45979D01*
X355717Y27783D02*
Y37583D01*
Y27783D02*
X356000Y27500D01*
X285919Y384100D02*
X286000D01*
X282219Y380400D02*
X285919Y384100D01*
X266600Y380400D02*
X282219D01*
X285919Y135600D02*
X286000D01*
X280719Y130400D02*
X285919Y135600D01*
X266600Y130400D02*
X280719D01*
X89500Y88000D02*
X95000D01*
X95100Y87900D01*
X82537Y94963D02*
X89500Y88000D01*
X95100Y87900D02*
X116600D01*
X94500Y141000D02*
X200830D01*
X82537Y152963D02*
Y337900D01*
Y94963D02*
Y152963D01*
X94500Y141000D01*
X200830D02*
X203430Y143600D01*
X203500D01*
X116600Y97900D02*
X151962Y133262D01*
X215350D01*
X84000Y379000D02*
X96100Y391100D01*
X207500D01*
X84000Y339363D02*
Y379000D01*
X82537Y337900D02*
X84000Y339363D01*
X82537Y337900D02*
X116600D01*
Y347900D02*
X149700Y381000D01*
X213289D01*
X222598Y390198D02*
X222638Y390157D01*
X67137Y322500D02*
X82537Y337900D01*
X33500Y322500D02*
X67137D01*
X33500Y257185D02*
Y284100D01*
X236519Y160400D02*
X236600D01*
X235193Y161726D02*
X236519Y160400D01*
X214000Y161726D02*
X235193D01*
X213943Y161669D02*
X214000Y161726D01*
X213943Y154043D02*
Y161669D01*
X203500Y143600D02*
X213943Y154043D01*
X315500Y368600D02*
Y384100D01*
Y404100D02*
Y424600D01*
X326989Y299900D02*
X400800D01*
X259200Y367689D02*
Y387911D01*
Y367689D02*
X326989Y299900D01*
X239562Y407550D02*
X259200Y387911D01*
X236681Y410400D02*
X239531Y407550D01*
X239562D01*
X207500Y391100D02*
Y405019D01*
X214000Y411519D01*
Y411600D01*
X235319D01*
X236519Y410400D01*
X236600D01*
X269800Y464600D02*
X293000D01*
X236600Y410400D02*
X236681D01*
X253200Y448000D02*
X269800Y464600D01*
X253200Y418800D02*
Y448000D01*
X237681Y411400D02*
X245800D01*
X236738Y410457D02*
X237681Y411400D01*
X245800D02*
X253200Y418800D01*
X233400Y499900D02*
X400800D01*
X220000Y486500D02*
X233400Y499900D01*
X220000Y465100D02*
Y486500D01*
X236419Y140300D02*
X236519Y140400D01*
X236600D01*
X222419Y140300D02*
X236419D01*
X215350Y133262D02*
X219538Y137450D01*
X219569D01*
X222419Y140300D01*
X236600Y140400D02*
X236681D01*
X239531Y143250D01*
X239562D01*
X269000Y241100D02*
X454500D01*
X251000Y154689D02*
Y223100D01*
X239562Y143250D02*
X251000Y154689D01*
Y223100D02*
X269000Y241100D01*
X239562Y387550D02*
X250200Y376911D01*
Y282000D02*
X271415Y260785D01*
X250200Y282000D02*
Y376911D01*
X213515Y452700D02*
X233000D01*
X258500Y478200D02*
X301900D01*
X233000Y452700D02*
X258500Y478200D01*
X301900D02*
X315450Y464650D01*
X210000Y456215D02*
X213515Y452700D01*
X210000Y456215D02*
Y465100D01*
X293000Y424600D02*
X315500D01*
X222598Y380198D02*
X222638Y380157D01*
X222881Y380400D01*
X236600D01*
X222500Y367700D02*
Y380100D01*
X207500Y352700D02*
X222500Y367700D01*
X190500Y324300D02*
X236600Y370400D01*
X190500Y298600D02*
Y324300D01*
X189500Y275600D02*
Y275670D01*
X190500Y276670D01*
Y298600D01*
X271415Y260785D02*
X454500D01*
X236681Y390400D02*
X239531Y387550D01*
X239562D01*
X222881Y390400D02*
X236600D01*
X222638Y390157D02*
X222881Y390400D01*
X236600D02*
X236681D01*
X219569Y387250D02*
X222362Y390043D01*
X222443D01*
X219538Y387250D02*
X219569D01*
X213289Y381000D02*
X219538Y387250D01*
X186600Y70400D02*
X236600Y120400D01*
X186600Y47900D02*
Y70400D01*
X236519Y130400D02*
X236600D01*
X236419Y130300D02*
X236519Y130400D01*
X222500Y130300D02*
X236419D01*
X222443Y130243D02*
X222500Y130300D01*
X222443Y124143D02*
Y130243D01*
X203500Y105200D02*
X222443Y124143D01*
X197300Y430400D02*
X236600D01*
X190500Y423600D02*
X197300Y430400D01*
X134350Y423650D02*
X150450D01*
X116500Y441500D02*
Y453100D01*
Y441500D02*
X134350Y423650D01*
X150450D02*
X150500Y423600D01*
X190000Y400600D02*
Y400670D01*
X190500Y401170D01*
Y423600D01*
X151600Y400600D02*
Y400670D01*
X150500Y401770D02*
X151600Y400670D01*
X150500Y401770D02*
Y423600D01*
X151100Y275600D02*
Y275670D01*
X150500Y276270D02*
X151100Y275670D01*
X150500Y276270D02*
Y298600D01*
X133850Y298650D02*
X150450D01*
X116981Y315519D02*
X133850Y298650D01*
X116981Y315519D02*
Y327519D01*
X116600Y327900D02*
X116981Y327519D01*
X150450Y298650D02*
X150500Y298600D01*
X146530Y47900D02*
X146600D01*
X116600Y63000D02*
Y77900D01*
X144930Y46300D02*
X146530Y47900D01*
X133300Y46300D02*
X144930D01*
X116600Y63000D02*
X133300Y46300D01*
X186000Y24900D02*
Y24970D01*
X186600Y25570D01*
Y47900D01*
X147600Y24900D02*
Y24970D01*
X146600Y25970D02*
X147600Y24970D01*
X146600Y25970D02*
Y47900D01*
X189500Y150600D02*
Y150670D01*
X190500Y151670D02*
Y173530D01*
X189500Y150670D02*
X190500Y151670D01*
X150500Y151270D02*
X151100Y150670D01*
Y150600D02*
Y150670D01*
X150500Y151270D02*
Y173600D01*
X132750Y173650D02*
X150450D01*
X116600Y189800D02*
X132750Y173650D01*
X116600Y189800D02*
Y202900D01*
X150450Y173650D02*
X150500Y173600D01*
X190500D02*
X197300Y180400D01*
X236600D01*
D37*
X447000Y49691D02*
D03*
X464716Y24100D02*
D03*
Y49691D02*
D03*
X447000Y101191D02*
D03*
X464716Y75600D02*
D03*
Y101191D02*
D03*
X446783Y153191D02*
D03*
X464500Y127600D02*
D03*
Y153191D02*
D03*
D38*
X315500Y394100D02*
D03*
Y404100D02*
D03*
D39*
X203500Y143600D02*
D03*
Y105200D02*
D03*
X315500Y424600D02*
D03*
Y464600D02*
D03*
X293000Y424600D02*
D03*
Y464600D02*
D03*
X207500Y352700D02*
D03*
Y391100D02*
D03*
X190500Y423600D02*
D03*
X150500D02*
D03*
X151600Y400600D02*
D03*
X190000D02*
D03*
X190500Y173600D02*
D03*
X150500D02*
D03*
X186000Y24900D02*
D03*
X147600D02*
D03*
X146600Y47900D02*
D03*
X186600D02*
D03*
X151100Y275600D02*
D03*
X189500D02*
D03*
X190500Y298600D02*
D03*
X150500D02*
D03*
X315500Y368600D02*
D03*
Y328600D02*
D03*
X151100Y150600D02*
D03*
X189500D02*
D03*
X33500Y284100D02*
D03*
Y322500D02*
D03*
D40*
X315500Y384100D02*
D03*
M02*
