G04*
G04 #@! TF.GenerationSoftware,Altium Limited,Altium Designer,26.7.1 (11)*
G04*
G04 Layer_Color=32896*
G04 Board_Origin=14090000|106210000*
%FSLAX25Y25*%
%MOIN*%
G70*
G04*
G04 #@! TF.SameCoordinates,1190F324-7C53-4A33-901E-C1DE6189C4DA*
G04*
G04*
G04 #@! TF.FilePolarity,Positive*
G04*
G01*
G75*
%ADD16C,0.02000*%
D16*
X249001Y363803D02*
X256999D01*
Y359804D01*
X255666Y358471D01*
X250334D01*
X249001Y359804D01*
Y363803D01*
Y350474D02*
Y355806D01*
X256999D01*
Y350474D01*
X253000Y355806D02*
Y353140D01*
X250334Y342477D02*
X249001Y343810D01*
Y346475D01*
X250334Y347808D01*
X251667D01*
X253000Y346475D01*
Y343810D01*
X254333Y342477D01*
X255666D01*
X256999Y343810D01*
Y346475D01*
X255666Y347808D01*
X249001Y339811D02*
Y337145D01*
Y338478D01*
X256999D01*
Y339811D01*
Y337145D01*
X250334Y327815D02*
X249001Y329148D01*
Y331814D01*
X250334Y333146D01*
X255666D01*
X256999Y331814D01*
Y329148D01*
X255666Y327815D01*
X253000D01*
Y330481D01*
X256999Y325149D02*
X249001D01*
X256999Y319817D01*
X249001D01*
Y311820D02*
Y317152D01*
X256999D01*
Y311820D01*
X253000Y317152D02*
Y314486D01*
X249001Y309154D02*
X256999D01*
Y305155D01*
X255666Y303822D01*
X250334D01*
X249001Y305155D01*
Y309154D01*
Y293159D02*
X256999D01*
Y289161D01*
X255666Y287828D01*
X254333D01*
X253000Y289161D01*
Y293159D01*
Y289161D01*
X251667Y287828D01*
X250334D01*
X249001Y289161D01*
Y293159D01*
Y285162D02*
X250334D01*
X253000Y282496D01*
X250334Y279830D01*
X249001D01*
X253000Y282496D02*
X256999D01*
X251667Y277165D02*
Y275832D01*
X253000D01*
Y277165D01*
X251667D01*
X255666D02*
Y275832D01*
X256999D01*
Y277165D01*
X255666D01*
X249001Y262503D02*
X256999D01*
X253000D01*
Y257171D01*
X249001D01*
X256999D01*
Y254505D02*
X251667D01*
X249001Y251839D01*
X251667Y249174D01*
X256999D01*
X253000D01*
Y254505D01*
X256999Y246508D02*
X249001D01*
Y242509D01*
X250334Y241176D01*
X253000D01*
X254333Y242509D01*
Y246508D01*
Y243842D02*
X256999Y241176D01*
X250334Y233179D02*
X249001Y234512D01*
Y237177D01*
X250334Y238510D01*
X251667D01*
X253000Y237177D01*
Y234512D01*
X254333Y233179D01*
X255666D01*
X256999Y234512D01*
Y237177D01*
X255666Y238510D01*
X249001Y230513D02*
X256999D01*
X253000D01*
Y225181D01*
X249001D01*
X256999D01*
Y222516D02*
X251667D01*
X249001Y219850D01*
X251667Y217184D01*
X256999D01*
X253000D01*
Y222516D01*
X249001Y214518D02*
X256999D01*
X254333D01*
X249001Y209187D01*
X253000Y213185D01*
X256999Y209187D01*
X249001Y198523D02*
X254333D01*
X256999Y195858D01*
X254333Y193192D01*
X249001D01*
X256999Y182528D02*
X249001D01*
Y178530D01*
X250334Y177197D01*
X253000D01*
X254333Y178530D01*
Y182528D01*
X238999Y298158D02*
Y300824D01*
X231001D01*
Y298158D01*
X232334Y288828D02*
X231001Y290161D01*
Y292826D01*
X232334Y294159D01*
X237666D01*
X238999Y292826D01*
Y290161D01*
X237666Y288828D01*
X238999Y286162D02*
Y283496D01*
X231001D01*
Y286162D01*
X238999Y266168D02*
Y271500D01*
X233667Y266168D01*
X232334D01*
X231001Y267501D01*
Y270167D01*
X232334Y271500D01*
Y263503D02*
X231001Y262170D01*
Y259504D01*
X232334Y258171D01*
X237666D01*
X238999Y259504D01*
Y262170D01*
X237666Y263503D01*
X232334D01*
X238999Y250174D02*
Y255505D01*
X233667Y250174D01*
X232334D01*
X231001Y251506D01*
Y254172D01*
X232334Y255505D01*
X231001Y242176D02*
X232334Y244842D01*
X235000Y247508D01*
X237666D01*
X238999Y246175D01*
Y243509D01*
X237666Y242176D01*
X236333D01*
X235000Y243509D01*
Y247508D01*
M02*
