G04*
G04 #@! TF.GenerationSoftware,Altium Limited,Altium Designer,26.7.1 (11)*
G04*
G04 Layer_Physical_Order=2*
G04 Layer_Color=16711680*
G04 Board_Origin=14090000|106210000*
%FSLAX25Y25*%
%MOIN*%
G70*
G04*
G04 #@! TF.SameCoordinates,1190F324-7C53-4A33-901E-C1DE6189C4DA*
G04*
G04*
G04 #@! TF.FilePolarity,Positive*
G04*
G01*
G75*
%ADD10C,0.01000*%
%ADD17C,0.07677*%
%ADD18R,0.07677X0.07677*%
%ADD19R,0.05900X0.05900*%
%ADD20C,0.12992*%
G04:AMPARAMS|DCode=21|XSize=183.07mil|YSize=41.34mil|CornerRadius=0mil|HoleSize=0mil|Usage=FLASHONLY|Rotation=350.000|XOffset=0mil|YOffset=0mil|HoleType=Round|Shape=Round|*
%AMOVALD21*
21,1,0.14173,0.04134,0.00000,0.00000,350.0*
1,1,0.04134,-0.06979,0.01231*
1,1,0.04134,0.06979,-0.01231*
%
%ADD21OVALD21*%

%ADD22R,0.12992X0.12992*%
%ADD23C,0.07480*%
%ADD24C,0.06299*%
%ADD26C,0.07835*%
%ADD27R,0.07480X0.07480*%
%ADD30R,0.06299X0.06299*%
%ADD31C,0.06000*%
%ADD32C,0.16000*%
%ADD33R,0.06000X0.06000*%
%ADD34R,0.07835X0.07835*%
%ADD35R,0.07835X0.07835*%
%ADD36C,0.06000*%
%ADD37C,0.05900*%
%ADD38C,0.04362*%
%ADD39C,0.06260*%
%ADD40R,0.04362X0.04362*%
G36*
X488000Y0D02*
X0D01*
Y530000D01*
X488000D01*
Y0D01*
D02*
G37*
%LPC*%
G36*
X404800Y503900D02*
X396800D01*
Y495900D01*
X404800D01*
Y503900D01*
D02*
G37*
G36*
X220647Y470017D02*
X219353D01*
X218102Y469682D01*
X216981Y469035D01*
X216065Y468119D01*
X215917Y467863D01*
X214917Y468131D01*
Y470017D01*
X205083D01*
Y460183D01*
X214917D01*
Y462069D01*
X215917Y462337D01*
X216065Y462081D01*
X216981Y461165D01*
X218102Y460518D01*
X219353Y460183D01*
X220647D01*
X221898Y460518D01*
X223019Y461165D01*
X223935Y462081D01*
X224582Y463202D01*
X224917Y464453D01*
Y465747D01*
X224582Y466998D01*
X223935Y468119D01*
X223019Y469035D01*
X221898Y469682D01*
X220647Y470017D01*
D02*
G37*
G36*
X316044Y468730D02*
X314956D01*
X313906Y468448D01*
X312964Y467905D01*
X312195Y467136D01*
X311651Y466194D01*
X311370Y465144D01*
Y464056D01*
X311651Y463006D01*
X312195Y462064D01*
X312964Y461295D01*
X313906Y460751D01*
X314956Y460470D01*
X316044D01*
X317094Y460751D01*
X318036Y461295D01*
X318805Y462064D01*
X319349Y463006D01*
X319630Y464056D01*
Y465144D01*
X319349Y466194D01*
X318805Y467136D01*
X318036Y467905D01*
X317094Y468448D01*
X316044Y468730D01*
D02*
G37*
G36*
X293544D02*
X292456D01*
X291406Y468448D01*
X290464Y467905D01*
X289695Y467136D01*
X289152Y466194D01*
X288870Y465144D01*
Y464056D01*
X289152Y463006D01*
X289695Y462064D01*
X290464Y461295D01*
X291406Y460751D01*
X292456Y460470D01*
X293544D01*
X294594Y460751D01*
X295536Y461295D01*
X296305Y462064D01*
X296849Y463006D01*
X297130Y464056D01*
Y465144D01*
X296849Y466194D01*
X296305Y467136D01*
X295536Y467905D01*
X294594Y468448D01*
X293544Y468730D01*
D02*
G37*
G36*
X362386Y445100D02*
X360614D01*
X358875Y444754D01*
X357237Y444076D01*
X355763Y443091D01*
X354509Y441837D01*
X353524Y440363D01*
X352846Y438725D01*
X352500Y436986D01*
Y435214D01*
X352846Y433475D01*
X353524Y431837D01*
X354509Y430363D01*
X355763Y429109D01*
X357237Y428124D01*
X358875Y427446D01*
X360614Y427100D01*
X362386D01*
X364125Y427446D01*
X365763Y428124D01*
X367237Y429109D01*
X368491Y430363D01*
X369476Y431837D01*
X370154Y433475D01*
X370500Y435214D01*
Y436986D01*
X370154Y438725D01*
X369476Y440363D01*
X368491Y441837D01*
X367237Y443091D01*
X365763Y444076D01*
X364125Y444754D01*
X362386Y445100D01*
D02*
G37*
G36*
X267146Y434550D02*
X266054D01*
X264998Y434267D01*
X264052Y433720D01*
X263280Y432948D01*
X262733Y432002D01*
X262450Y430946D01*
Y429854D01*
X262733Y428798D01*
X263280Y427852D01*
X264052Y427079D01*
X264998Y426533D01*
X266054Y426250D01*
X267146D01*
X268202Y426533D01*
X269148Y427079D01*
X269920Y427852D01*
X270467Y428798D01*
X270750Y429854D01*
Y430946D01*
X270467Y432002D01*
X269920Y432948D01*
X269148Y433720D01*
X268202Y434267D01*
X267146Y434550D01*
D02*
G37*
G36*
X240750D02*
X232450D01*
Y426250D01*
X240750D01*
Y434550D01*
D02*
G37*
G36*
X316044Y428730D02*
X314956D01*
X313906Y428448D01*
X312964Y427905D01*
X312195Y427136D01*
X311651Y426194D01*
X311370Y425144D01*
Y424056D01*
X311651Y423006D01*
X312195Y422064D01*
X312964Y421295D01*
X313906Y420751D01*
X314956Y420470D01*
X316044D01*
X317094Y420751D01*
X318036Y421295D01*
X318805Y422064D01*
X319349Y423006D01*
X319630Y424056D01*
Y425144D01*
X319349Y426194D01*
X318805Y427136D01*
X318036Y427905D01*
X317094Y428448D01*
X316044Y428730D01*
D02*
G37*
G36*
X293544D02*
X292456D01*
X291406Y428448D01*
X290464Y427905D01*
X289695Y427136D01*
X289152Y426194D01*
X288870Y425144D01*
Y424056D01*
X289152Y423006D01*
X289695Y422064D01*
X290464Y421295D01*
X291406Y420751D01*
X292456Y420470D01*
X293544D01*
X294594Y420751D01*
X295536Y421295D01*
X296305Y422064D01*
X296849Y423006D01*
X297130Y424056D01*
Y425144D01*
X296849Y426194D01*
X296305Y427136D01*
X295536Y427905D01*
X294594Y428448D01*
X293544Y428730D01*
D02*
G37*
G36*
X191044Y427730D02*
X189956D01*
X188906Y427449D01*
X187964Y426905D01*
X187195Y426136D01*
X186652Y425194D01*
X186370Y424144D01*
Y423056D01*
X186652Y422006D01*
X187195Y421064D01*
X187964Y420295D01*
X188906Y419752D01*
X189956Y419470D01*
X191044D01*
X192094Y419752D01*
X193036Y420295D01*
X193805Y421064D01*
X194349Y422006D01*
X194630Y423056D01*
Y424144D01*
X194349Y425194D01*
X193805Y426136D01*
X193036Y426905D01*
X192094Y427449D01*
X191044Y427730D01*
D02*
G37*
G36*
X151044D02*
X149956D01*
X148906Y427449D01*
X147964Y426905D01*
X147195Y426136D01*
X146651Y425194D01*
X146370Y424144D01*
Y423056D01*
X146651Y422006D01*
X147195Y421064D01*
X147964Y420295D01*
X148906Y419752D01*
X149956Y419470D01*
X151044D01*
X152094Y419752D01*
X153036Y420295D01*
X153805Y421064D01*
X154349Y422006D01*
X154630Y423056D01*
Y424144D01*
X154349Y425194D01*
X153805Y426136D01*
X153036Y426905D01*
X152094Y427449D01*
X151044Y427730D01*
D02*
G37*
G36*
X214546Y415750D02*
X213454D01*
X212398Y415467D01*
X211452Y414921D01*
X210680Y414148D01*
X210133Y413202D01*
X209850Y412146D01*
Y411054D01*
X210133Y409998D01*
X210680Y409052D01*
X211452Y408280D01*
X212398Y407733D01*
X213454Y407450D01*
X214546D01*
X215602Y407733D01*
X216548Y408280D01*
X217320Y409052D01*
X217867Y409998D01*
X218150Y411054D01*
Y412146D01*
X217867Y413202D01*
X217320Y414148D01*
X216548Y414921D01*
X215602Y415467D01*
X214546Y415750D01*
D02*
G37*
G36*
X237146Y414550D02*
X236054D01*
X234998Y414267D01*
X234052Y413721D01*
X233279Y412948D01*
X232733Y412002D01*
X232450Y410946D01*
Y409854D01*
X232733Y408798D01*
X233279Y407852D01*
X234052Y407080D01*
X234998Y406533D01*
X236054Y406250D01*
X237146D01*
X238202Y406533D01*
X239148Y407080D01*
X239920Y407852D01*
X240467Y408798D01*
X240750Y409854D01*
Y410946D01*
X240467Y412002D01*
X239920Y412948D01*
X239148Y413721D01*
X238202Y414267D01*
X237146Y414550D01*
D02*
G37*
G36*
X315919Y407281D02*
X315081D01*
X314272Y407064D01*
X313547Y406645D01*
X312954Y406053D01*
X312536Y405328D01*
X312319Y404519D01*
Y403681D01*
X312536Y402872D01*
X312954Y402147D01*
X313547Y401554D01*
X314272Y401136D01*
X315081Y400919D01*
X315919D01*
X316728Y401136D01*
X317453Y401554D01*
X318045Y402147D01*
X318464Y402872D01*
X318681Y403681D01*
Y404519D01*
X318464Y405328D01*
X318045Y406053D01*
X317453Y406645D01*
X316728Y407064D01*
X315919Y407281D01*
D02*
G37*
G36*
X190544Y404730D02*
X189456D01*
X188406Y404449D01*
X187464Y403905D01*
X186695Y403136D01*
X186152Y402194D01*
X185870Y401144D01*
Y400056D01*
X186152Y399006D01*
X186695Y398064D01*
X187464Y397295D01*
X188406Y396751D01*
X189456Y396470D01*
X190544D01*
X191594Y396751D01*
X192536Y397295D01*
X193305Y398064D01*
X193849Y399006D01*
X194130Y400056D01*
Y401144D01*
X193849Y402194D01*
X193305Y403136D01*
X192536Y403905D01*
X191594Y404449D01*
X190544Y404730D01*
D02*
G37*
G36*
X152144D02*
X151056D01*
X150006Y404449D01*
X149064Y403905D01*
X148295Y403136D01*
X147751Y402194D01*
X147470Y401144D01*
Y400056D01*
X147751Y399006D01*
X148295Y398064D01*
X149064Y397295D01*
X150006Y396751D01*
X151056Y396470D01*
X152144D01*
X153194Y396751D01*
X154136Y397295D01*
X154905Y398064D01*
X155448Y399006D01*
X155730Y400056D01*
Y401144D01*
X155448Y402194D01*
X154905Y403136D01*
X154136Y403905D01*
X153194Y404449D01*
X152144Y404730D01*
D02*
G37*
G36*
X237146Y404550D02*
X236054D01*
X234998Y404267D01*
X234052Y403721D01*
X233279Y402948D01*
X232733Y402002D01*
X232450Y400946D01*
Y399854D01*
X232733Y398798D01*
X233279Y397852D01*
X234052Y397079D01*
X234998Y396533D01*
X236054Y396250D01*
X237146D01*
X238202Y396533D01*
X239148Y397079D01*
X239920Y397852D01*
X240467Y398798D01*
X240750Y399854D01*
Y400946D01*
X240467Y402002D01*
X239920Y402948D01*
X239148Y403721D01*
X238202Y404267D01*
X237146Y404550D01*
D02*
G37*
G36*
X267146Y414550D02*
X266054D01*
X264998Y414267D01*
X264052Y413721D01*
X263280Y412948D01*
X262733Y412002D01*
X262450Y410946D01*
Y409854D01*
X262733Y408798D01*
X263280Y407852D01*
X264052Y407080D01*
X264998Y406533D01*
X266054Y406250D01*
X267146D01*
X268202Y406533D01*
X268267Y406571D01*
X271720Y403117D01*
Y391017D01*
X270750Y390946D01*
X270467Y392002D01*
X269920Y392948D01*
X269148Y393721D01*
X268202Y394267D01*
X267146Y394550D01*
X266054D01*
X264998Y394267D01*
X264052Y393721D01*
X263280Y392948D01*
X262733Y392002D01*
X262450Y390946D01*
Y389854D01*
X262733Y388798D01*
X263280Y387852D01*
X264052Y387080D01*
X264998Y386533D01*
X266054Y386250D01*
X267146D01*
X268202Y386533D01*
X268267Y386571D01*
X269442Y385395D01*
X269361Y384650D01*
X268395Y384155D01*
X268202Y384267D01*
X267146Y384550D01*
X266054D01*
X264998Y384267D01*
X264052Y383720D01*
X263280Y382948D01*
X262733Y382002D01*
X262450Y380946D01*
Y379854D01*
X262733Y378798D01*
X263280Y377852D01*
X264052Y377080D01*
X264998Y376533D01*
X266054Y376250D01*
X267146D01*
X268202Y376533D01*
X268720Y376833D01*
X269720Y376308D01*
Y374492D01*
X268720Y373967D01*
X268202Y374267D01*
X267146Y374550D01*
X266054D01*
X264998Y374267D01*
X264052Y373721D01*
X263280Y372948D01*
X262733Y372002D01*
X262450Y370946D01*
Y369854D01*
X262733Y368798D01*
X263280Y367852D01*
X264052Y367079D01*
X264998Y366533D01*
X266054Y366250D01*
X267146D01*
X268202Y366533D01*
X268720Y366833D01*
X269720Y366308D01*
Y184492D01*
X268720Y183967D01*
X268202Y184267D01*
X267146Y184550D01*
X266054D01*
X264998Y184267D01*
X264052Y183721D01*
X263280Y182948D01*
X262733Y182002D01*
X262450Y180946D01*
Y179854D01*
X262733Y178798D01*
X263280Y177852D01*
X264052Y177079D01*
X264998Y176533D01*
X266054Y176250D01*
X267146D01*
X268202Y176533D01*
X268720Y176833D01*
X269720Y176308D01*
Y164492D01*
X268720Y163967D01*
X268202Y164267D01*
X267146Y164550D01*
X266054D01*
X264998Y164267D01*
X264052Y163721D01*
X263280Y162948D01*
X262733Y162002D01*
X262450Y160946D01*
Y159854D01*
X262733Y158798D01*
X263280Y157852D01*
X264052Y157080D01*
X264998Y156533D01*
X266054Y156250D01*
X267146D01*
X268202Y156533D01*
X268267Y156571D01*
X271720Y153117D01*
Y141017D01*
X270750Y140946D01*
X270467Y142002D01*
X269920Y142948D01*
X269148Y143720D01*
X268202Y144267D01*
X267146Y144550D01*
X266054D01*
X264998Y144267D01*
X264052Y143720D01*
X263280Y142948D01*
X262733Y142002D01*
X262450Y140946D01*
Y139854D01*
X262733Y138798D01*
X263280Y137852D01*
X264052Y137080D01*
X264998Y136533D01*
X266054Y136250D01*
X267146D01*
X268202Y136533D01*
X268267Y136571D01*
X269442Y135395D01*
X269361Y134650D01*
X268395Y134155D01*
X268202Y134267D01*
X267146Y134550D01*
X266054D01*
X264998Y134267D01*
X264052Y133721D01*
X263280Y132948D01*
X262733Y132002D01*
X262450Y130946D01*
Y129854D01*
X262733Y128798D01*
X263280Y127852D01*
X264052Y127079D01*
X264998Y126533D01*
X266054Y126250D01*
X267146D01*
X268202Y126533D01*
X268720Y126833D01*
X269720Y126308D01*
Y124492D01*
X268720Y123967D01*
X268202Y124267D01*
X267146Y124550D01*
X266054D01*
X264998Y124267D01*
X264052Y123721D01*
X263280Y122948D01*
X262733Y122002D01*
X262450Y120946D01*
Y119854D01*
X262733Y118798D01*
X263280Y117852D01*
X264052Y117079D01*
X264998Y116533D01*
X266054Y116250D01*
X266173D01*
X266587Y115250D01*
X264919Y113581D01*
X264587Y113085D01*
X264471Y112500D01*
Y32240D01*
X261260D01*
Y22760D01*
X270740D01*
Y25130D01*
X271740Y25398D01*
X272207Y24589D01*
X273090Y23707D01*
X274170Y23083D01*
X275376Y22760D01*
X276624D01*
X277830Y23083D01*
X278910Y23707D01*
X279793Y24589D01*
X280417Y25670D01*
X280482Y25914D01*
X281518D01*
X281583Y25670D01*
X282207Y24589D01*
X283089Y23707D01*
X284170Y23083D01*
X285376Y22760D01*
X286624D01*
X287830Y23083D01*
X288911Y23707D01*
X289793Y24589D01*
X290417Y25670D01*
X290482Y25914D01*
X291518D01*
X291583Y25670D01*
X292207Y24589D01*
X293090Y23707D01*
X294170Y23083D01*
X295376Y22760D01*
X296624D01*
X297830Y23083D01*
X298910Y23707D01*
X299793Y24589D01*
X300417Y25670D01*
X300482Y25914D01*
X301518D01*
X301583Y25670D01*
X302207Y24589D01*
X303089Y23707D01*
X304170Y23083D01*
X305376Y22760D01*
X306624D01*
X307830Y23083D01*
X308099Y23238D01*
X318516Y12821D01*
X319012Y12489D01*
X319598Y12373D01*
X436802D01*
X437388Y12489D01*
X437884Y12821D01*
X445213Y20150D01*
X450950D01*
Y28050D01*
X444029D01*
Y45723D01*
X445029Y46267D01*
X445475Y46010D01*
X446480Y45741D01*
X447520D01*
X448525Y46010D01*
X449425Y46530D01*
X450161Y47265D01*
X450681Y48166D01*
X450950Y49171D01*
Y50211D01*
X450681Y51215D01*
X450161Y52116D01*
X449425Y52851D01*
X448525Y53371D01*
X447520Y53641D01*
X446480D01*
X445475Y53371D01*
X445029Y53114D01*
X444029Y53658D01*
Y70467D01*
X445213Y71650D01*
X450950D01*
Y79550D01*
X443050D01*
Y74758D01*
X443029Y74745D01*
X442029Y75279D01*
Y120683D01*
X444996Y123650D01*
X450734D01*
Y131550D01*
X442834D01*
Y125813D01*
X439419Y122398D01*
X439087Y121902D01*
X438971Y121317D01*
Y24134D01*
X434269Y19432D01*
X380901D01*
X380518Y20356D01*
X392586Y32423D01*
X392917Y32919D01*
X393034Y33504D01*
Y98435D01*
X393691Y98566D01*
X395055Y99131D01*
X396283Y99951D01*
X397327Y100995D01*
X398147Y102223D01*
X398712Y103587D01*
X399000Y105035D01*
Y106512D01*
X398712Y107960D01*
X398147Y109324D01*
X397327Y110552D01*
X396283Y111596D01*
X395055Y112417D01*
X393691Y112982D01*
X392243Y113270D01*
X390766D01*
X389318Y112982D01*
X387954Y112417D01*
X386726Y111596D01*
X385682Y110552D01*
X384861Y109324D01*
X384296Y107960D01*
X384008Y106512D01*
Y105035D01*
X384296Y103587D01*
X384861Y102223D01*
X385682Y100995D01*
X386726Y99951D01*
X387954Y99131D01*
X389318Y98566D01*
X389975Y98435D01*
Y34138D01*
X377366Y21529D01*
X344133D01*
X343140Y22523D01*
X343754Y23324D01*
X344170Y23083D01*
X345376Y22760D01*
X346624D01*
X347830Y23083D01*
X348910Y23707D01*
X349793Y24589D01*
X350417Y25670D01*
X350482Y25914D01*
X351518D01*
X351583Y25670D01*
X352207Y24589D01*
X353089Y23707D01*
X354170Y23083D01*
X355376Y22760D01*
X356624D01*
X357830Y23083D01*
X358910Y23707D01*
X359793Y24589D01*
X360417Y25670D01*
X360740Y26876D01*
Y28124D01*
X360417Y29330D01*
X359793Y30411D01*
X358910Y31293D01*
X357830Y31917D01*
X356624Y32240D01*
X355376D01*
X354170Y31917D01*
X353089Y31293D01*
X352207Y30411D01*
X351583Y29330D01*
X351518Y29086D01*
X350482D01*
X350417Y29330D01*
X349793Y30411D01*
X348910Y31293D01*
X347830Y31917D01*
X346624Y32240D01*
X345376D01*
X344170Y31917D01*
X343901Y31762D01*
X317029Y58634D01*
Y324734D01*
X317094Y324751D01*
X318036Y325295D01*
X318805Y326064D01*
X319349Y327006D01*
X319630Y328056D01*
Y329144D01*
X319349Y330194D01*
X318805Y331136D01*
X318036Y331905D01*
X317094Y332449D01*
X316044Y332730D01*
X314956D01*
X313906Y332449D01*
X312964Y331905D01*
X312195Y331136D01*
X311651Y330194D01*
X311370Y329144D01*
Y328056D01*
X311651Y327006D01*
X312195Y326064D01*
X312964Y325295D01*
X313906Y324751D01*
X313971Y324734D01*
Y58000D01*
X314087Y57415D01*
X314419Y56919D01*
X338860Y32477D01*
X338246Y31677D01*
X337830Y31917D01*
X336624Y32240D01*
X335376D01*
X334170Y31917D01*
X333089Y31293D01*
X332207Y30411D01*
X331583Y29330D01*
X331518Y29086D01*
X330482D01*
X330417Y29330D01*
X329793Y30411D01*
X328910Y31293D01*
X327830Y31917D01*
X326624Y32240D01*
X325376D01*
X324170Y31917D01*
X323090Y31293D01*
X322207Y30411D01*
X321583Y29330D01*
X321518Y29086D01*
X320482D01*
X320417Y29330D01*
X319793Y30411D01*
X318911Y31293D01*
X317830Y31917D01*
X316624Y32240D01*
X315376D01*
X314170Y31917D01*
X313089Y31293D01*
X312207Y30411D01*
X311583Y29330D01*
X311518Y29086D01*
X310482D01*
X310417Y29330D01*
X309793Y30411D01*
X308910Y31293D01*
X307830Y31917D01*
X306624Y32240D01*
X305376D01*
X304170Y31917D01*
X303089Y31293D01*
X302207Y30411D01*
X301583Y29330D01*
X301518Y29086D01*
X300482D01*
X300417Y29330D01*
X299793Y30411D01*
X298910Y31293D01*
X297830Y31917D01*
X296624Y32240D01*
X295376D01*
X294170Y31917D01*
X293901Y31762D01*
X273529Y52134D01*
Y109038D01*
X278681Y114190D01*
X279013Y114686D01*
X279129Y115272D01*
Y157728D01*
X279013Y158314D01*
X278681Y158810D01*
X274779Y162712D01*
Y403750D01*
X274663Y404336D01*
X274331Y404832D01*
X270429Y408734D01*
X270467Y408798D01*
X270750Y409854D01*
Y410946D01*
X270467Y412002D01*
X269920Y412948D01*
X269148Y413721D01*
X268202Y414267D01*
X267146Y414550D01*
D02*
G37*
G36*
X208044Y395230D02*
X206956D01*
X205906Y394949D01*
X204964Y394405D01*
X204195Y393636D01*
X203651Y392694D01*
X203370Y391644D01*
Y390556D01*
X203651Y389506D01*
X204195Y388564D01*
X204964Y387795D01*
X205906Y387251D01*
X206956Y386970D01*
X208044D01*
X209094Y387251D01*
X210036Y387795D01*
X210805Y388564D01*
X211349Y389506D01*
X211630Y390556D01*
Y391644D01*
X211349Y392694D01*
X210805Y393636D01*
X210036Y394405D01*
X209094Y394949D01*
X208044Y395230D01*
D02*
G37*
G36*
X237146Y394550D02*
X236054D01*
X234998Y394267D01*
X234052Y393721D01*
X233279Y392948D01*
X232733Y392002D01*
X232450Y390946D01*
Y389854D01*
X232733Y388798D01*
X233279Y387852D01*
X234052Y387080D01*
X234998Y386533D01*
X236054Y386250D01*
X237146D01*
X238202Y386533D01*
X239148Y387080D01*
X239920Y387852D01*
X240467Y388798D01*
X240750Y389854D01*
Y390946D01*
X240467Y392002D01*
X239920Y392948D01*
X239148Y393721D01*
X238202Y394267D01*
X237146Y394550D01*
D02*
G37*
G36*
X223046Y394250D02*
X221954D01*
X220898Y393967D01*
X219952Y393421D01*
X219180Y392648D01*
X218633Y391702D01*
X218350Y390646D01*
Y389554D01*
X218633Y388498D01*
X219180Y387552D01*
X219952Y386779D01*
X220898Y386233D01*
X221954Y385950D01*
X223046D01*
X224102Y386233D01*
X225048Y386779D01*
X225820Y387552D01*
X226367Y388498D01*
X226650Y389554D01*
Y390646D01*
X226367Y391702D01*
X225820Y392648D01*
X225048Y393421D01*
X224102Y393967D01*
X223046Y394250D01*
D02*
G37*
G36*
X318681Y387281D02*
X312319D01*
Y380919D01*
X318681D01*
Y387281D01*
D02*
G37*
G36*
X237146Y384550D02*
X236054D01*
X234998Y384267D01*
X234052Y383720D01*
X233279Y382948D01*
X232733Y382002D01*
X232450Y380946D01*
Y379854D01*
X232733Y378798D01*
X233279Y377852D01*
X234052Y377080D01*
X234998Y376533D01*
X236054Y376250D01*
X237146D01*
X238202Y376533D01*
X239148Y377080D01*
X239920Y377852D01*
X240467Y378798D01*
X240750Y379854D01*
Y380946D01*
X240467Y382002D01*
X239920Y382948D01*
X239148Y383720D01*
X238202Y384267D01*
X237146Y384550D01*
D02*
G37*
G36*
X223046Y384250D02*
X221954D01*
X220898Y383967D01*
X219952Y383420D01*
X219180Y382648D01*
X218633Y381702D01*
X218350Y380646D01*
Y379554D01*
X218633Y378498D01*
X219180Y377552D01*
X219952Y376780D01*
X220898Y376233D01*
X221954Y375950D01*
X223046D01*
X224102Y376233D01*
X225048Y376780D01*
X225820Y377552D01*
X226367Y378498D01*
X226650Y379554D01*
Y380646D01*
X226367Y381702D01*
X225820Y382648D01*
X225048Y383420D01*
X224102Y383967D01*
X223046Y384250D01*
D02*
G37*
G36*
X237146Y374550D02*
X236054D01*
X234998Y374267D01*
X234052Y373721D01*
X233279Y372948D01*
X232733Y372002D01*
X232450Y370946D01*
Y369854D01*
X232733Y368798D01*
X233279Y367852D01*
X234052Y367079D01*
X234998Y366533D01*
X236054Y366250D01*
X237146D01*
X238202Y366533D01*
X239148Y367079D01*
X239920Y367852D01*
X240467Y368798D01*
X240750Y369854D01*
Y370946D01*
X240467Y372002D01*
X239920Y372948D01*
X239148Y373721D01*
X238202Y374267D01*
X237146Y374550D01*
D02*
G37*
G36*
X316044Y372730D02*
X314956D01*
X313906Y372448D01*
X312964Y371905D01*
X312195Y371136D01*
X311651Y370194D01*
X311370Y369144D01*
Y368056D01*
X311651Y367006D01*
X312195Y366064D01*
X312964Y365295D01*
X313906Y364752D01*
X314956Y364470D01*
X316044D01*
X317094Y364752D01*
X318036Y365295D01*
X318805Y366064D01*
X319349Y367006D01*
X319630Y368056D01*
Y369144D01*
X319349Y370194D01*
X318805Y371136D01*
X318036Y371905D01*
X317094Y372448D01*
X316044Y372730D01*
D02*
G37*
G36*
X440986Y372700D02*
X439214D01*
X437475Y372354D01*
X435837Y371676D01*
X434363Y370691D01*
X433109Y369437D01*
X432124Y367963D01*
X431446Y366325D01*
X431100Y364586D01*
Y362814D01*
X431446Y361075D01*
X432124Y359437D01*
X433109Y357963D01*
X434363Y356709D01*
X435837Y355724D01*
X437475Y355046D01*
X439214Y354700D01*
X440986D01*
X442725Y355046D01*
X444363Y355724D01*
X445837Y356709D01*
X447091Y357963D01*
X448076Y359437D01*
X448754Y361075D01*
X449100Y362814D01*
Y364586D01*
X448754Y366325D01*
X448076Y367963D01*
X447091Y369437D01*
X445837Y370691D01*
X444363Y371676D01*
X442725Y372354D01*
X440986Y372700D01*
D02*
G37*
G36*
X208044Y356830D02*
X206956D01*
X205906Y356549D01*
X204964Y356005D01*
X204195Y355236D01*
X203651Y354294D01*
X203370Y353244D01*
Y352156D01*
X203651Y351106D01*
X204195Y350164D01*
X204964Y349395D01*
X205906Y348851D01*
X206956Y348570D01*
X208044D01*
X209094Y348851D01*
X210036Y349395D01*
X210805Y350164D01*
X211349Y351106D01*
X211630Y352156D01*
Y353244D01*
X211349Y354294D01*
X210805Y355236D01*
X210036Y356005D01*
X209094Y356549D01*
X208044Y356830D01*
D02*
G37*
G36*
X126000Y468520D02*
X101000D01*
X100610Y468442D01*
X100279Y468221D01*
X100058Y467890D01*
X99980Y467500D01*
Y343500D01*
X100058Y343110D01*
X100279Y342779D01*
X100610Y342558D01*
X101000Y342480D01*
X112812D01*
X113226Y341480D01*
X112665Y340919D01*
X112018Y339798D01*
X111683Y338547D01*
Y337253D01*
X112018Y336002D01*
X112665Y334881D01*
X113581Y333965D01*
X113837Y333817D01*
X113569Y332817D01*
X111683D01*
Y322983D01*
X121517D01*
Y332817D01*
X119631D01*
X119363Y333817D01*
X119619Y333965D01*
X120535Y334881D01*
X121182Y336002D01*
X121517Y337253D01*
Y338547D01*
X121182Y339798D01*
X120535Y340919D01*
X119974Y341480D01*
X120388Y342480D01*
X126000D01*
X126390Y342558D01*
X126721Y342779D01*
X126942Y343110D01*
X127020Y343500D01*
Y467500D01*
X126942Y467890D01*
X126721Y468221D01*
X126390Y468442D01*
X126000Y468520D01*
D02*
G37*
G36*
X34044Y326630D02*
X32956D01*
X31906Y326348D01*
X30964Y325805D01*
X30195Y325036D01*
X29651Y324094D01*
X29370Y323044D01*
Y321956D01*
X29651Y320906D01*
X30195Y319964D01*
X30964Y319195D01*
X31906Y318652D01*
X32956Y318370D01*
X34044D01*
X35094Y318652D01*
X36036Y319195D01*
X36805Y319964D01*
X37348Y320906D01*
X37630Y321956D01*
Y323044D01*
X37348Y324094D01*
X36805Y325036D01*
X36036Y325805D01*
X35094Y326348D01*
X34044Y326630D01*
D02*
G37*
G36*
X401327Y303900D02*
X400273D01*
X399256Y303627D01*
X398344Y303101D01*
X397599Y302356D01*
X397073Y301444D01*
X396800Y300427D01*
Y299373D01*
X397073Y298356D01*
X397599Y297444D01*
X398344Y296699D01*
X399256Y296173D01*
X400273Y295900D01*
X401327D01*
X402344Y296173D01*
X403256Y296699D01*
X404001Y297444D01*
X404527Y298356D01*
X404800Y299373D01*
Y300427D01*
X404527Y301444D01*
X404001Y302356D01*
X403256Y303101D01*
X402344Y303627D01*
X401327Y303900D01*
D02*
G37*
G36*
X191044Y302730D02*
X189956D01*
X188906Y302449D01*
X187964Y301905D01*
X187195Y301136D01*
X186652Y300194D01*
X186370Y299144D01*
Y298056D01*
X186652Y297006D01*
X187195Y296064D01*
X187964Y295295D01*
X188906Y294752D01*
X189956Y294470D01*
X191044D01*
X192094Y294752D01*
X193036Y295295D01*
X193805Y296064D01*
X194349Y297006D01*
X194630Y298056D01*
Y299144D01*
X194349Y300194D01*
X193805Y301136D01*
X193036Y301905D01*
X192094Y302449D01*
X191044Y302730D01*
D02*
G37*
G36*
X151044D02*
X149956D01*
X148906Y302449D01*
X147964Y301905D01*
X147195Y301136D01*
X146651Y300194D01*
X146370Y299144D01*
Y298056D01*
X146651Y297006D01*
X147195Y296064D01*
X147964Y295295D01*
X148906Y294752D01*
X149956Y294470D01*
X151044D01*
X152094Y294752D01*
X153036Y295295D01*
X153805Y296064D01*
X154349Y297006D01*
X154630Y298056D01*
Y299144D01*
X154349Y300194D01*
X153805Y301136D01*
X153036Y301905D01*
X152094Y302449D01*
X151044Y302730D01*
D02*
G37*
G36*
X34044Y288230D02*
X32956D01*
X31906Y287948D01*
X30964Y287405D01*
X30195Y286636D01*
X29651Y285694D01*
X29370Y284644D01*
Y283556D01*
X29651Y282506D01*
X30195Y281564D01*
X30964Y280795D01*
X31906Y280252D01*
X32956Y279970D01*
X34044D01*
X35094Y280252D01*
X36036Y280795D01*
X36805Y281564D01*
X37348Y282506D01*
X37630Y283556D01*
Y284644D01*
X37348Y285694D01*
X36805Y286636D01*
X36036Y287405D01*
X35094Y287948D01*
X34044Y288230D01*
D02*
G37*
G36*
X190044Y279730D02*
X188956D01*
X187906Y279449D01*
X186964Y278905D01*
X186195Y278136D01*
X185652Y277194D01*
X185370Y276144D01*
Y275056D01*
X185652Y274006D01*
X186195Y273064D01*
X186964Y272295D01*
X187906Y271751D01*
X188956Y271470D01*
X190044D01*
X191094Y271751D01*
X192036Y272295D01*
X192805Y273064D01*
X193349Y274006D01*
X193630Y275056D01*
Y276144D01*
X193349Y277194D01*
X192805Y278136D01*
X192036Y278905D01*
X191094Y279449D01*
X190044Y279730D01*
D02*
G37*
G36*
X151644D02*
X150556D01*
X149506Y279449D01*
X148564Y278905D01*
X147795Y278136D01*
X147251Y277194D01*
X146970Y276144D01*
Y275056D01*
X147251Y274006D01*
X147795Y273064D01*
X148564Y272295D01*
X149506Y271751D01*
X150556Y271470D01*
X151644D01*
X152694Y271751D01*
X153636Y272295D01*
X154405Y273064D01*
X154948Y274006D01*
X155230Y275056D01*
Y276144D01*
X154948Y277194D01*
X154405Y278136D01*
X153636Y278905D01*
X152694Y279449D01*
X151644Y279730D01*
D02*
G37*
G36*
X455137Y265624D02*
X453863D01*
X452632Y265294D01*
X451529Y264657D01*
X450628Y263756D01*
X449991Y262653D01*
X449661Y261422D01*
Y260148D01*
X449991Y258917D01*
X450628Y257814D01*
X451529Y256913D01*
X452632Y256276D01*
X453863Y255946D01*
X455137D01*
X456368Y256276D01*
X457471Y256913D01*
X458372Y257814D01*
X459009Y258917D01*
X459339Y260148D01*
Y261422D01*
X459009Y262653D01*
X458372Y263756D01*
X457471Y264657D01*
X456368Y265294D01*
X455137Y265624D01*
D02*
G37*
G36*
X38339Y262024D02*
X28661D01*
Y252346D01*
X38339D01*
Y262024D01*
D02*
G37*
G36*
X459339Y245939D02*
X449661D01*
Y236261D01*
X459339D01*
Y245939D01*
D02*
G37*
G36*
X379925Y203976D02*
X379137Y203801D01*
X378421Y203428D01*
X377825Y202882D01*
X377391Y202201D01*
X377149Y201431D01*
X377113Y200624D01*
X377288Y199836D01*
X377661Y199120D01*
X378207Y198524D01*
X378888Y198090D01*
X379658Y197848D01*
X393616Y195386D01*
X394423Y195351D01*
X395211Y195526D01*
X395927Y195899D01*
X396523Y196444D01*
X396956Y197125D01*
X397199Y197896D01*
X397235Y198702D01*
X397060Y199491D01*
X396687Y200207D01*
X396141Y200802D01*
X395460Y201236D01*
X394690Y201479D01*
X380732Y203940D01*
X379925Y203976D01*
D02*
G37*
G36*
X240750Y184550D02*
X232450D01*
Y176250D01*
X240750D01*
Y184550D01*
D02*
G37*
G36*
X191044Y177730D02*
X189956D01*
X188906Y177448D01*
X187964Y176905D01*
X187195Y176136D01*
X186652Y175194D01*
X186370Y174144D01*
Y173056D01*
X186652Y172006D01*
X187195Y171064D01*
X187964Y170295D01*
X188906Y169752D01*
X189956Y169470D01*
X191044D01*
X192094Y169752D01*
X193036Y170295D01*
X193805Y171064D01*
X194349Y172006D01*
X194630Y173056D01*
Y174144D01*
X194349Y175194D01*
X193805Y176136D01*
X193036Y176905D01*
X192094Y177448D01*
X191044Y177730D01*
D02*
G37*
G36*
X151044D02*
X149956D01*
X148906Y177448D01*
X147964Y176905D01*
X147195Y176136D01*
X146651Y175194D01*
X146370Y174144D01*
Y173056D01*
X146651Y172006D01*
X147195Y171064D01*
X147964Y170295D01*
X148906Y169752D01*
X149956Y169470D01*
X151044D01*
X152094Y169752D01*
X153036Y170295D01*
X153805Y171064D01*
X154349Y172006D01*
X154630Y173056D01*
Y174144D01*
X154349Y175194D01*
X153805Y176136D01*
X153036Y176905D01*
X152094Y177448D01*
X151044Y177730D01*
D02*
G37*
G36*
X214546Y165876D02*
X213454D01*
X212398Y165593D01*
X211452Y165047D01*
X210680Y164274D01*
X210133Y163328D01*
X209850Y162272D01*
Y161180D01*
X210133Y160124D01*
X210680Y159178D01*
X211452Y158405D01*
X212398Y157859D01*
X213454Y157576D01*
X214546D01*
X215602Y157859D01*
X216548Y158405D01*
X217320Y159178D01*
X217867Y160124D01*
X218150Y161180D01*
Y162272D01*
X217867Y163328D01*
X217320Y164274D01*
X216548Y165047D01*
X215602Y165593D01*
X214546Y165876D01*
D02*
G37*
G36*
X237146Y164550D02*
X236054D01*
X234998Y164267D01*
X234052Y163721D01*
X233279Y162948D01*
X232733Y162002D01*
X232450Y160946D01*
Y159854D01*
X232733Y158798D01*
X233279Y157852D01*
X234052Y157080D01*
X234998Y156533D01*
X236054Y156250D01*
X237146D01*
X238202Y156533D01*
X239148Y157080D01*
X239920Y157852D01*
X240467Y158798D01*
X240750Y159854D01*
Y160946D01*
X240467Y162002D01*
X239920Y162948D01*
X239148Y163721D01*
X238202Y164267D01*
X237146Y164550D01*
D02*
G37*
G36*
X447303Y157141D02*
X446263D01*
X445259Y156871D01*
X444358Y156351D01*
X443623Y155616D01*
X443103Y154715D01*
X442834Y153711D01*
Y152671D01*
X443103Y151666D01*
X443623Y150765D01*
X444358Y150030D01*
X445259Y149510D01*
X446263Y149241D01*
X447303D01*
X448308Y149510D01*
X449209Y150030D01*
X449944Y150765D01*
X450464Y151666D01*
X450734Y152671D01*
Y153711D01*
X450464Y154715D01*
X449944Y155616D01*
X449209Y156351D01*
X448308Y156871D01*
X447303Y157141D01*
D02*
G37*
G36*
X190044Y154730D02*
X188956D01*
X187906Y154448D01*
X186964Y153905D01*
X186195Y153136D01*
X185652Y152194D01*
X185370Y151144D01*
Y150056D01*
X185652Y149006D01*
X186195Y148064D01*
X186964Y147295D01*
X187906Y146751D01*
X188956Y146470D01*
X190044D01*
X191094Y146751D01*
X192036Y147295D01*
X192805Y148064D01*
X193349Y149006D01*
X193630Y150056D01*
Y151144D01*
X193349Y152194D01*
X192805Y153136D01*
X192036Y153905D01*
X191094Y154448D01*
X190044Y154730D01*
D02*
G37*
G36*
X151644D02*
X150556D01*
X149506Y154448D01*
X148564Y153905D01*
X147795Y153136D01*
X147251Y152194D01*
X146970Y151144D01*
Y150056D01*
X147251Y149006D01*
X147795Y148064D01*
X148564Y147295D01*
X149506Y146751D01*
X150556Y146470D01*
X151644D01*
X152694Y146751D01*
X153636Y147295D01*
X154405Y148064D01*
X154948Y149006D01*
X155230Y150056D01*
Y151144D01*
X154948Y152194D01*
X154405Y153136D01*
X153636Y153905D01*
X152694Y154448D01*
X151644Y154730D01*
D02*
G37*
G36*
X237146Y154550D02*
X236054D01*
X234998Y154267D01*
X234052Y153720D01*
X233279Y152948D01*
X232733Y152002D01*
X232450Y150946D01*
Y149854D01*
X232733Y148798D01*
X233279Y147852D01*
X234052Y147080D01*
X234998Y146533D01*
X236054Y146250D01*
X237146D01*
X238202Y146533D01*
X239148Y147080D01*
X239920Y147852D01*
X240467Y148798D01*
X240750Y149854D01*
Y150946D01*
X240467Y152002D01*
X239920Y152948D01*
X239148Y153720D01*
X238202Y154267D01*
X237146Y154550D01*
D02*
G37*
G36*
X350751Y154151D02*
X349963Y153976D01*
X349247Y153603D01*
X348651Y153058D01*
X348218Y152376D01*
X347975Y151606D01*
X347939Y150800D01*
X348114Y150011D01*
X348487Y149295D01*
X349033Y148699D01*
X349714Y148266D01*
X350484Y148023D01*
X364442Y145562D01*
X365249Y145526D01*
X366037Y145701D01*
X366753Y146074D01*
X367349Y146620D01*
X367782Y147301D01*
X368025Y148071D01*
X368061Y148878D01*
X367886Y149666D01*
X367513Y150382D01*
X366967Y150978D01*
X366286Y151412D01*
X365516Y151654D01*
X351558Y154116D01*
X350751Y154151D01*
D02*
G37*
G36*
X204044Y147730D02*
X202956D01*
X201906Y147449D01*
X200964Y146905D01*
X200195Y146136D01*
X199652Y145194D01*
X199370Y144144D01*
Y143056D01*
X199652Y142006D01*
X200195Y141064D01*
X200964Y140295D01*
X201906Y139752D01*
X202956Y139470D01*
X204044D01*
X205094Y139752D01*
X206036Y140295D01*
X206805Y141064D01*
X207348Y142006D01*
X207630Y143056D01*
Y144144D01*
X207348Y145194D01*
X206805Y146136D01*
X206036Y146905D01*
X205094Y147449D01*
X204044Y147730D01*
D02*
G37*
G36*
X237146Y144550D02*
X236054D01*
X234998Y144267D01*
X234052Y143720D01*
X233279Y142948D01*
X232733Y142002D01*
X232450Y140946D01*
Y139854D01*
X232733Y138798D01*
X233279Y137852D01*
X234052Y137080D01*
X234998Y136533D01*
X236054Y136250D01*
X237146D01*
X238202Y136533D01*
X239148Y137080D01*
X239920Y137852D01*
X240467Y138798D01*
X240750Y139854D01*
Y140946D01*
X240467Y142002D01*
X239920Y142948D01*
X239148Y143720D01*
X238202Y144267D01*
X237146Y144550D01*
D02*
G37*
G36*
X223046Y144450D02*
X221954D01*
X220898Y144167D01*
X219952Y143621D01*
X219180Y142848D01*
X218633Y141902D01*
X218350Y140846D01*
Y139754D01*
X218633Y138698D01*
X219180Y137752D01*
X219952Y136979D01*
X220898Y136433D01*
X221954Y136150D01*
X223046D01*
X224102Y136433D01*
X225048Y136979D01*
X225820Y137752D01*
X226367Y138698D01*
X226650Y139754D01*
Y140846D01*
X226367Y141902D01*
X225820Y142848D01*
X225048Y143621D01*
X224102Y144167D01*
X223046Y144450D01*
D02*
G37*
G36*
X286546Y388250D02*
X285454D01*
X284398Y387967D01*
X283452Y387421D01*
X282680Y386648D01*
X282133Y385702D01*
X281850Y384646D01*
Y383554D01*
X282133Y382498D01*
X282680Y381552D01*
X283452Y380780D01*
X283837Y380557D01*
X285521Y378873D01*
X289980Y369764D01*
Y145175D01*
X284100Y139295D01*
X283452Y138920D01*
X282680Y138148D01*
X282133Y137202D01*
X281850Y136146D01*
Y135054D01*
X282133Y133998D01*
X282680Y133052D01*
X283452Y132280D01*
X284398Y131733D01*
X285454Y131450D01*
X286546D01*
X287602Y131733D01*
X288548Y132280D01*
X289320Y133052D01*
X289391Y133174D01*
X300853Y144636D01*
X300853Y144636D01*
X301100Y144958D01*
X306721Y150579D01*
X306942Y150910D01*
X307020Y151300D01*
Y370000D01*
X307014Y370031D01*
X307018Y370062D01*
X306975Y370225D01*
X306942Y370390D01*
X306925Y370416D01*
X306917Y370446D01*
X306815Y370581D01*
X306721Y370721D01*
X306695Y370738D01*
X306676Y370763D01*
X292375Y383431D01*
X289543Y386263D01*
X289320Y386648D01*
X288548Y387421D01*
X287602Y387967D01*
X286546Y388250D01*
D02*
G37*
G36*
X237146Y134550D02*
X236054D01*
X234998Y134267D01*
X234052Y133721D01*
X233279Y132948D01*
X232733Y132002D01*
X232450Y130946D01*
Y129854D01*
X232733Y128798D01*
X233279Y127852D01*
X234052Y127079D01*
X234998Y126533D01*
X236054Y126250D01*
X237146D01*
X238202Y126533D01*
X239148Y127079D01*
X239920Y127852D01*
X240467Y128798D01*
X240750Y129854D01*
Y130946D01*
X240467Y132002D01*
X239920Y132948D01*
X239148Y133721D01*
X238202Y134267D01*
X237146Y134550D01*
D02*
G37*
G36*
X223046Y134450D02*
X221954D01*
X220898Y134167D01*
X219952Y133621D01*
X219180Y132848D01*
X218633Y131902D01*
X218350Y130846D01*
Y129754D01*
X218633Y128698D01*
X219180Y127752D01*
X219952Y126979D01*
X220898Y126433D01*
X221954Y126150D01*
X223046D01*
X224102Y126433D01*
X225048Y126979D01*
X225820Y127752D01*
X226367Y128698D01*
X226650Y129754D01*
Y130846D01*
X226367Y131902D01*
X225820Y132848D01*
X225048Y133621D01*
X224102Y134167D01*
X223046Y134450D01*
D02*
G37*
G36*
X465020Y131550D02*
X463980D01*
X462975Y131281D01*
X462075Y130761D01*
X461339Y130025D01*
X460819Y129125D01*
X460550Y128120D01*
Y127080D01*
X460819Y126075D01*
X461339Y125175D01*
X462075Y124439D01*
X462975Y123919D01*
X463980Y123650D01*
X465020D01*
X466025Y123919D01*
X466925Y124439D01*
X467661Y125175D01*
X468181Y126075D01*
X468450Y127080D01*
Y128120D01*
X468181Y129125D01*
X467661Y130025D01*
X466925Y130761D01*
X466025Y131281D01*
X465020Y131550D01*
D02*
G37*
G36*
X237146Y124550D02*
X236054D01*
X234998Y124267D01*
X234052Y123721D01*
X233279Y122948D01*
X232733Y122002D01*
X232450Y120946D01*
Y119854D01*
X232733Y118798D01*
X233279Y117852D01*
X234052Y117079D01*
X234998Y116533D01*
X236054Y116250D01*
X237146D01*
X238202Y116533D01*
X239148Y117079D01*
X239920Y117852D01*
X240467Y118798D01*
X240750Y119854D01*
Y120946D01*
X240467Y122002D01*
X239920Y122948D01*
X239148Y123721D01*
X238202Y124267D01*
X237146Y124550D01*
D02*
G37*
G36*
X204044Y109330D02*
X202956D01*
X201906Y109048D01*
X200964Y108505D01*
X200195Y107736D01*
X199652Y106794D01*
X199370Y105744D01*
Y104656D01*
X199652Y103606D01*
X200195Y102664D01*
X200964Y101895D01*
X201906Y101351D01*
X202956Y101070D01*
X204044D01*
X205094Y101351D01*
X206036Y101895D01*
X206805Y102664D01*
X207348Y103606D01*
X207630Y104656D01*
Y105744D01*
X207348Y106794D01*
X206805Y107736D01*
X206036Y108505D01*
X205094Y109048D01*
X204044Y109330D01*
D02*
G37*
G36*
X339102Y113270D02*
X324110D01*
Y98278D01*
X339102D01*
Y113270D01*
D02*
G37*
G36*
X447520Y105141D02*
X446480D01*
X445475Y104871D01*
X444575Y104351D01*
X443839Y103616D01*
X443319Y102715D01*
X443050Y101711D01*
Y100671D01*
X443319Y99666D01*
X443839Y98765D01*
X444575Y98030D01*
X445475Y97510D01*
X446480Y97241D01*
X447520D01*
X448525Y97510D01*
X449425Y98030D01*
X450161Y98765D01*
X450681Y99666D01*
X450950Y100671D01*
Y101711D01*
X450681Y102715D01*
X450161Y103616D01*
X449425Y104351D01*
X448525Y104871D01*
X447520Y105141D01*
D02*
G37*
G36*
X126000Y218520D02*
X101000D01*
X100610Y218442D01*
X100279Y218221D01*
X100058Y217890D01*
X99980Y217500D01*
Y93700D01*
X100058Y93310D01*
X100279Y92979D01*
X100610Y92758D01*
X101000Y92680D01*
X113065D01*
X113288Y92315D01*
X113426Y91680D01*
X112665Y90919D01*
X112018Y89798D01*
X111683Y88547D01*
Y87253D01*
X112018Y86002D01*
X112665Y84881D01*
X113581Y83965D01*
X113837Y83817D01*
X113569Y82817D01*
X111683D01*
Y72983D01*
X121517D01*
Y82817D01*
X119631D01*
X119363Y83817D01*
X119619Y83965D01*
X120535Y84881D01*
X121182Y86002D01*
X121517Y87253D01*
Y88547D01*
X121182Y89798D01*
X120535Y90919D01*
X119774Y91680D01*
X119912Y92315D01*
X120135Y92680D01*
X126000D01*
X126390Y92758D01*
X126721Y92979D01*
X126942Y93310D01*
X127020Y93700D01*
Y217500D01*
X126942Y217890D01*
X126721Y218221D01*
X126390Y218442D01*
X126000Y218520D01*
D02*
G37*
G36*
X465237Y79550D02*
X464196D01*
X463192Y79281D01*
X462291Y78761D01*
X461556Y78025D01*
X461036Y77125D01*
X460767Y76120D01*
Y75080D01*
X461036Y74075D01*
X461556Y73175D01*
X462291Y72439D01*
X463192Y71919D01*
X464196Y71650D01*
X465237D01*
X466241Y71919D01*
X467142Y72439D01*
X467877Y73175D01*
X468397Y74075D01*
X468667Y75080D01*
Y76120D01*
X468397Y77125D01*
X467877Y78025D01*
X467142Y78761D01*
X466241Y79281D01*
X465237Y79550D01*
D02*
G37*
G36*
X187144Y52030D02*
X186056D01*
X185006Y51749D01*
X184064Y51205D01*
X183295Y50436D01*
X182752Y49494D01*
X182470Y48444D01*
Y47356D01*
X182752Y46306D01*
X183295Y45364D01*
X184064Y44595D01*
X185006Y44052D01*
X186056Y43770D01*
X187144D01*
X188194Y44052D01*
X189136Y44595D01*
X189905Y45364D01*
X190448Y46306D01*
X190730Y47356D01*
Y48444D01*
X190448Y49494D01*
X189905Y50436D01*
X189136Y51205D01*
X188194Y51749D01*
X187144Y52030D01*
D02*
G37*
G36*
X147144D02*
X146056D01*
X145006Y51749D01*
X144064Y51205D01*
X143295Y50436D01*
X142752Y49494D01*
X142470Y48444D01*
Y47356D01*
X142752Y46306D01*
X143295Y45364D01*
X144064Y44595D01*
X145006Y44052D01*
X146056Y43770D01*
X147144D01*
X148194Y44052D01*
X149136Y44595D01*
X149905Y45364D01*
X150449Y46306D01*
X150730Y47356D01*
Y48444D01*
X150449Y49494D01*
X149905Y50436D01*
X149136Y51205D01*
X148194Y51749D01*
X147144Y52030D01*
D02*
G37*
G36*
X186544Y29030D02*
X185456D01*
X184406Y28749D01*
X183464Y28205D01*
X182695Y27436D01*
X182151Y26494D01*
X181870Y25444D01*
Y24356D01*
X182151Y23306D01*
X182695Y22364D01*
X183464Y21595D01*
X184406Y21052D01*
X185456Y20770D01*
X186544D01*
X187594Y21052D01*
X188536Y21595D01*
X189305Y22364D01*
X189848Y23306D01*
X190130Y24356D01*
Y25444D01*
X189848Y26494D01*
X189305Y27436D01*
X188536Y28205D01*
X187594Y28749D01*
X186544Y29030D01*
D02*
G37*
G36*
X148144D02*
X147056D01*
X146006Y28749D01*
X145064Y28205D01*
X144295Y27436D01*
X143752Y26494D01*
X143470Y25444D01*
Y24356D01*
X143752Y23306D01*
X144295Y22364D01*
X145064Y21595D01*
X146006Y21052D01*
X147056Y20770D01*
X148144D01*
X149194Y21052D01*
X150136Y21595D01*
X150905Y22364D01*
X151449Y23306D01*
X151730Y24356D01*
Y25444D01*
X151449Y26494D01*
X150905Y27436D01*
X150136Y28205D01*
X149194Y28749D01*
X148144Y29030D01*
D02*
G37*
G36*
X465237Y28050D02*
X464196D01*
X463192Y27781D01*
X462291Y27261D01*
X461556Y26525D01*
X461036Y25625D01*
X460767Y24620D01*
Y23580D01*
X461036Y22575D01*
X461556Y21675D01*
X462291Y20939D01*
X463192Y20419D01*
X464196Y20150D01*
X465237D01*
X466241Y20419D01*
X467142Y20939D01*
X467877Y21675D01*
X468397Y22575D01*
X468667Y23580D01*
Y24620D01*
X468397Y25625D01*
X467877Y26525D01*
X467142Y27261D01*
X466241Y27781D01*
X465237Y28050D01*
D02*
G37*
%LPD*%
G36*
X126000Y343500D02*
X101000D01*
Y467500D01*
X126000D01*
Y343500D01*
D02*
G37*
%LPC*%
G36*
X121417Y458017D02*
X111583D01*
Y448183D01*
X121417D01*
Y458017D01*
D02*
G37*
%LPD*%
G36*
X306000Y370000D02*
Y151300D01*
X294162Y139462D01*
X291000Y142152D01*
Y370000D01*
X286244Y379716D01*
X291000Y383287D01*
X306000Y370000D01*
D02*
G37*
G36*
X126000Y93700D02*
X101000D01*
Y217500D01*
X126000D01*
Y93700D01*
D02*
G37*
%LPC*%
G36*
X121517Y207817D02*
X111683D01*
Y197983D01*
X121517D01*
Y207817D01*
D02*
G37*
%LPD*%
D10*
X391504Y33504D02*
Y105774D01*
X336000Y27500D02*
X343500Y20000D01*
X378000D02*
X391504Y33504D01*
X343500Y20000D02*
X378000D01*
X273250Y162079D02*
Y403750D01*
X266600Y410400D02*
X273250Y403750D01*
X277600Y115272D02*
Y157728D01*
X272000Y109672D02*
X277600Y115272D01*
X273250Y162079D02*
X277600Y157728D01*
X275500Y116000D02*
Y157000D01*
X270000Y110500D02*
X275500Y116000D01*
X271250Y161250D02*
X275500Y157000D01*
X273250Y116921D02*
Y153750D01*
X266600Y140400D02*
X271250Y135750D01*
Y117750D02*
Y135750D01*
X272000Y51500D02*
Y109672D01*
X315500Y58000D02*
X346000Y27500D01*
X315500Y58000D02*
Y328600D01*
X266600Y160400D02*
X273250Y153750D01*
X271250Y161250D02*
Y385750D01*
X270000Y43500D02*
Y110500D01*
X266600Y390400D02*
X271250Y385750D01*
X270000Y43500D02*
X286000Y27500D01*
X272000Y51500D02*
X296000Y27500D01*
X266000D02*
Y112500D01*
X271250Y117750D01*
X326000Y27500D02*
X335598Y17902D01*
X434902D02*
X440500Y23500D01*
X436802Y13902D02*
X447000Y24100D01*
X335598Y17902D02*
X434902D01*
X319598Y13902D02*
X436802D01*
X435902Y15902D02*
X442500Y22500D01*
X316000Y27500D02*
X327598Y15902D01*
X435902D01*
X306000Y27500D02*
X319598Y13902D01*
X268000Y111672D02*
X273250Y116921D01*
X268000Y35500D02*
Y111672D01*
X440500Y121317D02*
X446783Y127600D01*
X440500Y23500D02*
Y121317D01*
X442500Y71100D02*
X447000Y75600D01*
X442500Y22500D02*
Y71100D01*
X268000Y35500D02*
X276000Y27500D01*
D17*
X454500Y260785D02*
D03*
X33500Y237500D02*
D03*
D18*
X454500Y241100D02*
D03*
X33500Y257185D02*
D03*
D19*
X447000Y24100D02*
D03*
Y75600D02*
D03*
X446783Y127600D02*
D03*
D20*
X391504Y105774D02*
D03*
X361555Y99134D02*
D03*
D21*
X387174Y199663D02*
D03*
X358000Y149839D02*
D03*
D22*
X331606Y105774D02*
D03*
D23*
X336000Y27500D02*
D03*
X366000D02*
D03*
X356000D02*
D03*
X276000D02*
D03*
X306000D02*
D03*
X316000D02*
D03*
X326000D02*
D03*
X346000D02*
D03*
X296000D02*
D03*
X286000D02*
D03*
D24*
Y145600D02*
D03*
Y394100D02*
D03*
X236600Y420400D02*
D03*
X266600D02*
D03*
Y400400D02*
D03*
X214000Y419474D02*
D03*
X266600Y170400D02*
D03*
Y150400D02*
D03*
X236600Y170400D02*
D03*
X214000Y169600D02*
D03*
X286000Y135600D02*
D03*
Y384100D02*
D03*
X266600Y380400D02*
D03*
Y130400D02*
D03*
X214000Y161726D02*
D03*
X222500Y140300D02*
D03*
Y130300D02*
D03*
X266600Y120400D02*
D03*
Y140400D02*
D03*
Y160400D02*
D03*
Y180400D02*
D03*
X236600Y120400D02*
D03*
Y150400D02*
D03*
Y130400D02*
D03*
Y140400D02*
D03*
Y160400D02*
D03*
Y400400D02*
D03*
Y390400D02*
D03*
Y380400D02*
D03*
Y370400D02*
D03*
X266600Y430400D02*
D03*
Y410400D02*
D03*
Y390400D02*
D03*
Y370400D02*
D03*
X236600Y410400D02*
D03*
X222500Y380100D02*
D03*
Y390100D02*
D03*
X214000Y411600D02*
D03*
D26*
X230000Y465100D02*
D03*
X116500Y473100D02*
D03*
X116600Y222900D02*
D03*
Y337900D02*
D03*
Y87900D02*
D03*
Y212900D02*
D03*
Y97900D02*
D03*
X116500Y463100D02*
D03*
X116600Y347900D02*
D03*
X220000Y465100D02*
D03*
D27*
X266000Y27500D02*
D03*
D30*
X236600Y180400D02*
D03*
Y430400D02*
D03*
D31*
X400800Y299900D02*
D03*
D32*
X361500Y436100D02*
D03*
X440100Y363700D02*
D03*
D33*
X400800Y499900D02*
D03*
D34*
X116600Y77900D02*
D03*
Y327900D02*
D03*
X116500Y453100D02*
D03*
X116600Y202900D02*
D03*
D35*
X210000Y465100D02*
D03*
D36*
X236600Y170400D02*
X266519D01*
X236519Y420400D02*
X266600D01*
X229450Y435207D02*
X230000Y435756D01*
X214000Y419474D02*
X229450Y434924D01*
X230000Y435756D02*
Y465100D01*
X229450Y434924D02*
Y435207D01*
X266519Y400400D02*
X266600D01*
X263669Y403250D02*
X266519Y400400D01*
X263638Y403250D02*
X263669D01*
X259450Y407439D02*
X263638Y403250D01*
X259450Y407439D02*
Y413362D01*
X263638Y417550D01*
X263669D01*
X266519Y420400D01*
X266600D01*
X235593Y419474D02*
X236519Y420400D01*
X214000Y419474D02*
X235593D01*
X229649Y465451D02*
X230000Y465100D01*
X229649Y465451D02*
Y466648D01*
X223197Y473100D02*
X229649Y466648D01*
X116500Y473100D02*
X223197D01*
X83000Y256500D02*
Y469000D01*
Y256500D02*
X102000Y237500D01*
X116600Y222900D01*
X33500Y237500D02*
X102000D01*
X83000Y469000D02*
X94000Y480000D01*
X109600D01*
X116500Y473100D01*
X266519Y170400D02*
X266600D01*
X214881D02*
X236519D01*
X116600Y222900D02*
X160700D01*
X263669Y167550D02*
X266519Y170400D01*
X263638Y167550D02*
X263669D01*
X266519Y150400D02*
X266600D01*
X263638Y153250D02*
X263669D01*
X266519Y150400D01*
X214081Y169600D02*
X214881Y170400D01*
X160700Y222900D02*
X214000Y169600D01*
X259450Y157439D02*
Y163362D01*
Y157439D02*
X263638Y153250D01*
X214000Y169600D02*
X214081D01*
X259450Y163362D02*
X263638Y167550D01*
X286000Y394100D02*
X315500D01*
X298000Y147489D02*
Y372100D01*
X286168Y135657D02*
X298000Y147489D01*
X286000Y384100D02*
X298000Y372100D01*
X286057Y135657D02*
X286168D01*
X286000Y135600D02*
X286057Y135657D01*
X108683Y106314D02*
Y208474D01*
X116249Y212549D02*
X116600Y212900D01*
X112757Y212549D02*
X116249D01*
X108683Y208474D02*
X112757Y212549D01*
X108683Y106314D02*
X116600Y98396D01*
Y97900D02*
Y98396D01*
X116149Y462749D02*
X116500Y463100D01*
X112657Y462749D02*
X116149D01*
X108583Y458674D02*
X112657Y462749D01*
X108583Y356414D02*
X116600Y348396D01*
X108583Y356414D02*
Y458674D01*
X116600Y347900D02*
Y348396D01*
D37*
X447000Y49691D02*
D03*
X464716Y24100D02*
D03*
Y49691D02*
D03*
X447000Y101191D02*
D03*
X464716Y75600D02*
D03*
Y101191D02*
D03*
X446783Y153191D02*
D03*
X464500Y127600D02*
D03*
Y153191D02*
D03*
D38*
X315500Y394100D02*
D03*
Y404100D02*
D03*
D39*
X203500Y143600D02*
D03*
Y105200D02*
D03*
X315500Y424600D02*
D03*
Y464600D02*
D03*
X293000Y424600D02*
D03*
Y464600D02*
D03*
X207500Y352700D02*
D03*
Y391100D02*
D03*
X190500Y423600D02*
D03*
X150500D02*
D03*
X151600Y400600D02*
D03*
X190000D02*
D03*
X190500Y173600D02*
D03*
X150500D02*
D03*
X186000Y24900D02*
D03*
X147600D02*
D03*
X146600Y47900D02*
D03*
X186600D02*
D03*
X151100Y275600D02*
D03*
X189500D02*
D03*
X190500Y298600D02*
D03*
X150500D02*
D03*
X315500Y368600D02*
D03*
Y328600D02*
D03*
X151100Y150600D02*
D03*
X189500D02*
D03*
X33500Y284100D02*
D03*
Y322500D02*
D03*
D40*
X315500Y384100D02*
D03*
M02*
