M48
;Layer_Color=9474304
;FILE_FORMAT=2:5
INCH,LZ
;TYPE=PLATED
T01F00S00C0.02362
T03F00S00C0.03150
T04F00S00C0.03900
T05F00S00C0.04000
T06F00S00C0.04016
T07F00S00C0.04173
T08F00S00C0.05118
T09F00S00C0.05472
T10F00S00C0.08661
;TYPE=NON_PLATED
T11F00S00C0.14000
%
T01
X03155Y03841
Y03941
Y04041
T03
X02225Y01303
Y01403
X02366Y01404
Y01504
Y01604
Y01704
Y01804
X02666
Y01704
Y01604
Y01504
Y01404
Y01304
Y01204
X02366
Y01304
X0214Y0161726
Y01696
X0286Y01456
Y01356
Y03841
Y03941
X02666Y03904
Y04004
Y04104
Y04204
Y04304
X02366
Y04204
Y04104
Y04004
Y03904
Y03804
Y03704
X02225Y03801
Y03901
X0214Y04116
Y0419474
X02666Y03804
Y03704
T04
X0447Y00241
X0464716
Y0049691
X0447
Y00756
X0464716
Y0101191
X0447
X0446783Y01276
X04645
Y0153191
X0446783
T05
X04008Y02999
Y04999
T06
X0266Y00275
X0276
X0286
X0296
X0306
X0316
X0326
X0336
X0346
X0356
X0366
T07
X01476Y00249
X0186
X01866Y00479
X02035Y01052
Y01436
X01895Y01506
X01905Y01736
X01505
X01511Y01506
X01466Y00479
X01511Y02756
X01505Y02986
X00335Y02841
Y03225
X01905Y02986
X01895Y02756
X03155Y03286
Y03686
Y04246
X0293
Y04646
X03155
X01905Y04236
X019Y04006
X02075Y03911
Y03527
X01516Y04006
X01505Y04236
T08
X00335Y02375
Y0257185
X04545Y0260785
Y02411
T09
X01166Y00779
Y00879
Y00979
Y02029
Y02129
Y02229
Y03279
Y03379
X021Y04651
X022
X023
X01165Y04631
Y04731
Y04531
X01166Y03479
T10
X0331606Y0105774
X0361555Y0099134
X0391504Y0105774
T11
X03615Y04361
X04401Y03637
M30
