G04*
G04 #@! TF.GenerationSoftware,Altium Limited,Altium Designer,26.7.1 (11)*
G04*
G04 Layer_Physical_Order=1*
G04 Layer_Color=255*
G04 Board_Origin=100000000|100000000*
%FSLAX44Y44*%
%MOMM*%
G71*
G04*
G04 #@! TF.SameCoordinates,35D10A8D-50D3-486A-B6A2-89D25CCCEA80*
G04*
G04*
G04 #@! TF.FilePolarity,Positive*
G04*
G01*
G75*
%ADD11C,0.1524*%
%ADD16R,0.5400X0.6000*%
G04:AMPARAMS|DCode=17|XSize=0.6mm|YSize=0.67mm|CornerRadius=0.075mm|HoleSize=0mm|Usage=FLASHONLY|Rotation=180.000|XOffset=0mm|YOffset=0mm|HoleType=Round|Shape=RoundedRectangle|*
%AMROUNDEDRECTD17*
21,1,0.6000,0.5200,0,0,180.0*
21,1,0.4500,0.6700,0,0,180.0*
1,1,0.1500,-0.2250,0.2600*
1,1,0.1500,0.2250,0.2600*
1,1,0.1500,0.2250,-0.2600*
1,1,0.1500,-0.2250,-0.2600*
%
%ADD17ROUNDEDRECTD17*%
G04:AMPARAMS|DCode=18|XSize=0.8397mm|YSize=0.2425mm|CornerRadius=0.1212mm|HoleSize=0mm|Usage=FLASHONLY|Rotation=270.000|XOffset=0mm|YOffset=0mm|HoleType=Round|Shape=RoundedRectangle|*
%AMROUNDEDRECTD18*
21,1,0.8397,0.0000,0,0,270.0*
21,1,0.5972,0.2425,0,0,270.0*
1,1,0.2425,0.0000,-0.2986*
1,1,0.2425,0.0000,0.2986*
1,1,0.2425,0.0000,0.2986*
1,1,0.2425,0.0000,-0.2986*
%
%ADD18ROUNDEDRECTD18*%
%ADD19R,0.6000X0.5400*%
%ADD20R,0.4000X0.8000*%
G04:AMPARAMS|DCode=21|XSize=0.2425mm|YSize=0.8397mm|CornerRadius=0.1212mm|HoleSize=0mm|Usage=FLASHONLY|Rotation=270.000|XOffset=0mm|YOffset=0mm|HoleType=Round|Shape=RoundedRectangle|*
%AMROUNDEDRECTD21*
21,1,0.2425,0.5972,0,0,270.0*
21,1,0.0000,0.8397,0,0,270.0*
1,1,0.2425,-0.2986,0.0000*
1,1,0.2425,-0.2986,0.0000*
1,1,0.2425,0.2986,0.0000*
1,1,0.2425,0.2986,0.0000*
%
%ADD21ROUNDEDRECTD21*%
%ADD22R,0.2425X0.8397*%
G04:AMPARAMS|DCode=23|XSize=1.3571mm|YSize=0.5721mm|CornerRadius=0.2861mm|HoleSize=0mm|Usage=FLASHONLY|Rotation=0.000|XOffset=0mm|YOffset=0mm|HoleType=Round|Shape=RoundedRectangle|*
%AMROUNDEDRECTD23*
21,1,1.3571,0.0000,0,0,0.0*
21,1,0.7850,0.5721,0,0,0.0*
1,1,0.5721,0.3925,0.0000*
1,1,0.5721,-0.3925,0.0000*
1,1,0.5721,-0.3925,0.0000*
1,1,0.5721,0.3925,0.0000*
%
%ADD23ROUNDEDRECTD23*%
G04:AMPARAMS|DCode=24|XSize=0.6mm|YSize=0.67mm|CornerRadius=0.075mm|HoleSize=0mm|Usage=FLASHONLY|Rotation=90.000|XOffset=0mm|YOffset=0mm|HoleType=Round|Shape=RoundedRectangle|*
%AMROUNDEDRECTD24*
21,1,0.6000,0.5200,0,0,90.0*
21,1,0.4500,0.6700,0,0,90.0*
1,1,0.1500,0.2600,0.2250*
1,1,0.1500,0.2600,-0.2250*
1,1,0.1500,-0.2600,-0.2250*
1,1,0.1500,-0.2600,0.2250*
%
%ADD24ROUNDEDRECTD24*%
%ADD25R,2.1986X0.8728*%
%ADD26R,0.7000X0.6000*%
G04:AMPARAMS|DCode=27|XSize=0.9mm|YSize=1.75mm|CornerRadius=0.0495mm|HoleSize=0mm|Usage=FLASHONLY|Rotation=90.000|XOffset=0mm|YOffset=0mm|HoleType=Round|Shape=RoundedRectangle|*
%AMROUNDEDRECTD27*
21,1,0.9000,1.6510,0,0,90.0*
21,1,0.8010,1.7500,0,0,90.0*
1,1,0.0990,0.8255,0.4005*
1,1,0.0990,0.8255,-0.4005*
1,1,0.0990,-0.8255,-0.4005*
1,1,0.0990,-0.8255,0.4005*
%
%ADD27ROUNDEDRECTD27*%
%ADD28R,0.3500X0.6000*%
%ADD29R,1.1500X0.6000*%
%ADD30R,0.6000X0.3500*%
%ADD31R,1.1500X0.3000*%
%ADD32R,0.8000X0.4000*%
%ADD33R,0.8000X0.8000*%
%ADD34R,1.2000X1.2000*%
G04:AMPARAMS|DCode=35|XSize=3.2mm|YSize=1.75mm|CornerRadius=0.0525mm|HoleSize=0mm|Usage=FLASHONLY|Rotation=90.000|XOffset=0mm|YOffset=0mm|HoleType=Round|Shape=RoundedRectangle|*
%AMROUNDEDRECTD35*
21,1,3.2000,1.6450,0,0,90.0*
21,1,3.0950,1.7500,0,0,90.0*
1,1,0.1050,0.8225,1.5475*
1,1,0.1050,0.8225,-1.5475*
1,1,0.1050,-0.8225,-1.5475*
1,1,0.1050,-0.8225,1.5475*
%
%ADD35ROUNDEDRECTD35*%
%ADD36R,1.3571X0.5721*%
%ADD41R,2.0500X2.0500*%
G04:AMPARAMS|DCode=56|XSize=1mm|YSize=1.8mm|CornerRadius=0.5mm|HoleSize=0mm|Usage=FLASHONLY|Rotation=270.000|XOffset=0mm|YOffset=0mm|HoleType=Round|Shape=RoundedRectangle|*
%AMROUNDEDRECTD56*
21,1,1.0000,0.8000,0,0,270.0*
21,1,0.0000,1.8000,0,0,270.0*
1,1,1.0000,-0.4000,0.0000*
1,1,1.0000,-0.4000,0.0000*
1,1,1.0000,0.4000,0.0000*
1,1,1.0000,0.4000,0.0000*
%
%ADD56ROUNDEDRECTD56*%
G04:AMPARAMS|DCode=57|XSize=1mm|YSize=2.2mm|CornerRadius=0.5mm|HoleSize=0mm|Usage=FLASHONLY|Rotation=270.000|XOffset=0mm|YOffset=0mm|HoleType=Round|Shape=RoundedRectangle|*
%AMROUNDEDRECTD57*
21,1,1.0000,1.2000,0,0,270.0*
21,1,0.0000,2.2000,0,0,270.0*
1,1,1.0000,-0.6000,0.0000*
1,1,1.0000,-0.6000,0.0000*
1,1,1.0000,0.6000,0.0000*
1,1,1.0000,0.6000,0.0000*
%
%ADD57ROUNDEDRECTD57*%
%ADD58R,0.4000X0.4000*%
%ADD59C,0.3810*%
%ADD60C,0.5080*%
%ADD61C,0.3048*%
%ADD62C,0.2542*%
%ADD63C,0.1532*%
%ADD64C,0.4276*%
%ADD65C,1.0160*%
%ADD66R,1.6256X1.6256*%
%ADD67C,1.6256*%
%ADD68R,1.0160X1.0160*%
%ADD69R,1.0160X1.0160*%
%ADD70C,0.6096*%
G36*
X645922Y212598D02*
X637407D01*
X637032Y212673D01*
X625094D01*
Y226314D01*
X645922D01*
Y212598D01*
D02*
G37*
G36*
X224790Y199644D02*
X218440D01*
Y200914D01*
X214122D01*
X211836Y203200D01*
X207436D01*
X207418Y203212D01*
X207264Y203242D01*
Y214630D01*
X210058D01*
X216916Y221488D01*
X224790D01*
Y199644D01*
D02*
G37*
G36*
X155963Y181864D02*
X152654D01*
X147320Y176530D01*
Y152908D01*
X149352Y150876D01*
X157988D01*
Y144780D01*
X135636D01*
Y173521D01*
Y175589D01*
X138450D01*
X150402Y187706D01*
X155963Y187706D01*
Y181864D01*
D02*
G37*
G36*
X630838Y143500D02*
Y137500D01*
X618838D01*
Y149500D01*
X624838D01*
X630838Y143500D01*
D02*
G37*
G36*
X111760Y134670D02*
X92710D01*
X90170Y135137D01*
Y169164D01*
X111760D01*
Y134670D01*
D02*
G37*
G36*
X287782Y40640D02*
X210820D01*
X210811Y51720D01*
X208788Y54864D01*
X207481Y56896D01*
X194564D01*
X189230Y62230D01*
X147320D01*
Y57200D01*
X124714D01*
Y81280D01*
X134112Y90678D01*
X147066D01*
Y87630D01*
X189230D01*
X217170Y115570D01*
X217424Y115316D01*
X242824D01*
Y122428D01*
X287782D01*
Y40640D01*
D02*
G37*
G36*
X144780Y101600D02*
X176530D01*
Y91440D01*
X157480D01*
Y93472D01*
X139954D01*
X111506Y121920D01*
X92710D01*
X89916Y124714D01*
Y129286D01*
X92710Y132080D01*
X114300D01*
X144780Y101600D01*
D02*
G37*
G36*
X92710Y119330D02*
X101836D01*
X111814Y109352D01*
X111797Y99633D01*
X111796Y99628D01*
Y99070D01*
X111761Y80010D01*
X91966D01*
X90170Y81806D01*
X90176Y116857D01*
X91440Y118110D01*
X92668Y119339D01*
X92710Y119330D01*
D02*
G37*
G36*
X175768Y45720D02*
X140970D01*
Y30480D01*
X124460D01*
Y54610D01*
X157734D01*
Y55372D01*
X175768D01*
Y45720D01*
D02*
G37*
D11*
X511300Y38100D02*
Y43436D01*
X497396Y57340D02*
X511300Y43436D01*
X469663Y57340D02*
X497396D01*
X378564Y148440D02*
X469663Y57340D01*
X378564Y148440D02*
Y156342D01*
X222248Y149860D02*
Y163830D01*
X208788D02*
X222248D01*
X205232Y167386D02*
X208788Y163830D01*
X205232Y167386D02*
Y183783D01*
X203435Y185580D02*
X205232Y183783D01*
X199495Y185580D02*
X203435D01*
X250190Y198118D02*
X270512D01*
X286258Y182372D01*
Y168953D02*
Y182372D01*
X269960Y148807D02*
Y152655D01*
X286258Y168953D01*
X268624Y147472D02*
X269960Y148807D01*
X249890Y198626D02*
X250190D01*
X243796Y192532D02*
X249890Y198626D01*
X206328Y200580D02*
X210868Y196040D01*
X199495Y200580D02*
X206328D01*
X227957Y192532D02*
X243796D01*
X210868Y196040D02*
X224449D01*
X227957Y192532D01*
X221486Y136652D02*
X222248Y135890D01*
X212308Y136652D02*
X221486D01*
X210820Y138140D02*
X212308Y136652D01*
X193548Y170180D02*
X210820Y152908D01*
Y138140D02*
Y152908D01*
X190340Y173388D02*
Y176425D01*
Y173388D02*
X193548Y170180D01*
X154940Y156212D02*
X155092Y156364D01*
X169012D01*
X169164Y156516D01*
Y168148D01*
X170340Y169324D01*
Y176425D01*
X250190Y154180D02*
Y167640D01*
X257810Y175260D01*
X265938D01*
X268624Y177946D01*
Y186080D01*
X204930Y195580D02*
X210010Y190500D01*
X199495Y195580D02*
X204930D01*
X227225Y186080D02*
X268624D01*
X222805Y190500D02*
X227225Y186080D01*
X210010Y190500D02*
X222805D01*
X536700Y38100D02*
Y38400D01*
X512680Y62420D02*
X536700Y38400D01*
X388389Y148313D02*
X474282Y62420D01*
X388389Y148313D02*
Y148567D01*
X474282Y62420D02*
X512680D01*
X199495Y190580D02*
X199553Y190522D01*
X204240D01*
X209550Y185213D01*
X212530Y182232D01*
X221374D01*
X221488Y182118D01*
X199495Y205580D02*
X209550D01*
X504444Y221742D02*
X602742D01*
X621030Y240030D01*
X557434Y71532D02*
X557530Y71628D01*
X557434Y57224D02*
X557530Y57128D01*
X557434Y57224D02*
Y71532D01*
X427990Y203454D02*
X436296Y211760D01*
X451648Y51740D02*
X453136Y50252D01*
Y44666D02*
Y50252D01*
X444500Y51740D02*
X451648D01*
X408940Y74512D02*
Y91440D01*
X387350Y113030D02*
X408940Y91440D01*
Y74512D02*
X415222Y68230D01*
X454624Y43178D02*
X461010D01*
X453136Y44666D02*
X454624Y43178D01*
X508002Y208788D02*
X637032D01*
X642338Y197000D02*
Y203482D01*
X637032Y208788D02*
X642338Y203482D01*
X436296Y211760D02*
X444500D01*
X600202Y185420D02*
Y196618D01*
X583184Y185420D02*
Y196618D01*
X566166Y185420D02*
Y196618D01*
X616838Y197000D02*
X617220Y196618D01*
Y185420D02*
Y196618D01*
X625216Y173096D02*
Y196878D01*
X633838Y185528D02*
Y197000D01*
X659234Y197014D02*
X659352Y197132D01*
X487163Y150313D02*
X520585D01*
X481838Y154686D02*
X482790D01*
X487163Y150313D01*
X465782Y102108D02*
X469592Y105918D01*
X464820Y102108D02*
X465782D01*
X469592Y105918D02*
X480775D01*
X538202Y144136D02*
X538338Y144000D01*
X524510Y144272D02*
X524646Y144136D01*
X538202D01*
X480775Y105918D02*
X484228Y102466D01*
X474218Y98298D02*
X474472Y98552D01*
X474218Y82249D02*
Y98298D01*
X522772Y152500D02*
X538338D01*
X520585Y150313D02*
X522772Y152500D01*
X529100Y110000D02*
X538338D01*
X524256Y105156D02*
X529100Y110000D01*
X527966Y101500D02*
X538338D01*
X524764Y98298D02*
X527966Y101500D01*
X530158Y135188D02*
X530314Y135344D01*
X537209D01*
X537247Y135382D01*
X504952Y105156D02*
X524256D01*
X508000Y98298D02*
X524764D01*
X505300Y157226D02*
X520314D01*
X505245Y157171D02*
X505300Y157226D01*
X230122Y61722D02*
X231648D01*
X227330Y58930D02*
X230122Y61722D01*
X659130Y186690D02*
X659234Y186794D01*
X300848Y41000D02*
X318135D01*
X299360Y42488D02*
Y145247D01*
X287635Y156972D02*
X299360Y145247D01*
Y42488D02*
X300848Y41000D01*
X318135D02*
X393065D01*
X625094Y56620D02*
Y67818D01*
X633976Y56238D02*
Y80510D01*
X616958Y56238D02*
Y80510D01*
X608334Y57004D02*
Y67814D01*
X608330Y67818D02*
X608334Y67814D01*
X498094Y98298D02*
X504952Y105156D01*
X574316Y57022D02*
Y67796D01*
Y57022D02*
X574338Y57000D01*
X574294Y67818D02*
X574316Y67796D01*
X415222Y68230D02*
X417670D01*
X419100Y66800D01*
Y52630D02*
Y66800D01*
X393065Y41000D02*
X406760D01*
X410210Y44450D01*
Y50800D01*
X412040Y52630D01*
X419100D01*
X498600Y195280D02*
Y195580D01*
X482950Y179630D02*
X498600Y195280D01*
X419100Y179630D02*
X482950D01*
X411698D02*
X419100D01*
X406654Y169164D02*
X410210Y172720D01*
Y178142D01*
X411698Y179630D01*
X394229Y169164D02*
X406654D01*
X393065Y168000D02*
X394229Y169164D01*
X318135Y168000D02*
X393065D01*
X258790Y166472D02*
X268624D01*
X257302Y164984D02*
X258790Y166472D01*
X257302Y148298D02*
Y164984D01*
X254544Y145540D02*
X257302Y148298D01*
X250190Y145540D02*
X254544D01*
X267964Y205740D02*
X268624Y205080D01*
X257556Y205740D02*
X267964D01*
X256030Y207266D02*
X257556Y205740D01*
X250190Y207266D02*
X256030D01*
X299974Y169488D02*
Y193294D01*
X297688Y195580D02*
X299974Y193294D01*
X301462Y168000D02*
X318135D01*
X299974Y169488D02*
X301462Y168000D01*
X287635Y195580D02*
X297688D01*
X507240Y209550D02*
X508002Y208788D01*
X507240Y195580D02*
Y209550D01*
X498600Y215898D02*
X504444Y221742D01*
X498600Y209550D02*
Y215898D01*
X557022Y226822D02*
X570230Y240030D01*
X448564Y226822D02*
X557022D01*
X444500Y222758D02*
X448564Y226822D01*
X544830Y13970D02*
X545085Y14225D01*
Y37845D01*
X545340Y38100D01*
X519430Y13970D02*
X519685Y14225D01*
Y37845D01*
X519940Y38100D01*
X474218Y82249D02*
X488967Y67500D01*
X487934Y78232D02*
X494202Y84500D01*
X488967Y67500D02*
X538338D01*
X494202Y84500D02*
X538338D01*
X484228Y95400D02*
X490048Y89580D01*
X526034D01*
X529454Y93000D01*
X484228Y95400D02*
Y102466D01*
X504626Y181356D02*
X506730D01*
X498520Y181274D02*
X504544D01*
X497840Y180594D02*
X498520Y181274D01*
X504544D02*
X504626Y181356D01*
X498094Y164084D02*
X519988D01*
X525404Y169500D01*
X520314Y157226D02*
X524088Y161000D01*
X506730Y181356D02*
X510794Y177292D01*
X524088Y161000D02*
X538338D01*
X505714Y170942D02*
X519662D01*
X526720Y178000D01*
X525404Y169500D02*
X538338D01*
X518827Y177292D02*
X528035Y186500D01*
X510794Y177292D02*
X518827D01*
X526720Y178000D02*
X538338D01*
X528035Y186500D02*
X538338D01*
X453644Y209336D02*
X455132Y210824D01*
X461010D01*
X453644Y205232D02*
Y209336D01*
X450672Y202260D02*
X453644Y205232D01*
X444500Y202260D02*
X450672D01*
X444500Y211760D02*
Y222758D01*
X529454Y93000D02*
X538338D01*
X508070Y76000D02*
X538338D01*
X508008Y75938D02*
X508070Y76000D01*
X548866Y57028D02*
Y80490D01*
X595630Y13970D02*
X619911Y38251D01*
X649157D01*
X659338Y48432D01*
Y57000D01*
X640231Y33171D02*
X651261D01*
X621030Y13970D02*
X640231Y33171D01*
X651261D02*
X667838Y49748D01*
Y57000D01*
X574302Y172728D02*
Y197000D01*
X625216Y196878D02*
X625338Y197000D01*
X625094Y172974D02*
X625216Y173096D01*
X608338Y172728D02*
Y197000D01*
X591320Y172728D02*
Y197000D01*
X557284Y172728D02*
Y197000D01*
X548866Y195573D02*
X548894Y195602D01*
X548866Y183961D02*
X548894Y183933D01*
X548866Y183961D02*
Y195573D01*
X548838Y57000D02*
X548866Y57028D01*
Y80490D02*
X548894Y80518D01*
X565904Y56238D02*
Y80510D01*
X582922Y56238D02*
Y80510D01*
X591312Y67818D02*
X591325Y67805D01*
Y57013D02*
Y67805D01*
Y57013D02*
X591338Y57000D01*
X599940Y56238D02*
Y80510D01*
X608334Y57004D02*
X608338Y57000D01*
D16*
X193550Y127000D02*
D03*
X184910D02*
D03*
X184914D02*
D03*
X230380Y218186D02*
D03*
X511300Y38100D02*
D03*
X222248Y163830D02*
D03*
Y149860D02*
D03*
X138940Y186182D02*
D03*
Y200152D02*
D03*
X222248Y135890D02*
D03*
X536700Y38100D02*
D03*
X221740Y218186D02*
D03*
X176274Y127000D02*
D03*
X230888Y163830D02*
D03*
X130300Y200152D02*
D03*
Y186182D02*
D03*
X489966Y131064D02*
D03*
Y114554D02*
D03*
X498606Y131064D02*
D03*
X498598D02*
D03*
X230888Y149860D02*
D03*
Y135890D02*
D03*
X498600Y195580D02*
D03*
Y209550D02*
D03*
X507238Y131064D02*
D03*
Y114554D02*
D03*
X498598D02*
D03*
X498606D02*
D03*
X507240Y195580D02*
D03*
Y209550D02*
D03*
X545340Y38100D02*
D03*
X519940D02*
D03*
D17*
X184860Y142240D02*
D03*
Y156210D02*
D03*
X642822Y215900D02*
D03*
X628194Y216154D02*
D03*
X672136Y32258D02*
D03*
X665988Y215900D02*
D03*
X138736Y171958D02*
D03*
X221690Y203200D02*
D03*
X108712Y156972D02*
D03*
X117452D02*
D03*
X674728Y215900D02*
D03*
X619454Y216154D02*
D03*
X651562Y215900D02*
D03*
X663396Y32258D02*
D03*
X230430Y203200D02*
D03*
X193600Y156210D02*
D03*
Y142240D02*
D03*
X129742Y215138D02*
D03*
X129996Y171958D02*
D03*
X117400Y97028D02*
D03*
X138482Y215138D02*
D03*
X108660Y97028D02*
D03*
D18*
X175340Y176425D02*
D03*
X185340Y214735D02*
D03*
X175340D02*
D03*
X170340D02*
D03*
X185340Y176425D02*
D03*
X170340D02*
D03*
X190340D02*
D03*
X180340D02*
D03*
Y214735D02*
D03*
D19*
X419100Y75440D02*
D03*
X461010Y202184D02*
D03*
Y51818D02*
D03*
X250190Y198118D02*
D03*
X154940Y156212D02*
D03*
X250190Y154180D02*
D03*
X154940Y147572D02*
D03*
X461010Y43178D02*
D03*
X104140Y215394D02*
D03*
Y206754D02*
D03*
X104902Y39114D02*
D03*
Y47754D02*
D03*
X104648Y72900D02*
D03*
Y64260D02*
D03*
X104140Y180592D02*
D03*
Y189232D02*
D03*
X250190Y145540D02*
D03*
Y206758D02*
D03*
X419100Y66800D02*
D03*
X461010Y210824D02*
D03*
D20*
X650838Y197000D02*
D03*
X667838D02*
D03*
X659338D02*
D03*
X650838Y57000D02*
D03*
X642338D02*
D03*
X667838D02*
D03*
X642338Y197000D02*
D03*
X633838D02*
D03*
X625338D02*
D03*
X616838D02*
D03*
X608338D02*
D03*
X599838D02*
D03*
X591338D02*
D03*
X582838D02*
D03*
X574338D02*
D03*
X565838D02*
D03*
X557338D02*
D03*
X548838D02*
D03*
Y57000D02*
D03*
X557338D02*
D03*
X565838D02*
D03*
X574338D02*
D03*
X582838D02*
D03*
X591338D02*
D03*
X599838D02*
D03*
X608338D02*
D03*
X633838D02*
D03*
X659338D02*
D03*
X625338D02*
D03*
X616838D02*
D03*
D21*
X161185Y205580D02*
D03*
Y200580D02*
D03*
X199495Y185580D02*
D03*
Y190580D02*
D03*
X161185Y185580D02*
D03*
X199495Y205580D02*
D03*
Y195580D02*
D03*
Y200580D02*
D03*
X161185Y190580D02*
D03*
Y195580D02*
D03*
D22*
X190340Y214735D02*
D03*
D23*
X268624Y147472D02*
D03*
Y186080D02*
D03*
X287635Y195580D02*
D03*
Y156972D02*
D03*
D24*
X169164Y156516D02*
D03*
X143510Y51510D02*
D03*
X128270D02*
D03*
X419100Y170890D02*
D03*
Y43890D02*
D03*
X169164Y147776D02*
D03*
X143510Y87832D02*
D03*
X128270Y60250D02*
D03*
X143510D02*
D03*
X419100Y179630D02*
D03*
X143510Y96572D02*
D03*
X419100Y52630D02*
D03*
D25*
X318135Y41000D02*
D03*
X393065D02*
D03*
Y86000D02*
D03*
X318135D02*
D03*
X393065Y213000D02*
D03*
X318135D02*
D03*
Y168000D02*
D03*
X393065D02*
D03*
D26*
X444500Y51740D02*
D03*
Y42240D02*
D03*
Y211760D02*
D03*
Y202260D02*
D03*
D27*
X166870Y50660D02*
D03*
Y73660D02*
D03*
Y96660D02*
D03*
D28*
X91896Y157226D02*
D03*
X85396D02*
D03*
Y96774D02*
D03*
X91896D02*
D03*
D29*
X64800Y222100D02*
D03*
Y174100D02*
D03*
Y230100D02*
D03*
Y166100D02*
D03*
Y90400D02*
D03*
Y26400D02*
D03*
Y82400D02*
D03*
Y34400D02*
D03*
D30*
X85852Y190448D02*
D03*
X86106Y205792D02*
D03*
X86360Y62738D02*
D03*
Y50292D02*
D03*
X85852Y183948D02*
D03*
X86106Y212292D02*
D03*
X86360Y69238D02*
D03*
Y43792D02*
D03*
D31*
X64800Y200600D02*
D03*
Y190600D02*
D03*
Y205600D02*
D03*
Y195600D02*
D03*
Y65900D02*
D03*
Y55900D02*
D03*
Y60900D02*
D03*
Y50900D02*
D03*
Y40900D02*
D03*
Y70900D02*
D03*
Y210600D02*
D03*
Y180600D02*
D03*
Y185600D02*
D03*
Y215600D02*
D03*
Y75900D02*
D03*
Y45900D02*
D03*
D32*
X538338Y127000D02*
D03*
X678338Y186500D02*
D03*
Y178000D02*
D03*
Y169500D02*
D03*
Y161000D02*
D03*
Y144000D02*
D03*
Y152500D02*
D03*
Y135500D02*
D03*
Y118500D02*
D03*
Y127000D02*
D03*
Y93000D02*
D03*
Y101500D02*
D03*
Y84500D02*
D03*
Y110000D02*
D03*
Y67500D02*
D03*
Y76000D02*
D03*
X538338Y118500D02*
D03*
Y186500D02*
D03*
Y178000D02*
D03*
Y169500D02*
D03*
Y161000D02*
D03*
Y152500D02*
D03*
Y144000D02*
D03*
Y135500D02*
D03*
Y110000D02*
D03*
Y101500D02*
D03*
Y84500D02*
D03*
Y76000D02*
D03*
Y93000D02*
D03*
Y67500D02*
D03*
D33*
X678338Y197000D02*
D03*
X538338D02*
D03*
X678338Y57000D02*
D03*
X538338D02*
D03*
D34*
X608338Y143500D02*
D03*
X591838D02*
D03*
X624838Y127000D02*
D03*
Y110500D02*
D03*
X608338Y127000D02*
D03*
X591838D02*
D03*
X608338Y110500D02*
D03*
X591838D02*
D03*
D35*
X229370Y73660D02*
D03*
D36*
X268624Y166472D02*
D03*
Y205080D02*
D03*
D41*
X180340Y195580D02*
D03*
D56*
X59050Y241300D02*
D03*
Y154900D02*
D03*
Y101600D02*
D03*
Y15200D02*
D03*
D57*
X19050Y241300D02*
D03*
Y154900D02*
D03*
Y101600D02*
D03*
Y15200D02*
D03*
D58*
X624838Y143500D02*
D03*
D59*
X184860Y156210D02*
Y156560D01*
Y142240D02*
Y156210D01*
X175340Y166080D02*
Y176425D01*
Y166080D02*
X184860Y156560D01*
Y129640D02*
Y142240D01*
X629289Y217249D02*
Y217599D01*
X628194Y216154D02*
X629289Y217249D01*
X631261Y222575D02*
X631698Y223012D01*
X631261Y219571D02*
Y222575D01*
X629289Y217599D02*
X631261Y219571D01*
X230760Y129544D02*
Y135762D01*
X230632Y129415D02*
X230760Y129544D01*
Y135762D02*
X230888Y135890D01*
X85588Y33528D02*
X99016D01*
X104602Y39114D01*
X104902D01*
X615696Y224536D02*
X619252Y220980D01*
Y216356D02*
Y220980D01*
Y216356D02*
X619454Y216154D01*
X78216Y40900D02*
X85588Y33528D01*
X64800Y40900D02*
X78216D01*
X616712Y118618D02*
Y118626D01*
X608338Y127000D02*
X616712Y118626D01*
X599956Y118618D02*
X608338Y127000D01*
X599948Y118618D02*
X599956D01*
X616466Y135128D02*
X616712D01*
X608338Y127000D02*
X616466Y135128D01*
X600210D02*
X608338Y127000D01*
X600202Y135128D02*
X600210D01*
X230632Y143002D02*
X230760Y143130D01*
Y149732D02*
X230888Y149860D01*
X230760Y143130D02*
Y149732D01*
X667094Y67310D02*
X667189Y67405D01*
X667270Y101593D02*
X667372Y101695D01*
X678751D01*
X667189Y67405D02*
X678243D01*
X667358Y110390D02*
X677504D01*
X667258Y110490D02*
X667358Y110390D01*
X677504D02*
X677568Y110326D01*
X118858Y174752D02*
X121652Y171958D01*
X118364Y174752D02*
X118858D01*
X121652Y171958D02*
X129996D01*
X678467Y177773D02*
X678838Y178144D01*
X667290Y186468D02*
X678462D01*
X667485Y177773D02*
X678467D01*
X667553Y169459D02*
X678951D01*
X667607Y135731D02*
X679005D01*
X659234Y186794D02*
Y197014D01*
X642366Y56112D02*
Y67310D01*
X104140Y189992D02*
X104935Y189197D01*
X121666Y148844D02*
Y152408D01*
X117452Y156622D02*
Y156972D01*
Y156622D02*
X121666Y152408D01*
X64800Y180600D02*
X77470D01*
X78164D01*
X103840Y180592D02*
X104140D01*
X101001Y177753D02*
X103840Y180592D01*
X81011Y177753D02*
X101001D01*
X78164Y180600D02*
X81011Y177753D01*
X77470Y214692D02*
X81265Y218487D01*
X73378Y210600D02*
X77470Y214692D01*
X64800Y210600D02*
X73378D01*
X103840Y215394D02*
X104140D01*
X100747Y218487D02*
X103840Y215394D01*
X81265Y218487D02*
X100747D01*
X81534Y152424D02*
X84443Y155333D01*
X81534Y148844D02*
Y152424D01*
X111266Y206754D02*
X115824Y211312D01*
Y211582D01*
X104140Y206754D02*
X111266D01*
X108353Y189197D02*
X114738Y182812D01*
X104935Y189197D02*
X108353D01*
X678462Y186468D02*
X678494Y186436D01*
X678951Y169459D02*
X678992Y169418D01*
X677528Y152704D02*
X677732Y152908D01*
X677115Y160891D02*
X677224Y160782D01*
X667716Y152704D02*
X677528D01*
X677758Y144426D02*
X677822Y144362D01*
X679005Y135731D02*
X679100Y135826D01*
X667621Y160891D02*
X677115D01*
X667512Y152908D02*
X667716Y152704D01*
X667612Y144426D02*
X677758D01*
X667258Y186436D02*
X667290Y186468D01*
X667512Y160782D02*
X667621Y160891D01*
X667512Y169418D02*
X667553Y169459D01*
X667512Y144526D02*
X667612Y144426D01*
X667258Y177546D02*
X667485Y177773D01*
X667512Y135636D02*
X667607Y135731D01*
X667856Y127344D02*
X677568D01*
X667512Y119126D02*
X667825Y118813D01*
X677419D01*
X667348Y93054D02*
X677060D01*
X678243Y67405D02*
X678338Y67500D01*
X667348Y84672D02*
X677060D01*
X666850Y76100D02*
X676996D01*
X677060Y76036D01*
X678180Y56842D02*
X678338Y57000D01*
X672084Y42672D02*
X678180Y48768D01*
Y56842D01*
X666750Y76200D02*
X666850Y76100D01*
X662940Y31802D02*
X663396Y32258D01*
X649288Y13970D02*
X662940Y27622D01*
Y31802D01*
X650838Y57000D02*
Y66712D01*
X646430Y13970D02*
X649288D01*
D60*
X230380Y218186D02*
X239014D01*
X461010Y195093D02*
Y202184D01*
Y195093D02*
X464058Y192045D01*
Y191770D02*
Y192045D01*
X671830Y13970D02*
X672136Y14276D01*
Y32258D01*
X665988Y215900D02*
Y219456D01*
X646430Y239014D02*
X665988Y219456D01*
X646430Y239014D02*
Y240030D01*
X349250Y127000D02*
X384875D01*
X419100Y92775D01*
Y75440D02*
Y92775D01*
Y75440D02*
X437088D01*
X460710Y51818D01*
X461010D01*
X193550Y127000D02*
X200914D01*
X221715Y218161D02*
X221740Y218186D01*
X221690Y203200D02*
X221715Y203225D01*
X221740Y217886D02*
Y218186D01*
X216964Y217726D02*
X221580D01*
X211014Y211776D02*
X216964Y217726D01*
X221715Y203225D02*
Y217861D01*
Y218161D01*
X221580Y217726D02*
X221715Y217861D01*
X221740Y217886D01*
X143196Y152206D02*
X147830Y147572D01*
X138736Y163016D02*
X143002Y158750D01*
X143196Y152206D02*
Y158556D01*
X143002Y158750D02*
X143196Y158556D01*
X147830Y147572D02*
X154940D01*
X139196Y172768D02*
X139546D01*
X151574Y184796D01*
X138736Y172308D02*
X139196Y172768D01*
X152400Y184796D02*
X159527D01*
X151574D02*
X152400D01*
X138736Y163016D02*
Y172308D01*
X128210Y34350D02*
X137100D01*
X128016Y34544D02*
X128210Y34350D01*
X206756Y117602D02*
X210441Y121287D01*
X234253D02*
X240284Y127319D01*
X210441Y121287D02*
X234253D01*
X151892Y117602D02*
X206756D01*
X128016Y34544D02*
X128143Y34671D01*
Y43053D01*
X128270Y43180D01*
Y51510D01*
X135696Y73466D02*
X135890Y73660D01*
X143510D01*
X151130D01*
X143510D02*
Y85800D01*
X151130Y73660D02*
X166870D01*
X143510Y60250D02*
Y73660D01*
X128270Y51510D02*
X143510D01*
X143712Y51308D01*
X166222D01*
X166870Y50660D01*
X318135Y179197D02*
Y213000D01*
X200466Y137862D02*
X200660Y137668D01*
X200466Y151832D02*
X200660Y151638D01*
X197628Y151832D02*
X200466D01*
X197628Y137862D02*
X200466D01*
X193600Y155860D02*
X197628Y151832D01*
X240284Y127319D02*
Y160274D01*
X193346Y142144D02*
X197628Y137862D01*
X193346Y142144D02*
Y142240D01*
X411586Y213000D02*
X416560Y208026D01*
X393065Y213000D02*
X411586D01*
X236913Y163370D02*
X240009Y160274D01*
X240284D01*
X230430Y202850D02*
X233696Y199584D01*
X237804D01*
X237998Y199390D01*
X608320Y143492D02*
Y154930D01*
X580400Y126990D02*
X591838D01*
X580395Y110495D02*
X593093D01*
X166370Y127000D02*
X176274D01*
X129794Y139700D02*
X151892Y117602D01*
X95250Y139700D02*
X129794D01*
X166826Y96616D02*
X166870Y96660D01*
X143554Y96616D02*
X166826D01*
X143510Y96572D02*
X143554Y96616D01*
X143160Y96572D02*
X143510D01*
X112732Y127000D02*
X143160Y96572D01*
X95250Y127000D02*
X112732D01*
X231048Y163370D02*
X236913D01*
X64800Y174100D02*
X74786D01*
X230888Y163530D02*
Y163830D01*
Y163530D02*
X231048Y163370D01*
X74786Y174100D02*
X82516Y166370D01*
X52760Y174100D02*
X64800D01*
X94686Y166370D02*
X101235Y159822D01*
X82516Y166370D02*
X94686D01*
X101235Y157099D02*
Y159822D01*
Y153813D02*
Y157099D01*
X95250Y147828D02*
X101235Y153813D01*
X95250Y139700D02*
Y147828D01*
X101235Y157099D02*
X108489D01*
X93980D02*
X101235D01*
X52760Y222100D02*
X64800D01*
X49784Y177076D02*
X52760Y174100D01*
X49784Y219124D02*
X52760Y222100D01*
X49784Y177076D02*
Y219124D01*
X388620Y100330D02*
X393065Y95885D01*
Y86000D02*
Y95885D01*
X61631Y34400D02*
X64800D01*
X50800Y37417D02*
Y76708D01*
X56492Y82400D01*
X53776Y34441D02*
X61590D01*
X61631Y34400D01*
X50800Y37417D02*
X53776Y34441D01*
X56492Y82400D02*
X101868D01*
X318135Y75565D02*
X320548Y73152D01*
X318135Y75565D02*
Y86000D01*
X108660Y97028D02*
Y107988D01*
X102699Y113949D02*
X108660Y107988D01*
X95601Y113949D02*
X102699D01*
X95250Y114300D02*
X95601Y113949D01*
X101868Y82400D02*
X108660Y89192D01*
Y97028D01*
X108533Y96901D02*
X108660Y97028D01*
X93980Y96901D02*
X108533D01*
X138430Y240030D02*
X138456Y240004D01*
Y215164D02*
Y240004D01*
Y215164D02*
X138482Y215138D01*
X675918Y207470D02*
X678338Y205050D01*
X674624Y208764D02*
X675918Y207470D01*
X678338Y197000D02*
Y205050D01*
X674728Y215900D02*
Y222862D01*
X674624Y215796D02*
X674728Y215900D01*
X674624Y208764D02*
Y215796D01*
X659178Y207470D02*
X675918D01*
X671830Y225760D02*
X674728Y222862D01*
X671830Y225760D02*
Y240030D01*
X665008Y207324D02*
X667838Y204494D01*
Y197000D02*
Y204494D01*
X658936Y207712D02*
X659130Y207518D01*
X659178Y207470D01*
X658936Y207712D02*
Y208176D01*
X651562Y215550D02*
X658936Y208176D01*
X651562Y215550D02*
Y215900D01*
X526946Y197000D02*
X538338D01*
X514096Y184150D02*
X526946Y197000D01*
X637530Y142250D02*
X637540Y142240D01*
X626092Y142250D02*
X637530D01*
X608320Y154930D02*
X608330Y154940D01*
X580390Y143510D02*
X580400Y143500D01*
X418750Y170890D02*
X419100D01*
X580400Y143500D02*
X591838D01*
X626092Y127010D02*
X637530D01*
X637540Y127000D01*
X626092Y110500D02*
X637530D01*
X637540Y110490D01*
X608340Y97800D02*
Y109238D01*
X580390Y127000D02*
X580400Y126990D01*
X580390Y110490D02*
X580395Y110495D01*
X608330Y97790D02*
X608340Y97800D01*
X525801Y59690D02*
X528491Y57000D01*
X538338D01*
X525526Y59690D02*
X525801D01*
X433345Y45720D02*
X436825Y42240D01*
X433070Y45720D02*
X433345D01*
X436825Y42240D02*
X444500D01*
X416560Y36830D02*
X419100Y39370D01*
Y43890D01*
X412182Y164322D02*
X418750Y170890D01*
X411988Y158496D02*
X412182Y158690D01*
Y164322D01*
X230430Y202850D02*
Y203200D01*
X193600Y155860D02*
Y156210D01*
X122174Y215138D02*
X129742D01*
X119126Y218186D02*
X122174Y215138D01*
X169164Y147776D02*
X169418Y147522D01*
Y142515D02*
X172466Y139467D01*
Y139192D02*
Y139467D01*
X169418Y142515D02*
Y147522D01*
X229370Y78880D02*
X235580Y85090D01*
X243840D01*
X229370Y73660D02*
Y78880D01*
X117400Y97028D02*
X123444D01*
X125984Y94488D01*
X135696Y67326D02*
Y73466D01*
X128620Y60250D02*
X135696Y67326D01*
X128270Y60250D02*
X128620D01*
D61*
X643386Y210183D02*
X650518Y203050D01*
Y197319D02*
X650838Y197000D01*
X650518Y197319D02*
Y203050D01*
X643386Y210183D02*
Y215686D01*
X642822Y215900D02*
Y216250D01*
X639393Y219600D02*
Y222937D01*
X641346Y217726D02*
X642822Y216250D01*
X641267Y217726D02*
X641346D01*
X639393Y219600D02*
X641267Y217726D01*
X110501Y47836D02*
X112523Y45815D01*
X105836Y47836D02*
X110501D01*
X104902Y48770D02*
X105836Y47836D01*
X112523Y45815D02*
X113347D01*
X104648Y64260D02*
X105085Y64697D01*
X110281D02*
X113706Y68123D01*
X105085Y64697D02*
X110281D01*
X113706Y68123D02*
X114531D01*
X86106Y212292D02*
X92508D01*
X85852D02*
X86106D01*
X92254Y183948D02*
X95504Y187198D01*
X85852Y183948D02*
X92254D01*
X95504Y187198D02*
Y187452D01*
X92508Y212292D02*
X95758Y209042D01*
X64800Y70900D02*
X75949D01*
X64800Y90400D02*
X67550D01*
X64800Y26400D02*
X67550D01*
X75949Y70900D02*
X78740Y73691D01*
X80845Y75796D01*
X100736D02*
X103172Y73360D01*
X104348Y71884D02*
X104648D01*
X103172Y73060D02*
Y73360D01*
Y73060D02*
X104348Y71884D01*
X80845Y75796D02*
X100736D01*
X91481Y43792D02*
X94032Y46343D01*
X94497D01*
X86360Y43792D02*
X91481D01*
X86360Y69238D02*
X91735D01*
X94679Y66294D01*
X81534Y107442D02*
X82203D01*
X85396Y104249D01*
Y96774D02*
Y104249D01*
X74930Y97780D02*
Y101600D01*
X67550Y90400D02*
X74930Y97780D01*
X73406Y15494D02*
Y20544D01*
X67550Y26400D02*
X73406Y20544D01*
X74422Y154686D02*
Y159228D01*
X67550Y166100D02*
X74422Y159228D01*
X64800Y166100D02*
X67550D01*
X73660Y236210D02*
Y241046D01*
X67550Y230100D02*
X73660Y236210D01*
X64800Y230100D02*
X67550D01*
D62*
X190340Y214735D02*
Y221488D01*
X180340Y214735D02*
Y221488D01*
Y171495D02*
X185037Y166797D01*
Y166370D02*
Y166797D01*
X180340Y171495D02*
Y176425D01*
D63*
X138940Y186482D02*
X140874Y188416D01*
X138940Y185928D02*
Y186482D01*
X140874Y188416D02*
X141428D01*
X144310Y191298D01*
X155186Y190580D02*
X161185D01*
X144310Y191298D02*
X152400D01*
X154468D02*
X155186Y190580D01*
X152400Y191298D02*
X154468D01*
X139148Y199644D02*
X143930Y194862D01*
X155194Y195580D02*
X161185D01*
X154476Y194862D02*
X155194Y195580D01*
X143930Y194862D02*
X152400D01*
X154476D01*
X174748Y14867D02*
Y25138D01*
X192976Y43366D01*
X178312Y23662D02*
X196540Y41890D01*
X178312Y14867D02*
Y23662D01*
X196540Y42001D02*
X199140Y44601D01*
Y48383D01*
X192976Y43366D02*
Y43477D01*
X196540Y41890D02*
Y42001D01*
X192976Y43477D02*
X195576Y46077D01*
X86360Y59071D02*
Y62738D01*
X117209Y60706D02*
X117856D01*
X86360Y59071D02*
X87257Y58174D01*
Y54610D02*
X114677D01*
X79028Y62738D02*
X86360D01*
X114677Y54610D02*
X116709Y52578D01*
X87257Y58174D02*
X114677D01*
X57145Y65900D02*
X75866D01*
X86360Y53713D02*
X87257Y54610D01*
X116709Y52578D02*
X117856D01*
X65104Y50596D02*
X66110Y51602D01*
X56248Y57544D02*
Y65003D01*
X86360Y50292D02*
Y53713D01*
X114677Y58174D02*
X117209Y60706D01*
X193294Y50665D02*
X195576Y48383D01*
Y46077D02*
Y48383D01*
X193294Y50665D02*
Y51562D01*
X201422Y50665D02*
Y51562D01*
X199140Y48383D02*
X201422Y50665D01*
X64876Y190524D02*
X85776D01*
X55626Y204703D02*
X56523Y205600D01*
X64800D01*
X55626Y196497D02*
Y204703D01*
X122559Y191811D02*
X127043D01*
X122502Y195375D02*
X127469D01*
X120199Y197677D02*
X122502Y195375D01*
X119322Y197677D02*
X120199D01*
X127469Y195375D02*
X128366Y196272D01*
Y198218D01*
X119380Y189484D02*
X120233D01*
X122559Y191811D01*
X127043D02*
X128366Y190488D01*
Y198218D02*
X130300Y200152D01*
X128366Y188116D02*
X130300Y186182D01*
X128366Y188116D02*
Y190488D01*
X85852Y190448D02*
Y193802D01*
X81534Y198120D02*
X85852Y193802D01*
X85776Y190524D02*
X85852Y190448D01*
X64800Y200600D02*
X72763D01*
X73660Y199703D01*
Y190593D02*
Y199703D01*
X64800Y190600D02*
X64876Y190524D01*
X86010Y205696D02*
X86106Y205792D01*
X64896Y205696D02*
X86010D01*
X64800Y205600D02*
X64896Y205696D01*
X56523Y195600D02*
X64800D01*
X55626Y196497D02*
X56523Y195600D01*
X86106Y202438D02*
Y205792D01*
Y202438D02*
X90424Y198120D01*
X468899Y114157D02*
X489569D01*
X453644Y129412D02*
X468899Y114157D01*
X73348Y50654D02*
X73406Y50596D01*
X73348Y50654D02*
Y60003D01*
X64558Y56142D02*
X64800Y55900D01*
Y60900D02*
X72451D01*
X65104Y50596D02*
X73406D01*
X72451Y60900D02*
X73348Y60003D01*
X56248Y65003D02*
X57145Y65900D01*
X56248Y57544D02*
X57650Y56142D01*
X64558D01*
X466729Y133223D02*
X469015D01*
X471174Y131064D01*
X464570D02*
X466729Y133223D01*
X475619D02*
X477905D01*
X471174Y131064D02*
X473460D01*
X463804D02*
X464570D01*
X453644Y138176D02*
X460756Y131064D01*
X463804D01*
X473460D02*
X475619Y133223D01*
X480064Y131064D02*
X482092D01*
X489966D01*
X477905Y133223D02*
X480064Y131064D01*
X75866Y65900D02*
X79028Y62738D01*
X489569Y114157D02*
X489966Y114554D01*
X86056Y50596D02*
X86360Y50292D01*
X73406Y50596D02*
X86056D01*
X499495Y121029D02*
X516904D01*
X498598Y120132D02*
X499495Y121029D01*
X498598Y114554D02*
Y120132D01*
X499495Y124593D02*
X518381D01*
X498598Y125490D02*
X499495Y124593D01*
X498598Y125490D02*
Y131064D01*
X507238D02*
X514858D01*
X516965Y120968D02*
X534206D01*
X516904Y121029D02*
X516965Y120968D01*
X518381Y124593D02*
X518441Y124532D01*
X534206D01*
X507238Y114554D02*
X515112D01*
X534206Y124532D02*
X535103Y125429D01*
Y125766D01*
X534206Y120968D02*
X535103Y120071D01*
Y119734D02*
Y120071D01*
Y125766D02*
X536338Y127000D01*
X538338D01*
X535103Y119734D02*
X536338Y118500D01*
X538338D01*
X178312Y14867D02*
X179209Y13970D01*
X189230D01*
X163830D02*
X173851D01*
X174748Y14867D01*
D64*
X215156Y203200D02*
X221690D01*
X212776Y205580D02*
X215156Y203200D01*
X209550Y205580D02*
X212776D01*
D65*
X349250Y127000D02*
D03*
X95250D02*
D03*
Y114300D02*
D03*
D66*
X671830Y13970D02*
D03*
Y240030D02*
D03*
D67*
X646430D02*
D03*
X87630D02*
D03*
X163830D02*
D03*
X189230D02*
D03*
X214630D02*
D03*
X240030D02*
D03*
X265430D02*
D03*
X290830D02*
D03*
X316230D02*
D03*
X341630D02*
D03*
X367030D02*
D03*
X392430D02*
D03*
X417830D02*
D03*
X443230D02*
D03*
X468630D02*
D03*
X494030D02*
D03*
X519430D02*
D03*
X544830D02*
D03*
X570230D02*
D03*
X595630D02*
D03*
X621030D02*
D03*
X138430D02*
D03*
X113030D02*
D03*
X646430Y13970D02*
D03*
X87630D02*
D03*
X621030D02*
D03*
X189230D02*
D03*
X163830D02*
D03*
X214630D02*
D03*
X240030D02*
D03*
X265430D02*
D03*
X290830D02*
D03*
X316230D02*
D03*
X341630D02*
D03*
X367030D02*
D03*
X392430D02*
D03*
X417830D02*
D03*
X443230D02*
D03*
X468630D02*
D03*
X494030D02*
D03*
X570230D02*
D03*
X595630D02*
D03*
X113030D02*
D03*
X138430D02*
D03*
X544830D02*
D03*
X519430D02*
D03*
D68*
X336550Y127000D02*
D03*
D69*
X95250Y139700D02*
D03*
D70*
X239014Y218186D02*
D03*
X464058Y191770D02*
D03*
X200914Y127000D02*
D03*
X639393Y222937D02*
D03*
X631698Y223012D02*
D03*
X378564Y156342D02*
D03*
X190340Y221488D02*
D03*
X388389Y148567D02*
D03*
X221488Y182118D02*
D03*
X210820Y211582D02*
D03*
X143002Y158750D02*
D03*
X137100Y34350D02*
D03*
X187130Y45788D02*
D03*
X230632Y129415D02*
D03*
X128016Y34544D02*
D03*
X151130Y73660D02*
D03*
X143510D02*
D03*
X113347Y45815D02*
D03*
X117856Y60706D02*
D03*
Y52578D02*
D03*
X114531Y68123D02*
D03*
X190727Y185404D02*
D03*
X615696Y224536D02*
D03*
X557530Y71628D02*
D03*
X318135Y179197D02*
D03*
X427990Y203454D02*
D03*
X200660Y151638D02*
D03*
Y137668D02*
D03*
X230632Y143002D02*
D03*
X240284Y160274D02*
D03*
X387350Y113030D02*
D03*
X667094Y67310D02*
D03*
X667270Y101593D02*
D03*
X667258Y110490D02*
D03*
X416560Y208026D02*
D03*
X583184Y185420D02*
D03*
X600202D02*
D03*
X617220D02*
D03*
X566166D02*
D03*
X633838Y185528D02*
D03*
X190500Y205740D02*
D03*
X170180Y205486D02*
D03*
X193294Y51562D02*
D03*
X201422D02*
D03*
X204978Y44196D02*
D03*
X128270Y43180D02*
D03*
X170180Y185420D02*
D03*
X237998Y199390D02*
D03*
X118364Y174752D02*
D03*
X121666Y148844D02*
D03*
X166370Y127000D02*
D03*
X81534Y148844D02*
D03*
X115824Y211582D02*
D03*
X95758Y209042D02*
D03*
X114738Y182812D02*
D03*
X119380Y189484D02*
D03*
X95504Y187452D02*
D03*
X119322Y197677D02*
D03*
X81534Y198120D02*
D03*
X90424D02*
D03*
X453644Y138176D02*
D03*
Y129412D02*
D03*
X388620Y100330D02*
D03*
X320548Y73152D02*
D03*
X481838Y154686D02*
D03*
X514858Y131064D02*
D03*
X464820Y102108D02*
D03*
X524510Y144272D02*
D03*
X474472Y98552D02*
D03*
X522986Y130378D02*
D03*
X523240Y114300D02*
D03*
X530158Y135188D02*
D03*
X515112Y114554D02*
D03*
X505245Y157171D02*
D03*
X94497Y46343D02*
D03*
X94679Y66294D02*
D03*
X81534Y107442D02*
D03*
X74930Y101600D02*
D03*
X73406Y15494D02*
D03*
X74422Y154686D02*
D03*
X73660Y241046D02*
D03*
X667258Y186436D02*
D03*
Y177546D02*
D03*
X667512Y160782D02*
D03*
Y169418D02*
D03*
Y135636D02*
D03*
Y152908D02*
D03*
Y144526D02*
D03*
X659130Y207518D02*
D03*
Y186690D02*
D03*
X637540Y142240D02*
D03*
X608330Y154940D02*
D03*
X514096Y184150D02*
D03*
X600202Y135128D02*
D03*
X580390Y143510D02*
D03*
X667856Y127344D02*
D03*
X667512Y119126D02*
D03*
X667348Y93054D02*
D03*
Y84672D02*
D03*
X672084Y42672D02*
D03*
X666750Y76200D02*
D03*
X650838Y66712D02*
D03*
X637540Y127000D02*
D03*
X616712Y135128D02*
D03*
Y118618D02*
D03*
X637540Y110490D02*
D03*
X599948Y118618D02*
D03*
X580390Y127000D02*
D03*
Y110490D02*
D03*
X642366Y67310D02*
D03*
X608330Y97790D02*
D03*
X525526Y59690D02*
D03*
X433070Y45720D02*
D03*
X416560Y36830D02*
D03*
X411988Y158496D02*
D03*
X274320Y119380D02*
D03*
X264160D02*
D03*
X284480D02*
D03*
X245872D02*
D03*
X254000D02*
D03*
X180340Y221488D02*
D03*
X119126Y218186D02*
D03*
X185037Y166370D02*
D03*
X172466Y139192D02*
D03*
X284480Y102870D02*
D03*
Y85090D02*
D03*
X274320Y102870D02*
D03*
X264160D02*
D03*
X254000Y85090D02*
D03*
Y102870D02*
D03*
X243840D02*
D03*
Y85090D02*
D03*
X264160D02*
D03*
X274320D02*
D03*
X135890Y73660D02*
D03*
X125984Y94488D02*
D03*
X625094Y67818D02*
D03*
X633976Y80510D02*
D03*
X616958D02*
D03*
X508000Y98298D02*
D03*
X608330Y67818D02*
D03*
X498094Y98298D02*
D03*
X574294Y67818D02*
D03*
X487934Y78232D02*
D03*
X497840Y180594D02*
D03*
X498094Y164084D02*
D03*
X505714Y170942D02*
D03*
X508008Y75938D02*
D03*
X625094Y172974D02*
D03*
X608338Y172728D02*
D03*
X591320D02*
D03*
X574302D02*
D03*
X557284D02*
D03*
X548894Y183933D02*
D03*
Y80518D02*
D03*
X565904Y80510D02*
D03*
X582922D02*
D03*
X591312Y67818D02*
D03*
X599940Y80510D02*
D03*
M02*
