M48
;Layer_Color=9474304
;FILE_FORMAT=2:5
INCH,LZ
;TYPE=PLATED
T01F00S00C0.01200
T03F00S00C0.02800
T04F00S00C0.04000
%
T01
X00289Y00061
X0037203Y0018245
X0044625Y0018037
X00464Y00207
Y00239
X0045091Y002682
X0037275Y00261
X00535Y0029
X00565
X00595
X00496Y00372
X00505Y0017
X00504Y00136
X0053977Y0013523
X0073673Y0018027
X00761Y00203
X00793
X00807Y00174
X00791Y005
X0079Y00542
Y00597
X0072849Y00655
X0075089Y0072994
X0075Y0081
X0074937Y00872
X0071
X0067Y00809
Y0073
X00679Y00548
X00655Y005
X00563Y00625
X00479Y00586
X00466Y00688
X0045173Y0071973
X0047Y00746
X0046977Y0077826
X00456Y00833
X00469Y00859
X00377Y00823
X00356Y0078
X00321
X00376Y00738
X00321Y00586
X00293Y00609
X00295Y004
X00321Y00423
X00908Y0050951
Y00563
X00872Y00717
X00937Y00785
X0083Y00833
X00941Y00859
X00946Y00631
X00968Y0047
X01
X0104
X0108
X0112
Y00405
X0108
X0104
X01
X0096
Y00335
X01
X0104
X0108
X0112
X01262Y00288
X0153Y00395
X01525Y00445
X0152909Y0058491
X0149041Y0061552
X01622Y00624
X0164Y00819
X01685Y00801
X01827Y00755
X0196Y00711
X01961Y00646
X0198915Y0061878
X01991Y00673
X02024Y00725
X02161Y0072414
X02229Y0073
X02296
X02363
X0243
X0249542Y0073042
X02461Y00681
X0239503Y0068003
X0232803
X0226103
X0219403
X02285Y00565
Y005
Y00435
X02362Y00467
X02363Y00532
X02428
Y00467
X02395Y00385
X0236197Y0031697
X0242897
X0249597
X02461Y00267
X02395
X02328
X02261
X02195Y00282
X0222797Y0031697
X02161Y00317
X0229497Y0031697
X02069Y00235
X0200003Y0029897
X02Y00387
X01961
X01868Y00388
X0183Y00402
X01786Y005095
Y00544
X01897Y00609
X02065Y00568
X0208724Y0053224
X02059Y005133
X02027Y00516
X02028Y00451
X0206Y0045
X01921Y00308
X01705Y0018
X0164Y00145
X012525Y007055
X02395Y0061
X02424Y00884
X02487Y00878
X025173Y008777
X02595Y00817
Y00735
X02627Y00734
Y00699
X02628Y00667
Y00633
Y00602
Y00569
Y00534
X0262935Y0050135
X02628Y00469
X02627Y00435
X0262704Y0039997
X0262735Y0036635
Y0033335
X02625Y003
X0262635Y00265
X0256235Y0026265
X02529Y00265
X0251Y00435
Y005
Y0056
X02646Y00168
X0029Y00949
T03
X00375Y0045
Y005
Y0055
X01325Y005
X01375
T04
X00345Y00055
X00445
X00545
X00645
X00745
X00845
X00945
X01045
X01145
X01245
X01345
X01445
X01545
X01645
X01745
X01845
X01945
X02045
X02145
X02245
X02345
X02445
X02545
X02645
Y00945
X02545
X02445
X02345
X02245
X02145
X02045
X01945
X01845
X01745
X01645
X01545
X01445
X01345
X01245
X01145
X01045
X00945
X00845
X00745
X00645
X00545
X00445
X00345
M30
